<?xml version="1.0" standalone="no"?>
<!DOCTYPE svg PUBLIC "-//W3C//DTD SVG 1.1//EN" "http://www.w3.org/Graphics/SVG/1.1/DTD/svg11.dtd" >
<svg>
<metadata>
Created by FontForge 20090914 at Sat Oct 17 11:32:57 2015
 By www-data
Copyright (c) 2010 by Aakash Soneri. All rights reserved.
</metadata>
<defs>
<font id="AccordAltRegular" horiz-adv-x="1042" >
  <font-face 
    font-family="AccordAltRegular"
    font-weight="400"
    font-stretch="normal"
    units-per-em="2048"
    panose-1="2 0 0 0 0 0 0 0 0 0"
    ascent="1536"
    descent="-512"
    x-height="1024"
    cap-height="1331"
    bbox="-170 -512.137 2150 1858"
    underline-thickness="102"
    underline-position="-102"
    unicode-range="U+000D-U+FB02"
  />
<missing-glyph horiz-adv-x="748" 
d="M68 0v1365h544v-1365h-544zM136 68h408v1229h-408v-1229z" />
    <glyph glyph-name=".notdef" horiz-adv-x="748" 
d="M68 0v1365h544v-1365h-544zM136 68h408v1229h-408v-1229z" />
    <glyph glyph-name="glyph1" horiz-adv-x="2048" 
 />
    <glyph glyph-name="glyph1" horiz-adv-x="2048" 
 />
    <glyph glyph-name="uni000D" unicode="&#xd;" horiz-adv-x="2048" 
 />
    <glyph glyph-name="space" unicode=" " horiz-adv-x="417" 
 />
    <glyph glyph-name="exclam" unicode="!" horiz-adv-x="610" 
d="M188 98c0 33.333 11.333 61.168 34 83.501s50.334 33.5 83.001 33.5c32 0 59.167 -11.333 81.5 -34s33.5 -50.334 33.5 -83.001c0 -31.333 -11.333 -58.166 -34 -80.499s-49.667 -33.5 -81 -33.5c-32.667 0 -60.334 11.167 -83.001 33.5s-34 49.166 -34 80.499z
M223 834.002v497h168v-497c0 -55.333 -4 -138.833 -12 -250.5s-12 -194.834 -12 -249.501h-121c0 54.667 -3.83301 137.834 -11.5 249.501s-11.5 195.167 -11.5 250.5z" />
    <glyph glyph-name="quotedbl" unicode="&#x22;" horiz-adv-x="587" 
d="M96 1481h125l-4 -428h-119zM367 1481h125l-3 -428h-118z" />
    <glyph glyph-name="numbersign" unicode="#" horiz-adv-x="1447" 
d="M4 332v133h313l109 434h-330v131h363l82 318h149l-82 -318h422l82 318h150l-82 -318h260v-131h-293l-109 -434h310v-133h-344l-84 -332h-148l82 332h-422l-84 -332h-147l82 332h-279zM467 465h422l108 434h-422z" />
    <glyph glyph-name="dollar" unicode="$" horiz-adv-x="985" 
d="M55 88l50.9893 159.998c54.667 -38.667 119.334 -66.834 194.001 -84.501s145.334 -23.5 212.001 -17.5s123.334 27 170.001 63s70 84.333 70 145c0 40.667 -12.5 75.667 -37.5 105s-57.333 52.833 -97 70.5s-83.5 34.167 -131.5 49.5s-96 33 -144 53
s-91.833 43.5 -131.5 70.5s-72 64.333 -97 112s-37.5 103.834 -37.5 168.501c0 100.667 29.667 180.334 89 239.001s136.666 97 231.999 115v314h164v-305c130 -8.66699 238.667 -43.667 326 -105l-51 -160c-38.667 30 -84 54.333 -136 73s-103.5 29.167 -154.5 31.5
s-98.667 -2.16699 -143 -13.5s-80.166 -32.666 -107.499 -63.999s-41 -70.333 -41 -117c0 -31.333 6.33301 -59.5 19 -84.5s29.834 -45.667 51.501 -62s46.834 -31.833 75.501 -46.5s59.334 -27 92.001 -37s66 -21.333 100 -34l100 -38
c32.667 -12.667 63.334 -28.834 92.001 -48.501s53.834 -41.5 75.501 -65.5s38.834 -54 51.501 -90s19 -76 19 -120c0 -56.667 -9.83301 -107.667 -29.5 -153s-46.667 -83.166 -81 -113.499s-73.166 -54.833 -116.499 -73.5s-90.666 -31.667 -141.999 -39v-305h-164v301
c-138.667 8.66699 -252.667 44 -342 106z" />
    <glyph glyph-name="percent" unicode="%" horiz-adv-x="2095" 
d="M113 895c0 148.667 31.833 261.667 95.5 339s150.5 116 260.5 116c111.333 0 198.5 -38.5 261.5 -115.5s94.5 -190.167 94.5 -339.5c0 -150 -31.5 -263.333 -94.5 -340s-150.167 -115 -261.5 -115c-110 0 -196.833 38.5 -260.5 115.5s-95.5 190.167 -95.5 339.5zM285 895
c0 -108 14.998 -183.833 44.998 -227.5s76.333 -65.5 139 -65.5s109.334 21.833 140.001 65.5s46 119.5 46 227.5c0 102 -15.667 176.333 -47 223s-77.666 70 -138.999 70s-107.333 -23.333 -138 -70s-46 -121 -46 -223zM605.998 0l692 1331h191l-694 -1331h-189zM1268 436
c0 148.667 31.833 261.667 95.5 339s150.5 116 260.5 116c112 0 199.333 -38.5 262 -115.5s94 -190.167 94 -339.5c0 -150 -31.333 -263.167 -94 -339.5s-150 -114.5 -262 -114.5c-110 0 -196.833 38.333 -260.5 115s-95.5 189.667 -95.5 339zM1440 436
c0 -108 14.998 -183.833 44.998 -227.5s76.333 -65.5 139 -65.5s109.334 21.833 140.001 65.5s46 119.5 46 227.5c0 102 -15.667 176.333 -47 223s-77.666 70 -138.999 70s-107.333 -23.333 -138 -70s-46 -121 -46 -223z" />
    <glyph glyph-name="ampersand" unicode="&#x26;" horiz-adv-x="1214" 
d="M76 371c0 165.333 77.0049 278 231.005 338c-67.333 29.333 -115.166 69 -143.499 119s-42.5 110.667 -42.5 182c0 97.333 40.167 178.333 120.5 243s180.166 97 299.499 97c117.333 0 221.666 -25.333 312.999 -76l-72 -146c-76 38.667 -157 58 -243 58
c-70.667 0 -128.334 -18.333 -173.001 -55s-67 -82.667 -67 -138c0 -29.333 3.83301 -56.166 11.5 -80.499s20.167 -47.166 37.5 -68.499s42.666 -38 75.999 -50s73 -18 119 -18h284v232h179v-232h200v-145h-200v-168c0 -72 -8.33301 -136 -25 -192s-39 -102 -67 -138
s-62.167 -65.667 -102.5 -89s-82.5 -39.833 -126.5 -49.5s-92 -14.5 -144 -14.5c-44 0 -87.5 4.66699 -130.5 14s-84.833 24.166 -125.5 44.499s-76.334 45.333 -107.001 75s-55.334 66.667 -74.001 111s-28 93.166 -28 146.499zM256.005 381
c0 -43.333 8.66602 -81.1689 25.999 -113.502s40.5 -57.333 69.5 -75s59.333 -30.667 91 -39s64.5 -12.5 98.5 -12.5c30 0 57.333 2.16699 82 6.5s50.167 13.333 76.5 27s48.333 31.834 66 54.501s32.334 53.834 44.001 93.501s17.5 86.5 17.5 140.5v168h-284
c-84.667 0 -153.667 -21.667 -207 -65s-80 -105 -80 -185z" />
    <glyph glyph-name="quotesingle" unicode="'" horiz-adv-x="319" 
d="M96 1481h127l-4 -428h-121z" />
    <glyph glyph-name="parenleft" unicode="(" horiz-adv-x="747" 
d="M117 512c0 212 35.333 401.667 106 569s182 319 334 455l105 -94c-125.333 -98.667 -224.333 -227 -297 -385s-109 -339.667 -109 -545c0 -206 36.333 -387.5 109 -544.5s171.667 -285.5 297 -385.5l-105 -94c-152 136 -263.333 287.667 -334 455s-106 357 -106 569z" />
    <glyph glyph-name="parenright" unicode=")" horiz-adv-x="747" 
d="M86 -418c125.333 100 224.333 228.5 297 385.5s109 338.5 109 544.5c0 205.333 -36.5 386.833 -109.5 544.5s-171.833 286.167 -296.5 385.5l102 94c152.667 -136 264.334 -287.667 335.001 -455s106 -357 106 -569s-35.333 -401.667 -106 -569
s-182.334 -319 -335.001 -455z" />
    <glyph glyph-name="asterisk" unicode="*" horiz-adv-x="964" 
d="M94 1188l41 127l287 -103l-8 306h135l-8 -308l288 105l41 -127l-292 -90l186 -240l-109 -80l-174 252l-172 -250l-110 78l186 242z" />
    <glyph glyph-name="plus" unicode="+" horiz-adv-x="1282" 
d="M98 590v153h459v437h166v-437h461v-153h-461v-434h-166v434h-459z" />
    <glyph glyph-name="comma" unicode="," horiz-adv-x="442" 
d="M80 -270c33.333 30 61.499 68.167 84.499 114.5s35.833 92.833 38.5 139.5c-33.333 0.666992 -60.5 12 -81.5 34s-31.5 48.667 -31.5 80c0 32 11.333 59.167 34 81.5s50.334 33.5 83.001 33.5c44.667 0 76.5 -17.5 95.5 -52.5s27.5 -78.167 25.5 -129.5
c-1.33301 -26 -5.33301 -54 -12 -84s-16.834 -62.167 -30.501 -96.5s-33.167 -67.333 -58.5 -99s-54.666 -57.5 -87.999 -77.5z" />
    <glyph glyph-name="hyphen" unicode="-" horiz-adv-x="706" 
d="M49 434v154h606v-154h-606z" />
    <glyph glyph-name="period" unicode="." horiz-adv-x="452" 
d="M111 98c0 31.333 11.166 58.333 33.499 81s49.166 34 80.499 34c32.667 0 60.334 -11.167 83.001 -33.5s34 -49.5 34 -81.5c0 -32.667 -11.167 -60.167 -33.5 -82.5s-50.166 -33.5 -83.499 -33.5c-32 0 -59 11.167 -81 33.5s-33 49.833 -33 82.5z" />
    <glyph glyph-name="slash" unicode="/" horiz-adv-x="622" 
d="M-16 -61l512 1597h141l-514 -1597h-139z" />
    <glyph glyph-name="zero" unicode="0" horiz-adv-x="1097" 
d="M74 631v69c0 224 41.333 388.333 124 493s199.667 157 351 157c315.333 0 473 -216.667 473 -650v-69c0 -432.667 -157.667 -649 -473 -649c-316.667 0 -475 216.333 -475 649zM252 631c0 -72.667 4.66699 -136.83 14 -192.497s22.166 -102 38.499 -139s37 -67 62 -90
s52.333 -39.5 82 -49.5s63.167 -15 100.5 -15c46.667 0 87.334 8.16699 122.001 24.5s65.334 42.666 92.001 78.999s46.834 86.5 60.501 150.5s20.5 141.333 20.5 232v69c0 90.667 -6.83301 168 -20.5 232s-33.834 114.167 -60.501 150.5s-57.334 62.666 -92.001 78.999
s-75.334 24.5 -122.001 24.5c-37.333 0 -70.833 -5 -100.5 -15s-57 -26.5 -82 -49.5s-45.667 -53 -62 -90s-29.166 -83.333 -38.499 -139s-14 -119.834 -14 -192.501v-69z" />
    <glyph glyph-name="one" unicode="1" horiz-adv-x="571" 
d="M8 1167v164h449v-1331h-176v1167h-273z" />
    <glyph glyph-name="two" unicode="2" horiz-adv-x="935" 
d="M33 1237c113.333 75.333 244.335 113 393.002 113c60 0 117 -9.16699 171 -27.5s102.333 -44.833 145 -79.5s76.5 -79.167 101.5 -133.5s37.5 -114.833 37.5 -181.5c0 -32 -3.33301 -63.5 -10 -94.5s-17.334 -61.667 -32.001 -92s-29.667 -58.666 -45 -84.999
s-36.333 -55 -63 -86l-71.5 -80.5c-21 -22.667 -49 -50.167 -84 -82.5l-87 -79l-94.5 -83l-93 -81.5h580v-164h-842v164l156 135.5l144.5 124l120 107c44.333 40.333 79 75.166 104 104.499s49.333 61 73 95s40.5 67.167 50.5 99.5s15 65.166 15 98.499
c0 46.667 -9 88.834 -27 126.501s-48.333 69 -91 94s-95.334 37.5 -158.001 37.5c-64 0 -126.5 -10.167 -187.5 -30.5s-112.5 -45.833 -154.5 -76.5z" />
    <glyph glyph-name="three" unicode="3" horiz-adv-x="958" 
d="M39 94l52.999 160.001c43.333 -32 94.833 -58.167 154.5 -78.5s120.834 -30.5 183.501 -30.5c100 0 172.167 19.667 216.5 59s66.5 99.666 66.5 180.999c0 67.333 -24 123.5 -72 168.5s-121 67.5 -219 67.5h-78v153h78c180 0 270 67.667 270 203
c0 67.333 -20.167 119 -60.5 155s-107.5 54 -201.5 54c-112 0 -217.667 -35 -317 -105l-54 160c39.333 22 73.5 39.667 102.5 53s68 26 117 38s99.5 18 151.5 18c142 0 250.833 -33.5 326.5 -100.5s113.5 -157.833 113.5 -272.5c0 -67.333 -16.5 -124.833 -49.5 -172.5
s-77.167 -85.167 -132.5 -112.5c60 -29.333 108.833 -69.833 146.5 -121.5s56.5 -113.5 56.5 -185.5c0 -127.333 -40.333 -226.333 -121 -297s-194 -106 -340 -106c-81.333 0 -151.833 9.66699 -211.5 29s-119.5 47 -179.5 83z" />
    <glyph glyph-name="four" unicode="4" horiz-adv-x="1048" 
d="M78 307v164l387 860h186l-387 -860h524v533h177v-1004h-177v307h-710z" />
    <glyph glyph-name="five" unicode="5" horiz-adv-x="974" 
d="M53 94l50.9971 156.002c100 -70 213.333 -105 340 -105c103.333 0 178.666 21.167 225.999 63.5s71 103.833 71 184.5c0 41.333 -5.33301 76.666 -16 105.999s-26.167 53.5 -46.5 72.5s-47.666 33.833 -81.999 44.5s-72.166 18.167 -113.499 22.5
s-91.666 6.5 -150.999 6.5h-223v686h770v-164h-594v-358h131c162 0 286.5 -35.667 373.5 -107s130.5 -172.333 130.5 -303c0 -136.667 -42.333 -240.334 -127 -311.001s-198 -106 -340 -106c-85.333 0 -157.166 8.16699 -215.499 24.5s-119.833 45.5 -184.5 87.5z" />
    <glyph glyph-name="six" unicode="6" horiz-adv-x="1030" 
d="M76 641c0 237.333 41 414.835 123 532.502s211 176.5 387 176.5c144 0 269.667 -38.333 377 -115l-52 -156c-96.667 71.333 -207 107 -331 107c-110.667 0 -192 -38 -244 -114s-78 -180.667 -78 -314c86 39.333 183.667 59 293 59c80.667 0 152.167 -14 214.5 -42
s112.5 -72.667 150.5 -134s57 -136.333 57 -225c0 -74 -10.667 -139.333 -32 -196s-50.833 -102 -88.5 -136s-81 -59.5 -130 -76.5s-102.833 -25.5 -161.5 -25.5c-76 0 -142.5 11.333 -199.5 34s-103.5 53.167 -139.5 91.5s-65 86.166 -87 143.499
s-37.333 117.166 -46 179.499s-13 132.5 -13 210.5zM258 598.002c0 -56.667 2.49805 -106.669 7.49805 -150.002s14 -84.666 27 -123.999s30.5 -71.666 52.5 -96.999s50.833 -45.333 86.5 -60s77.5 -22 125.5 -22c70.667 0 128.334 22 173.001 66s67 112.333 67 205
c0 44 -7.16699 82.667 -21.5 116s-33.666 59.5 -57.999 78.5s-50.833 33 -79.5 42s-59 13.5 -91 13.5c-53.333 0 -102 -5 -146 -15s-91.667 -27.667 -143 -53z" />
    <glyph glyph-name="seven" unicode="7" horiz-adv-x="942" 
d="M33 1167v164h876v-164l-547 -1167h-188l547 1167h-688z" />
    <glyph glyph-name="eight" unicode="8" horiz-adv-x="1062" 
d="M57 383c0 74 19.1699 140.332 57.5029 198.999s91.5 101.667 159.5 129c-114.667 58.667 -172 153.334 -172 284.001c0 97.333 39.833 180.833 119.5 250.5s182.5 104.5 308.5 104.5s228.833 -35 308.5 -105s119.5 -153.333 119.5 -250
c0 -131.333 -56.667 -226 -170 -284c68 -27.333 121 -70.333 159 -129s57 -125 57 -199c0 -54 -10.5 -105.167 -31.5 -153.5s-51 -90.833 -90 -127.5s-88.833 -65.834 -149.5 -87.501s-128.334 -32.5 -203.001 -32.5s-142.334 10.833 -203.001 32.5
s-110.334 50.834 -149.001 87.501s-68.5 79.167 -89.5 127.5s-31.5 99.5 -31.5 153.5zM236.003 392.999c0 -76.667 25.832 -137.5 77.499 -182.5s123.834 -67.5 216.501 -67.5s165 22.5 217 67.5s78 105.833 78 182.5c0 72 -26.167 130 -78.5 174s-124.5 66 -216.5 66
s-164 -22 -216 -66s-78 -102 -78 -174zM281.002 974.999c0 -62 21.835 -110.667 65.502 -146s104.834 -53 183.501 -53c79.333 0 141.166 17.667 185.499 53s66.5 84 66.5 146c0 57.333 -21.833 106.833 -65.5 148.5s-105.834 62.5 -186.501 62.5
s-142.334 -20.667 -185.001 -62s-64 -91 -64 -149z" />
    <glyph glyph-name="nine" unicode="9" horiz-adv-x="1030" 
d="M55 913c0 74 10.666 139.503 31.999 196.503s50.833 102.667 88.5 137s81 60.166 130 77.499s102.833 26 161.5 26c76 0 142.5 -11.333 199.5 -34s103.5 -53.334 139.5 -92.001s65 -86.667 87 -144s37.333 -117.166 46 -179.499s13 -132.5 13 -210.5
c0 -238.667 -40.833 -416.334 -122.5 -533.001s-212.167 -175 -391.5 -175c-143.333 0 -267.333 37.333 -372 112l51 158c43.333 -32.667 93.833 -58.667 151.5 -78s116.167 -29 175.5 -29c112.667 0 195.167 38 247.5 114s78.5 181.333 78.5 316
c-84 -39.333 -181.667 -59 -293 -59c-59.333 0 -114.166 8.16699 -164.499 24.5s-94.833 40.5 -133.5 72.5s-69 73.667 -91 125s-33 109.666 -33 174.999zM232.999 913.003c0 -44 6.99805 -82.3301 20.998 -114.997s33 -58.334 57 -77.001s50.333 -32.5 79 -41.5
s59 -13.5 91 -13.5c54.667 0 103.834 4.83301 147.501 14.5s90.834 27.167 141.501 52.5c0 56 -2.5 105.667 -7.5 149s-14 84.666 -27 123.999s-30.5 71.666 -52.5 96.999s-50.833 45.5 -86.5 60.5s-77.5 22.5 -125.5 22.5c-70 0 -127.167 -22 -171.5 -66
s-66.5 -113 -66.5 -207z" />
    <glyph glyph-name="colon" unicode=":" horiz-adv-x="452" 
d="M111 98c0 31.333 11.166 58.333 33.499 81s49.166 34 80.499 34c32.667 0 60.334 -11.167 83.001 -33.5s34 -49.5 34 -81.5c0 -32.667 -11.167 -60.167 -33.5 -82.5s-50.166 -33.5 -83.499 -33.5c-32 0 -59 11.167 -81 33.5s-33 49.833 -33 82.5zM110.999 926
c0 31.333 11.167 58.165 33.5 80.498s49.166 33.5 80.499 33.5c32.667 0 60.334 -11.167 83.001 -33.5s34 -49.166 34 -80.499c0 -32 -11.333 -59.5 -34 -82.5s-50.334 -34.5 -83.001 -34.5c-31.333 0 -58.166 11.333 -80.499 34s-33.5 50.334 -33.5 83.001z" />
    <glyph glyph-name="semicolon" unicode=";" horiz-adv-x="450" 
d="M96 -270c33.333 30 61.334 68.333 84.001 115s35 93 37 139c-32.667 0.666992 -59.334 12 -80.001 34s-31 48.667 -31 80s11.333 58.333 34 81s49.667 34 81 34c44 0 75.833 -17.5 95.5 -52.5s28.834 -78.167 27.501 -129.5c-1.33301 -26 -5.33301 -54 -12 -84
s-16.834 -62.167 -30.501 -96.5s-33.167 -67.333 -58.5 -99s-55 -57.5 -89 -77.5zM106.001 926c0 31.333 11.333 58.165 34 80.498s49.667 33.5 81 33.5c32.667 0 60.334 -11.167 83.001 -33.5s34 -49.166 34 -80.499c0 -32 -11.333 -59.5 -34 -82.5
s-50.334 -34.5 -83.001 -34.5c-32 0 -59.167 11.333 -81.5 34s-33.5 50.334 -33.5 83.001z" />
    <glyph glyph-name="less" unicode="&#x3c;" horiz-adv-x="1146" 
d="M84 616v93l977 538v-151l-787 -432l787 -433v-149z" />
    <glyph glyph-name="equal" unicode="=" horiz-adv-x="1169" 
d="M98 365v122h973v-122h-973zM98 846v123h973v-123h-973z" />
    <glyph glyph-name="greater" unicode="&#x3e;" horiz-adv-x="1146" 
d="M84 82v149l788 433l-788 432v151l977 -538v-93z" />
    <glyph glyph-name="question" unicode="?" horiz-adv-x="954" 
d="M86 1290c95.333 40 211.335 59.998 348.002 59.998c129.333 0 235.5 -33.667 318.5 -101s124.5 -161.333 124.5 -282c0 -43.333 -7.33301 -84.166 -22 -122.499s-30.334 -69.166 -47.001 -92.499s-42.667 -48.333 -78 -75s-61.666 -45 -78.999 -55s-46 -25.333 -86 -46
l-28 -15c-52 -31.333 -91 -63.166 -117 -95.499s-39 -71.5 -39 -117.5h-176c0 136 78.333 251.333 235 346c13.333 8 33.166 19 59.499 33l61.5 33.5c14.667 8.33301 32.167 20.166 52.5 35.499s35.833 30.333 46.5 45s20 32.834 28 54.501s12 45.5 12 71.5
c0 71.333 -24.167 125.666 -72.5 162.999s-112.833 56 -193.5 56c-58 0 -114.333 -5 -169 -15s-97.334 -22.667 -128.001 -38zM176.002 97.998c0 33.333 11.333 61.168 34 83.501s50.334 33.5 83.001 33.5c32 0 59.167 -11.333 81.5 -34s33.5 -50.334 33.5 -83.001
c0 -31.333 -11.333 -58.166 -34 -80.499s-49.667 -33.5 -81 -33.5c-32.667 0 -60.334 11.167 -83.001 33.5s-34 49.166 -34 80.499z" />
    <glyph glyph-name="at" unicode="@" horiz-adv-x="2299" 
d="M147 535c1.33301 320.667 85.665 567.66 252.998 740.993s410.666 260 729.999 260c120.667 0 231 -9.5 331 -28.5s193.333 -50.667 280 -95s159.667 -100.5 219 -168.5s105.833 -153.333 139.499 -256c33.667 -102.667 50.5 -219.667 50.5 -351
c0 -71.333 -3.66699 -137.5 -11 -198.5s-20.5 -120.667 -39.5 -179s-43.5 -108 -73.5 -149s-69.167 -73.833 -117.5 -98.5s-104.166 -37 -167.499 -37c-149.333 0 -243 66.333 -281 199c-21.333 -57.333 -61.833 -104.833 -121.5 -142.5s-134.5 -56.5 -224.5 -56.5
c-282.667 0 -424 179.667 -424 539c0 50 4.33301 98.333 13 145s24.5 94 47.5 142s52.333 89.833 88 125.5s82.667 64.667 141 87s124.5 33.5 198.5 33.5c76.667 0 148.834 -11.5 216.501 -34.5s123.167 -48.5 166.5 -76.5v-578c0 -91.333 14 -157.166 42 -197.499
s74 -60.5 138 -60.5c44 0 82.5 10.333 115.5 31s59.167 47.334 78.5 80.001s35 73.167 47 121.5s20.167 96.666 24.5 144.999s6.5 101.5 6.5 159.5c0 115.333 -14.5 217.5 -43.5 306.5s-69 162.667 -120 221s-114 106.166 -189 143.499s-155.667 63.833 -242 79.5
s-182.5 23.5 -288.5 23.5c-130.667 0 -247.167 -17.167 -349.5 -51.5s-190.666 -86.666 -264.999 -156.999s-131 -161.666 -170 -273.999s-58.5 -243.5 -58.5 -393.5c0 -138 15.333 -260.333 46 -367s72 -194.167 124 -262.5s115.333 -124.666 190 -168.999
s152.834 -75.666 234.501 -93.999s170.834 -28.166 267.501 -29.499c82.667 -0.666992 162.5 2.33301 239.5 9s147.667 16.834 212 30.501s113.666 25 147.999 34s73.5 20.5 117.5 34.5l39 -124c-250.667 -75.333 -502.667 -111.666 -756 -108.999
c-94 1.33301 -182.5 10.333 -265.5 27s-162.5 42 -238.5 76s-144 78.833 -204 134.5s-112.167 121.167 -156.5 196.5s-78.333 165 -102 269s-35.5 218.667 -35.5 344zM828.999 503.993c0 -20.667 0.167969 -37.0029 0.500977 -49.0029s1.33301 -30.167 3 -54.5
s4 -44.5 7 -60.5s7.83301 -35.333 14.5 -58s14.5 -41.667 23.5 -57s20.833 -31.666 35.5 -48.999s31.167 -31 49.5 -41s40.5 -18.333 66.5 -25s54.333 -10 85 -10c206 0 309 125 309 375v375c-72.667 48 -154.334 72 -245.001 72c-66 0 -122.667 -11.667 -170 -35
s-83.5 -55.166 -108.5 -95.499s-43 -83.166 -54 -128.499s-16.5 -95 -16.5 -149v-10z" />
    <glyph glyph-name="A" unicode="A" horiz-adv-x="1193" 
d="M0 0l506 1331h182l506 -1331h-180l-131 344h-572l-131 -344h-180zM371 508h450l-225 594z" />
    <glyph glyph-name="B" unicode="B" horiz-adv-x="1157" 
d="M113 0l0.000976562 1331h460c163.333 0 283.833 -32.833 361.5 -98.5s116.5 -152.834 116.5 -261.501c0 -61.333 -14.833 -116.5 -44.5 -165.5s-75.167 -88.167 -136.5 -117.5c75.333 -28.667 131.166 -70.167 167.499 -124.5s54.5 -117.833 54.5 -190.5
c0 -114 -39.667 -204.667 -119 -272s-202.333 -101 -369 -101h-491zM291.001 164.001h313c110 0 189 19 237 57s72 92 72 162c0 147.333 -103 221 -309 221h-313v-440zM291.001 758.001h282c104.667 0 180.667 18.5 228 55.5s71 86.167 71 147.5
c0 137.333 -99.667 206 -299 206h-282v-409z" />
    <glyph glyph-name="C" unicode="C" horiz-adv-x="1056" 
d="M76 600v130.999c0 106.667 13.833 200.167 41.5 280.5s66.834 144.833 117.501 193.5s109.5 85 176.5 109s142.167 36 225.5 36c78 0 146.5 -9.66699 205.5 -29s118.167 -46 177.5 -80l-51 -160c-43.333 28.667 -95.333 53.334 -156 74.001s-119.334 31 -176.001 31
c-255.333 0 -383 -151.667 -383 -455v-131c0 -304.667 127.667 -457 383 -457c65.333 0 129.833 11.333 193.5 34s109.834 47 138.501 73l51 -160c-108 -73.333 -235.667 -110 -383 -110c-83.333 0 -158.5 11.833 -225.5 35.5s-125.833 59.667 -176.5 108
s-89.834 112.833 -117.501 193.5s-41.5 175 -41.5 283z" />
    <glyph glyph-name="D" unicode="D" horiz-adv-x="1146" 
d="M113 0v1331h407c84.667 0 160 -11.167 226 -33.5s123.667 -56.666 173 -102.999s87 -107.833 113 -184.5s39 -167 39 -271v-147c0 -104 -13 -194.5 -39 -271.5s-63.667 -138.667 -113 -185s-107 -80.5 -173 -102.5s-141.333 -33 -226 -33h-407zM291 163.999h229
c122.667 0 215.5 33 278.5 99s94.5 175.667 94.5 329v147c0 152.667 -31.667 262.167 -95 328.5s-156 99.5 -278 99.5h-229v-1003z" />
    <glyph glyph-name="E" unicode="E" horiz-adv-x="1028" 
d="M113 0v1331h876v-164h-698v-385h616v-164h-616v-454h698v-164h-876z" />
    <glyph glyph-name="F" unicode="F" horiz-adv-x="999" 
d="M113 0v1331h866v-164h-688v-385h606v-164h-606v-618h-178z" />
    <glyph glyph-name="G" unicode="G" horiz-adv-x="1126" 
d="M76 600l0.00195312 130.997c0 106.667 14 200.167 42 280.5s67.833 144.833 119.5 193.5s111.667 85 180 109s144.833 36 229.5 36c55.333 0 109 -6.16699 161 -18.5s92.167 -24.666 120.5 -36.999s65.5 -30.166 111.5 -53.499l-51 -160
c-44.667 28.667 -98.334 53.334 -161.001 74.001s-123 31 -181 31c-262 0 -393 -151.667 -393 -455v-131c0 -304.667 131 -457 393 -457c82.667 0 157.667 14.333 225 43v379h-272v154h451v-623c-120.667 -77.333 -255.334 -116 -404.001 -116
c-85.333 0 -162 11.833 -230 35.5s-127.833 59.667 -179.5 108s-91.5 112.833 -119.5 193.5s-42 175 -42 283z" />
    <glyph glyph-name="H" unicode="H" horiz-adv-x="1183" 
d="M113 0v1331h178v-549h602v549h178v-1331h-178v618h-602v-618h-178z" />
    <glyph glyph-name="I" unicode="I" horiz-adv-x="403" 
d="M113 0v1331h178v-1331h-178z" />
    <glyph glyph-name="J" unicode="J" horiz-adv-x="849" 
d="M29 57l51.001 160.002c82 -49.333 169.333 -74 262 -74c35.333 0 65 3.66699 89 11s46.333 20.666 67 39.999s36 47.666 46 84.999s15 84.333 15 141v747h-434v164h612v-911c0 -293.333 -128.333 -440 -385 -440c-110.667 0 -218.334 25.667 -323.001 77z" />
    <glyph glyph-name="K" unicode="K" horiz-adv-x="1069" 
d="M113 0v1331h178v-1331h-178zM332 696l485 635h211l-485 -635l526 -696h-211z" />
    <glyph glyph-name="L" unicode="L" horiz-adv-x="925" 
d="M113 0v1331h178v-1167h616v-164h-794z" />
    <glyph glyph-name="M" unicode="M" horiz-adv-x="1400" 
d="M113 0v1331h174l413 -672l414 672h174v-1331h-178v1016l-410 -666l-409 666v-1016h-178z" />
    <glyph glyph-name="N" unicode="N" horiz-adv-x="1183" 
d="M113 0v1331h174l606 -1003v1003h178v-1331h-174l-606 1001v-1001h-178z" />
    <glyph glyph-name="O" unicode="O" horiz-adv-x="1193" 
d="M76 600v129c0 108 12.833 202.5 38.5 283.5s62 145.667 109 194s101.5 84.333 163.5 108s131.667 35.5 209 35.5s147 -11.833 209 -35.5s116.5 -59.667 163.5 -108s83.333 -113 109 -194s38.5 -175.5 38.5 -283.5v-129c0 -108.667 -12.833 -203.5 -38.5 -284.5
s-62 -145.5 -109 -193.5s-101.5 -83.667 -163.5 -107s-131.667 -35 -209 -35s-147 11.667 -209 35s-116.5 59 -163.5 107s-83.333 112.5 -109 193.5s-38.5 175.833 -38.5 284.5zM254 600c0 -162 29.6709 -278.667 89.0039 -350s143.666 -107 252.999 -107
s193.666 35.667 252.999 107s89 188 89 350v129c0 161.333 -29.833 277.833 -89.5 349.5s-143.834 107.5 -252.501 107.5s-192.834 -35.833 -252.501 -107.5s-89.5 -188.167 -89.5 -349.5v-129z" />
    <glyph glyph-name="P" unicode="P" horiz-adv-x="1110" 
d="M113 0v1331h471c167.333 0 290.333 -37.833 369 -113.5s118 -179.167 118 -310.5s-39.333 -234.5 -118 -309.5s-201.667 -112.5 -369 -112.5h-293v-485h-178zM291 649l293 -0.000976562c110.667 0 189.834 21.833 237.501 65.5s71.5 107.834 71.5 192.501
s-23.833 149.167 -71.5 193.5s-126.834 66.5 -237.501 66.5h-293v-518z" />
    <glyph glyph-name="Q" unicode="Q" horiz-adv-x="1193" 
d="M76 600v129c0 108 12.833 202.5 38.5 283.5s62 145.667 109 194s101.5 84.333 163.5 108s131.667 35.5 209 35.5s147 -11.833 209 -35.5s116.5 -59.667 163.5 -108s83.333 -113 109 -194s38.5 -175.5 38.5 -283.5v-129c0 -108.667 -12.833 -203.5 -38.5 -284.5
s-62 -145.5 -109 -193.5s-101.5 -83.667 -163.5 -107s-131.667 -35 -209 -35s-147 11.667 -209 35s-116.5 59 -163.5 107s-83.333 112.5 -109 193.5s-38.5 175.833 -38.5 284.5zM223 -82c30.667 27.333 64.334 45.333 101.001 54c19.333 4 38.666 6 57.999 6
c17.333 0 34.666 -2 51.999 -6c36.667 -7.33301 74.167 -18.166 112.5 -32.499l115 -43c38.333 -14.333 75.833 -25.166 112.5 -32.499c17.333 -4 34.666 -6 51.999 -6c19.333 0 38.666 2 57.999 6c36.667 8.66699 70.334 26.667 101.001 54v-164
c-30.667 -27.333 -64.334 -45.333 -101.001 -54c-19.333 -4 -38.666 -6 -57.999 -6c-17.333 0 -34.666 2 -51.999 6c-36.667 7.33301 -74.167 18.166 -112.5 32.499l-115 43c-38.333 14.333 -75.833 25.166 -112.5 32.499c-17.333 4 -34.666 6 -51.999 6
c-19.333 0 -38.666 -2 -57.999 -6c-36.667 -8.66699 -70.334 -26.667 -101.001 -54v164zM254 600c0 -162 29.6709 -278.667 89.0039 -350s143.666 -107 252.999 -107s193.666 35.667 252.999 107s89 188 89 350v129c0 161.333 -29.833 277.833 -89.5 349.5
s-143.834 107.5 -252.501 107.5s-192.834 -35.833 -252.501 -107.5s-89.5 -188.167 -89.5 -349.5v-129z" />
    <glyph glyph-name="R" unicode="R" horiz-adv-x="1165" 
d="M113 0v1331h471c168 0 291.167 -35 369.5 -105s117.5 -167.333 117.5 -292c0 -92 -23.5 -170 -70.5 -234s-116.833 -108.333 -209.5 -133l374 -567h-202l-353 537h-319v-537h-178zM291 700l293.001 0.000976562c110 0 189 20.167 237 60.5s72 98.166 72 173.499
c0 76.667 -23.833 134.667 -71.5 174s-126.834 59 -237.501 59h-293v-467z" />
    <glyph glyph-name="S" unicode="S" horiz-adv-x="985" 
d="M55 88l50.9902 159.996c54.667 -38.667 119.334 -66.667 194.001 -84c56 -13.333 109.667 -20.333 161 -21c17.333 0 34.333 1 51 3c66.667 6 123.334 27 170.001 63s70 84.333 70 145c0 40.667 -12.5 75.667 -37.5 105s-57.333 52.833 -97 70.5
s-83.5 34.167 -131.5 49.5s-96 33 -144 53s-91.833 43.5 -131.5 70.5s-72 64.333 -97 112s-37.5 103.834 -37.5 168.501c0 58 10.667 109.833 32 155.5s50 82.5 86 110.5s77 50.667 123 68s95 27.333 147 30c14.667 0.666992 29.334 1 44.001 1c37.333 0 74 -2.33301 110 -7
c50.667 -6.66699 99.334 -18.667 146.001 -36s87.667 -38.666 123 -63.999l-51 -160c-38.667 30 -84 54.333 -136 73s-103.333 29.334 -154 32.001c-8.66699 0.666992 -17.334 0.666992 -26.001 0c-41.333 0 -80.666 -4.66699 -117.999 -14
c-44 -11.333 -79.667 -32.666 -107 -63.999s-41 -70.333 -41 -117c0 -31.333 6.33301 -59.5 19 -84.5s29.834 -45.667 51.501 -62s46.834 -31.833 75.501 -46.5s59.334 -27 92.001 -37s66 -21.333 100 -34l100 -38c32.667 -12.667 63.334 -28.834 92.001 -48.501
s53.834 -41.5 75.501 -65.5s38.834 -54 51.501 -90s19 -76 19 -120c0 -60.667 -11.333 -115 -34 -163s-53.334 -86.667 -92.001 -116s-82.667 -53.333 -132 -72s-102 -29.667 -158 -33c-19.333 -1.33301 -38.666 -2 -57.999 -2c-36 0.666992 -72 3 -108 7
c-54.667 6.66699 -107.5 18.834 -158.5 36.501s-95.833 39.5 -134.5 65.5z" />
    <glyph glyph-name="T" unicode="T" horiz-adv-x="1095" 
d="M37 1167v164h1022v-164h-422v-1167h-178v1167h-422z" />
    <glyph glyph-name="U" unicode="U" horiz-adv-x="1189" 
d="M96 604l-0.000976562 727h176v-727c0 -164 28 -281.833 84 -353.5s136 -107.5 240 -107.5c102.667 0 182 35.833 238 107.5s84 189.5 84 353.5v727h176v-727c0 -110 -12.333 -205.667 -37 -287s-59.667 -146.166 -105 -194.499s-97.5 -84.166 -156.5 -107.499
s-125.5 -35 -199.5 -35c-74.667 0 -141.667 11.667 -201 35s-111.666 59.166 -156.999 107.499s-80.333 113.166 -105 194.499s-37 177 -37 287z" />
    <glyph glyph-name="V" unicode="V" horiz-adv-x="1146" 
d="M0 1331h180l393 -1102l394 1102h180l-483 -1331h-181z" />
    <glyph glyph-name="W" unicode="W" horiz-adv-x="1800" 
d="M8 1331h178l312 -1059l313 1059h178l311 -1059l314 1059h178l-401 -1331h-179l-313 1036l-311 -1036h-178z" />
    <glyph glyph-name="X" unicode="X" horiz-adv-x="1130" 
d="M0 0l463 696l-422 635h203l319 -493l324 493h203l-424 -635l464 -696h-202l-365 553l-360 -553h-203z" />
    <glyph glyph-name="Y" unicode="Y" horiz-adv-x="1196" 
d="M0 1331h199l399 -651l397 651h201l-508 -815v-516h-178v512z" />
    <glyph glyph-name="Z" unicode="Z" 
d="M20 0v143l732 1024h-691v164h918v-143l-731 -1024h772v-164h-1000z" />
    <glyph glyph-name="bracketleft" unicode="[" horiz-adv-x="702" 
d="M172 -512v2048h416v-125h-279v-1798h279v-125h-416z" />
    <glyph glyph-name="backslash" unicode="\" horiz-adv-x="624" 
d="M-16 1536h141l514 -1597h-137z" />
    <glyph glyph-name="bracketright" unicode="]" horiz-adv-x="702" 
d="M113 -387h278v1798h-278v125h417v-2048h-417v125z" />
    <glyph glyph-name="asciicircum" unicode="^" horiz-adv-x="1118" 
d="M96 618l404 836h116l406 -833h-154l-311 677l-311 -680h-150z" />
    <glyph glyph-name="underscore" unicode="_" horiz-adv-x="1021" 
d="M8 -18h1004v-134h-1004v134z" />
    <glyph glyph-name="grave" unicode="`" horiz-adv-x="581" 
d="M133 1815h158l158 -279h-125z" />
    <glyph glyph-name="a" unicode="a" horiz-adv-x="966" 
d="M45 307l-0.000976562 20.999c0 92.667 41.667 164.667 125 216s198 79.666 344 84.999c86.667 2.66699 152.334 5.33398 197.001 8.00098v57c0 68 -22 116.5 -66 145.5s-108 43.5 -192 43.5c-108.667 0 -212.667 -21.333 -312 -64l-24.5 77.5l-24.5 76.5
c125.333 46 249 69 371 69c62 0 117.5 -6.5 166.5 -19.5s92.667 -33.5 131 -61.5s68 -66.167 89 -114.5s31.5 -105.833 31.5 -172.5v-639c-116 -35.333 -256 -53 -420 -53c-56.667 0 -109.5 6.5 -158.5 19.5s-93 32.167 -132 57.5s-69.667 59.333 -92 102
s-33.5 91.334 -33.5 146.001zM214.999 306.999c0 -57.333 22.166 -99.332 66.499 -125.999s104.833 -40 181.5 -40c102.667 0 185.334 8.33301 248.001 25v332c-164 -4.66699 -274 -12.334 -330 -23.001c-92 -17.333 -145.667 -53 -161 -107c-3.33301 -12.667 -5 -26 -5 -40
v-21z" />
    <glyph glyph-name="b" unicode="b" horiz-adv-x="1026" 
d="M113 35l0.00195312 1399h170v-426c55.333 22.667 120.666 34 195.999 34c142.667 0 256.5 -41.833 341.5 -125.5s127.5 -210.167 127.5 -379.5v-50c0 -168 -41.333 -294.167 -124 -378.5s-194.334 -126.5 -335.001 -126.5c-142.667 0 -268 17.667 -376 53zM283.002 166
c54.667 -16.667 122 -25.001 202 -25.001c96 0 168.833 26 218.5 78s74.5 141.333 74.5 268v50c0 65.333 -7.33301 120.833 -22 166.5s-36 81.334 -64 107.001s-60.167 44.167 -96.5 55.5s-78.5 17 -126.5 17c-76.667 0 -138.667 -13 -186 -39v-678z" />
    <glyph glyph-name="c" unicode="c" horiz-adv-x="886" 
d="M76 492v53.002c0 68.667 7.66699 130.667 23 186s36.833 102.166 64.5 140.499s61.167 70.333 100.5 96s82.333 44.5 129 56.5s97.334 18 152.001 18c102 0 199.667 -30 293 -90c-4.66699 -16.667 -12.5 -41.334 -23.5 -74.001s-18.833 -57 -23.5 -73
c-76 52 -158 78 -246 78c-96 0 -169.833 -26.667 -221.5 -80s-77.5 -139.333 -77.5 -258v-53c0 -117.333 28.5 -205.166 85.5 -263.499s134.833 -87.5 233.5 -87.5c91.333 0 172.666 20.667 243.999 62c4.66699 -16.667 12.5 -41.167 23.5 -73.5s18.833 -56.5 23.5 -72.5
c-84 -50 -181 -75 -291 -75c-152 0 -271.5 46.167 -358.5 138.5s-130.5 216.166 -130.5 371.499z" />
    <glyph glyph-name="d" unicode="d" horiz-adv-x="1026" 
d="M76 487l0.000976562 50c0 169.333 42.5 295.833 127.5 379.5s198.833 125.5 341.5 125.5c74 0 140 -11.333 198 -34v426h168v-1399c-106 -35.333 -231.333 -53 -376 -53c-140.667 0 -252.334 42.167 -335.001 126.5s-124 210.5 -124 378.5zM246.001 487
c0 -126.667 25.002 -216 75.002 -268s123.333 -78 220 -78c75.333 0 142.666 8.33301 201.999 25v678c-57.333 26 -120 39 -188 39c-98.667 0 -174.834 -26 -228.501 -78s-80.5 -141.333 -80.5 -268v-50z" />
    <glyph glyph-name="e" unicode="e" horiz-adv-x="1019" 
d="M76 485l-0.00195312 54c0 170.667 38.5 297.167 115.5 379.5s184.5 123.5 322.5 123.5c138.667 0 246.334 -41 323.001 -123s115 -208.667 115 -380v-93h-702v-10c0 -98.667 27.167 -172.5 81.5 -221.5s130.833 -73.5 229.5 -73.5c126.667 0 233.334 18.667 320.001 56
l49 -150c-108 -43.333 -231 -65 -369 -65c-153.333 0 -272.5 41 -357.5 123s-127.5 208.667 -127.5 380zM249.998 578h529.999v12c0 99.333 -23.5 173 -70.5 221s-112.167 72 -195.5 72s-148.166 -24 -194.499 -72s-69.5 -121.667 -69.5 -221v-12z" />
    <glyph glyph-name="f" unicode="f" horiz-adv-x="659" 
d="M113 0v1083c0 128.667 31.333 222.334 94 281.001s148 88 256 88c95.333 0 181.333 -19.667 258 -59l-51 -152c-64.667 34 -133.667 51 -207 51c-58 0 -102.5 -15.833 -133.5 -47.5s-46.5 -84.834 -46.5 -159.501v-61h376v-160h-376v-864h-170z" />
    <glyph glyph-name="g" unicode="g" horiz-adv-x="1026" 
d="M76 494v43c0 170.667 43.833 297.5 131.5 380.5s208.167 124.5 361.5 124.5c139.333 0 253.333 -17.667 342 -53v-1061c0 -152 -38.5 -263 -115.5 -333s-182.5 -105 -316.5 -105c-138 0 -259.333 28.667 -364 86l24.5 73.5l24.5 74.5c88 -49.333 193 -74 315 -74
c86 0 151.5 20.333 196.5 61s67.5 113 67.5 217v78c-63.333 -16 -136.333 -24 -219 -24c-135.333 0 -243.833 42.833 -325.5 128.5s-122.5 213.5 -122.5 383.5zM246 494c0 -121.333 22.6689 -209.167 68.002 -263.5s110.666 -83.5 195.999 -87.5
c13.333 -0.666992 27 -1 41 -1s28.333 0.333008 43 1c51.333 3.33301 101 12.333 149 27v688c-60.667 16.667 -123.334 25 -188.001 25c-100 0 -176.5 -26.167 -229.5 -78.5s-79.5 -141.5 -79.5 -267.5v-43z" />
    <glyph glyph-name="h" unicode="h" 
d="M113 0v1434h170v-416c97.333 16 176.333 24 237 24c285.333 0 428 -146.667 428 -440v-602h-168v612c0 54 -6.16699 99.333 -18.5 136s-31.166 64.5 -56.499 83.5s-53.333 32.333 -84 40s-67.667 11.5 -111 11.5c-92.667 0 -168.334 -10.333 -227.001 -31v-852h-170z" />
    <glyph glyph-name="i" unicode="i" horiz-adv-x="401" 
d="M92 1335c0 30 10.667 55.667 32 77s47 32 77 32c30.667 0 56.334 -10.5 77.001 -31.5s31 -46.833 31 -77.5c0 -29.333 -10.333 -54.333 -31 -75s-46.334 -31 -77.001 -31c-30 0 -55.667 10.333 -77 31s-32 45.667 -32 75zM117 0v1024h168v-1024h-168z" />
    <glyph glyph-name="j" unicode="j" horiz-adv-x="407" 
d="M-170 -469l49.001 147c36 -18.667 74.333 -28 115 -28c83.333 0 125 58.667 125 176v1198h168v-1198c0 -118 -26.833 -203.5 -80.5 -256.5s-124.5 -79.5 -212.5 -79.5c-64.667 0 -119.334 13.667 -164.001 41zM94.001 1335c0 30 10.667 55.667 32 77s47 32 77 32
c30.667 0 56.334 -10.5 77.001 -31.5s31 -46.833 31 -77.5c0 -29.333 -10.333 -54.333 -31 -75s-46.334 -31 -77.001 -31c-30 0 -55.667 10.333 -77 31s-32 45.667 -32 75z" />
    <glyph glyph-name="k" unicode="k" horiz-adv-x="985" 
d="M113 0v1434h170v-1434h-170zM324 539l407 485h213l-407 -485l448 -539h-213z" />
    <glyph glyph-name="l" unicode="l" horiz-adv-x="501" 
d="M113 319l0.000976562 1115h170v-1115c0 -64 8.33301 -109 25 -135s41 -39 73 -39c25.333 0 52.666 6.33301 81.999 19l49 -150c-50 -18.667 -100.667 -28 -152 -28c-76 0 -136.167 26 -180.5 78s-66.5 137 -66.5 255z" />
    <glyph glyph-name="m" unicode="m" horiz-adv-x="1587" 
d="M113 0l0.000976562 989.001c112.667 35.333 238 53 376 53c122.667 0 215 -32 277 -96c88 64 198 96 330 96c263.333 0 395 -146.667 395 -440v-602h-168v612c0 54 -5.5 99.333 -16.5 136s-27.5 64.5 -49.5 83.5s-46.5 32.333 -73.5 40s-59.833 11.5 -98.5 11.5
c-92.667 0 -172.334 -20 -239.001 -60c27.333 -66.667 41 -140.334 41 -221.001v-602h-168v612c0 54 -5.5 99.333 -16.5 136s-27.833 64.5 -50.5 83.5s-47.5 32.333 -74.5 40s-59.833 11.5 -98.5 11.5c-74 0 -139.333 -7.66699 -196 -23v-860h-170z" />
    <glyph glyph-name="n" unicode="n" 
d="M113 0v989c112 35.333 247.667 53 407 53c285.333 0 428 -146.667 428 -440v-602h-168v612c0 54 -6.16699 99.333 -18.5 136s-31.166 64.5 -56.499 83.5s-53.333 32.333 -84 40s-67.667 11.5 -111 11.5c-88.667 0 -164.334 -8.33301 -227.001 -25v-858h-170z" />
    <glyph glyph-name="o" unicode="o" 
d="M76 489l0.000976562 42.999c0 174 40 302.5 120 385.5s188 124.5 324 124.5s244.167 -41.5 324.5 -124.5s120.5 -211.5 120.5 -385.5v-43c0 -88 -11 -165 -33 -231s-53.333 -118.833 -94 -158.5s-87.334 -69.167 -140.001 -88.5s-112 -29 -178 -29
c-136 0 -244 41.333 -324 124s-120 210.334 -120 383.001zM246.001 488.999c0 -125.333 23.167 -214.665 69.5 -267.998s114.5 -80 204.5 -80s158.333 26.667 205 80s70 142.666 70 267.999v43c0 126 -23.333 216 -70 270s-115 81 -205 81s-158.167 -26.833 -204.5 -80.5
s-69.5 -143.834 -69.5 -270.501v-43z" />
    <glyph glyph-name="p" unicode="p" horiz-adv-x="1026" 
d="M113 -512v1501c98.667 35.333 220.667 53 366 53c144 0 258.167 -42.167 342.5 -126.5s126.5 -210.5 126.5 -378.5v-50c0 -169.333 -41.667 -295.833 -125 -379.5s-194.666 -125.5 -333.999 -125.5c-80.667 0 -149.334 10 -206.001 30v-524h-170zM283 176
c51.333 -23.333 116.666 -35.001 195.999 -35.001c46.667 0 87.5 5.5 122.5 16.5s66.167 29.333 93.5 55s48 61.334 62 107.001s21 101.5 21 167.5v50c0 126.667 -25.667 216 -77 268s-126.666 78 -225.999 78c-74.667 0 -138.667 -8.33301 -192 -25v-682z" />
    <glyph glyph-name="q" unicode="q" horiz-adv-x="1026" 
d="M76 487l-0.000976562 50c0 168 42.167 294.167 126.5 378.5s198.5 126.5 342.5 126.5c143.333 0 265.333 -17.667 366 -53v-1501h-168v524c-58.667 -20 -128 -30 -208 -30c-139.333 0 -250.666 41.833 -333.999 125.5s-125 210.167 -125 379.5zM245.999 487
c0 -66 7.16895 -121.832 21.502 -167.499s35.166 -81.334 62.499 -107.001s58.5 -44 93.5 -55s75.5 -16.5 121.5 -16.5c38 0 75.667 3.66699 113 11s65.666 15.333 84.999 24v682c-53.333 16.667 -117.333 25 -192 25c-99.333 0 -175 -26 -227 -78s-78 -141.333 -78 -268
v-50z" />
    <glyph glyph-name="r" unicode="r" horiz-adv-x="659" 
d="M113 0v989c39.333 14 88.5 26 147.5 36s116.833 15 173.5 15c68 0 141 -8.66699 219 -26l-49 -154c-52.667 14 -106 21 -160 21c-60 0 -113.667 -7.66699 -161 -23v-858h-170z" />
    <glyph glyph-name="s" unicode="s" horiz-adv-x="909" 
d="M76 57l49.002 149.997c59.333 -31.333 131 -51.666 215 -60.999c26 -2.66699 51 -4.33398 75 -5.00098c55.333 0 105.666 7.66699 150.999 23c65.333 22 98 58.667 98 110c0 26 -6.5 48.5 -19.5 67.5s-30.333 34 -52 45s-46.5 20.333 -74.5 28s-57.667 15.167 -89 22.5
s-62.666 15.166 -93.999 23.499s-61 19.833 -89 34.5s-52.833 32.167 -74.5 52.5s-39 47.333 -52 81s-19.5 72.5 -19.5 116.5c0 52.667 12.167 99.334 36.5 140.001s56.333 72.334 96 95.001s84.834 39.334 135.501 50.001c38 8 76.333 11.667 115 11
c13.333 -0.666992 26.666 -1 39.999 -1c52 -4 103 -13.333 153 -28s93.667 -34.667 131 -60l-49 -151c-54.667 38 -120.667 63 -198 75c-26 4 -51 6 -75 6c-46.667 0 -89.334 -7.33301 -128.001 -22c-58 -22.667 -87 -59.334 -87 -110.001c0 -34 10.333 -61.833 31 -83.5
s47.667 -37.834 81 -48.501s70 -20.167 110 -28.5s80 -18.666 120 -30.999s76.667 -28.166 110 -47.499s60.333 -48.166 81 -86.499s31 -84.833 31 -139.5c0 -56 -13.667 -105 -41 -147s-62.833 -74.167 -106.5 -96.5s-93.167 -38.833 -148.5 -49.5
c-42.667 -8 -85.667 -12 -129 -12c-12.667 0 -25.334 0.666992 -38.001 2c-56 2.66699 -110 10.5 -162 23.5s-96.333 30.167 -133 51.5z" />
    <glyph glyph-name="t" unicode="t" horiz-adv-x="753" 
d="M113 350l-0.000976562 981h170v-307h387v-160h-387v-516c0 -138 58.667 -207 176 -207c84.667 0 160.334 19.333 227.001 58l49 -150c-78.667 -44.667 -170.667 -67 -276 -67c-106 0 -190.167 29.333 -252.5 88s-93.5 152 -93.5 280z" />
    <glyph glyph-name="u" unicode="u" 
d="M94 420l0.000976562 604h168v-614c0 -54 6.16699 -99.167 18.5 -135.5s31.166 -64 56.499 -83s53.333 -32.167 84 -39.5s67.667 -11 111 -11c91.333 0 167.333 7.66699 228 23v860h170v-989c-124 -35.333 -260 -53 -408 -53c-285.333 0 -428 146 -428 438z" />
    <glyph glyph-name="v" unicode="v" horiz-adv-x="1007" 
d="M0 1024h176l328 -819l325 819h179l-416 -1024h-176z" />
    <glyph glyph-name="w" unicode="w" horiz-adv-x="1589" 
d="M18 1024h175l258 -799l256 799h176l256 -799l258 799h174l-344 -1024h-176l-256 762l-256 -762h-177z" />
    <glyph glyph-name="x" unicode="x" horiz-adv-x="1021" 
d="M0 0l408 539l-367 485h207l262 -356l264 356h207l-367 -485l408 -539h-207l-305 410l-303 -410h-207z" />
    <glyph glyph-name="y" unicode="y" 
d="M94 420l-0.000976562 604h168v-614c0 -54 6.16699 -99 18.5 -135s31 -63.5 56 -82.5s52.833 -32.333 83.5 -40s68 -11.5 112 -11.5c78 0 154 9 228 27v856h170v-1096c0 -78 -10.667 -145.5 -32 -202.5s-51.666 -102.5 -90.999 -136.5s-84.5 -59 -135.5 -75
s-108.833 -24 -173.5 -24c-140.667 0 -266.334 28.667 -377.001 86l49 148c92.667 -49.333 202 -74 328 -74c86 0 151.167 20.333 195.5 61s66.5 113 66.5 217v82c-59.333 -18.667 -138.666 -28 -237.999 -28c-285.333 0 -428 146 -428 438z" />
    <glyph glyph-name="z" unicode="z" horiz-adv-x="944" 
d="M55 0v160l604 704h-604v160h834v-160l-604 -704h604v-160h-834z" />
    <glyph glyph-name="braceleft" unicode="{" horiz-adv-x="999" 
d="M129 467v125.001h80c76 0 133.167 29.167 171.5 87.5s57.5 141.166 57.5 248.499v205c0 128 30 227.167 90 297.5s139.333 105.5 238 105.5h147v-125h-131c-69.333 0 -121.166 -26.333 -155.499 -79s-51.5 -134.334 -51.5 -245.001v-198
c0 -180 -56.333 -299.667 -169 -359c112.667 -56 169 -175.333 169 -358v-235c0 -111.333 17.167 -193.166 51.5 -245.499s86.166 -78.5 155.499 -78.5h131v-125h-147c-96 0 -174.667 35.333 -236 106s-92 169.667 -92 297v242c0 107.333 -19.167 189.833 -57.5 247.5
s-95.5 86.5 -171.5 86.5h-80z" />
    <glyph glyph-name="bar" unicode="|" horiz-adv-x="485" 
d="M174 -512v2048h137v-2048h-137z" />
    <glyph glyph-name="braceright" unicode="}" horiz-adv-x="999" 
d="M86 -387l128.999 -0.000976562c69.333 0 121.166 26.167 155.499 78.5s51.5 134.166 51.5 245.499v235c2.66699 184 59.334 303.333 170.001 358c-113.333 59.333 -170 179 -170 359v198c0 110.667 -17.167 192.334 -51.5 245.001s-86.166 79 -155.499 79h-129v125h145
c98.667 0 178 -35.167 238 -105.5s90 -169.5 90 -297.5v-205c0 -107.333 19.167 -190.166 57.5 -248.499s95.5 -87.5 171.5 -87.5h82v-125h-82c-76 0 -133.167 -28.833 -171.5 -86.5s-57.5 -140.167 -57.5 -247.5v-242c0 -127.333 -30.667 -226.333 -92 -297
s-140 -106 -236 -106h-145v125z" />
    <glyph glyph-name="asciitilde" unicode="~" horiz-adv-x="1142" 
d="M96 408c0 123.333 23.498 215.831 70.498 277.498s114.5 92.5 202.5 92.5c30 0 57.667 -4.66699 83 -14s46.833 -21.5 64.5 -36.5s34.334 -31.5 50.001 -49.5l45 -54c14.333 -18 28.833 -34.5 43.5 -49.5s31.334 -27.167 50.001 -36.5s39 -14 61 -14
c99.333 0 149 82.667 149 248h132c0 -248.667 -91 -373 -273 -373c-34.667 0 -66.167 6.33301 -94.5 19s-51.166 28.334 -68.499 47.001s-35.166 39 -53.499 61l-50 61c-15 18.667 -33.833 34.334 -56.5 47.001s-47.334 19 -74.001 19c-50.667 0 -88.334 -22 -113.001 -66
s-37 -103.667 -37 -179h-131z" />
    <glyph glyph-name="uni00A0" unicode="&#xa0;" horiz-adv-x="417" 
 />
    <glyph glyph-name="exclamdown" unicode="&#xa1;" horiz-adv-x="610" 
d="M188 926c0 32.667 11.1689 60.167 33.502 82.5s50.166 33.5 83.499 33.5c32 0 59.167 -11.167 81.5 -33.5s33.5 -49.833 33.5 -82.5c0 -31.333 -11.333 -58.333 -34 -81s-49.667 -34 -81 -34c-32.667 0 -60.334 11.167 -83.001 33.5s-34 49.5 -34 81.5zM223.002 193
c0 54.667 3.83301 137.667 11.5 249s11.5 194.666 11.5 249.999h121c0 -55.333 4 -138.666 12 -249.999s12 -194.333 12 -249v-549h-168v549z" />
    <glyph glyph-name="cent" unicode="&#xa2;" horiz-adv-x="872" 
d="M66 492l0.00195312 52.9971c0 151.333 35.5 267.5 106.5 348.5s167.167 128.5 288.5 142.5v295h137v-295c75.333 -6.66699 151.666 -34.667 228.999 -84c-4.66699 -16.667 -12.5 -41.334 -23.5 -74.001s-18.833 -57 -23.5 -73c-76 52 -157.667 78 -245 78
c-96 0 -169.833 -26.667 -221.5 -80s-77.5 -139.333 -77.5 -258v-53c0 -117.333 28.5 -205.166 85.5 -263.499s134.833 -87.5 233.5 -87.5c91.333 0 172.666 20.667 243.999 62c4.66699 -16.667 12.5 -41.167 23.5 -73.5s18.833 -56.5 23.5 -72.5
c-75.333 -45.333 -158 -69.666 -248 -72.999v-291h-137v297c-124.667 18.667 -221.667 72.334 -291 161.001s-104 202.334 -104 341.001z" />
    <glyph glyph-name="sterling" unicode="&#xa3;" horiz-adv-x="1005" 
d="M18 573l0.000976562 124.999h177v168c0 163.333 33.5 284.833 100.5 364.5s171.833 119.5 314.5 119.5c108 0 207.667 -24.667 299 -74l-47 -150c-69.333 36.667 -152 56.667 -248 60c-92.667 2 -156.334 -23.667 -191.001 -77s-52 -141.666 -52 -264.999v-146h338v-125
h-338v-409h616v-164h-792v573h-177z" />
    <glyph glyph-name="currency" unicode="&#xa4;" horiz-adv-x="1372" 
d="M135 229l265.999 264.998c-32.667 50.667 -49 107.334 -49 170.001c0 61.333 15.667 117 47 167l-264 267l115 116l276 -278c44.667 28.667 98.667 43 162 43c60 0 112.667 -13.667 158 -41l274 274l115 -114l-260 -260c32.667 -49.333 49 -107.333 49 -174
c0 -69.333 -17 -127.666 -51 -174.999l264 -260l-117 -116l-276 276c-44.667 -24.667 -96.667 -37 -156 -37c-63.333 0 -116.666 13 -159.999 39l-278 -278zM486.999 661.998c0 -57.333 18.8301 -104.5 56.4971 -141.5s85.834 -55.5 144.501 -55.5
s106.834 18.5 144.501 55.5s56.5 84.167 56.5 141.5c0 62 -18.5 111.167 -55.5 147.5s-85.5 54.5 -145.5 54.5c-59.333 0 -107.666 -18.333 -144.999 -55s-56 -85.667 -56 -147z" />
    <glyph glyph-name="yen" unicode="&#xa5;" horiz-adv-x="1196" 
d="M0 1331h199l399 -641l397 641h201l-467 -747h354v-125h-395v-154h395v-125h-395v-180h-178v180h-399v125h399v154h-399v125h352z" />
    <glyph glyph-name="brokenbar" unicode="&#xa6;" horiz-adv-x="448" 
d="M156 356h137v-868h-137v868zM156 711v825h137v-825h-137z" />
    <glyph glyph-name="section" unicode="&#xa7;" horiz-adv-x="1101" 
d="M113 -371l51.001 159.993c111.333 -69.333 224 -104 338 -104c86 0 158.667 18.333 218 55s89 89.334 89 158.001c0 60.667 -24.5 108.334 -73.5 143.001s-128.833 68.667 -239.5 102c-38 12 -71.833 24.333 -101.5 37s-61.667 30.167 -96 52.5s-62.833 46.333 -85.5 72
s-41.667 58 -57 97s-23 81.833 -23 128.5c0 126.667 50.667 221.667 152 285c-101.333 69.333 -152 164.333 -152 285c0 82.667 20.5 152.334 61.5 209.001s94.667 97.667 161 123s143.166 38 230.499 38c55.333 0 107 -6 155 -18s84.5 -24.333 109.5 -37
s56.167 -30.334 93.5 -53.001l-51 -160c-26 16.667 -46.667 29.167 -62 37.5s-37.166 18.833 -65.499 31.5s-58.5 21.834 -90.5 27.501s-66.667 8.5 -104 8.5c-72.667 0 -134.167 -16.833 -184.5 -50.5s-75.5 -82.5 -75.5 -146.5c0 -17.333 2 -34 6 -50
s8.83301 -30 14.5 -42s14.167 -23.833 25.5 -35.5s21.333 -21.5 30 -29.5s21.334 -16.333 38.001 -25l39.5 -20c9.66699 -4.66699 24.334 -10.5 44.001 -17.5s33.667 -11.833 42 -14.5l43.5 -14c127.333 -36.667 224.666 -85.667 291.999 -147s101 -139.333 101 -234
c0 -130 -52.667 -228.333 -158 -295c105.333 -73.333 158 -164.666 158 -273.999c0 -67.333 -13.667 -126.666 -41 -177.999s-64.5 -92.166 -111.5 -122.499s-99.333 -53 -157 -68s-119.5 -22.5 -185.5 -22.5c-55.333 0 -107.833 5.83301 -157.5 17.5
s-88.834 23.834 -117.501 36.501s-63.334 30.667 -104.001 54zM311.001 540.993c0 -26 3.83301 -49.834 11.5 -71.501s19.5 -40.667 35.5 -57s32.167 -30.666 48.5 -42.999s37.5 -23.833 63.5 -34.5s47.833 -19.167 65.5 -25.5s40.834 -14 69.501 -23
s49.667 -15.833 63 -20.5c43.333 17.333 77.666 43 102.999 77s38 75.333 38 124c0 28 -6.5 53.667 -19.5 77s-29.333 43.333 -49 60s-46.5 33 -80.5 49s-66.5 29.5 -97.5 40.5s-69.833 23.5 -116.5 37.5c-90 -32.667 -135 -96 -135 -190z" />
    <glyph glyph-name="dieresis" unicode="&#xa8;" horiz-adv-x="946" 
d="M113 1642c0 30.667 10.499 56.5 31.499 77.5s46.5 31.5 76.5 31.5c30.667 0 56.5 -10.5 77.5 -31.5s31.5 -46.833 31.5 -77.5c0 -29.333 -10.5 -54.333 -31.5 -75s-46.833 -31 -77.5 -31c-29.333 0 -54.666 10.333 -75.999 31s-32 45.667 -32 75zM615.999 1642
c0 30 10.667 55.667 32 77s47 32 77 32c30.667 0 56.5 -10.5 77.5 -31.5s31.5 -46.833 31.5 -77.5c0 -29.333 -10.667 -54.333 -32 -75s-47 -31 -77 -31s-55.667 10.333 -77 31s-32 45.667 -32 75z" />
    <glyph glyph-name="copyright" unicode="&#xa9;" horiz-adv-x="1849" 
d="M180 721c0 102 19.668 198.999 59.001 290.999s92.166 171.167 158.499 237.5s145.333 119 237 158s188.167 58.5 289.5 58.5c102 0 199 -19.5 291 -58.5s171.167 -91.667 237.5 -158s119 -145.5 158 -237.5s58.5 -189 58.5 -291c0 -101.333 -19.5 -197.833 -58.5 -289.5
s-91.667 -170.667 -158 -237s-145.5 -119.166 -237.5 -158.499s-189 -59 -291 -59c-135.333 0 -260 33.167 -374 99.5s-204.167 156.5 -270.5 270.5s-99.5 238.667 -99.5 374zM285.001 720.999c0 -86.667 17 -169.334 51 -248.001s79.667 -146.5 137 -203.5
s125.333 -102.5 204 -136.5s161 -51 247 -51c86.667 0 169.334 16.833 248.001 50.5s146.667 79.167 204 136.5s102.833 125.333 136.5 204s50.5 161.334 50.5 248.001s-16.833 169.5 -50.5 248.5s-79.167 147.167 -136.5 204.5s-125.333 103 -204 137
s-161.334 51 -248.001 51c-86 0 -168.333 -17 -247 -51s-146.667 -79.667 -204 -137s-103 -125.5 -137 -204.5s-51 -161.833 -51 -248.5zM551.001 704.999l-0.000976562 44.999c0 134 34.5 234.333 103.5 301s159.5 100 271.5 100c82.667 0 163 -24.667 241 -74l-18.5 -57
c-9 -27.333 -15.833 -48.666 -20.5 -63.999c-60 42.667 -126 64 -198 64c-76.667 0 -135.834 -21.667 -177.501 -65s-62.5 -114 -62.5 -212v-43c0 -96.667 23.833 -167.167 71.5 -211.5s109.834 -66.5 186.501 -66.5c75.333 0 140.333 17 195 51c12 -34.667 25 -75 39 -121
c-34.667 -20.667 -70.167 -36 -106.5 -46s-81.5 -15 -135.5 -15c-53.333 0 -103.166 8.5 -149.499 25.5s-87.5 42.167 -123.5 75.5s-64.333 76.833 -85 130.5s-31 114.5 -31 182.5z" />
    <glyph glyph-name="guillemotleft" unicode="&#xab;" 
d="M76 512l330 430h159l-329 -430l329 -430h-159zM440 512l330 430h158l-330 -430l330 -430h-158z" />
    <glyph glyph-name="logicalnot" unicode="&#xac;" horiz-adv-x="1155" 
d="M76 739v123h966v-590h-135v467h-831z" />
    <glyph glyph-name="uni00AD" unicode="&#xad;" horiz-adv-x="706" 
d="M49 434v154h606v-154h-606z" />
    <glyph glyph-name="registered" unicode="&#xae;" horiz-adv-x="1849" 
d="M180 721c0 102 19.668 198.999 59.001 290.999s92.166 171.167 158.499 237.5s145.333 119 237 158s188.167 58.5 289.5 58.5c102 0 199 -19.5 291 -58.5s171.167 -91.667 237.5 -158s119 -145.5 158 -237.5s58.5 -189 58.5 -291c0 -101.333 -19.5 -197.833 -58.5 -289.5
s-91.667 -170.667 -158 -237s-145.5 -119.166 -237.5 -158.499s-189 -59 -291 -59c-135.333 0 -260 33.167 -374 99.5s-204.167 156.5 -270.5 270.5s-99.5 238.667 -99.5 374zM285.001 720.999c0 -86.667 17 -169.334 51 -248.001s79.667 -146.5 137 -203.5
s125.333 -102.5 204 -136.5s161 -51 247 -51c86.667 0 169.334 16.833 248.001 50.5s146.667 79.167 204 136.5s102.833 125.333 136.5 204s50.5 161.334 50.5 248.001s-16.833 169.5 -50.5 248.5s-79.167 147.167 -136.5 204.5s-125.333 103 -204 137
s-161.334 51 -248.001 51c-86 0 -168.333 -17 -247 -51s-146.667 -79.667 -204 -137s-103 -125.5 -137 -204.5s-51 -161.833 -51 -248.5zM621.001 310.999v819h305c102 0 178.333 -21.333 229 -64s76 -99.667 76 -171c0 -59.333 -15.5 -110 -46.5 -152
s-76.833 -70 -137.5 -84l210 -348h-155l-199 334h-143v-334h-139zM760.001 769.999h166c59.333 0 101.833 9.83301 127.5 29.5s38.5 48.167 38.5 85.5s-12.667 66 -38 86s-68 30 -128 30h-166v-231z" />
    <glyph glyph-name="degree" unicode="&#xb0;" horiz-adv-x="899" 
d="M113 1202c0 94.667 32.3301 174 96.9971 238s144.334 96 239.001 96c92.667 0 171.334 -32.333 236.001 -97s97 -143.667 97 -237s-32 -172 -96 -236s-143 -96 -237 -96c-95.333 0 -175.166 31.333 -239.499 94s-96.5 142 -96.5 238zM239.997 1202
c0 -60.667 19.667 -111 59 -151s89.333 -60 150 -60c55.333 0 103.5 20.5 144.5 61.5s61.5 90.833 61.5 149.5c0 60 -19.333 110.167 -58 150.5s-88 60.5 -148 60.5c-60.667 0 -110.667 -20.167 -150 -60.5s-59 -90.5 -59 -150.5z" />
    <glyph glyph-name="plusminus" unicode="&#xb1;" horiz-adv-x="1245" 
d="M80 57v154h459v387h-459v154h459v434h168v-434h458v-154h-458v-387h456v-154h-1083z" />
    <glyph glyph-name="acute" unicode="&#xb4;" horiz-adv-x="591" 
d="M133 1536l162 279h164l-199 -279h-127z" />
    <glyph glyph-name="uni00B5" unicode="&#xb5;" horiz-adv-x="1060" 
d="M113 -479l0.00195312 1503h168v-549c0 -119.333 21.5 -204.833 64.5 -256.5s104.5 -77.5 184.5 -77.5c165.333 0 248 109.333 248 328v555h170v-1024h-143l-25 131c-54.667 -99.333 -141.334 -149 -260.001 -149c-110.667 0 -190.334 37.333 -239.001 112v-573h-168z" />
    <glyph glyph-name="paragraph" unicode="&#xb6;" horiz-adv-x="1054" 
d="M76 1040c0 142 46.167 252.333 138.5 331s223.5 118 393.5 118h332v-1690h-137v1547h-172v-1547h-139v781c-126 15.333 -226.833 64.5 -302.5 147.5s-113.5 187.167 -113.5 312.5z" />
    <glyph glyph-name="periodcentered" unicode="&#xb7;" horiz-adv-x="434" 
d="M100 512c0 32 11.333 59.1689 34 81.502s50.334 33.5 83.001 33.5c31.333 0 58.333 -11.333 81 -34s34 -49.667 34 -81c0 -32.667 -11.167 -60.334 -33.5 -83.001s-49.5 -34 -81.5 -34c-32.667 0 -60.334 11.167 -83.001 33.5s-34 50.166 -34 83.499z" />
    <glyph glyph-name="cedilla" unicode="&#xb8;" horiz-adv-x="509" 
d="M92 -373l2 93.999c12.667 -6.66699 30.667 -11.834 54 -15.501s47.333 -4.66699 72 -3s46 8.83398 64 21.501s27 30.334 27 53.001c0 20.667 -6.5 36.834 -19.5 48.501s-29.833 18.667 -50.5 21s-40.667 2.66602 -60 0.999023s-38 -4.83398 -56 -9.50098l53 213h94
l-30 -131c53.333 7.33301 97.5 -2.16699 132.5 -28.5s52.167 -64.5 51.5 -114.5c-1.33301 -40 -13.333 -73.667 -36 -101s-50.667 -46.166 -84 -56.499s-69 -14.833 -107 -13.5s-73.667 8.33301 -107 21z" />
    <glyph glyph-name="guillemotright" unicode="&#xbb;" horiz-adv-x="1038" 
d="M111 82l329 430l-329 430h157l330 -430l-330 -430h-157zM473 82l330 430l-330 430h160l330 -430l-330 -430h-160z" />
    <glyph glyph-name="questiondown" unicode="&#xbf;" horiz-adv-x="989" 
d="M82 55c0 43.333 6.83398 84.001 20.501 122.001s29.5 69.167 47.5 93.5s43 49 75 74s58.333 43.5 79 55.5l84 47l12 6l10.5 5.5c4.33301 2.33301 8.16602 4.5 11.499 6.5c51.333 26 90.166 53 116.499 81s39.5 61.667 39.5 101h176
c0 -126.667 -78.667 -231.667 -236 -315c-13.333 -8 -33.333 -19 -60 -33s-47.167 -25.167 -61.5 -33.5s-31.666 -20.333 -51.999 -36s-35.833 -30.834 -46.5 -45.501s-20 -33.167 -28 -55.5s-12 -46.833 -12 -73.5c0 -72.667 24.167 -128 72.5 -166s112.833 -57 193.5 -57
c56 0 111.333 6.83301 166 20.5s98.334 29.5 131.001 47.5l56 -158c-101.333 -48 -219 -72 -353 -72c-84 0 -158.833 14.333 -224.5 43s-118.334 72.5 -158.001 131.5s-59.5 129.167 -59.5 210.5zM551.001 928.001c0 31.333 11.333 58.165 34 80.498s49.667 33.5 81 33.5
c32.667 0 60.167 -11 82.5 -33s33.5 -49 33.5 -81c0 -33.333 -11.167 -61.166 -33.5 -83.499s-49.833 -33.5 -82.5 -33.5c-32 0 -59.167 11.333 -81.5 34s-33.5 50.334 -33.5 83.001z" />
    <glyph glyph-name="Agrave" unicode="&#xc0;" horiz-adv-x="1167" 
d="M-14 0l508 1331h180l508 -1331h-183l-129 344h-573l-129 -344h-182zM358 508h449l-223 594zM358 1815h158l158 -279h-125z" />
    <glyph glyph-name="Aacute" unicode="&#xc1;" horiz-adv-x="1167" 
d="M-14 0l508 1331h180l508 -1331h-183l-129 344h-573l-129 -344h-182zM358 508h449l-223 594zM494 1536l161 279h164l-198 -279h-127z" />
    <glyph glyph-name="Acircumflex" unicode="&#xc2;" horiz-adv-x="1167" 
d="M-14 0l508 1331h180l508 -1331h-183l-129 344h-573l-129 -344h-182zM326 1536l186 279h141l189 -279h-131l-125 197h-4l-127 -197h-129zM358 508h449l-223 594z" />
    <glyph glyph-name="Atilde" unicode="&#xc3;" horiz-adv-x="1167" 
d="M-14 0l508 1331h180l508 -1331h-183l-129 344h-573l-129 -344h-182zM238 1542c0 187.333 69.332 281 207.999 281c29.333 0 55.333 -6.33301 78 -19s41 -28 55 -46s27.333 -36.167 40 -54.5s27 -33.833 43 -46.5s33.667 -19 53 -19c69.333 0 104 59.667 104 179h109
c0 -187.333 -69 -281 -207 -281c-29.333 0 -55.166 6.16699 -77.499 18.5s-40.5 27.5 -54.5 45.5s-27.167 36 -39.5 54s-26.5 33.167 -42.5 45.5s-34 18.5 -54 18.5c-70 0 -105 -58.667 -105 -176h-110zM357.999 508h449l-223 594z" />
    <glyph glyph-name="Adieresis" unicode="&#xc4;" horiz-adv-x="1167" 
d="M-14 0l508 1331h180l508 -1331h-183l-129 344h-573l-129 -344h-182zM223 1642c0 30 10.667 55.667 32 77s47 32 77 32c30.667 0 56.334 -10.5 77.001 -31.5s31 -46.833 31 -77.5c0 -29.333 -10.333 -54.333 -31 -75s-46.334 -31 -77.001 -31c-30 0 -55.667 10.333 -77 31
s-32 45.667 -32 75zM358 508h449l-223 594zM727 1642c0 30 10.665 55.667 31.998 77s47 32 77 32c30.667 0 56.334 -10.5 77.001 -31.5s31 -46.833 31 -77.5c0 -29.333 -10.667 -54.333 -32 -75s-46.666 -31 -75.999 -31c-30 0 -55.667 10.333 -77 31s-32 45.667 -32 75z
" />
    <glyph glyph-name="Aring" unicode="&#xc5;" horiz-adv-x="1167" 
d="M-14 0l508 1331h180l508 -1331h-183l-129 344h-573l-129 -344h-182zM358 508h449l-223 594zM410 1696c0 48 16.5 87 49.5 117s74.5 45 124.5 45c48.667 0 89.5 -15 122.5 -45s49.5 -69 49.5 -117s-16.5 -87 -49.5 -117s-73.833 -45 -122.5 -45c-50 0 -91.5 15 -124.5 45
s-49.5 69 -49.5 117zM494 1696c0 -25.333 8.16797 -46.666 24.501 -63.999s38.166 -26 65.499 -26c26.667 0 48 8.66699 64 26s24 38.666 24 63.999c0 26 -8 47.5 -24 64.5s-37.333 25.5 -64 25.5c-28 0 -50 -8.5 -66 -25.5s-24 -38.5 -24 -64.5z" />
    <glyph glyph-name="AE" unicode="&#xc6;" horiz-adv-x="1710" 
d="M0 0l483 1331h1188v-164h-719v-385h637v-164h-637v-454h719v-164h-897v426h-438l-156 -426h-180zM393 590h381v577h-170z" />
    <glyph glyph-name="Ccedilla" unicode="&#xc7;" horiz-adv-x="1056" 
d="M76 600l-0.000976562 130.997c0 106.667 13.833 200.167 41.5 280.5s66.834 144.833 117.501 193.5s109.5 85 176.5 109s142.167 36 225.5 36c78 0 146.5 -9.66699 205.5 -29s118.167 -46 177.5 -80l-51 -160c-43.333 28.667 -95.333 53.334 -156 74.001
s-119.334 31 -176.001 31c-255.333 0 -383 -151.667 -383 -455v-131c0 -304.667 127.667 -457 383 -457c65.333 0 129.833 11.333 193.5 34s109.834 47 138.501 73l51 -160c-108 -73.333 -235.667 -110 -383 -110c-17.333 0 -44 1.33301 -80 4l-14 -64
c53.333 7.33301 97.833 -2.16699 133.5 -28.5s52.5 -64.5 50.5 -114.5c-0.666992 -40 -12.334 -73.667 -35.001 -101s-50.834 -46.166 -84.501 -56.499s-69.5 -14.833 -107.5 -13.5s-73.667 8.33301 -107 21l2 94c12.667 -6.66699 30.667 -11.834 54 -15.501
s47.333 -4.66699 72 -3s46 8.83398 64 21.501s27 30.334 27 53.001c0 20.667 -6.5 36.834 -19.5 48.501s-29.667 18.667 -50 21s-40.166 2.66602 -59.499 0.999023s-37.666 -4.83398 -54.999 -9.50098l39 160c-122 28.667 -217.667 92.834 -287 192.501
s-104 236.167 -104 409.5z" />
    <glyph glyph-name="Egrave" unicode="&#xc8;" horiz-adv-x="1028" 
d="M113 0v1331h876v-164h-698v-385h616v-164h-616v-454h698v-164h-876zM352 1815h158l158 -279h-125z" />
    <glyph glyph-name="Eacute" unicode="&#xc9;" horiz-adv-x="1028" 
d="M113 0v1331h876v-164h-698v-385h616v-164h-616v-454h698v-164h-876zM453 1536l161 279h164l-198 -279h-127z" />
    <glyph glyph-name="Ecircumflex" unicode="&#xca;" horiz-adv-x="1028" 
d="M113 0v1331h876v-164h-698v-385h616v-164h-616v-454h698v-164h-876zM303 1536l186 279h142l188 -279h-131l-125 197h-4l-127 -197h-129z" />
    <glyph glyph-name="Edieresis" unicode="&#xcb;" horiz-adv-x="1028" 
d="M113 0v1331h876v-164h-698v-385h616v-164h-616v-454h698v-164h-876zM201 1642c0 30.667 10.499 56.5 31.499 77.5s46.5 31.5 76.5 31.5c30.667 0 56.5 -10.5 77.5 -31.5s31.5 -46.833 31.5 -77.5c0 -29.333 -10.5 -54.333 -31.5 -75s-46.833 -31 -77.5 -31
c-29.333 0 -54.666 10.333 -75.999 31s-32 45.667 -32 75zM704.999 1642c0 30.667 10.499 56.5 31.499 77.5s46.5 31.5 76.5 31.5c30.667 0 56.5 -10.5 77.5 -31.5s31.5 -46.833 31.5 -77.5c0 -29.333 -10.667 -54.333 -32 -75s-47 -31 -77 -31
c-29.333 0 -54.666 10.333 -75.999 31s-32 45.667 -32 75z" />
    <glyph glyph-name="Igrave" unicode="&#xcc;" horiz-adv-x="403" 
d="M-43 1815h158l157 -279h-125zM113 0v1331h178v-1331h-178z" />
    <glyph glyph-name="Iacute" unicode="&#xcd;" horiz-adv-x="403" 
d="M113 0v1331h178v-1331h-178zM131 1536l162 279h164l-199 -279h-127z" />
    <glyph glyph-name="Icircumflex" unicode="&#xce;" horiz-adv-x="403" 
d="M-57 1536l186 279h141l191 -279h-131l-127 197h-4l-125 -197h-131zM113 0v1331h178v-1331h-178z" />
    <glyph glyph-name="Idieresis" unicode="&#xcf;" horiz-adv-x="403" 
d="M-158 1642c0 30.667 10.5 56.5 31.5 77.5s46.833 31.5 77.5 31.5c29.333 0 54.333 -10.5 75 -31.5s31 -46.833 31 -77.5c0 -29.333 -10.333 -54.333 -31 -75s-45.667 -31 -75 -31c-30.667 0 -56.5 10.333 -77.5 31s-31.5 45.667 -31.5 75zM113 0v1331h178v-1331h-178z
M346 1642c0 30.667 10.5 56.5 31.5 77.5s46.833 31.5 77.5 31.5c29.333 0 54.333 -10.5 75 -31.5s31 -46.833 31 -77.5c0 -29.333 -10.333 -54.333 -31 -75s-45.667 -31 -75 -31c-30 0 -55.667 10.333 -77 31s-32 45.667 -32 75z" />
    <glyph glyph-name="Eth" unicode="&#xd0;" horiz-adv-x="1185" 
d="M-16 618v139.999h168v573h407c84.667 0 160 -11.167 226 -33.5s123.667 -56.666 173 -102.999s87 -107.833 113 -184.5s39 -167 39 -271v-147c0 -104 -13 -194.5 -39 -271.5s-63.667 -138.667 -113 -185s-107 -80.5 -173 -102.5s-141.333 -33 -226 -33h-407v618h-168z
M330 163.999h229c122.667 0 215.5 33 278.5 99s94.5 175.667 94.5 329v147c0 152.667 -31.667 262.167 -95 328.5s-156 99.5 -278 99.5h-229v-409h178v-140h-178v-454z" />
    <glyph glyph-name="Ntilde" unicode="&#xd1;" horiz-adv-x="1183" 
d="M113 0v1331h174l606 -1003v1003h178v-1331h-174l-606 1001v-1001h-178zM246 1542c0 187.333 69.668 281 209.001 281c24.667 0 47.167 -4.5 67.5 -13.5s36.666 -20.5 48.999 -34.5s24.666 -28.833 36.999 -44.5s23.333 -30.5 33 -44.5s21.5 -25.5 35.5 -34.5
s29.333 -13.5 46 -13.5c69.333 0 104 59.667 104 179h109c0 -187.333 -69 -281 -207 -281c-29.333 0 -55.166 6.16699 -77.499 18.5s-40.5 27.5 -54.5 45.5s-27.167 36 -39.5 54s-26.5 33.167 -42.5 45.5s-34 18.5 -54 18.5c-70 0 -105 -58.667 -105 -176h-110z" />
    <glyph glyph-name="Ograve" unicode="&#xd2;" horiz-adv-x="1193" 
d="M76 600v129c0 108 12.833 202.5 38.5 283.5s62 145.667 109 194s101.5 84.333 163.5 108s131.667 35.5 209 35.5s147 -11.833 209 -35.5s116.5 -59.667 163.5 -108s83.333 -113 109 -194s38.5 -175.5 38.5 -283.5v-129c0 -108.667 -12.833 -203.5 -38.5 -284.5
s-62 -145.5 -109 -193.5s-101.5 -83.667 -163.5 -107s-131.667 -35 -209 -35s-147 11.667 -209 35s-116.5 59 -163.5 107s-83.333 112.5 -109 193.5s-38.5 175.833 -38.5 284.5zM254 600c0 -162 29.6709 -278.667 89.0039 -350s143.666 -107 252.999 -107
s193.666 35.667 252.999 107s89 188 89 350v129c0 161.333 -29.833 277.833 -89.5 349.5s-143.834 107.5 -252.501 107.5s-192.834 -35.833 -252.501 -107.5s-89.5 -188.167 -89.5 -349.5v-129zM346.004 1815h158l160 -279h-125z" />
    <glyph glyph-name="Oacute" unicode="&#xd3;" horiz-adv-x="1193" 
d="M76 600v129c0 108 12.833 202.5 38.5 283.5s62 145.667 109 194s101.5 84.333 163.5 108s131.667 35.5 209 35.5s147 -11.833 209 -35.5s116.5 -59.667 163.5 -108s83.333 -113 109 -194s38.5 -175.5 38.5 -283.5v-129c0 -108.667 -12.833 -203.5 -38.5 -284.5
s-62 -145.5 -109 -193.5s-101.5 -83.667 -163.5 -107s-131.667 -35 -209 -35s-147 11.667 -209 35s-116.5 59 -163.5 107s-83.333 112.5 -109 193.5s-38.5 175.833 -38.5 284.5zM254 600c0 -162 29.6709 -278.667 89.0039 -350s143.666 -107 252.999 -107
s193.666 35.667 252.999 107s89 188 89 350v129c0 161.333 -29.833 277.833 -89.5 349.5s-143.834 107.5 -252.501 107.5s-192.834 -35.833 -252.501 -107.5s-89.5 -188.167 -89.5 -349.5v-129zM506.004 1536l162 279h163l-196 -279h-129z" />
    <glyph glyph-name="Ocircumflex" unicode="&#xd4;" horiz-adv-x="1193" 
d="M76 600v129c0 108 12.833 202.5 38.5 283.5s62 145.667 109 194s101.5 84.333 163.5 108s131.667 35.5 209 35.5s147 -11.833 209 -35.5s116.5 -59.667 163.5 -108s83.333 -113 109 -194s38.5 -175.5 38.5 -283.5v-129c0 -108.667 -12.833 -203.5 -38.5 -284.5
s-62 -145.5 -109 -193.5s-101.5 -83.667 -163.5 -107s-131.667 -35 -209 -35s-147 11.667 -209 35s-116.5 59 -163.5 107s-83.333 112.5 -109 193.5s-38.5 175.833 -38.5 284.5zM254 600c0 -162 29.6709 -278.667 89.0039 -350s143.666 -107 252.999 -107
s193.666 35.667 252.999 107s89 188 89 350v129c0 161.333 -29.833 277.833 -89.5 349.5s-143.834 107.5 -252.501 107.5s-192.834 -35.833 -252.501 -107.5s-89.5 -188.167 -89.5 -349.5v-129zM338.004 1536l186 279h142l190 -279h-131l-127 197h-4l-125 -197h-131z" />
    <glyph glyph-name="Otilde" unicode="&#xd5;" horiz-adv-x="1193" 
d="M76 600v129c0 108 12.833 202.5 38.5 283.5s62 145.667 109 194s101.5 84.333 163.5 108s131.667 35.5 209 35.5s147 -11.833 209 -35.5s116.5 -59.667 163.5 -108s83.333 -113 109 -194s38.5 -175.5 38.5 -283.5v-129c0 -108.667 -12.833 -203.5 -38.5 -284.5
s-62 -145.5 -109 -193.5s-101.5 -83.667 -163.5 -107s-131.667 -35 -209 -35s-147 11.667 -209 35s-116.5 59 -163.5 107s-83.333 112.5 -109 193.5s-38.5 175.833 -38.5 284.5zM252 1542c0 187.333 69.001 281 207.001 281c24.667 0 47.167 -4.5 67.5 -13.5
s36.666 -20.5 48.999 -34.5s24.666 -28.833 36.999 -44.5s23.333 -30.5 33 -44.5s21.5 -25.5 35.5 -34.5s29.333 -13.5 46 -13.5c69.333 0 104 59.667 104 179h111c0 -187.333 -69.667 -281 -209 -281c-29.333 0 -55.166 6.16699 -77.499 18.5s-40.5 27.5 -54.5 45.5
s-27.167 36 -39.5 54s-26.5 33.167 -42.5 45.5s-34 18.5 -54 18.5c-70 0 -105 -58.667 -105 -176h-108zM254.001 600c0 -162 29.6709 -278.667 89.0039 -350s143.666 -107 252.999 -107s193.666 35.667 252.999 107s89 188 89 350v129
c0 161.333 -29.833 277.833 -89.5 349.5s-143.834 107.5 -252.501 107.5s-192.834 -35.833 -252.501 -107.5s-89.5 -188.167 -89.5 -349.5v-129z" />
    <glyph glyph-name="Odieresis" unicode="&#xd6;" horiz-adv-x="1193" 
d="M76 600v129c0 108 12.833 202.5 38.5 283.5s62 145.667 109 194s101.5 84.333 163.5 108s131.667 35.5 209 35.5s147 -11.833 209 -35.5s116.5 -59.667 163.5 -108s83.333 -113 109 -194s38.5 -175.5 38.5 -283.5v-129c0 -108.667 -12.833 -203.5 -38.5 -284.5
s-62 -145.5 -109 -193.5s-101.5 -83.667 -163.5 -107s-131.667 -35 -209 -35s-147 11.667 -209 35s-116.5 59 -163.5 107s-83.333 112.5 -109 193.5s-38.5 175.833 -38.5 284.5zM238 1642c0 30.667 10.333 56.5 31 77.5s46.334 31.5 77.001 31.5
c29.333 0 54.5 -10.5 75.5 -31.5s31.5 -46.833 31.5 -77.5c0 -29.333 -10.5 -54.333 -31.5 -75s-46.167 -31 -75.5 -31c-30.667 0 -56.334 10.333 -77.001 31s-31 45.667 -31 75zM254 600c0 -162 29.6709 -278.667 89.0039 -350s143.666 -107 252.999 -107
s193.666 35.667 252.999 107s89 188 89 350v129c0 161.333 -29.833 277.833 -89.5 349.5s-143.834 107.5 -252.501 107.5s-192.834 -35.833 -252.501 -107.5s-89.5 -188.167 -89.5 -349.5v-129zM741.004 1642c0 30.667 10.5 56.5 31.5 77.5s46.833 31.5 77.5 31.5
c29.333 0 54.333 -10.5 75 -31.5s31 -46.833 31 -77.5c0 -29.333 -10.333 -54.333 -31 -75s-45.667 -31 -75 -31c-30 0 -55.667 10.333 -77 31s-32 45.667 -32 75z" />
    <glyph glyph-name="multiply" unicode="&#xd7;" horiz-adv-x="1347" 
d="M123 229l436 435l-436 434l115 116l436 -438l434 436l115 -114l-437 -434l439 -435l-117 -116l-434 436l-436 -436z" />
    <glyph glyph-name="Oslash" unicode="&#xd8;" horiz-adv-x="1193" 
d="M76 600v129c0 108 12.833 202.5 38.5 283.5s62 145.667 109 194s101.5 84.333 163.5 108s131.667 35.5 209 35.5s147 -11.833 209 -35.5s116.5 -59.667 163.5 -108s83.333 -113 109 -194s38.5 -175.5 38.5 -283.5v-129c0 -108.667 -12.833 -203.5 -38.5 -284.5
s-62 -145.5 -109 -193.5s-101.5 -83.667 -163.5 -107s-131.667 -35 -209 -35s-147 11.667 -209 35s-116.5 59 -163.5 107s-83.333 112.5 -109 193.5s-38.5 175.833 -38.5 284.5zM254 600c0 -176 39.001 -301 117.001 -375l303 951c-28 6.66699 -54 10 -78 10
c-108.667 0 -192.834 -35.833 -252.501 -107.5s-89.5 -188.167 -89.5 -349.5v-129zM487.001 162c30 -12.667 66.334 -19 109.001 -19c109.333 0 193.666 35.667 252.999 107s89 188 89 350v129c0 190 -46.333 319 -139 387z" />
    <glyph glyph-name="Ugrave" unicode="&#xd9;" horiz-adv-x="1189" 
d="M96 604l-0.000976562 727h176v-727c0 -164 28 -281.833 84 -353.5s136 -107.5 240 -107.5c102.667 0 182 35.833 238 107.5s84 189.5 84 353.5v727h176v-727c0 -110 -12.333 -205.667 -37 -287s-59.667 -146.166 -105 -194.499s-97.5 -84.166 -156.5 -107.499
s-125.5 -35 -199.5 -35c-74.667 0 -141.667 11.667 -201 35s-111.666 59.166 -156.999 107.499s-80.333 113.166 -105 194.499s-37 177 -37 287zM343.999 1815h158l160 -279h-125z" />
    <glyph glyph-name="Uacute" unicode="&#xda;" horiz-adv-x="1189" 
d="M96 604l-0.000976562 727h176v-727c0 -164 28 -281.833 84 -353.5s136 -107.5 240 -107.5c102.667 0 182 35.833 238 107.5s84 189.5 84 353.5v727h176v-727c0 -110 -12.333 -205.667 -37 -287s-59.667 -146.166 -105 -194.499s-97.5 -84.166 -156.5 -107.499
s-125.5 -35 -199.5 -35c-74.667 0 -141.667 11.667 -201 35s-111.666 59.166 -156.999 107.499s-80.333 113.166 -105 194.499s-37 177 -37 287zM527.999 1536l162 279h164l-199 -279h-127z" />
    <glyph glyph-name="Ucircumflex" unicode="&#xdb;" horiz-adv-x="1189" 
d="M96 604l-0.000976562 727h176v-727c0 -164 28 -281.833 84 -353.5s136 -107.5 240 -107.5c102.667 0 182 35.833 238 107.5s84 189.5 84 353.5v727h176v-727c0 -110 -12.333 -205.667 -37 -287s-59.667 -146.166 -105 -194.499s-97.5 -84.166 -156.5 -107.499
s-125.5 -35 -199.5 -35c-74.667 0 -141.667 11.667 -201 35s-111.666 59.166 -156.999 107.499s-80.333 113.166 -105 194.499s-37 177 -37 287zM335.999 1536l186 279h142l190 -279h-131l-127 197h-4l-125 -197h-131z" />
    <glyph glyph-name="Udieresis" unicode="&#xdc;" horiz-adv-x="1189" 
d="M96 604l-0.000976562 727h176v-727c0 -164 28 -281.833 84 -353.5s136 -107.5 240 -107.5c102.667 0 182 35.833 238 107.5s84 189.5 84 353.5v727h176v-727c0 -110 -12.333 -205.667 -37 -287s-59.667 -146.166 -105 -194.499s-97.5 -84.166 -156.5 -107.499
s-125.5 -35 -199.5 -35c-74.667 0 -141.667 11.667 -201 35s-111.666 59.166 -156.999 107.499s-80.333 113.166 -105 194.499s-37 177 -37 287zM235.999 1642c0 30.667 10.333 56.5 31 77.5s46.334 31.5 77.001 31.5c29.333 0 54.5 -10.5 75.5 -31.5
s31.5 -46.833 31.5 -77.5c0 -29.333 -10.5 -54.333 -31.5 -75s-46.167 -31 -75.5 -31c-30.667 0 -56.334 10.333 -77.001 31s-31 45.667 -31 75zM738.999 1642c0 30.667 10.5 56.5 31.5 77.5s46.833 31.5 77.5 31.5c29.333 0 54.333 -10.5 75 -31.5s31 -46.833 31 -77.5
c0 -29.333 -10.333 -54.333 -31 -75s-45.667 -31 -75 -31c-30 0 -55.667 10.333 -77 31s-32 45.667 -32 75z" />
    <glyph glyph-name="Yacute" unicode="&#xdd;" horiz-adv-x="1196" 
d="M0 1331h199l399 -651l397 651h201l-508 -815v-516h-178v512zM530 1536l162 279h164l-197 -279h-129z" />
    <glyph glyph-name="Thorn" unicode="&#xde;" horiz-adv-x="1128" 
d="M113 0v1434h178v-205h293c167.333 0 290.333 -36 369 -108s118 -170.667 118 -296c0 -124.667 -39.333 -222.667 -118 -294s-201.667 -107 -369 -107h-293v-424h-178zM291 588l293 -0.000976562c110.667 0 189.834 20.333 237.501 61s71.5 99.334 71.5 176.001
c0 78 -23.833 137.5 -71.5 178.5s-126.834 61.5 -237.501 61.5h-293v-477z" />
    <glyph glyph-name="germandbls" unicode="&#xdf;" horiz-adv-x="1064" 
d="M113 0v830.993c0 346 143.333 519 430 519c112.667 0 200.5 -28.667 263.5 -86s94.5 -135.333 94.5 -234c0 -44 -8.83301 -82.667 -26.5 -116s-39.167 -59.666 -64.5 -78.999s-50.666 -36.666 -75.999 -51.999s-46.833 -31.666 -64.5 -48.999s-26.5 -36 -26.5 -56
c0 -14.667 6.33301 -28.167 19 -40.5s29.167 -23.666 49.5 -33.999l67 -32.5c24.333 -11.333 48.666 -24.5 72.999 -39.5s46.666 -31.667 66.999 -50s36.833 -41.666 49.5 -69.999s19 -59.833 19 -94.5c0 -110.667 -37.5 -194.5 -112.5 -251.5s-177.5 -85.5 -307.5 -85.5
c-60 0 -111 8 -153 24v176c43.333 -24.667 96.333 -37 159 -37c157.333 0 236 52.667 236 158c0 24.667 -6.33301 46.334 -19 65.001s-29 34 -49 46s-42.167 23.5 -66.5 34.5s-48.666 22.833 -72.999 35.5s-46.5 27 -66.5 43s-36.333 37.167 -49 63.5s-19 56.833 -19 91.5
c0 32 6.33301 60.833 19 86.5s28.5 46.167 47.5 61.5s39.5 31 61.5 47l61.5 43c19 12.667 34.833 28.834 47.5 48.501s19 41.5 19 65.5c0 51.333 -16 89.833 -48 115.5s-77.333 38.5 -136 38.5c-87.333 0 -150.5 -27 -189.5 -81s-58.5 -142.333 -58.5 -265v-840h-178z" />
    <glyph glyph-name="agrave" unicode="&#xe0;" horiz-adv-x="966" 
d="M45 307l-0.000976562 20.999c0 92.667 41.667 164.667 125 216s198 79.666 344 84.999c86.667 2.66699 152.334 5.33398 197.001 8.00098v57c0 68 -22 116.5 -66 145.5s-108 43.5 -192 43.5c-108.667 0 -212.667 -21.333 -312 -64l-24.5 77.5l-24.5 76.5
c125.333 46 249 69 371 69c62 0 117.5 -6.5 166.5 -19.5s92.667 -33.5 131 -61.5s68 -66.167 89 -114.5s31.5 -105.833 31.5 -172.5v-639c-116 -35.333 -256 -53 -420 -53c-56.667 0 -109.5 6.5 -158.5 19.5s-93 32.167 -132 57.5s-69.667 59.333 -92 102
s-33.5 91.334 -33.5 146.001zM214.999 306.999c0 -57.333 22.166 -99.332 66.499 -125.999s104.833 -40 181.5 -40c102.667 0 185.334 8.33301 248.001 25v332c-164 -4.66699 -274 -12.334 -330 -23.001c-92 -17.333 -145.667 -53 -161 -107c-3.33301 -12.667 -5 -26 -5 -40
v-21zM232.998 1425h158l79.5 -139l78.5 -139h-125l-96 139z" />
    <glyph glyph-name="aacute" unicode="&#xe1;" horiz-adv-x="966" 
d="M45 307l-0.000976562 20.999c0 92.667 41.667 164.667 125 216s198 79.666 344 84.999c86.667 2.66699 152.334 5.33398 197.001 8.00098v57c0 68 -22 116.5 -66 145.5s-108 43.5 -192 43.5c-108.667 0 -212.667 -21.333 -312 -64l-24.5 77.5l-24.5 76.5
c125.333 46 249 69 371 69c62 0 117.5 -6.5 166.5 -19.5s92.667 -33.5 131 -61.5s68 -66.167 89 -114.5s31.5 -105.833 31.5 -172.5v-639c-116 -35.333 -256 -53 -420 -53c-56.667 0 -109.5 6.5 -158.5 19.5s-93 32.167 -132 57.5s-69.667 59.333 -92 102
s-33.5 91.334 -33.5 146.001zM214.999 306.999c0 -57.333 22.166 -99.332 66.499 -125.999s104.833 -40 181.5 -40c102.667 0 185.334 8.33301 248.001 25v332c-164 -4.66699 -274 -12.334 -330 -23.001c-92 -17.333 -145.667 -53 -161 -107c-3.33301 -12.667 -5 -26 -5 -40
v-21zM384.998 1147l80.5 139l81.5 139h164l-98.5 -139l-98.5 -139h-129z" />
    <glyph glyph-name="acircumflex" unicode="&#xe2;" horiz-adv-x="966" 
d="M45 307l-0.000976562 20.999c0 92.667 41.667 164.667 125 216s198 79.666 344 84.999c86.667 2.66699 152.334 5.33398 197.001 8.00098v57c0 68 -22 116.5 -66 145.5s-108 43.5 -192 43.5c-108.667 0 -212.667 -21.333 -312 -64l-24.5 77.5l-24.5 76.5
c125.333 46 249 69 371 69c62 0 117.5 -6.5 166.5 -19.5s92.667 -33.5 131 -61.5s68 -66.167 89 -114.5s31.5 -105.833 31.5 -172.5v-639c-116 -35.333 -256 -53 -420 -53c-56.667 0 -109.5 6.5 -158.5 19.5s-93 32.167 -132 57.5s-69.667 59.333 -92 102
s-33.5 91.334 -33.5 146.001zM214.999 306.999c0 -57.333 22.166 -99.332 66.499 -125.999s104.833 -40 181.5 -40c102.667 0 185.334 8.33301 248.001 25v332c-164 -4.66699 -274 -12.334 -330 -23.001c-92 -17.333 -145.667 -53 -161 -107c-3.33301 -12.667 -5 -26 -5 -40
v-21zM224.998 1147l94 139l93 139h141l93.5 -139l94.5 -139h-131l-62 98l-63 98h-4l-127 -196h-129z" />
    <glyph glyph-name="atilde" unicode="&#xe3;" horiz-adv-x="966" 
d="M45 307l-0.000976562 20.999c0 92.667 41.667 164.667 125 216s198 79.666 344 84.999c86.667 2.66699 152.334 5.33398 197.001 8.00098v57c0 68 -22 116.5 -66 145.5s-108 43.5 -192 43.5c-108.667 0 -212.667 -21.333 -312 -64l-24.5 77.5l-24.5 76.5
c125.333 46 249 69 371 69c62 0 117.5 -6.5 166.5 -19.5s92.667 -33.5 131 -61.5s68 -66.167 89 -114.5s31.5 -105.833 31.5 -172.5v-639c-116 -35.333 -256 -53 -420 -53c-56.667 0 -109.5 6.5 -158.5 19.5s-93 32.167 -132 57.5s-69.667 59.333 -92 102
s-33.5 91.334 -33.5 146.001zM136.999 1153c0 187.333 69.001 281 207.001 281c24.667 0 47.167 -4.5 67.5 -13.5s36.666 -20.5 48.999 -34.5s24.666 -28.833 36.999 -44.5s23.333 -30.5 33 -44.5s21.5 -25.5 35.5 -34.5s29.333 -13.5 46 -13.5c70 0 105 59.333 105 178h110
c0 -186.667 -69.667 -280 -209 -280c-29.333 0 -55.166 6.16699 -77.499 18.5s-40.5 27.5 -54.5 45.5s-27.167 36 -39.5 54s-26.5 33.167 -42.5 45.5s-34 18.5 -54 18.5c-69.333 0 -104 -58.667 -104 -176h-109zM215 306.999c0 -57.333 22.166 -99.332 66.499 -125.999
s104.833 -40 181.5 -40c102.667 0 185.334 8.33301 248.001 25v332c-164 -4.66699 -274 -12.334 -330 -23.001c-92 -17.333 -145.667 -53 -161 -107c-3.33301 -12.667 -5 -26 -5 -40v-21z" />
    <glyph glyph-name="adieresis" unicode="&#xe4;" horiz-adv-x="966" 
d="M45 307l-0.000976562 20.999c0 92.667 41.667 164.667 125 216s198 79.666 344 84.999c86.667 2.66699 152.334 5.33398 197.001 8.00098v57c0 68 -22 116.5 -66 145.5s-108 43.5 -192 43.5c-108.667 0 -212.667 -21.333 -312 -64l-24.5 77.5l-24.5 76.5
c125.333 46 249 69 371 69c62 0 117.5 -6.5 166.5 -19.5s92.667 -33.5 131 -61.5s68 -66.167 89 -114.5s31.5 -105.833 31.5 -172.5v-639c-116 -35.333 -256 -53 -420 -53c-56.667 0 -109.5 6.5 -158.5 19.5s-93 32.167 -132 57.5s-69.667 59.333 -92 102
s-33.5 91.334 -33.5 146.001zM120.999 1253c0 30 10.499 55.667 31.499 77s46.5 32 76.5 32c30.667 0 56.5 -10.5 77.5 -31.5s31.5 -46.833 31.5 -77.5c0 -29.333 -10.5 -54.333 -31.5 -75s-46.833 -31 -77.5 -31c-29.333 0 -54.666 10.333 -75.999 31s-32 45.667 -32 75z
M214.998 306.999c0 -57.333 22.166 -99.332 66.499 -125.999s104.833 -40 181.5 -40c102.667 0 185.334 8.33301 248.001 25v332c-164 -4.66699 -274 -12.334 -330 -23.001c-92 -17.333 -145.667 -53 -161 -107c-3.33301 -12.667 -5 -26 -5 -40v-21zM624.997 1253
c0 30 10.499 55.667 31.499 77s46.5 32 76.5 32c30.667 0 56.5 -10.5 77.5 -31.5s31.5 -46.833 31.5 -77.5c0 -29.333 -10.667 -54.333 -32 -75s-47 -31 -77 -31c-29.333 0 -54.666 10.333 -75.999 31s-32 45.667 -32 75z" />
    <glyph glyph-name="aring" unicode="&#xe5;" horiz-adv-x="966" 
d="M45 307l-0.000976562 20.999c0 92.667 41.667 164.667 125 216s198 79.666 344 84.999c86.667 2.66699 152.334 5.33398 197.001 8.00098v57c0 68 -22 116.5 -66 145.5s-108 43.5 -192 43.5c-108.667 0 -212.667 -21.333 -312 -64l-24.5 77.5l-24.5 76.5
c125.333 46 249 69 371 69c62 0 117.5 -6.5 166.5 -19.5s92.667 -33.5 131 -61.5s68 -66.167 89 -114.5s31.5 -105.833 31.5 -172.5v-639c-116 -35.333 -256 -53 -420 -53c-56.667 0 -109.5 6.5 -158.5 19.5s-93 32.167 -132 57.5s-69.667 59.333 -92 102
s-33.5 91.334 -33.5 146.001zM214.999 306.999c0 -57.333 22.166 -99.332 66.499 -125.999s104.833 -40 181.5 -40c102.667 0 185.334 8.33301 248.001 25v332c-164 -4.66699 -274 -12.334 -330 -23.001c-92 -17.333 -145.667 -53 -161 -107c-3.33301 -12.667 -5 -26 -5 -40
v-21zM306.998 1307c0 48.667 16.5 87.667 49.5 117s74.5 44 124.5 44c49.333 0 90.333 -14.667 123 -44s49 -68.333 49 -117c0 -48 -16.333 -86.667 -49 -116s-73.667 -44 -123 -44c-50 0 -91.5 14.667 -124.5 44s-49.5 68 -49.5 116zM390.998 1307
c0 -24.667 8.16797 -45.5 24.501 -62.5s38.166 -25.5 65.499 -25.5c26.667 0 48 8.5 64 25.5s24 37.833 24 62.5c0 26 -8 47.5 -24 64.5s-37.333 25.5 -64 25.5c-28 0 -50 -8.5 -66 -25.5s-24 -38.5 -24 -64.5z" />
    <glyph glyph-name="ae" unicode="&#xe6;" horiz-adv-x="1636" 
d="M45 297l0.00195312 31.0039c0 91.333 42 162.666 126 213.999s196.333 79.666 337 84.999c46 2.66699 113.667 5.33398 203 8.00098v61c0 67.333 -22.167 115.333 -66.5 144s-108.166 43 -191.499 43c-112 0 -216 -20.667 -312 -62l-24.5 76.5l-24.5 75.5
c125.333 46 249 69 371 69c170 0 286 -49.667 348 -149c71.333 100.667 180.666 151 327.999 151c134 0 238.833 -41.333 314.5 -124s113.5 -210.334 113.5 -383.001v-95h-682v-20c0.666992 -92.667 28 -162.667 82 -210s127 -71 219 -71c120 0 222.333 20 307 60
c5.33301 -16.667 13.833 -41.334 25.5 -74.001s20.167 -57.334 25.5 -74.001c-110 -47.333 -229.333 -71 -358 -71c-86.667 0 -162.334 16.5 -227.001 49.5s-114 80.5 -148 142.5c-30.667 -66 -76.5 -114.5 -137.5 -145.5s-141.5 -46.5 -241.5 -46.5
c-116.667 0 -210.334 26 -281.001 78s-106 131 -106 237zM215.002 297.004c0 -59.333 22.166 -102.833 66.499 -130.5s104.833 -41.5 181.5 -41.5c75.333 0 135.5 19.5 180.5 58.5s67.5 101.5 67.5 187.5v127c-159.333 -4.66699 -265.666 -11.667 -318.999 -21
c-98.667 -18 -156 -54.667 -172 -110c-3.33301 -12 -5 -25 -5 -39v-31zM885.001 575.004h510.001v3v8c0 101.333 -23 176.5 -69 225.5s-108.333 73.5 -187 73.5c-77.333 0 -138.833 -23.667 -184.5 -71s-68.834 -119.333 -69.501 -216v-23z" />
    <glyph glyph-name="ccedilla" unicode="&#xe7;" horiz-adv-x="872" 
d="M66 492l0.000976562 53.002c0 68.667 7.66699 130.667 23 186s36.833 102.166 64.5 140.499s61.167 70.333 100.5 96s82.333 44.5 129 56.5s97.334 18 152.001 18c101.333 0 198.666 -30 291.999 -90c-4.66699 -16.667 -12.5 -41.334 -23.5 -74.001
s-18.833 -57 -23.5 -73c-76 52 -157.667 78 -245 78c-96 0 -169.833 -26.667 -221.5 -80s-77.5 -139.333 -77.5 -258v-53c0 -117.333 28.5 -205.166 85.5 -263.499s134.833 -87.5 233.5 -87.5c91.333 0 172.666 20.667 243.999 62c4.66699 -16.667 12.5 -41.167 23.5 -73.5
s18.833 -56.5 23.5 -72.5c-84 -50 -181 -75 -291 -75c-6.66699 0 -16.667 0.333008 -30 1s-23 1 -29 1c-2 -6.66699 -4.83301 -17.334 -8.5 -32.001s-6.5 -25.334 -8.5 -32.001c53.333 7.33301 98 -2.16699 134 -28.5s53 -64.5 51 -114.5
c-0.666992 -40 -12.334 -73.667 -35.001 -101s-50.834 -46.166 -84.501 -56.499s-69.5 -14.833 -107.5 -13.5s-73.667 8.33301 -107 21c0 10 0.333008 25.667 1 47s1 37 1 47c12.667 -6.66699 30.667 -11.834 54 -15.501s47.333 -4.66699 72 -3s46 8.83398 64 21.501
s27 30.334 27 53.001c0 20.667 -6.5 36.834 -19.5 48.501s-29.667 18.667 -50 21s-40.166 2.66602 -59.499 0.999023s-37.666 -4.83398 -54.999 -9.50098l18 77l20 87c-107.333 27.333 -190.333 84 -249 170s-88 192.667 -88 320z" />
    <glyph glyph-name="egrave" unicode="&#xe8;" horiz-adv-x="999" 
d="M55 485l-0.00292969 54c0 170.667 38.667 297.167 116 379.5s185 123.5 323 123.5c138.667 0 246.334 -41 323.001 -123s115 -208.667 115 -380v-93h-703v-10c0 -98 27.333 -171.667 82 -221s131.334 -74 230.001 -74c126 0 232.333 18.667 319 56l49 -150
c-108 -43.333 -230.667 -65 -368 -65c-153.333 0 -272.666 41 -357.999 123s-128 208.667 -128 380zM228.997 578h531v12c0 99.333 -23.5 173 -70.5 221s-112.167 72 -195.5 72s-148.333 -24 -195 -72s-70 -121.667 -70 -221v-12zM253.997 1425h158l159 -278h-125z" />
    <glyph glyph-name="eacute" unicode="&#xe9;" horiz-adv-x="999" 
d="M55 485l-0.00292969 54c0 170.667 38.667 297.167 116 379.5s185 123.5 323 123.5c138.667 0 246.334 -41 323.001 -123s115 -208.667 115 -380v-93h-703v-10c0 -98 27.333 -171.667 82 -221s131.334 -74 230.001 -74c126 0 232.333 18.667 319 56l49 -150
c-108 -43.333 -230.667 -65 -368 -65c-153.333 0 -272.666 41 -357.999 123s-128 208.667 -128 380zM228.997 578h531v12c0 99.333 -23.5 173 -70.5 221s-112.167 72 -195.5 72s-148.333 -24 -195 -72s-70 -121.667 -70 -221v-12zM437.997 1147l162 278h164l-199 -278h-127z
" />
    <glyph glyph-name="ecircumflex" unicode="&#xea;" horiz-adv-x="999" 
d="M55 485l-0.00292969 54c0 170.667 38.667 297.167 116 379.5s185 123.5 323 123.5c138.667 0 246.334 -41 323.001 -123s115 -208.667 115 -380v-93h-703v-10c0 -98 27.333 -171.667 82 -221s131.334 -74 230.001 -74c126 0 232.333 18.667 319 56l49 -150
c-108 -43.333 -230.667 -65 -368 -65c-153.333 0 -272.666 41 -357.999 123s-128 208.667 -128 380zM228.997 578h531v12c0 99.333 -23.5 173 -70.5 221s-112.167 72 -195.5 72s-148.333 -24 -195 -72s-70 -121.667 -70 -221v-12zM245.997 1147l186 278h141l191 -278h-131
l-127 196h-4l-125 -196h-131z" />
    <glyph glyph-name="edieresis" unicode="&#xeb;" horiz-adv-x="999" 
d="M55 485l-0.00292969 54c0 170.667 38.667 297.167 116 379.5s185 123.5 323 123.5c138.667 0 246.334 -41 323.001 -123s115 -208.667 115 -380v-93h-703v-10c0 -98 27.333 -171.667 82 -221s131.334 -74 230.001 -74c126 0 232.333 18.667 319 56l49 -150
c-108 -43.333 -230.667 -65 -368 -65c-153.333 0 -272.666 41 -357.999 123s-128 208.667 -128 380zM144.997 1253c0 30.667 10.5 56.5 31.5 77.5s46.833 31.5 77.5 31.5c29.333 0 54.333 -10.5 75 -31.5s31 -46.833 31 -77.5c0 -29.333 -10.333 -54.333 -31 -75
s-45.667 -31 -75 -31c-30.667 0 -56.5 10.333 -77.5 31s-31.5 45.667 -31.5 75zM228.997 578h531v12c0 99.333 -23.5 173 -70.5 221s-112.167 72 -195.5 72s-148.333 -24 -195 -72s-70 -121.667 -70 -221v-12zM648.997 1253c0 30.667 10.5 56.5 31.5 77.5
s46.833 31.5 77.5 31.5c29.333 0 54.333 -10.5 75 -31.5s31 -46.833 31 -77.5c0 -29.333 -10.333 -54.333 -31 -75s-45.667 -31 -75 -31c-30 0 -55.667 10.333 -77 31s-32 45.667 -32 75z" />
    <glyph glyph-name="igrave" unicode="&#xec;" horiz-adv-x="438" 
d="M-29 1425h158l160 -278h-125zM135 0v1024h168v-1024h-168z" />
    <glyph glyph-name="iacute" unicode="&#xed;" horiz-adv-x="438" 
d="M135 0v1024h168v-1024h-168zM150 1147l161 278h164l-196 -278h-129z" />
    <glyph glyph-name="icircumflex" unicode="&#xee;" horiz-adv-x="438" 
d="M-39 1147l186 278h142l188 -278h-131l-125 196h-4l-127 -196h-129zM135 0v1024h168v-1024h-168z" />
    <glyph glyph-name="idieresis" unicode="&#xef;" horiz-adv-x="438" 
d="M-141 1253c0 30 10.499 55.667 31.499 77s46.5 32 76.5 32c30.667 0 56.5 -10.5 77.5 -31.5s31.5 -46.833 31.5 -77.5c0 -29.333 -10.5 -54.333 -31.5 -75s-46.833 -31 -77.5 -31c-29.333 0 -54.666 10.333 -75.999 31s-32 45.667 -32 75zM134.999 0v1024h168v-1024h-168
zM361.999 1253c0 30 10.667 55.667 32 77s47 32 77 32c30.667 0 56.5 -10.5 77.5 -31.5s31.5 -46.833 31.5 -77.5c0 -29.333 -10.667 -54.333 -32 -75s-47 -31 -77 -31s-55.667 10.333 -77 31s-32 45.667 -32 75z" />
    <glyph glyph-name="eth" unicode="&#xf0;" horiz-adv-x="1040" 
d="M66 414c0 67.333 10.834 127.004 32.501 179.004s51.834 94.167 90.501 126.5s83.167 56.666 133.5 72.999s105.166 24.5 164.499 24.5c111.333 0 209 -19.667 293 -59c-4 103.333 -22.5 186 -55.5 248s-78.5 115.667 -136.5 161l-232 -229l-80 80l216 213
c-89.333 47.333 -196 78 -320 92l47 154c52 -4.66699 115.667 -18.334 191 -41.001s142 -50.667 200 -84l144 143l80 -80l-129 -129c31.333 -26 58.5 -51.5 81.5 -76.5s46.167 -56 69.5 -93s42.333 -77 57 -120s26.667 -94.833 36 -155.5s14 -127.334 14 -200.001
c0 -78 -4.33301 -148.333 -13 -211s-24.167 -122.834 -46.5 -180.501s-51.333 -105.667 -87 -144s-82.167 -68.833 -139.5 -91.5s-124 -34 -200 -34c-58.667 0 -112.334 8.5 -161.001 25.5s-92 42.5 -130 76.5s-67.5 79.333 -88.5 136s-31.5 122 -31.5 196zM244.001 414.004
c0 -92.667 21.999 -160.998 65.999 -204.998s101 -66 171 -66c48 0 89.833 7.33301 125.5 22s64.5 34.5 86.5 59.5s39.5 57.167 52.5 96.5s22 80.666 27 123.999s7.5 93.666 7.5 150.999c-51.333 26 -98.666 43.833 -141.999 53.5s-92 14.5 -146 14.5
c-69.333 0 -128 -20.167 -176 -60.5s-72 -103.5 -72 -189.5z" />
    <glyph glyph-name="ntilde" unicode="&#xf1;" 
d="M113 0v989c112 35.333 247.667 53 407 53c285.333 0 428 -146.667 428 -440v-602h-168v612c0 54 -6.16699 99.333 -18.5 136s-31.166 64.5 -56.499 83.5s-53.333 32.333 -84 40s-67.667 11.5 -111 11.5c-88.667 0 -164.334 -8.33301 -227.001 -25v-858h-170zM176 1153
c0 187.333 69.668 281 209.001 281c24.667 0 47.167 -4.5 67.5 -13.5s36.666 -20.5 48.999 -34.5s24.666 -28.833 36.999 -44.5s23.333 -30.5 33 -44.5s21.5 -25.5 35.5 -34.5s29.333 -13.5 46 -13.5c70 0 105 59.333 105 178h108c0 -186.667 -69 -280 -207 -280
c-29.333 0 -55.166 6.16699 -77.499 18.5s-40.5 27.5 -54.5 45.5s-27.167 36 -39.5 54s-26.5 33.167 -42.5 45.5s-34 18.5 -54 18.5c-69.333 0 -104 -58.667 -104 -176h-111z" />
    <glyph glyph-name="ograve" unicode="&#xf2;" 
d="M76 489l0.000976562 42.999c0 174 40 302.5 120 385.5s188 124.5 324 124.5s244.167 -41.5 324.5 -124.5s120.5 -211.5 120.5 -385.5v-43c0 -88 -11 -165 -33 -231s-53.333 -118.833 -94 -158.5s-87.334 -69.167 -140.001 -88.5s-112 -29 -178 -29
c-136 0 -244 41.333 -324 124s-120 210.334 -120 383.001zM246.001 488.999c0 -125.333 23.167 -214.665 69.5 -267.998s114.5 -80 204.5 -80s158.333 26.667 205 80s70 142.666 70 267.999v43c0 126 -23.333 216 -70 270s-115 81 -205 81s-158.167 -26.833 -204.5 -80.5
s-69.5 -143.834 -69.5 -270.501v-43zM274.001 1425h158l79.5 -139l80.5 -139h-125l-96.5 139z" />
    <glyph glyph-name="oacute" unicode="&#xf3;" 
d="M76 489l0.000976562 42.999c0 174 40 302.5 120 385.5s188 124.5 324 124.5s244.167 -41.5 324.5 -124.5s120.5 -211.5 120.5 -385.5v-43c0 -88 -11 -165 -33 -231s-53.333 -118.833 -94 -158.5s-87.334 -69.167 -140.001 -88.5s-112 -29 -178 -29
c-136 0 -244 41.333 -324 124s-120 210.334 -120 383.001zM246.001 488.999c0 -125.333 23.167 -214.665 69.5 -267.998s114.5 -80 204.5 -80s158.333 26.667 205 80s70 142.666 70 267.999v43c0 126 -23.333 216 -70 270s-115 81 -205 81s-158.167 -26.833 -204.5 -80.5
s-69.5 -143.834 -69.5 -270.501v-43zM455.001 1147l81 139l80 139h164l-99 -139l-99 -139h-127z" />
    <glyph glyph-name="ocircumflex" unicode="&#xf4;" 
d="M76 489l0.000976562 42.999c0 174 40 302.5 120 385.5s188 124.5 324 124.5s244.167 -41.5 324.5 -124.5s120.5 -211.5 120.5 -385.5v-43c0 -88 -11 -165 -33 -231s-53.333 -118.833 -94 -158.5s-87.334 -69.167 -140.001 -88.5s-112 -29 -178 -29
c-136 0 -244 41.333 -324 124s-120 210.334 -120 383.001zM246.001 488.999c0 -125.333 23.167 -214.665 69.5 -267.998s114.5 -80 204.5 -80s158.333 26.667 205 80s70 142.666 70 267.999v43c0 126 -23.333 216 -70 270s-115 81 -205 81s-158.167 -26.833 -204.5 -80.5
s-69.5 -143.834 -69.5 -270.501v-43zM262.001 1147l93 139l94 139h141l94.5 -139l95.5 -139h-131l-63.5 98l-63.5 98h-4l-125 -196h-131z" />
    <glyph glyph-name="otilde" unicode="&#xf5;" 
d="M76 489l0.000976562 42.999c0 174 40 302.5 120 385.5s188 124.5 324 124.5s244.167 -41.5 324.5 -124.5s120.5 -211.5 120.5 -385.5v-43c0 -88 -11 -165 -33 -231s-53.333 -118.833 -94 -158.5s-87.334 -69.167 -140.001 -88.5s-112 -29 -178 -29
c-136 0 -244 41.333 -324 124s-120 210.334 -120 383.001zM176.001 1155c0 187.333 69.001 281 207.001 281c24.667 0 47.167 -4.5 67.5 -13.5s36.666 -20.5 48.999 -34.5s24.666 -28.833 36.999 -44.5s23.333 -30.5 33 -44.5s21.5 -25.5 35.5 -34.5s29.333 -13.5 46 -13.5
c70 0 105 59.667 105 179h110c0 -187.333 -69.667 -281 -209 -281c-29.333 0 -55.166 6.16699 -77.499 18.5s-40.5 27.5 -54.5 45.5s-27.167 36 -39.5 54s-26.5 33.167 -42.5 45.5s-34 18.5 -54 18.5c-69.333 0 -104 -58.667 -104 -176h-109zM246.002 488.999
c0 -125.333 23.167 -214.665 69.5 -267.998s114.5 -80 204.5 -80s158.333 26.667 205 80s70 142.666 70 267.999v43c0 126 -23.333 216 -70 270s-115 81 -205 81s-158.167 -26.833 -204.5 -80.5s-69.5 -143.834 -69.5 -270.501v-43z" />
    <glyph glyph-name="odieresis" unicode="&#xf6;" 
d="M76 489l0.000976562 42.999c0 174 40 302.5 120 385.5s188 124.5 324 124.5s244.167 -41.5 324.5 -124.5s120.5 -211.5 120.5 -385.5v-43c0 -88 -11 -165 -33 -231s-53.333 -118.833 -94 -158.5s-87.334 -69.167 -140.001 -88.5s-112 -29 -178 -29
c-136 0 -244 41.333 -324 124s-120 210.334 -120 383.001zM162.001 1253c0 30.667 10.333 56.5 31 77.5s46.334 31.5 77.001 31.5c29.333 0 54.5 -10.5 75.5 -31.5s31.5 -46.833 31.5 -77.5c0 -29.333 -10.5 -54.333 -31.5 -75s-46.167 -31 -75.5 -31
c-30.667 0 -56.334 10.333 -77.001 31s-31 45.667 -31 75zM246.001 488.999c0 -125.333 23.167 -214.665 69.5 -267.998s114.5 -80 204.5 -80s158.333 26.667 205 80s70 142.666 70 267.999v43c0 126 -23.333 216 -70 270s-115 81 -205 81s-158.167 -26.833 -204.5 -80.5
s-69.5 -143.834 -69.5 -270.501v-43zM666.001 1253c0 30.667 10.3311 56.5 30.998 77.5s46.334 31.5 77.001 31.5c29.333 0 54.5 -10.5 75.5 -31.5s31.5 -46.833 31.5 -77.5c0 -29.333 -10.5 -54.333 -31.5 -75s-46.167 -31 -75.5 -31s-54.666 10.333 -75.999 31
s-32 45.667 -32 75z" />
    <glyph glyph-name="divide" unicode="&#xf7;" horiz-adv-x="1282" 
d="M98 569v154h1086v-154h-1086zM524 266c0 32 11.3311 59.167 33.998 81.5s50.334 33.5 83.001 33.5c31.333 0 58.333 -11.333 81 -34s34 -49.667 34 -81s-11.333 -58.5 -34 -81.5s-49.667 -34.5 -81 -34.5c-33.333 0 -61.166 11.167 -83.499 33.5s-33.5 49.833 -33.5 82.5
zM523.998 1028c0 32 11.333 59.167 34 81.5s50.334 33.5 83.001 33.5c31.333 0 58.333 -11.333 81 -34s34 -49.667 34 -81s-11.333 -58.666 -34 -81.999s-49.667 -35 -81 -35c-32.667 0 -60.334 11.167 -83.001 33.5s-34 50.166 -34 83.499z" />
    <glyph glyph-name="oslash" unicode="&#xf8;" horiz-adv-x="1021" 
d="M76 489l-0.00195312 43c0 89.333 10.667 167.333 32 234s51.833 120 91.5 160s85.334 69.667 137.001 89s109.5 29 173.5 29s121.833 -9.66699 173.5 -29s97.334 -49 137.001 -89s70.167 -93.333 91.5 -160s32 -144.667 32 -234v-43c0 -174 -39.167 -302.333 -117.5 -385
s-183.833 -124 -316.5 -124s-238.167 41.333 -316.5 124s-117.5 211 -117.5 385zM245.998 489c0 -139.333 30.001 -236 90.001 -290l124 338.5l124 339.5c-33.333 5.33301 -58 8 -74 8c-86.667 0 -152.334 -27 -197.001 -81s-67 -144.667 -67 -272v-43zM423.999 150
c14.667 -4 32.332 -7 52.999 -9s41.334 -2 62.001 0c76.667 4 135 33 175 87s60 141 60 261v43c0 145.333 -32.667 244.333 -98 297l-126 -340z" />
    <glyph glyph-name="ugrave" unicode="&#xf9;" 
d="M94 420l0.000976562 604h168v-614c0 -54 6.16699 -99.167 18.5 -135.5s31.166 -64 56.499 -83s53.333 -32.167 84 -39.5s67.667 -11 111 -11c91.333 0 167.333 7.66699 228 23v860h170v-989c-124 -35.333 -260 -53 -408 -53c-285.333 0 -428 146 -428 438zM262.001 1425
h158l158 -278h-125z" />
    <glyph glyph-name="uacute" unicode="&#xfa;" 
d="M94 420l0.000976562 604h168v-614c0 -54 6.16699 -99.167 18.5 -135.5s31.166 -64 56.499 -83s53.333 -32.167 84 -39.5s67.667 -11 111 -11c91.333 0 167.333 7.66699 228 23v860h170v-989c-124 -35.333 -260 -53 -408 -53c-285.333 0 -428 146 -428 438zM444.001 1147
l162 278h164l-197 -278h-129z" />
    <glyph glyph-name="ucircumflex" unicode="&#xfb;" 
d="M94 420l0.000976562 604h168v-614c0 -54 6.16699 -99.167 18.5 -135.5s31.166 -64 56.499 -83s53.333 -32.167 84 -39.5s67.667 -11 111 -11c91.333 0 167.333 7.66699 228 23v860h170v-989c-124 -35.333 -260 -53 -408 -53c-285.333 0 -428 146 -428 438zM264.001 1147
l187 278h141l188 -278h-131l-125 196h-4l-127 -196h-129z" />
    <glyph glyph-name="udieresis" unicode="&#xfc;" 
d="M94 420l0.000976562 604h168v-614c0 -54 6.16699 -99.167 18.5 -135.5s31.166 -64 56.499 -83s53.333 -32.167 84 -39.5s67.667 -11 111 -11c91.333 0 167.333 7.66699 228 23v860h170v-989c-124 -35.333 -260 -53 -408 -53c-285.333 0 -428 146 -428 438zM152.001 1253
c0 30 10.667 55.667 32 77s46.666 32 75.999 32c30.667 0 56.5 -10.5 77.5 -31.5s31.5 -46.833 31.5 -77.5c0 -29.333 -10.5 -54.333 -31.5 -75s-46.833 -31 -77.5 -31c-29.333 0 -54.666 10.333 -75.999 31s-32 45.667 -32 75zM655.001 1253c0 30 10.665 55.667 31.998 77
s47 32 77 32c30.667 0 56.334 -10.5 77.001 -31.5s31 -46.833 31 -77.5c0 -29.333 -10.667 -54.333 -32 -75s-46.666 -31 -75.999 -31c-30 0 -55.667 10.333 -77 31s-32 45.667 -32 75z" />
    <glyph glyph-name="yacute" unicode="&#xfd;" 
d="M94 420l-0.000976562 604h168v-614c0 -54 6.16699 -99 18.5 -135s31 -63.5 56 -82.5s52.833 -32.333 83.5 -40s68 -11.5 112 -11.5c78 0 154 9 228 27v856h170v-1096c0 -78 -10.667 -145.5 -32 -202.5s-51.666 -102.5 -90.999 -136.5s-84.5 -59 -135.5 -75
s-108.833 -24 -173.5 -24c-140.667 0 -266.334 28.667 -377.001 86l49 148c92.667 -49.333 202 -74 328 -74c86 0 151.167 20.333 195.5 61s66.5 113 66.5 217v82c-59.333 -18.667 -138.666 -28 -237.999 -28c-285.333 0 -428 146 -428 438zM443.999 1147l162 278h164
l-197 -278h-129z" />
    <glyph glyph-name="thorn" unicode="&#xfe;" horiz-adv-x="1026" 
d="M113 -512l0.000976562 1946h168v-539c55.333 99.333 148.666 149 279.999 149c114.667 0 207.834 -42.5 279.501 -127.5s107.5 -213.167 107.5 -384.5v-49c0 -167.333 -35.833 -293 -107.5 -377s-164.834 -126 -279.501 -126c-128 0 -221.333 48.333 -280 145v-637h-168z
M283.001 483c0 -125.333 21.333 -215 64 -269s103.667 -81 183 -81c80.667 0 142.167 26.333 184.5 79s63.5 143 63.5 271v49c0 129.333 -21.167 220.5 -63.5 273.5s-103.833 79.5 -184.5 79.5c-162.667 0 -245 -110 -247 -330v-72z" />
    <glyph glyph-name="ydieresis" unicode="&#xff;" 
d="M94 420l-0.000976562 604h168v-614c0 -54 6.16699 -99 18.5 -135s31 -63.5 56 -82.5s52.833 -32.333 83.5 -40s68 -11.5 112 -11.5c78 0 154 9 228 27v856h170v-1096c0 -78 -10.667 -145.5 -32 -202.5s-51.666 -102.5 -90.999 -136.5s-84.5 -59 -135.5 -75
s-108.833 -24 -173.5 -24c-140.667 0 -266.334 28.667 -377.001 86l49 148c92.667 -49.333 202 -74 328 -74c86 0 151.167 20.333 195.5 61s66.5 113 66.5 217v82c-59.333 -18.667 -138.666 -28 -237.999 -28c-285.333 0 -428 146 -428 438zM153.999 1253
c0 30.667 10.333 56.5 31 77.5s46.334 31.5 77.001 31.5c29.333 0 54.5 -10.5 75.5 -31.5s31.5 -46.833 31.5 -77.5c0 -29.333 -10.5 -54.333 -31.5 -75s-46.167 -31 -75.5 -31c-30.667 0 -56.334 10.333 -77.001 31s-31 45.667 -31 75zM656.999 1253
c0 30.667 10.5 56.5 31.5 77.5s46.833 31.5 77.5 31.5c29.333 0 54.333 -10.5 75 -31.5s31 -46.833 31 -77.5c0 -29.333 -10.333 -54.333 -31 -75s-45.667 -31 -75 -31c-30 0 -55.667 10.333 -77 31s-32 45.667 -32 75z" />
    <glyph glyph-name="OE" unicode="&#x152;" horiz-adv-x="1853" 
d="M76 600v129c0 108 12.833 202.5 38.5 283.5s62 145.667 109 194s101.5 84.333 163.5 108s131.667 35.5 209 35.5c148 0 262 -46.667 342 -140v121h877v-164h-699v-385h617v-164h-617v-454h699v-164h-877v117c-78 -91.333 -192 -137 -342 -137
c-77.333 0 -147 11.667 -209 35s-116.5 59 -163.5 107s-83.333 112.5 -109 193.5s-38.5 175.833 -38.5 284.5zM254 600c0 -162 29.6699 -278.668 89.0029 -350.001s143.666 -107 252.999 -107s193.666 35.667 252.999 107s89 188 89 350v154
c-2.66699 152.667 -33.667 262.834 -93 330.501s-142.333 101.5 -249 101.5c-108.667 0 -192.834 -35.833 -252.501 -107.5s-89.5 -188.167 -89.5 -349.5v-129z" />
    <glyph glyph-name="oe" unicode="&#x153;" horiz-adv-x="1687" 
d="M76 489v42.999c0 88.667 10.667 166.334 32 233.001s51.666 119.834 90.999 159.501s84.333 69.167 135 88.5s107.334 29 170.001 29c159.333 0 273.333 -60.667 342 -182c68 121.333 182.667 182 344 182c134 0 238.833 -41.333 314.5 -124s113.5 -209.667 113.5 -381
v-95h-682v-20c0 -92.667 27 -162.667 81 -210s127.333 -71 220 -71c122.667 0 228.334 25.333 317.001 76c5.33301 -16.667 13.666 -41.334 24.999 -74.001l25 -73c-108.667 -58.667 -231 -88 -367 -88c-184.667 0 -313.667 62 -387 186c-68 -124 -183.333 -186 -346 -186
c-62.667 0 -119.334 9.66699 -170.001 29s-95.667 48.833 -135 88.5s-69.666 92.5 -90.999 158.5s-32 143 -32 231zM246 488.999c0 -125.333 22.002 -214.667 66.002 -268s108 -80 192 -80c83.333 0 147.166 26.333 191.499 79s66.5 140.334 66.5 263.001v70
c-0.666992 117.333 -23.334 201.666 -68.001 252.999s-108 77 -190 77c-84 0 -148 -27 -192 -81s-66 -144 -66 -270v-43zM936.002 574.998l510 -0.000976562v3v8c0 100.667 -23 175.334 -69 224.001s-108.333 73 -187 73c-77.333 0 -139 -23.833 -185 -71.5
s-69 -120.167 -69 -217.5v-19z" />
    <glyph glyph-name="Ydieresis" unicode="&#x178;" horiz-adv-x="1196" 
d="M0 1331h199l399 -651l397 651h201l-508 -815v-516h-178v512zM238 1642c0 30.667 10.667 56.5 32 77.5s46.666 31.5 75.999 31.5c30.667 0 56.5 -10.5 77.5 -31.5s31.5 -46.833 31.5 -77.5c0 -29.333 -10.5 -54.333 -31.5 -75s-46.833 -31 -77.5 -31
c-29.333 0 -54.666 10.333 -75.999 31s-32 45.667 -32 75zM741 1642c0 30 10.665 55.667 31.998 77s47 32 77 32c30.667 0 56.334 -10.5 77.001 -31.5s31 -46.833 31 -77.5c0 -29.333 -10.667 -54.333 -32 -75s-46.666 -31 -75.999 -31c-30 0 -55.667 10.333 -77 31
s-32 45.667 -32 75z" />
    <glyph glyph-name="circumflex" unicode="&#x2c6;" horiz-adv-x="864" 
d="M174 1536l186 279h142l188 -279h-131l-125 197h-4l-127 -197h-129z" />
    <glyph glyph-name="tilde" unicode="&#x2dc;" horiz-adv-x="1021" 
d="M166 1542c0 187.333 69.001 281 207.001 281c24.667 0 47.167 -4.5 67.5 -13.5s36.666 -20.5 48.999 -34.5s24.666 -28.833 36.999 -44.5s23.333 -30.5 33 -44.5s21.5 -25.5 35.5 -34.5s29.333 -13.5 46 -13.5c69.333 0 104 59.667 104 179h111
c0 -187.333 -69.667 -281 -209 -281c-29.333 0 -55.166 6.16699 -77.499 18.5s-40.5 27.5 -54.5 45.5s-27.167 36 -39.5 54s-26.5 33.167 -42.5 45.5s-34 18.5 -54 18.5c-70 0 -105 -58.667 -105 -176h-108z" />
    <glyph glyph-name="uni2000" unicode="&#x2000;" horiz-adv-x="929" 
 />
    <glyph glyph-name="uni2001" unicode="&#x2001;" horiz-adv-x="1858" 
 />
    <glyph glyph-name="uni2002" unicode="&#x2002;" horiz-adv-x="929" 
 />
    <glyph glyph-name="uni2003" unicode="&#x2003;" horiz-adv-x="1858" 
 />
    <glyph glyph-name="uni2004" unicode="&#x2004;" horiz-adv-x="619" 
 />
    <glyph glyph-name="uni2005" unicode="&#x2005;" horiz-adv-x="464" 
 />
    <glyph glyph-name="uni2006" unicode="&#x2006;" horiz-adv-x="309" 
 />
    <glyph glyph-name="uni2007" unicode="&#x2007;" horiz-adv-x="309" 
 />
    <glyph glyph-name="uni2008" unicode="&#x2008;" horiz-adv-x="232" 
 />
    <glyph glyph-name="uni2009" unicode="&#x2009;" horiz-adv-x="371" 
 />
    <glyph glyph-name="uni200A" unicode="&#x200a;" horiz-adv-x="103" 
 />
    <glyph glyph-name="uni2010" unicode="&#x2010;" horiz-adv-x="706" 
d="M49 434v154h606v-154h-606z" />
    <glyph glyph-name="uni2011" unicode="&#x2011;" horiz-adv-x="706" 
d="M49 434v154h606v-154h-606z" />
    <glyph glyph-name="figuredash" unicode="&#x2012;" horiz-adv-x="706" 
d="M49 434v154h606v-154h-606z" />
    <glyph glyph-name="endash" unicode="&#x2013;" horiz-adv-x="1062" 
d="M96 549v153h871v-153h-871z" />
    <glyph glyph-name="emdash" unicode="&#x2014;" horiz-adv-x="1423" 
d="M96 520v127h1231v-127h-1231z" />
    <glyph glyph-name="quoteleft" unicode="&#x2018;" horiz-adv-x="460" 
d="M115 1157c1.33301 26 5.33594 53.832 12.0029 83.499s16.667 61.834 30 96.501s32.666 67.667 57.999 99s54.666 57 87.999 77l29.5 -27.5l29.5 -27.5c-33.333 -30 -61.333 -68.167 -84 -114.5s-35.334 -92.833 -38.001 -139.5c33.333 -0.666992 60.333 -12 81 -34
s31 -48.667 31 -80c0 -32 -11.167 -59.167 -33.5 -81.5s-49.833 -33.5 -82.5 -33.5c-44.667 0 -76.5 17.5 -95.5 52.5s-27.5 78.167 -25.5 129.5z" />
    <glyph glyph-name="quoteright" unicode="&#x2019;" horiz-adv-x="460" 
d="M98 1030c33.333 30 61.498 68.1689 84.498 114.502s35.833 92.833 38.5 139.5c-33.333 0.666992 -60.333 12.167 -81 34.5s-31 49.166 -31 80.499c0 32 11.167 59 33.5 81s49.833 33 82.5 33c44.667 0 76.5 -17.5 95.5 -52.5s27.5 -78.167 25.5 -129.5
c-1.33301 -26 -5.33301 -53.833 -12 -83.5s-16.667 -61.834 -30 -96.501s-32.666 -67.667 -57.999 -99s-54.666 -57 -87.999 -77z" />
    <glyph glyph-name="quotesinglbase" unicode="&#x201a;" horiz-adv-x="442" 
d="M80 -270c33.333 30 61.499 68.167 84.499 114.5s35.833 92.833 38.5 139.5c-33.333 0.666992 -60.5 12 -81.5 34s-31.5 48.667 -31.5 80c0 32 11.333 59.167 34 81.5s50.334 33.5 83.001 33.5c44.667 0 76.5 -17.5 95.5 -52.5s27.5 -78.167 25.5 -129.5
c-1.33301 -26 -5.33301 -54 -12 -84s-16.834 -62.167 -30.501 -96.5s-33.167 -67.333 -58.5 -99s-54.666 -57.5 -87.999 -77.5z" />
    <glyph glyph-name="quotedblleft" unicode="&#x201c;" horiz-adv-x="800" 
d="M115 1157c1.33301 26 5.33594 53.832 12.0029 83.499s16.667 61.834 30 96.501s32.666 67.667 57.999 99s54.666 57 87.999 77l29.5 -27.5l29.5 -27.5c-33.333 -30 -61.333 -68.167 -84 -114.5s-35.334 -92.833 -38.001 -139.5c33.333 -0.666992 60.333 -12 81 -34
s31 -48.667 31 -80c0 -32 -11.167 -59.167 -33.5 -81.5s-49.833 -33.5 -82.5 -33.5c-44.667 0 -76.5 17.5 -95.5 52.5s-27.5 78.167 -25.5 129.5zM455.003 1157c1.33301 26 5.33789 53.832 12.0049 83.499s16.667 61.834 30 96.501s32.666 67.667 57.999 99
s54.666 57 87.999 77l29.5 -27.5l29.5 -27.5c-33.333 -30 -61.333 -68.167 -84 -114.5s-35.334 -92.833 -38.001 -139.5c33.333 -0.666992 60.333 -12 81 -34s31 -48.667 31 -80c0 -32 -11.333 -59.167 -34 -81.5s-50.334 -33.5 -83.001 -33.5
c-44.667 0 -76.334 17.5 -95.001 52.5s-27 78.167 -25 129.5z" />
    <glyph glyph-name="quotedblright" unicode="&#x201d;" horiz-adv-x="800" 
d="M98 1030c33.333 30 61.498 68.1689 84.498 114.502s35.833 92.833 38.5 139.5c-33.333 0.666992 -60.333 12.167 -81 34.5s-31 49.166 -31 80.499c0 32 11.167 59 33.5 81s49.833 33 82.5 33c44.667 0 76.5 -17.5 95.5 -52.5s27.5 -78.167 25.5 -129.5
c-1.33301 -26 -5.33301 -53.833 -12 -83.5s-16.667 -61.834 -30 -96.501s-32.666 -67.667 -57.999 -99s-54.666 -57 -87.999 -77zM437.998 1030c33.333 30 61.498 68.1689 84.498 114.502s35.833 92.833 38.5 139.5c-33.333 0.666992 -60.333 12.167 -81 34.5
s-31 49.166 -31 80.499c0 32 11.167 59 33.5 81s49.833 33 82.5 33c44.667 0 76.5 -17.5 95.5 -52.5s27.5 -78.167 25.5 -129.5c-1.33301 -26 -5.33301 -53.833 -12 -83.5s-16.667 -61.834 -30 -96.501s-32.666 -67.667 -57.999 -99s-54.666 -57 -87.999 -77z" />
    <glyph glyph-name="quotedblbase" unicode="&#x201e;" horiz-adv-x="782" 
d="M80 -270c33.333 30 61.499 68.167 84.499 114.5s35.833 92.833 38.5 139.5c-33.333 0.666992 -60.5 12 -81.5 34s-31.5 48.667 -31.5 80c0 32 11.333 59.167 34 81.5s50.334 33.5 83.001 33.5c44.667 0 76.5 -17.5 95.5 -52.5s27.5 -78.167 25.5 -129.5
c-1.33301 -26 -5.33301 -54 -12 -84s-16.834 -62.167 -30.501 -96.5s-33.167 -67.333 -58.5 -99s-54.666 -57.5 -87.999 -77.5zM419.999 -270c33.333 30 61.499 68.167 84.499 114.5s35.833 92.833 38.5 139.5c-33.333 0.666992 -60.5 12 -81.5 34s-31.5 48.667 -31.5 80
c0 32 11.333 59.167 34 81.5s50.334 33.5 83.001 33.5c44.667 0 76.5 -17.5 95.5 -52.5s27.5 -78.167 25.5 -129.5c-1.33301 -26 -5.33301 -54 -12 -84s-16.834 -62.167 -30.501 -96.5s-33.167 -67.333 -58.5 -99s-54.666 -57.5 -87.999 -77.5z" />
    <glyph glyph-name="bullet" unicode="&#x2022;" horiz-adv-x="610" 
d="M86 651c0 55.333 20.5029 103.333 61.5029 144s93.5 61 157.5 61c63.333 0 115.666 -20.5 156.999 -61.5s62 -88.833 62 -143.5s-20.333 -102.5 -61 -143.5s-93.334 -61.5 -158.001 -61.5s-117.334 20.5 -158.001 61.5s-61 88.833 -61 143.5z" />
    <glyph glyph-name="ellipsis" unicode="&#x2026;" horiz-adv-x="1658" 
d="M111 98c0 31.333 11.166 58.333 33.499 81s49.166 34 80.499 34c32.667 0 60.334 -11.167 83.001 -33.5s34 -49.5 34 -81.5c0 -32.667 -11.167 -60.167 -33.5 -82.5s-50.166 -33.5 -83.499 -33.5c-32 0 -59 11.167 -81 33.5s-33 49.833 -33 82.5zM712.999 98
c0 32 11.167 59.167 33.5 81.5s49.833 33.5 82.5 33.5c31.333 0 58.333 -11.333 81 -34s34 -49.667 34 -81c0 -32.667 -11.167 -60.167 -33.5 -82.5s-49.5 -33.5 -81.5 -33.5c-32.667 0 -60.167 11 -82.5 33s-33.5 49.667 -33.5 83zM1317 98c0 31.333 11.333 58.333 34 81
s49.667 34 81 34c32.667 0 60.167 -11.167 82.5 -33.5s33.5 -49.5 33.5 -81.5c0 -33.333 -11 -61 -33 -83s-49.667 -33 -83 -33c-32 0 -59.167 11.167 -81.5 33.5s-33.5 49.833 -33.5 82.5z" />
    <glyph glyph-name="uni202F" unicode="&#x202f;" horiz-adv-x="371" 
 />
    <glyph glyph-name="guilsinglleft" unicode="&#x2039;" horiz-adv-x="696" 
d="M76 510v74l542 399v-162l-405 -276l405 -277v-159z" />
    <glyph glyph-name="guilsinglright" unicode="&#x203a;" horiz-adv-x="696" 
d="M76 109v159l405 277l-405 276v162l542 -399v-74z" />
    <glyph glyph-name="uni205F" unicode="&#x205f;" horiz-adv-x="464" 
 />
    <glyph glyph-name="Euro" unicode="&#x20ac;" horiz-adv-x="1273" 
d="M41 436l0.00292969 125h221v43v121v29h-221v125h235c12 82 34.333 153.5 67 214.5s73.5 110 122.5 147s104.167 64.5 165.5 82.5s129 27 203 27c138 0 272.333 -38.333 403 -115l-61 -154c-44.667 28.667 -98.334 53.334 -161.001 74.001s-123 31 -181 31
c-212 0 -337 -102.333 -375 -307h555v-125h-574v-29v-121v-43h574v-125h-551c39.333 -195.333 163 -293 371 -293c67.333 0 133.666 11.167 198.999 33.5s113 46.833 143 73.5l61 -154c-120.667 -77.333 -255 -116 -403 -116c-150 0 -273.833 37.167 -371.5 111.5
s-159.834 189.166 -186.501 344.499h-235z" />
    <glyph glyph-name="trademark" unicode="&#x2122;" horiz-adv-x="1853" 
d="M74 1210v121h647v-121h-258v-696h-133v696h-256zM895 514v817h221l209 -629l203 629h215v-817h-133v692l-230 -692h-114l-238 692v-692h-133z" />
    <glyph glyph-name="uniE000" unicode="&#xe000;" horiz-adv-x="1024" 
d="M0 0v1024h1024v-1024h-1024z" />
    <glyph glyph-name="uniFB01" unicode="&#xfb01;" horiz-adv-x="1062" 
d="M113 0v1083c0 128.667 31.333 222.334 94 281.001s148 88 256 88c95.333 0 181.333 -19.667 258 -59l-51 -152c-64.667 34 -133.667 51 -207 51c-58 0 -102.5 -15.833 -133.5 -47.5s-46.5 -84.834 -46.5 -159.501v-61h376v-160h-376v-864h-170zM754 1335
c0 30.667 10.333 56.5 31 77.5s46.334 31.5 77.001 31.5c29.333 0 54.5 -10.5 75.5 -31.5s31.5 -46.833 31.5 -77.5c0 -29.333 -10.5 -54.333 -31.5 -75s-46.167 -31 -75.5 -31c-30.667 0 -56.334 10.333 -77.001 31s-31 45.667 -31 75zM776 0v1024h170v-1024h-170z" />
    <glyph glyph-name="uniFB02" unicode="&#xfb02;" horiz-adv-x="1163" 
d="M113 0v1083c0 128.667 31.333 222.334 94 281.001s148 88 256 88c95.333 0 181.333 -19.667 258 -59l-51 -152c-64.667 34 -133.667 51 -207 51c-58 0 -102.5 -15.833 -133.5 -47.5s-46.5 -84.834 -46.5 -159.501v-61h376v-160h-376v-864h-170zM774 319v1115h168v-1115
c0 -64 8.66699 -109 26 -135s42 -39 74 -39c28 0 54.667 6.33301 80 19l49 -150c-48 -18.667 -97.667 -28 -149 -28c-76 0 -136.333 26.167 -181 78.5s-67 137.166 -67 254.499z" />
  </font>
</defs>
</svg>
