<?xml version="1.0" standalone="no"?>
<!DOCTYPE svg PUBLIC "-//W3C//DTD SVG 1.1//EN" "http://www.w3.org/Graphics/SVG/1.1/DTD/svg11.dtd" >
<svg>
<metadata>
Created by FontForge 20090914 at Sat Oct 17 11:31:55 2015
 By www-data
Copyright (c) 2010 by Aakash Soneri. All rights reserved.
</metadata>
<defs>
<font id="AccordAltBold" horiz-adv-x="1075" >
  <font-face 
    font-family="AccordAltBold"
    font-weight="700"
    font-stretch="normal"
    units-per-em="2048"
    panose-1="2 0 0 0 0 0 0 0 0 0"
    ascent="1536"
    descent="-512"
    x-height="1024"
    cap-height="1331"
    bbox="-170 -512.136 2193 1858"
    underline-thickness="102"
    underline-position="-102"
    unicode-range="U+000D-U+FB02"
  />
<missing-glyph horiz-adv-x="748" 
d="M68 0v1365h544v-1365h-544zM136 68h408v1229h-408v-1229z" />
    <glyph glyph-name=".notdef" horiz-adv-x="748" 
d="M68 0v1365h544v-1365h-544zM136 68h408v1229h-408v-1229z" />
    <glyph glyph-name="glyph1" horiz-adv-x="2048" 
 />
    <glyph glyph-name="glyph1" horiz-adv-x="2048" 
 />
    <glyph glyph-name="uni000D" unicode="&#xd;" horiz-adv-x="2048" 
 />
    <glyph glyph-name="space" unicode=" " horiz-adv-x="446" 
 />
    <glyph glyph-name="exclam" unicode="!" horiz-adv-x="651" 
d="M178 125c0 40 14.5 74.167 43.5 102.5s63.833 42.5 104.5 42.5c40 0 74.167 -14.167 102.5 -42.5s42.5 -62.5 42.5 -102.5c0 -40.667 -14.167 -75.5 -42.5 -104.5s-62.5 -43.5 -102.5 -43.5c-41.333 0 -76.333 14.5 -105 43.5s-43 63.833 -43 104.5zM211 844v487h231
v-487c0 -52.667 -5.33301 -132.5 -16 -239.5s-16 -186.833 -16 -239.5h-166c0 52.667 -5.5 132.5 -16.5 239.5s-16.5 186.833 -16.5 239.5z" />
    <glyph glyph-name="quotedbl" unicode="&#x22;" horiz-adv-x="655" 
d="M86 1481h172v-428h-170zM397 1053v428h172l-2 -428h-170z" />
    <glyph glyph-name="numbersign" unicode="#" horiz-adv-x="1425" 
d="M-6 311v174h293l100 392h-301v176h342l80 307h199l-80 -307h372l80 307h199l-80 -307h232v-176h-275l-98 -392h280v-174h-325l-78 -311h-199l80 311h-375l-78 -311h-198l80 311h-250zM485 485h373l100 392h-374z" />
    <glyph glyph-name="dollar" unicode="$" horiz-adv-x="1001" 
d="M49 94l69.999 220.999c52.667 -38 113.334 -66.5 182.001 -85.5s132.667 -27 192 -24s109.5 18.667 150.5 47s61.5 67.166 61.5 116.499c0 30 -9.16699 56.333 -27.5 79s-42.333 40.5 -72 53.5s-63.5 26.333 -101.5 40s-76.833 26.5 -116.5 38.5s-78.5 28.5 -116.5 49.5
s-71.833 45 -101.5 72s-53.667 62.833 -72 107.5s-27.5 96 -27.5 154c0 98 27.167 177.667 81.5 239s126.166 103.666 215.499 126.999v322h235v-305c118 -10.667 219.667 -47.667 305 -111l-69 -221c-38.667 30 -82.167 54.5 -130.5 73.5s-95 30.167 -140 33.5
s-86.667 0.833008 -125 -7.5s-69.166 -24.666 -92.499 -48.999s-35 -54.166 -35 -89.499c0 -29.333 7.33301 -55.333 22 -78s34.167 -41.167 58.5 -55.5s52.5 -27.5 84.5 -39.5s65.667 -23.5 101 -34.5s70.5 -23 105.5 -36s68.5 -29 100.5 -48s60.167 -41.167 84.5 -66.5
s43.833 -57.333 58.5 -96s22 -82.667 22 -132c0 -112 -32.333 -201.167 -97 -267.5s-149 -109.5 -253 -129.5v-311h-235v303c-125.333 12.667 -231.333 49.334 -318 110.001z" />
    <glyph glyph-name="percent" unicode="%" horiz-adv-x="2244" 
d="M102 897c0 143.333 35 255 105 335s163.333 120 280 120c119.333 0 213.333 -39.833 282 -119.5s103 -191.5 103 -335.5c0 -144.667 -34.333 -256.667 -103 -336s-162.667 -119 -282 -119c-116.667 0 -210 39.833 -280 119.5s-105 191.5 -105 335.5zM338 897
c0 -85.333 11.833 -145.166 35.5 -179.499s61.5 -51.5 113.5 -51.5c52.667 0 91.167 17.167 115.5 51.5s36.5 94.166 36.5 179.499c0 81.333 -12.333 139.833 -37 175.5s-63 53.5 -115 53.5c-51.333 0 -89 -17.833 -113 -53.5s-36 -94.167 -36 -175.5zM645 0l692 1331h265
l-695 -1331h-262zM1372 432c0 143.333 34.833 255 104.5 335s163.167 120 280.5 120c119.333 0 213.333 -39.833 282 -119.5s103 -191.5 103 -335.5c0 -144.667 -34.333 -256.667 -103 -336s-162.667 -119 -282 -119c-116.667 0 -210 39.833 -280 119.5
s-105 191.5 -105 335.5zM1608 432c0 -85.333 11.833 -144.833 35.5 -178.5s61.5 -50.5 113.5 -50.5s90.333 17 115 51s37 93.333 37 178c0 81.333 -12.5 140 -37.5 176s-63.167 54 -114.5 54c-50.667 0 -88.167 -18 -112.5 -54s-36.5 -94.667 -36.5 -176z" />
    <glyph glyph-name="ampersand" unicode="&#x26;" horiz-adv-x="1265" 
d="M66 383c0 154 69.998 263.333 209.998 328c-110 61.333 -165 158 -165 290c0 100 43.333 183.5 130 250.5s194.667 100.5 324 100.5c64.667 0 120 -6.16699 166 -18.5s93 -30.833 141 -55.5l-106 -201c-64.667 30 -133.667 45 -207 45
c-61.333 0 -110.5 -13.167 -147.5 -39.5s-55.5 -62.833 -55.5 -109.5c0 -113.333 70.333 -170 211 -170h250v205h246v-205h201v-199h-201v-143c0 -71.333 -9 -135.166 -27 -191.499s-42.333 -102.5 -73 -138.5s-67.667 -65.833 -111 -89.5s-88.5 -40.334 -135.5 -50.001
s-97.5 -14.5 -151.5 -14.5c-47.333 0 -94.166 5 -140.499 15s-91.166 25.833 -134.499 47.5s-81.5 48 -114.5 79s-59.5 69.333 -79.5 115s-30 95.5 -30 149.5zM312.998 401c0 -36 7.66797 -67.668 23.001 -95.001s35.666 -48.166 60.999 -62.499s52 -25 80 -32
s57.333 -10.5 88 -10.5c168 0 252 86.667 252 260v143h-250c-74.667 0 -135.667 -17.5 -183 -52.5s-71 -85.167 -71 -150.5z" />
    <glyph glyph-name="quotesingle" unicode="'" horiz-adv-x="348" 
d="M86 1481h176l-2 -428h-172z" />
    <glyph glyph-name="parenleft" unicode="(" horiz-adv-x="786" 
d="M106 512c0 212 35.333 401.668 106 569.001s182.334 319 335.001 455l145 -131c-124 -94.667 -220.833 -217.334 -290.5 -368.001s-104.5 -325.667 -104.5 -525s34.833 -374 104.5 -524s166.5 -273 290.5 -369l-145 -131c-152.667 136 -264.334 287.667 -335.001 455
s-106 357 -106 569z" />
    <glyph glyph-name="parenright" unicode=")" horiz-adv-x="786" 
d="M94 -381c124 96 220.833 218.999 290.5 368.999s104.5 324.667 104.5 524s-34.833 374.333 -104.5 525s-166.5 273.334 -290.5 368.001l146 131c152 -136 263.333 -287.667 334 -455s106 -357 106 -569s-35.333 -401.667 -106 -569s-182 -319 -334 -455z" />
    <glyph glyph-name="asterisk" unicode="*" horiz-adv-x="978" 
d="M82 1167l59 181l269 -105l-15 287h191l-15 -291l269 107l57 -181l-276 -78l178 -221l-152 -110l-160 237l-155 -235l-154 110l182 222z" />
    <glyph glyph-name="plus" unicode="+" horiz-adv-x="1288" 
d="M86 555v225h436v414h242v-414h436v-225h-436v-414h-242v414h-436z" />
    <glyph glyph-name="comma" unicode="," horiz-adv-x="475" 
d="M70 123c0 40 14.333 74.1689 43 102.502s63.334 42.5 104.001 42.5c52 0 91 -20 117 -60s38.333 -89.667 37 -149c0 -28 -3.5 -58.5 -10.5 -91.5s-18.167 -68.833 -33.5 -107.5s-38.833 -75.834 -70.5 -111.501s-68.834 -64.5 -111.501 -86.5l-71 68
c32.667 30.667 61 67.667 85 111s38 88.666 42 135.999c-38 4 -69.333 19.833 -94 47.5s-37 60.5 -37 98.5z" />
    <glyph glyph-name="hyphen" unicode="-" horiz-adv-x="684" 
d="M39 399v226h606v-226h-606z" />
    <glyph glyph-name="period" unicode="." horiz-adv-x="487" 
d="M98 123c0 40 14.333 74.167 43 102.5s63 42.5 103 42.5c40.667 0 75.334 -14.167 104.001 -42.5s43 -62.5 43 -102.5c0 -41.333 -14.333 -76.333 -43 -105s-63.334 -43 -104.001 -43c-40 0 -74.333 14.5 -103 43.5s-43 63.833 -43 104.5z" />
    <glyph glyph-name="slash" unicode="/" horiz-adv-x="653" 
d="M-27 -61l512 1597h195l-516 -1597h-191z" />
    <glyph glyph-name="zero" unicode="0" horiz-adv-x="1140" 
d="M66 625l-0.000976562 82c0 112.667 12.167 210.834 36.5 294.501s59.166 150.834 104.499 201.501s98.166 88.167 158.499 112.5s128.166 36.5 203.499 36.5c76 0 144.167 -12.167 204.5 -36.5s113.333 -61.833 159 -112.5s80.834 -117.834 105.501 -201.501
s37 -181.834 37 -294.501v-82c0 -113.333 -12.333 -212 -37 -296s-59.667 -151.333 -105 -202s-98.333 -88.334 -159 -113.001s-129 -37 -205 -37c-75.333 0 -143.166 12.333 -203.499 37s-113.166 62.334 -158.499 113.001s-80.166 118 -104.499 202
s-36.5 182.667 -36.5 296zM312.999 625c0 -102.667 11 -185.669 33 -249.002s51.167 -107.666 87.5 -132.999s81.5 -38 135.5 -38c83.333 0 147.166 32.333 191.499 97s66.5 172.334 66.5 323.001v82c0 149.333 -22.167 255.833 -66.5 319.5s-108.166 95.5 -191.499 95.5
c-54 0 -99.167 -12.5 -135.5 -37.5s-65.5 -68.833 -87.5 -131.5s-33 -144.667 -33 -246v-82z" />
    <glyph glyph-name="one" unicode="1" horiz-adv-x="624" 
d="M2 1102v229h520v-1331h-246v1102h-274z" />
    <glyph glyph-name="two" unicode="2" horiz-adv-x="989" 
d="M31 1229c116 82 253 123 411 123c66 0 128.833 -9.83301 188.5 -29.5s113 -47.834 160 -84.501s84.333 -84.5 112 -143.5s41.5 -124.833 41.5 -197.5c0 -60 -9.83301 -115.667 -29.5 -167s-57 -106.166 -112 -164.499s-101.5 -104.166 -139.5 -137.499
s-104.333 -87.333 -199 -162l-48 -39h528v-227h-907v227l169.5 131.5l149.5 115l118.5 94.5c43 35.333 76 64.833 99 88.5s45.167 49.667 66.5 78s36.333 55.5 45 81.5s13 53 13 81c0 65.333 -20.167 119.166 -60.5 161.499s-105.5 63.5 -195.5 63.5
c-58 0 -119 -11 -183 -33s-116.333 -48.333 -157 -79z" />
    <glyph glyph-name="three" unicode="3" horiz-adv-x="980" 
d="M29 102l73.002 221.999c42 -34.667 93 -63.167 153 -85.5s120.333 -33.5 181 -33.5c87.333 0 149.5 15.5 186.5 46.5s55.5 79.5 55.5 145.5c0 56.667 -21.167 103.334 -63.5 140.001s-109.166 55 -200.499 55h-78v211h78c91.333 0 154.666 14.5 189.999 43.5
s53 68.5 53 118.5c0 50.667 -17 89.5 -51 116.5s-90.667 40.5 -170 40.5c-55.333 0 -110.833 -10.333 -166.5 -31s-104.5 -46.334 -146.5 -77.001l-74 223c35.333 19.333 62.666 33.5 81.999 42.5s46.333 20.333 81 34s70.167 23.5 106.5 29.5s75.5 9 117.5 9
c146 0 260.667 -34.667 344 -104s125 -163.666 125 -282.999c0 -59.333 -15.333 -112.833 -46 -160.5s-71.334 -85.834 -122.001 -114.501c56 -30 101.5 -70.5 136.5 -121.5s52.5 -108.167 52.5 -171.5c0 -131.333 -44 -234.166 -132 -308.499s-207.333 -111.5 -358 -111.5
c-84 0 -156.667 10.667 -218 32s-124.333 52.333 -189 93z" />
    <glyph glyph-name="four" unicode="4" horiz-adv-x="1071" 
d="M53 270v230l375 831h258l-375 -831h443v504h245v-1004h-245v270h-701z" />
    <glyph glyph-name="five" unicode="5" horiz-adv-x="1013" 
d="M47 100l71.998 217.003c98.667 -74.667 211.334 -112 338.001 -112c177.333 0 266 65.333 266 196c0 84 -28.333 140.5 -85 169.5s-152 43.5 -286 43.5h-252v717h828v-229h-582v-260h90c168 0 298.833 -39.333 392.5 -118s140.5 -184 140.5 -316
c0 -71.333 -13 -134.833 -39 -190.5s-62.167 -100.834 -108.5 -135.501s-99.666 -60.834 -159.999 -78.501s-125.833 -26.5 -196.5 -26.5c-90 0 -165 8.66699 -225 26s-124.333 49.666 -193 96.999z" />
    <glyph glyph-name="six" unicode="6" horiz-adv-x="1064" 
d="M66 641c0 238 43.001 416.002 129.001 534.002s223 177 411 177c153.333 0 287.333 -41 402 -123l-72 -219c-94 74.667 -206.667 112 -338 112c-96 0 -166.5 -30.167 -211.5 -90.5s-67.5 -142.833 -67.5 -247.5c72 30 156.667 45 254 45c64 0 122.333 -8 175 -24
s99.667 -40 141 -72s73.5 -74.833 96.5 -128.5s34.5 -115.834 34.5 -186.501c0 -74.667 -11.167 -140.834 -33.5 -198.501s-53.333 -103.834 -93 -138.501s-85 -60.667 -136 -78s-106.833 -26 -167.5 -26c-82 0 -153.833 11.5 -215.5 34.5s-111.834 53.833 -150.501 92.5
s-70 86.834 -94 144.501s-40.667 118 -50 181s-14 133.5 -14 211.5zM319.001 567.002c0 -59.333 3.66504 -109.67 10.998 -151.003s20.5 -78.666 39.5 -111.999s46.333 -58.166 82 -74.499s79.834 -24.5 132.501 -24.5c53.333 0 98.333 17.5 135 52.5s55 88.5 55 160.5
c0 38 -6 70.833 -18 98.5s-28.333 48.834 -49 63.501s-42.667 25.167 -66 31.5s-48.666 9.5 -75.999 9.5c-90.667 0 -172.667 -18 -246 -54z" />
    <glyph glyph-name="seven" unicode="7" horiz-adv-x="960" 
d="M23 1102v229h915v-229l-532 -1102h-263l533 1102h-653z" />
    <glyph glyph-name="eight" unicode="8" horiz-adv-x="1097" 
d="M47 389c0 72 18 136.666 54 193.999s86.333 100.666 151 129.999c-106.667 64.667 -160 159.334 -160 284.001c0 95.333 44 178.333 132 249s196.333 106 325 106c129.333 0 237.833 -35.333 325.5 -106s131.5 -153.667 131.5 -249c0 -126 -53.333 -220.667 -160 -284
c64.667 -29.333 115 -72.666 151 -129.999s54 -122 54 -194c0 -115.333 -44.667 -212.833 -134 -292.5s-212 -119.5 -368 -119.5s-278.667 39.833 -368 119.5s-134 177.167 -134 292.5zM295 405.999c0 -62 22.333 -111 67 -147s107 -54 187 -54c81.333 0 144.333 18 189 54
s67 85 67 147c0 60.667 -22.5 109.167 -67.5 145.5s-107.833 54.5 -188.5 54.5c-80 0 -142.333 -18.167 -187 -54.5s-67 -84.833 -67 -145.5zM338 962.999c0 -49.333 18.667 -88.333 56 -117s89 -43 155 -43s117.667 14.333 155 43s56 67.667 56 117
c0 44 -18.333 81.833 -55 113.5s-88.667 47.5 -156 47.5s-119.333 -15.667 -156 -47s-55 -69.333 -55 -114z" />
    <glyph glyph-name="nine" unicode="9" horiz-adv-x="1064" 
d="M45 911c0 74.667 11.332 140.665 33.999 197.998s54 103.333 94 138s85.333 60.834 136 78.501s106 26.5 166 26.5c82 0 154 -11.5 216 -34.5s112.333 -53.833 151 -92.5s70 -87 94 -145s40.5 -118.167 49.5 -180.5s13.5 -132.166 13.5 -209.499
c0 -240.667 -42.833 -419.667 -128.5 -537s-223.5 -176 -413.5 -176c-153.333 0 -286 41 -398 123l70 217c44.667 -34.667 96.667 -62 156 -82s120 -30 182 -30c96.667 0 167.167 30.5 211.5 91.5s66.5 144.5 66.5 250.5c-72 -30 -155.667 -45 -251 -45
c-64 0 -122.5 8 -175.5 24s-100.167 40 -141.5 72s-73.666 74.667 -96.999 128s-35 115 -35 185zM290.999 910.998c0 -38 6 -70.5 18 -97.5s28.5 -47.5 49.5 -61.5s43 -24 66 -30s48.167 -9 75.5 -9c94 0 175.667 17.667 245 53c0 57.333 -3.66699 106.333 -11 147
s-20.333 77.5 -39 110.5s-45.5 57.667 -80.5 74s-78.833 24.5 -131.5 24.5c-54 0 -99.5 -17.333 -136.5 -52s-55.5 -87.667 -55.5 -159z" />
    <glyph glyph-name="colon" unicode=":" horiz-adv-x="487" 
d="M98 123c0 40 14.333 74.167 43 102.5s63 42.5 103 42.5c40.667 0 75.334 -14.167 104.001 -42.5s43 -62.5 43 -102.5c0 -41.333 -14.333 -76.333 -43 -105s-63.334 -43 -104.001 -43c-40 0 -74.333 14.5 -103 43.5s-43 63.833 -43 104.5zM98 901
c0 40.667 14.333 75.5 43 104.5s63 43.5 103 43.5c40.667 0 75.334 -14.667 104.001 -44s43 -64 43 -104s-14.333 -74.167 -43 -102.5s-63.334 -42.5 -104.001 -42.5c-40 0 -74.333 14.167 -103 42.5s-43 62.5 -43 102.5z" />
    <glyph glyph-name="semicolon" unicode=";" horiz-adv-x="485" 
d="M96 123c0 40 14.498 74.168 43.498 102.501s63.833 42.5 104.5 42.5c52 0 90.5 -19.833 115.5 -59.5s37.5 -89.5 37.5 -149.5c-0.666992 -28.667 -4.5 -59.167 -11.5 -91.5s-18.167 -68 -33.5 -107s-38.666 -76.333 -69.999 -112s-68 -64.5 -110 -86.5l-74 68
c34 30.667 63 67.667 87 111s37.333 88.666 40 135.999c-37.333 4 -68.166 19.833 -92.499 47.5s-36.5 60.5 -36.5 98.5zM95.998 901.001c0 40.667 14.333 75.5 43 104.5s63.667 43.5 105 43.5c40 0 74.167 -14.667 102.5 -44s42.5 -64 42.5 -104
s-14.167 -74.167 -42.5 -102.5s-62.5 -42.5 -102.5 -42.5c-40.667 0 -75.5 14.167 -104.5 42.5s-43.5 62.5 -43.5 102.5z" />
    <glyph glyph-name="less" unicode="&#x3c;" horiz-adv-x="1128" 
d="M76 590v145l977 533v-207l-734 -399l734 -398v-209z" />
    <glyph glyph-name="equal" unicode="=" horiz-adv-x="1146" 
d="M86 338v172h973v-172h-973zM86 823v172h973v-172h-973z" />
    <glyph glyph-name="greater" unicode="&#x3e;" horiz-adv-x="1128" 
d="M76 55v209l733 398l-733 399v207l977 -533v-145z" />
    <glyph glyph-name="question" unicode="?" horiz-adv-x="993" 
d="M74 1286c101.333 44 218.668 65.9971 352.001 65.9971c148.667 0 269.5 -35.667 362.5 -107s139.5 -171 139.5 -299c0 -32.667 -4 -63.667 -12 -93s-17.833 -55.166 -29.5 -77.499s-27.667 -44.166 -48 -65.499s-38.833 -39 -55.5 -53s-38.167 -29 -64.5 -45
s-47.333 -28.167 -63 -36.5s-36.5 -18.833 -62.5 -31.5l-24 -12c-47.333 -23.333 -82 -47.833 -104 -73.5s-33 -55.5 -33 -89.5h-246c0 76.667 22.5 143.5 67.5 200.5s101.833 103.5 170.5 139.5c14.667 8.66699 34.334 19 59.001 31l60.5 29.5
c15.667 7.66699 33.167 18 52.5 31s34.666 25.667 45.999 38s20.833 27.833 28.5 46.5s11.5 39 11.5 61c0 58.667 -22.167 103 -66.5 133s-107.5 45 -189.5 45c-52.667 0 -105.334 -5.66699 -158.001 -17s-93.667 -24.666 -123 -39.999zM162.002 124.997
c0 40 14.333 74.167 43 102.5s63.334 42.5 104.001 42.5c40 0 74.333 -14.167 103 -42.5s43 -62.5 43 -102.5c0 -40.667 -14.333 -75.5 -43 -104.5s-63 -43.5 -103 -43.5c-40.667 0 -75.334 14.333 -104.001 43s-43 63.667 -43 105z" />
    <glyph glyph-name="at" unicode="@" horiz-adv-x="2330" 
d="M137 535c1.33301 317.333 88.0029 563.495 260.003 738.495s422 262.5 750 262.5c121.333 0 232.833 -9.5 334.5 -28.5s197 -50.667 286 -95s164.5 -100.5 226.5 -168.5s110.667 -153.333 146 -256s53 -219.667 53 -351c0 -70.667 -4.16699 -136.834 -12.5 -198.501
s-23 -121.834 -44 -180.501s-47.667 -108.667 -80 -150s-74 -74.5 -125 -99.5s-109.167 -37.5 -174.5 -37.5c-76.667 0 -139.334 16 -188.001 48s-83 76.333 -103 133c-18.667 -47.333 -58 -89.333 -118 -126s-132.667 -55 -218 -55c-56.667 0 -108.167 7 -154.5 21
s-84.666 32.333 -114.999 55s-57 50.167 -80 82.5s-40.667 64.166 -53 95.499s-22.333 66 -30 104s-12.5 70.833 -14.5 98.5s-3 56.5 -3 86.5c0 32 2.16699 64.167 6.5 96.5s12 66.333 23 102s25 69.5 42 101.5s39.167 62.667 66.5 92s58.333 54.5 93 75.5
s76.167 37.833 124.5 50.5s101.166 19 158.499 19c78.667 0 155.167 -11.667 229.5 -35s134.5 -48.666 180.5 -75.999v-582c0 -78 11.667 -133.333 35 -166s62.666 -49 117.999 -49c33.333 0 63.333 6.33301 90 19s48.667 30.834 66 54.501s32.166 50.334 44.499 80.001
s21.666 64 27.999 103s10.833 77.167 13.5 114.5s4 78.333 4 123c0 108 -14 203.833 -42 287.5s-66.667 152.834 -116 207.501s-110.333 99.667 -183 135s-151 60.333 -235 75s-177.333 22 -280 22c-127.333 0 -240.666 -16.167 -339.999 -48.5s-185 -81.666 -257 -147.999
s-127 -152.666 -165 -258.999s-57 -230.833 -57 -373.5c0 -130.667 14.833 -246.667 44.5 -348s69.5 -184.333 119.5 -249s111.333 -118 184 -160s148.667 -71.833 228 -89.5s166.333 -27.167 261 -28.5c105.333 -1.33301 209.833 5.33398 313.5 20.001
s179 28.334 226 41.001s100.167 28.667 159.5 48l57 -172c-250.667 -75.333 -502.667 -111.666 -756 -108.999c-96.667 1.33301 -187.667 10.5 -273 27.5s-166.833 42.833 -244.5 77.5s-147.334 80.167 -209.001 136.5s-115.167 122.166 -160.5 197.499
s-80.166 164.5 -104.499 267.5s-36.5 216.5 -36.5 340.5zM870.003 504.995c0 -24 0.167969 -43.168 0.500977 -57.501s2.16602 -35.666 5.49902 -63.999s8 -51.833 14 -70.5s15.333 -39.667 28 -63s28 -42 46 -56s41.167 -26 69.5 -36s60.5 -15 96.5 -15
c96.667 0 168 28.5 214 85.5s69 150.833 69 281.5v309c-64 40 -137 60 -219 60c-50 0 -94.167 -7.16699 -132.5 -21.5s-69.333 -33.166 -93 -56.499s-43.167 -51.333 -58.5 -84s-25.833 -65.334 -31.5 -98.001s-8.5 -67.667 -8.5 -105v-9z" />
    <glyph glyph-name="A" unicode="A" horiz-adv-x="1269" 
d="M0 0l510 1331h250l510 -1331h-252l-109 287h-551l-108 -287h-250zM442 514h381l-190 506z" />
    <glyph glyph-name="B" unicode="B" horiz-adv-x="1173" 
d="M102 0v1331h490c166.667 0 289.5 -33.5 368.5 -100.5s118.5 -156.833 118.5 -269.5c0 -57.333 -13.167 -109.5 -39.5 -156.5s-66.833 -85.167 -121.5 -114.5c134.667 -63.333 202 -165 202 -305c0 -119.333 -41 -213.333 -123 -282s-209.667 -103 -383 -103h-512z
M348 227h266c93.333 0 160 15 200 45s60 73 60 129c0 116 -86.667 174 -260 174h-266v-348zM348 786h244c84 0 145.333 14.667 184 44s58 67.333 58 114c0 105.333 -80.667 158 -242 158h-244v-316z" />
    <glyph glyph-name="C" unicode="C" horiz-adv-x="1085" 
d="M66 616l-0.000976562 99.001c0 88.667 9.5 168.5 28.5 239.5s45.667 131 80 180s76.166 90 125.499 123s103.5 57 162.5 72s123.167 22.5 192.5 22.5c79.333 0 149.666 -10.333 210.999 -31s122.333 -48.667 183 -84l-74 -223c-42.667 29.333 -93 54.666 -151 75.999
s-114.333 32 -169 32c-229.333 0 -344 -135.667 -344 -407v-99c0 -274 114.667 -411 344 -411c64 0 126.5 11.5 187.5 34.5s105.167 48.167 132.5 75.5l74 -223c-51.333 -35.333 -107.666 -63.333 -168.999 -84s-136.333 -31 -225 -31
c-87.333 0 -166.166 12.167 -236.499 36.5s-132.166 61.5 -185.499 111.5s-94.5 116.5 -123.5 199.5s-43.5 180.167 -43.5 291.5z" />
    <glyph glyph-name="D" unicode="D" horiz-adv-x="1179" 
d="M102 0v1331h414c398.667 0 598 -204.667 598 -614v-105c0 -408 -199.333 -612 -598 -612h-414zM348 227h168c119.333 0 207.833 29 265.5 87s86.5 157.333 86.5 298v105c0 140.667 -28.833 240 -86.5 298s-146.167 87 -265.5 87h-168v-875z" />
    <glyph glyph-name="E" unicode="E" horiz-adv-x="1060" 
d="M102 0v1331h930v-229h-684v-287h602v-227h-602v-361h684v-227h-930z" />
    <glyph glyph-name="F" unicode="F" horiz-adv-x="1026" 
d="M102 0v1331h912v-229h-666v-287h584v-227h-584v-588h-246z" />
    <glyph glyph-name="G" unicode="G" horiz-adv-x="1165" 
d="M66 616v99.0039c0 110 14.833 206.333 44.5 289s72 149 127 199s118.667 87.333 191 112s153.5 37 243.5 37c58 0 113.667 -6.33301 167 -19s95 -25.834 125 -39.501s69 -33.167 117 -58.5l-71 -221c-44.667 29.333 -97.667 54.666 -159 75.999s-121 32 -179 32
c-240.667 0 -361 -135.667 -361 -407v-99c0 -274 120.333 -411 361 -411c59.333 0 120 9.33301 182 28v302h-221v210h467v-641c-129.333 -84.667 -272 -127 -428 -127c-72 0 -138.167 7.5 -198.5 22.5s-115.833 38.833 -166.5 71.5s-93.667 73.667 -129 123
s-62.833 109.666 -82.5 180.999s-29.5 151.666 -29.5 240.999z" />
    <glyph glyph-name="H" unicode="H" horiz-adv-x="1216" 
d="M102 0v1331h246v-516h520v516h246v-1331h-246v588h-520v-588h-246z" />
    <glyph glyph-name="I" unicode="I" horiz-adv-x="450" 
d="M102 0v1331h246v-1331h-246z" />
    <glyph glyph-name="J" unicode="J" horiz-adv-x="886" 
d="M25 66l71.001 220.999c84 -54.667 170.667 -82 260 -82c30 0 55 2.83301 75 8.5s38.833 16.5 56.5 32.5s30.667 39.833 39 71.5s12.5 71.834 12.5 120.501v664h-412v229h657v-893c0 -83.333 -10.333 -155.5 -31 -216.5s-49.834 -108.833 -87.501 -143.5
s-80.5 -60.167 -128.5 -76.5s-102 -24.5 -162 -24.5c-121.333 0 -238 29.667 -350 89z" />
    <glyph glyph-name="K" unicode="K" horiz-adv-x="1177" 
d="M102 0v1331h246v-1331h-246zM375 696l471 635h291l-471 -635l512 -696h-291z" />
    <glyph glyph-name="L" unicode="L" horiz-adv-x="968" 
d="M102 0v1331h246v-1104h602v-227h-848z" />
    <glyph glyph-name="M" unicode="M" horiz-adv-x="1433" 
d="M102 0v1331h236l381 -600l379 600h233v-1331h-246v889l-366 -580l-371 580v-889h-246z" />
    <glyph glyph-name="N" unicode="N" horiz-adv-x="1216" 
d="M102 0v1331h236l530 -868v868h246v-1331h-233l-533 864v-864h-246z" />
    <glyph glyph-name="O" unicode="O" horiz-adv-x="1226" 
d="M66 616l-0.000976562 97.001c0 111.333 13.5 208.666 40.5 291.999s65.333 149.833 115 199.5s107.167 86.667 172.5 111s138.666 36.5 219.999 36.5c64 0 123.333 -7.5 178 -22.5s104.834 -38.833 150.501 -71.5s84.5 -73.5 116.5 -122.5s57 -109.333 75 -181
s27 -152.167 27 -241.5v-97c0 -112 -13.5 -209.667 -40.5 -293s-65.5 -149.833 -115.5 -199.5s-107.5 -86.5 -172.5 -110.5s-137.833 -36 -218.5 -36c-81.333 0 -154.666 12 -219.999 36s-122.833 60.833 -172.5 110.5s-88 116.167 -115 199.5s-40.5 181 -40.5 293z
M312.999 616.001c0 -75.333 7 -139.999 21 -193.999s34.5 -96.667 61.5 -128s58.333 -54 94 -68s77.167 -21 124.5 -21c96 0 169.833 31.667 221.5 95s77.5 168.666 77.5 315.999v97c0 146 -25.833 250.667 -77.5 314s-125.5 95 -221.5 95c-96.667 0 -171 -31.5 -223 -94.5
s-78 -167.833 -78 -314.5v-97z" />
    <glyph glyph-name="P" unicode="P" horiz-adv-x="1142" 
d="M102 0v1331h506c174 0 301.833 -38.833 383.5 -116.5s122.5 -185.5 122.5 -323.5c0 -136.667 -40.833 -243.5 -122.5 -320.5s-209.5 -115.5 -383.5 -115.5h-260v-455h-246zM348 682h260c94.667 0 161.667 17.167 201 51.5s59 86.833 59 157.5
c0 71.333 -19.5 124.333 -58.5 159s-106.167 52 -201.5 52h-260v-420z" />
    <glyph glyph-name="Q" unicode="Q" horiz-adv-x="1226" 
d="M66 616l-0.000976562 97.001c0 111.333 13.5 208.666 40.5 291.999s65.333 149.833 115 199.5s107.167 86.667 172.5 111s138.666 36.5 219.999 36.5c64 0 123.333 -7.5 178 -22.5s104.834 -38.833 150.501 -71.5s84.5 -73.5 116.5 -122.5s57 -109.333 75 -181
s27 -152.167 27 -241.5v-97c0 -112 -13.5 -209.667 -40.5 -293s-65.5 -149.833 -115.5 -199.5s-107.5 -86.5 -172.5 -110.5s-137.833 -36 -218.5 -36c-81.333 0 -154.666 12 -219.999 36s-122.833 60.833 -172.5 110.5s-88 116.167 -115 199.5s-40.5 181 -40.5 293z
M206.999 -83.999c30.667 27.333 65.667 45.3311 105 53.998c20 4 40.333 6 61 6c18.667 0 37.667 -2 57 -6c39.333 -7.33301 80.166 -18.166 122.499 -32.499l126.5 -43c42 -14.333 83 -25.166 123 -32.499c18.667 -4 37.334 -6 56.001 -6c20.667 0 41.334 2 62.001 6
c38.667 8.66699 73.334 26.667 104.001 54v-227c-30.667 -27.333 -65.334 -45 -104.001 -53c-20.667 -4.66699 -41.334 -7 -62.001 -7c-18.667 0 -37.334 1.66699 -56.001 5c-40 8 -81 19.167 -123 33.5l-126.5 43c-42.333 14.333 -83.166 25.5 -122.499 33.5
c-19.333 3.33301 -38.333 5 -57 5c-20.667 0 -41 -2.33301 -61 -7c-39.333 -8 -74.333 -25.667 -105 -53v227zM312.999 615.999c0 -75.333 7 -139.999 21 -193.999s34.5 -96.667 61.5 -128s58.333 -54 94 -68s77.167 -21 124.5 -21c96 0 169.833 31.667 221.5 95
s77.5 168.666 77.5 315.999v97c0 146 -25.833 250.667 -77.5 314s-125.5 95 -221.5 95c-96.667 0 -171 -31.5 -223 -94.5s-78 -167.833 -78 -314.5v-97z" />
    <glyph glyph-name="R" unicode="R" horiz-adv-x="1218" 
d="M102 0v1331h506c174 0 301.833 -36.833 383.5 -110.5s122.5 -176.167 122.5 -307.5c0 -88.667 -21.5 -165 -64.5 -229s-106.167 -111.667 -189.5 -143l359 -541h-281l-328 498h-262v-498h-246zM348 727l260 0.000976562c94 0 160.833 16 200.5 48s59.5 78 59.5 138
c0 63.333 -19.667 110.666 -59 141.999s-106.333 47 -201 47h-260v-375z" />
    <glyph glyph-name="S" unicode="S" horiz-adv-x="1001" 
d="M49 94l70 221.001c52.667 -38 113.334 -66.333 182.001 -85c59.333 -16.667 115 -25 167 -25c8 0.666992 16.333 1 25 1c59.333 2.66699 109.5 18.167 150.5 46.5s61.5 67.166 61.5 116.499c0 30 -9.16699 56.333 -27.5 79s-42.333 40.5 -72 53.5s-63.5 26.333 -101.5 40
s-76.833 26.5 -116.5 38.5s-78.5 28.5 -116.5 49.5s-71.833 45 -101.5 72s-53.667 62.833 -72 107.5s-27.5 96 -27.5 154c0 68.667 14.5 129.5 43.5 182.5s67 94.333 114 124s100.5 51.5 160.5 65.5c46 10.667 92.333 16 139 16c14 0.666992 28.333 0.333984 43 -0.999023
c61.333 -4 121.833 -15.833 181.5 -35.5s111.5 -46.167 155.5 -79.5l-69 -221c-38.667 30 -82 54.667 -130 74c-48 18.667 -94.667 29.667 -140 33c-12.667 0.666992 -25.334 1 -38.001 1c-30.667 0 -60 -2.66699 -88 -8c-38.667 -8 -69.5 -24.333 -92.5 -49
s-34.5 -54.667 -34.5 -90c0 -29.333 7.33301 -55.333 22 -78s34.167 -41.167 58.5 -55.5s52.5 -27.5 84.5 -39.5s65.667 -23.5 101 -34.5s70.5 -23 105.5 -36s68.5 -29 100.5 -48s60.167 -41.167 84.5 -66.5s43.833 -57.333 58.5 -96s22 -82.667 22 -132
c0 -64 -11.667 -121.667 -35 -173s-54.666 -92.833 -93.999 -124.5s-84.5 -57.334 -135.5 -77.001s-105.167 -31.5 -162.5 -35.5c-20.667 -1.33301 -41.334 -2 -62.001 -2c-36 0.666992 -72.333 3 -109 7c-56.667 6.66699 -111.5 19.5 -164.5 38.5
s-99.833 42.833 -140.5 71.5z" />
    <glyph glyph-name="T" unicode="T" horiz-adv-x="1130" 
d="M39 1102v229h1051v-229h-402v-1102h-246v1102h-403z" />
    <glyph glyph-name="U" unicode="U" horiz-adv-x="1224" 
d="M86 623v708h246v-708c0 -150 24 -257.167 72 -321.5s117.333 -96.5 208 -96.5c90 0 159.333 32.167 208 96.5s73 171.5 73 321.5v708h246v-708c0 -113.333 -13 -212.166 -39 -296.499s-63 -151.5 -111 -201.5s-103.333 -87.167 -166 -111.5s-133 -36.5 -211 -36.5
c-62 0 -119.167 7.33301 -171.5 22s-100.5 38.5 -144.5 71.5s-81.333 74.333 -112 124s-54.667 110.667 -72 183s-26 154.166 -26 245.499z" />
    <glyph glyph-name="V" unicode="V" horiz-adv-x="1216" 
d="M0 1331h250l358 -1018l359 1018h250l-484 -1331h-250z" />
    <glyph glyph-name="W" unicode="W" horiz-adv-x="1855" 
d="M2 1331h246l278 -960l279 960h246l278 -960l279 960h245l-401 -1331h-246l-278 926l-279 -926h-246z" />
    <glyph glyph-name="X" unicode="X" horiz-adv-x="1208" 
d="M0 0l463 696l-422 635h281l282 -442l283 442h280l-424 -635l465 -696h-280l-324 502l-323 -502h-281z" />
    <glyph glyph-name="Y" unicode="Y" horiz-adv-x="1265" 
d="M0 1331h279l354 -594l354 594h279l-508 -815v-516h-248v512z" />
    <glyph glyph-name="Z" unicode="Z" 
d="M10 0v193l690 909h-649v229h973v-194l-690 -910h731v-227h-1055z" />
    <glyph glyph-name="bracketleft" unicode="[" horiz-adv-x="737" 
d="M164 -512v2048h471v-172h-281v-1704h281v-172h-471z" />
    <glyph glyph-name="backslash" unicode="\" horiz-adv-x="655" 
d="M-27 1536h195l512 -1597h-188z" />
    <glyph glyph-name="bracketright" unicode="]" horiz-adv-x="737" 
d="M102 -340h283v1704h-283v172h473v-2048h-473v172z" />
    <glyph glyph-name="asciicircum" unicode="^" horiz-adv-x="1163" 
d="M86 618l403 836h183l405 -833h-215l-282 643l-283 -646h-211z" />
    <glyph glyph-name="underscore" unicode="_" horiz-adv-x="1067" 
d="M2 -20h1061v-189h-1061v189z" />
    <glyph glyph-name="grave" unicode="`" horiz-adv-x="624" 
d="M123 1815h223l156 -279h-172z" />
    <glyph glyph-name="a" unicode="a" horiz-adv-x="997" 
d="M39 326l0.000976562 14c0 96.667 42.667 171.667 128 225s205.666 81.666 360.999 84.999c54.667 2 108.667 4.33301 162 7v41c0 83.333 -74.333 125 -223 125c-108.667 0 -211.667 -21 -309 -63l-35 106.5l-35 106.5c132 49.333 264.333 74 397 74
c65.333 0 123.833 -6.83301 175.5 -20.5s98 -35 139 -64s72.667 -68.667 95 -119s33.5 -110.166 33.5 -179.499v-633c-120 -36 -269.667 -54 -449 -54c-77.333 0 -148.5 12.167 -213.5 36.5s-119 63.5 -162 117.5s-64.5 119 -64.5 195zM276.001 326
c0 -42 19.167 -73.332 57.5 -93.999s88.833 -31 151.5 -31c76 0 144.333 5.33301 205 16v254c-48 -0.666992 -88.333 -1.5 -121 -2.5s-66.167 -3.16699 -100.5 -6.5s-62 -7.83301 -83 -13.5s-40.5 -13.334 -58.5 -23.001s-31 -21.5 -39 -35.5s-12 -30.667 -12 -50v-14z" />
    <glyph glyph-name="b" unicode="b" horiz-adv-x="1058" 
d="M102 31v1403h238v-414c46.667 18 101.334 27 164.001 27c71.333 0 136.333 -10.667 195 -32s110.167 -52.833 154.5 -94.5s78.666 -95.834 102.999 -162.501s36.5 -143.334 36.5 -230.001v-32c0 -168 -43.667 -296.5 -131 -385.5s-205.333 -133.5 -354 -133.5
c-56.667 0 -124 4.16699 -202 12.5s-146 22.166 -204 41.499zM340 217.003c50 -10.667 102.667 -16 158 -16c86 0 150.167 21.5 192.5 64.5s63.5 119.833 63.5 230.5v32c0 58 -6.33301 106.833 -19 146.5s-31.5 70 -56.5 91s-52.667 35.833 -83 44.5s-66.5 13 -108.5 13
c-62 0 -111 -10 -147 -30v-576z" />
    <glyph glyph-name="c" unicode="c" horiz-adv-x="923" 
d="M66 506l-0.00195312 24.0039c0 86 12.5 162.333 37.5 229s60 120.667 105 162s97.833 72.666 158.5 93.999s128 32 202 32c104.667 0 208 -30.333 310 -91c-2 -5.33301 -11.833 -34.333 -29.5 -87s-30.5 -92.334 -38.5 -119.001c-71.333 48.667 -152 73 -242 73
c-85.333 0 -150.666 -22.833 -195.999 -68.5s-68 -120.5 -68 -224.5v-24c0 -104.667 25.833 -181.667 77.5 -231s120.834 -74 207.501 -74c85.333 0 165 19 239 57c8 -26.667 20.667 -65.334 38 -116.001s27.333 -80.334 30 -89.001c-88.667 -50.667 -191 -76 -307 -76
c-162.667 0 -290.667 49.167 -384 147.5s-140 225.5 -140 381.5z" />
    <glyph glyph-name="d" unicode="d" horiz-adv-x="1058" 
d="M66 496l0.000976562 31.9971c0 86.667 12.167 163.334 36.5 230.001s58.666 120.834 102.999 162.501s95.833 73.167 154.5 94.5s123.667 32 195 32c62 0 116.667 -9 164 -27v414h237v-1403c-57.333 -19.333 -124.5 -33.166 -201.5 -41.499s-144.167 -12.5 -201.5 -12.5
c-149.333 0 -267.833 44.5 -355.5 133.5s-131.5 217.5 -131.5 385.5zM305.001 495.997c0 -110.667 21.167 -187.5 63.5 -230.5s106.5 -64.5 192.5 -64.5c53.333 0 106 5.33301 158 16v576c-42 20 -90.667 30 -146 30c-42 0 -78.333 -4.33301 -109 -13
s-58.5 -23.5 -83.5 -44.5s-43.833 -51.167 -56.5 -90.5s-19 -88.333 -19 -147v-32z" />
    <glyph glyph-name="e" unicode="e" horiz-adv-x="1060" 
d="M66 496l0.00292969 31.998c0 176.667 40.667 307.334 122 392.001s196 127 344 127c147.333 0 261.666 -42.333 342.999 -127s122 -215.334 122 -392.001v-104h-688v-10c0 -65.333 24.167 -117.166 72.5 -155.499s115.166 -57.5 200.499 -57.5c128 0 237 15.667 327 47
l70 -213c-120.667 -38.667 -253 -58 -397 -58c-164.667 0 -291.834 42.333 -381.501 127s-134.5 215.334 -134.5 392.001zM309.003 599.998h445.001v10c0 68.667 -19.833 121.334 -59.5 158.001s-93.834 55 -162.501 55c-69.333 0 -123.833 -18.333 -163.5 -55
s-59.5 -89.334 -59.5 -158.001v-10z" />
    <glyph glyph-name="f" unicode="f" horiz-adv-x="681" 
d="M102 0v1073c0 68.667 9.33301 128.167 28 178.5s45.5 90.166 80.5 119.499s75 50.833 120 64.5s95.833 20.5 152.5 20.5c104 0 195 -18.333 273 -55l-70 -213c-61.333 30 -129 45 -203 45c-95.333 0 -143 -53.333 -143 -160v-49h342v-225h-342v-799h-238z" />
    <glyph glyph-name="g" unicode="g" horiz-adv-x="1058" 
d="M66 506l-0.000976562 22c0 172 47.333 301.5 142 388.5s224 130.5 388 130.5c148.667 0 268.667 -18 360 -54v-1059c0 -145.333 -42.167 -256 -126.5 -332s-196.166 -114 -335.499 -114c-146.667 0 -280 31.333 -400 94c39.333 120 62 190.333 68 211
c90 -53.333 200.667 -80 332 -80c150 0 225 73.667 225 221v60c-48 -11.333 -109.333 -17 -184 -17c-140.667 0 -254 45.333 -340 136s-129 221.667 -129 393zM304.999 506c0 -100.667 17.167 -174.168 51.5 -220.501s84.833 -73.166 151.5 -80.499
c8 -1.33301 33.333 -2 76 -2c43.333 0 88.333 5.33301 135 16v588c-46 10.667 -94.667 16 -146 16c-88.667 0 -155.5 -21.667 -200.5 -65s-67.5 -120 -67.5 -230v-22z" />
    <glyph glyph-name="h" unicode="h" 
d="M102 0v1434h238v-404c8 0.666992 27.5 2.83398 58.5 6.50098s57.667 6.33398 80 8.00098s44.5 2.5 66.5 2.5c135.333 0 243.5 -37.5 324.5 -112.5s121.5 -187.167 121.5 -336.5v-598h-235v616c0 74.667 -19.667 127.834 -59 159.501s-95.666 47.5 -168.999 47.5
c-78.667 0 -141.334 -8 -188.001 -24v-799h-238z" />
    <glyph glyph-name="i" unicode="i" horiz-adv-x="452" 
d="M82 1305c0 40 14.167 73.833 42.5 101.5s62.5 41.5 102.5 41.5s74 -13.833 102 -41.5s42 -61.5 42 -101.5s-14 -74.333 -42 -103s-62 -43 -102 -43s-74.167 14.333 -102.5 43s-42.5 63 -42.5 103zM109 0v1024h237v-1024h-237z" />
    <glyph glyph-name="j" unicode="j" horiz-adv-x="460" 
d="M-162 -471l69.999 209c26 -16.667 56.667 -25 92 -25c74 0 111 49.333 111 148v1163h237v-1163c0 -129.333 -31.667 -223.833 -95 -283.5s-147.666 -89.5 -252.999 -89.5c-63.333 0 -117.333 13.667 -162 41zM85.999 1305c0 40 13.833 73.833 41.5 101.5
s61.5 41.5 101.5 41.5s74.333 -13.833 103 -41.5s43 -61.5 43 -101.5s-14.333 -74.333 -43 -103s-63 -43 -103 -43s-73.833 14.333 -101.5 43s-41.5 63 -41.5 103z" />
    <glyph glyph-name="k" unicode="k" horiz-adv-x="1097" 
d="M102 0v1434h238v-1434h-238zM367 539l393 485h297l-393 -485l434 -539h-297z" />
    <glyph glyph-name="l" unicode="l" horiz-adv-x="544" 
d="M102 356v1078h238v-1080c0 -99.333 26 -149 78 -149c20 0 40.333 4.66699 61 14l68 -211c-56 -17.333 -110.667 -26 -164 -26c-86 0 -154.333 29.5 -205 88.5s-76 154.167 -76 285.5z" />
    <glyph glyph-name="m" unicode="m" horiz-adv-x="1634" 
d="M102 0v993.002c114 36 254 54 420 54c114.667 0 205 -28 271 -84c84.667 56 195.667 84 333 84c128.667 0 231.5 -37.5 308.5 -112.5s115.5 -187.167 115.5 -336.5v-598h-235v616c0 75.333 -17.5 128.666 -52.5 159.999s-85.833 47 -152.5 47
c-81.333 0 -149 -10 -203 -30c24.667 -61.333 37 -126.333 37 -195v-598h-235v616c0 75.333 -17.5 128.666 -52.5 159.999s-85.833 47 -152.5 47c-60 0 -114.667 -4.66699 -164 -14v-809h-238z" />
    <glyph glyph-name="n" unicode="n" 
d="M102 0l-0.00195312 992.999c118.667 36 266.334 54 443.001 54c135.333 0 243.5 -37.5 324.5 -112.5s121.5 -187.167 121.5 -336.5v-598h-235v616c0 74.667 -19.667 127.834 -59 159.501s-95.666 47.5 -168.999 47.5c-70 0 -132.667 -4.66699 -188 -14v-809h-238z" />
    <glyph glyph-name="o" unicode="o" horiz-adv-x="1083" 
d="M66 502v20c0 90.667 11.833 170.167 35.5 238.5s57.167 123.166 100.5 164.499s93.5 72 150.5 92s120.5 30 190.5 30s133.167 -10 189.5 -30s106.166 -50.667 149.499 -92s76.833 -96.166 100.5 -164.499s35.5 -147.833 35.5 -238.5v-20
c0 -90.667 -11.833 -170.167 -35.5 -238.5s-57.167 -123.166 -100.5 -164.499s-93.166 -72 -149.499 -92s-119.5 -30 -189.5 -30s-133.5 10 -190.5 30s-107.167 50.667 -150.5 92s-76.833 96.166 -100.5 164.499s-35.5 147.833 -35.5 238.5zM305 502
c0 -110 19.667 -187.667 59 -233s99 -68 179 -68c79.333 0 138.333 22.667 177 68s58 123 58 233v20c0 110 -19.333 187.667 -58 233s-97.667 68 -177 68c-80 0 -139.667 -22.667 -179 -68s-59 -123 -59 -233v-20z" />
    <glyph glyph-name="p" unicode="p" horiz-adv-x="1058" 
d="M102 -512l0.000976562 1505c57.333 19.333 124.5 33.166 201.5 41.499s143.833 12.5 200.5 12.5c149.333 0 268.166 -44.5 356.499 -133.5s132.5 -217.5 132.5 -385.5v-32c0 -171.333 -44.333 -300.666 -133 -387.999s-206 -131 -352 -131c-65.333 0 -121.333 9 -168 27
v-516h-238zM340.001 231c34 -20 83.668 -30 149.001 -30c33.333 0 62.666 2.5 87.999 7.5s49.5 14.167 72.5 27.5s41.833 30.833 56.5 52.5s26.334 50 35.001 85s13 75.833 13 122.5v32c0 110.667 -21.333 187.5 -64 230.5s-107.334 64.5 -194.001 64.5
c-52 0 -104 -5.33301 -156 -16v-576z" />
    <glyph glyph-name="q" unicode="q" horiz-adv-x="1058" 
d="M66 496l0.000976562 31.999c0 168 44.167 296.5 132.5 385.5s207.166 133.5 356.499 133.5c56 0 122.5 -4.16699 199.5 -12.5s144.167 -22.166 201.5 -41.499v-1505h-237v516c-47.333 -18 -102.666 -27 -165.999 -27c-70.667 0 -135.334 10.5 -194.001 31.5
s-110 52.333 -154 94s-78.167 96 -102.5 163s-36.5 143.833 -36.5 230.5zM305.001 495.999c0 -58.667 6.16797 -107.667 18.501 -147s30.833 -69.5 55.5 -90.5s52 -35.833 82 -44.5s66 -13 108 -13c66 0 116 10 150 30v576c-46 10.667 -98 16 -156 16
c-86.667 0 -151.334 -21.5 -194.001 -64.5s-64 -119.833 -64 -230.5v-32z" />
    <glyph glyph-name="r" unicode="r" horiz-adv-x="714" 
d="M102 0v993c100.667 36 223 54 367 54c81.333 0 162.666 -9.66699 243.999 -29l-72 -217c-50 13.333 -102 20 -156 20c-47.333 0 -95.666 -4 -144.999 -12v-809h-238z" />
    <glyph glyph-name="s" unicode="s" horiz-adv-x="929" 
d="M66 53l68.999 213.003c44 -28 105.333 -47.333 184 -58c35.333 -4.66699 68.666 -7 99.999 -7c39.333 -0.666992 76.666 3 111.999 11c62.667 13.333 94 37.666 94 72.999c0 22 -7.66699 40.5 -23 55.5s-35.5 26.333 -60.5 34s-53.5 15.834 -85.5 24.501
s-64.833 16.667 -98.5 24s-66.5 19 -98.5 35s-60.5 34.5 -85.5 55.5s-45.167 50 -60.5 87s-23 79.833 -23 128.5c0 56.667 13.167 106.5 39.5 149.5s61.166 76.5 104.499 100.5c42.667 23.333 91.334 41 146.001 53c42.667 9.33301 85.334 14 128.001 14
c12 0 24.333 -0.333008 37 -1c55.333 -3.33301 109.333 -12.5 162 -27.5s98.334 -35.5 137.001 -61.5l-70 -215c-27.333 20.667 -60.666 37.667 -99.999 51c-40 13.333 -79.333 22 -118 26c-18.667 2 -36.667 3 -54 3c-19.333 0 -38 -1 -56 -3
c-34.667 -4 -62.667 -13.5 -84 -28.5s-32 -33.833 -32 -56.5c0 -24 9.83301 -43.667 29.5 -59s45.167 -27.333 76.5 -36s66 -16.834 104 -24.501s76 -18.334 114 -32.001s72.667 -30.667 104 -51s56.833 -49.5 76.5 -87.5s29.5 -83.333 29.5 -136
c0 -62 -15.167 -116 -45.5 -162s-69.833 -81 -118.5 -105c-48 -23.333 -102 -40.333 -162 -51c-44.667 -8 -89 -12 -133 -12c-15.333 -0.666992 -30.666 -0.333984 -45.999 0.999023c-59.333 4 -114.833 12.5 -166.5 25.5s-93.834 29.5 -126.501 49.5z" />
    <glyph glyph-name="t" unicode="t" horiz-adv-x="790" 
d="M102 362v969h238v-307h360v-225h-360v-439c0 -56.667 12.333 -97 37 -121s60 -36 106 -36c84.667 0 157.667 15.667 219 47l68 -209c-75.333 -40.667 -171 -61 -287 -61c-56.667 0 -107.5 6.83301 -152.5 20.5s-85 35 -120 64s-61.833 68.667 -80.5 119
s-28 109.833 -28 178.5z" />
    <glyph glyph-name="u" unicode="u" 
d="M84 426l0.000976562 597.999h235v-616c0 -75.333 19.667 -128.666 59 -159.999s96.333 -47 171 -47c78 0 140 4.66699 186 14v809h238v-993c-138.667 -36 -286.334 -54 -443.001 -54c-134.667 0 -242.667 37.5 -324 112.5s-122 187.167 -122 336.5z" />
    <glyph glyph-name="v" unicode="v" horiz-adv-x="1064" 
d="M0 1024h250l282 -735l283 735h250l-410 -1024h-247z" />
    <glyph glyph-name="w" unicode="w" horiz-adv-x="1662" 
d="M18 1024h246l221 -715l224 715h245l222 -715l223 715h246l-345 -1024h-247l-224 657l-219 -657h-248z" />
    <glyph glyph-name="x" unicode="x" horiz-adv-x="1105" 
d="M0 0l408 539l-367 485h291l221 -307l221 307h291l-367 -485l408 -539h-291l-262 358l-262 -358h-291z" />
    <glyph glyph-name="y" unicode="y" 
d="M84 426l-0.000976562 597.999h235v-616c0 -75.333 19.667 -128.666 59 -159.999s96.333 -47 171 -47c63.333 0 125.333 5.33301 186 16v807h238v-1090c0 -145.333 -42.333 -256 -127 -332s-196.667 -114 -336 -114c-149.333 0 -284 31.333 -404 94l70 211
c90 -53.333 201.333 -80 334 -80c150 0 225 73.667 225 221v64c-55.333 -14 -123.666 -21 -204.999 -21c-50 0 -96.5 5 -139.5 15s-83.5 26.5 -121.5 49.5s-70.5 51.5 -97.5 85.5s-48.333 76.5 -64 127.5s-23.5 108.167 -23.5 171.5z" />
    <glyph glyph-name="z" unicode="z" horiz-adv-x="999" 
d="M55 0v223l559 576h-559v225h889v-225l-559 -576h559v-223h-889z" />
    <glyph glyph-name="braceleft" unicode="{" horiz-adv-x="1064" 
d="M129 444v172.001h113c76 0 133.167 27.167 171.5 81.5s57.5 131.166 57.5 230.499v205c0 128.667 32.167 228 96.5 298s150.833 105 259.5 105h144v-172h-140c-59.333 0 -102.833 -22.167 -130.5 -66.5s-41.5 -114.5 -41.5 -210.5v-198
c0 -180 -56.667 -299.667 -170 -359c113.333 -56 170 -175.333 170 -358v-235c0 -96 13.833 -166.167 41.5 -210.5s71.167 -66.5 130.5 -66.5h140v-172h-144c-106 0 -191.833 35.167 -257.5 105.5s-98.5 169.5 -98.5 297.5v242c0 100 -19.167 176.833 -57.5 230.5
s-95.5 80.5 -171.5 80.5h-113z" />
    <glyph glyph-name="bar" unicode="|" horiz-adv-x="518" 
d="M164 -512v2048h190v-2048h-190z" />
    <glyph glyph-name="braceright" unicode="}" horiz-adv-x="1064" 
d="M94 -340l139 -0.000976562c60 0 103.833 22.167 131.5 66.5s41.5 114.5 41.5 210.5v235c2.66699 184 59 303.333 169 358c-112.667 59.333 -169 179 -169 359v198c0 96 -13.833 166.167 -41.5 210.5s-71.5 66.5 -131.5 66.5h-139v172h146
c108 0 194.333 -35.167 259 -105.5s97 -169.5 97 -297.5v-205c0 -99.333 19.167 -176.166 57.5 -230.499s95.5 -81.5 171.5 -81.5h111v-172h-111c-76 0 -133.167 -26.833 -171.5 -80.5s-57.5 -130.5 -57.5 -230.5v-242c0 -128 -33 -227.167 -99 -297.5
s-151.667 -105.5 -257 -105.5h-146v172z" />
    <glyph glyph-name="asciitilde" unicode="~" horiz-adv-x="1173" 
d="M86 408c0 124 25.999 216.999 77.999 278.999s127 93 225 93c38.667 0 73.834 -7.16699 105.501 -21.5s58 -31.666 79 -51.999l60.5 -60.5c19.333 -20 40.5 -37.167 63.5 -51.5s47.833 -21.5 74.5 -21.5c44.667 0 78 18.333 100 55s33 84.667 33 144h182
c0 -248.667 -100.333 -373 -301 -373c-38.667 0 -73.667 7 -105 21s-57.333 31.167 -78 51.5l-59.5 60.5c-19 20 -40.333 37 -64 51s-49.167 21 -76.5 21c-44.667 0 -78 -18.333 -100 -55s-33 -83.667 -33 -141h-184z" />
    <glyph glyph-name="uni00A0" unicode="&#xa0;" horiz-adv-x="446" 
 />
    <glyph glyph-name="exclamdown" unicode="&#xa1;" horiz-adv-x="651" 
d="M178 901c0 40 14.5 74.333 43.5 103s63.833 43 104.5 43c40 0 74.167 -14.333 102.5 -43s42.5 -63 42.5 -103c0 -40.667 -14.167 -75.334 -42.5 -104.001s-62.5 -43 -102.5 -43c-41.333 0 -76.333 14.333 -105 43s-43 63.334 -43 104.001zM211 180
c0 52.667 5.5 132.5 16.5 239.5s16.5 186.833 16.5 239.5h166c0 -52.667 5.33301 -132.5 16 -239.5s16 -186.833 16 -239.5v-502h-231v502z" />
    <glyph glyph-name="cent" unicode="&#xa2;" horiz-adv-x="899" 
d="M49 506l-0.000976562 24c0 148.667 35.5 265.667 106.5 351s167.833 137.666 290.5 156.999v293h191v-291c70 -10 144.333 -38 223 -84c-10 -34 -32.333 -102.667 -67 -206c-71.333 48.667 -151.333 73 -240 73c-86.667 0 -152.667 -22.833 -198 -68.5
s-68 -120.5 -68 -224.5v-24c0 -104.667 26 -181.667 78 -231s121.333 -74 208 -74s166 19 238 57c40.667 -120 63.334 -188.333 68.001 -205c-73.333 -42 -154 -65.667 -242 -71v-289h-191v297c-125.333 24 -222.833 82.333 -292.5 175s-104.5 206.334 -104.5 341.001z" />
    <glyph glyph-name="sterling" unicode="&#xa3;" horiz-adv-x="1060" 
d="M18 551l0.000976562 172h177v145c0 163.333 36.667 284.833 110 364.5s186.666 119.5 339.999 119.5c57.333 0 113.333 -7.5 168 -22.5s100.334 -32.833 137.001 -53.5l-69 -211c-62.667 34.667 -138.667 53.667 -228 57c-84.667 2 -141.334 -17.5 -170.001 -58.5
s-43 -113.5 -43 -217.5v-123h338v-172h-338v-324h602v-227h-847v551h-177z" />
    <glyph glyph-name="currency" unicode="&#xa4;" horiz-adv-x="1406" 
d="M127 256l265.999 262c-24.667 44 -37 92.667 -37 146c0 47.333 11.667 95 35 143l-264 266l166 168l285 -287c40.667 16.667 83.667 25 129 25c42 0 83.333 -8.33301 124 -25l281 285l166 -166l-260 -260c24.667 -46 37 -95.667 37 -149s-13 -103.333 -39 -150l264 -258
l-168 -170l-285 287c-36.667 -14 -76.667 -21 -120 -21c-49.333 0 -91.666 7.66699 -126.999 23l-287 -289zM548.999 664c0 -44.667 14.833 -81.5 44.5 -110.5s67.5 -43.5 113.5 -43.5c45.333 0 82.833 14.5 112.5 43.5s44.5 65.833 44.5 110.5
c0 47.333 -14.667 85.333 -44 114s-67 43 -113 43c-46.667 0 -84.667 -14.333 -114 -43s-44 -66.667 -44 -114z" />
    <glyph glyph-name="yen" unicode="&#xa5;" horiz-adv-x="1265" 
d="M0 1331h279l354 -577l354 577h279l-453 -723h305v-172h-360v-106h360v-172h-360v-158h-248v158h-365v172h365v106h-365v172h304z" />
    <glyph glyph-name="brokenbar" unicode="&#xa6;" horiz-adv-x="456" 
d="M133 356h191v-868h-191v868zM133 711v825h191v-825h-191z" />
    <glyph glyph-name="section" unicode="&#xa7;" horiz-adv-x="1107" 
d="M102 -362l71.999 221.003c112 -74 225.333 -111 340 -111c70 0 128.5 14.5 175.5 43.5s70.5 70.5 70.5 124.5c0 50.667 -21.833 90 -65.5 118s-115.5 57 -215.5 87c-237.333 70.667 -356 203 -356 397c0 120.667 41 215 123 283c-82 72 -123 164 -123 276
c0 66 12 124.5 36 175.5s57.333 92.167 100 123.5s92 54.833 148 70.5s117.667 23.5 185 23.5c57.333 0 110.5 -6.16699 159.5 -18.5s86.667 -25.333 113 -39s59.166 -33.167 98.499 -58.5l-72 -221c-24 16 -44.167 28.833 -60.5 38.5s-38.166 20.667 -65.499 33
s-57 21.5 -89 27.5s-66.333 9 -103 9c-57.333 0 -105.333 -12.5 -144 -37.5s-58 -62.833 -58 -113.5c0 -19.333 3.33301 -37.333 10 -54s14 -30.834 22 -42.501s20.833 -23.334 38.5 -35.001s31.667 -20.5 42 -26.5s27.166 -13.167 50.499 -21.5
s38.833 -13.666 46.5 -15.999l46.5 -13.5c125.333 -34.667 219.833 -83.334 283.5 -146.001s95.5 -142.334 95.5 -239.001c0 -124 -42.333 -221.667 -127 -293c84.667 -68 127 -156 127 -264c0 -72.667 -14.167 -136.5 -42.5 -191.5s-66.833 -98.667 -115.5 -131
s-102.667 -56.333 -162 -72s-122.666 -23.5 -189.999 -23.5c-57.333 0 -111.833 6.33301 -163.5 19s-92.167 26 -121.5 40s-65.666 33.333 -108.999 58zM370.999 532.003c0 -27.333 6.66895 -52.499 20.002 -75.499s29.166 -41.833 47.499 -56.5
s41.666 -28.334 69.999 -41.001s53.5 -22.167 75.5 -28.5s47 -12.833 75 -19.5c67.333 33.333 101 87.333 101 162c0 22 -4.83301 42.167 -14.5 60.5s-22 34 -37 47s-36.167 26 -63.5 39s-54 24 -80 33s-59.333 19.5 -100 31.5c-62.667 -27.333 -94 -78 -94 -152z" />
    <glyph glyph-name="dieresis" unicode="&#xa8;" horiz-adv-x="997" 
d="M102 1679c0 40 14.333 74.333 43 103s63 43 103 43s73.833 -14.333 101.5 -43s41.5 -63 41.5 -103c0 -39.333 -13.833 -73 -41.5 -101s-61.5 -42 -101.5 -42s-74.333 14 -103 42s-43 61.667 -43 101zM606 1679c0 40 14.333 74.333 43 103s63 43 103 43
s73.833 -14.333 101.5 -43s41.5 -63 41.5 -103c0 -39.333 -14.167 -73 -42.5 -101s-61.833 -42 -100.5 -42c-39.333 0 -73.5 14.167 -102.5 42.5s-43.5 61.833 -43.5 100.5z" />
    <glyph glyph-name="copyright" unicode="&#xa9;" horiz-adv-x="1826" 
d="M168 721c0 102 19.5 199.001 58.5 291.001s91.667 171.167 158 237.5s145.333 119 237 158s188.167 58.5 289.5 58.5c102 0 199 -19.5 291 -58.5s171.167 -91.667 237.5 -158s119.166 -145.5 158.499 -237.5s59 -189 59 -291c0 -135.333 -33.167 -260 -99.5 -374
s-156.666 -204.167 -270.999 -270.5s-239.5 -99.5 -375.5 -99.5c-101.333 0 -197.833 19.667 -289.5 59s-170.667 92.166 -237 158.499s-119 145.333 -158 237s-58.5 188.167 -58.5 289.5zM307 721.001c0 -81.333 16.167 -159.333 48.5 -234s75.5 -139 129.5 -193
s118.167 -97 192.5 -129s152.166 -48 233.499 -48c82 0 160.5 16 235.5 48s139.5 75 193.5 129s97.167 118.333 129.5 193s48.5 152.667 48.5 234c0 82 -16 160.333 -48 235s-75.167 139.167 -129.5 193.5s-119 97.5 -194 129.5s-153.5 48 -235.5 48
c-81.333 0 -159.166 -16 -233.499 -48s-138.5 -75 -192.5 -129s-97.167 -118.5 -129.5 -193.5s-48.5 -153.5 -48.5 -235.5zM512 713.001v28.001c0 134 37.167 235.833 111.5 305.5s170.166 104.5 287.499 104.5c50.667 0 95 -6 133 -18s78.333 -30 121 -54l-27.5 -83.5
l-27.5 -84.5c-60.667 40 -124.667 60 -192 60c-69.333 0 -122.166 -18.333 -158.499 -55s-54.5 -98.334 -54.5 -185.001v-18c0 -84 21.167 -145.333 63.5 -184s99.5 -58 171.5 -58c68 0 129.333 15.667 184 47l56 -166c-38 -21.333 -75.833 -36.833 -113.5 -46.5
s-85.167 -14.5 -142.5 -14.5c-116 0 -213.667 37.5 -293 112.5s-119 178.167 -119 309.5z" />
    <glyph glyph-name="guillemotleft" unicode="&#xab;" horiz-adv-x="1142" 
d="M66 512l329 430h219l-329 -430l329 -430h-219zM489 512l330 430h221l-329 -430l329 -430h-221z" />
    <glyph glyph-name="logicalnot" unicode="&#xac;" horiz-adv-x="1189" 
d="M66 713v170h1021v-625h-190v455h-831z" />
    <glyph glyph-name="uni00AD" unicode="&#xad;" horiz-adv-x="684" 
d="M39 399v226h606v-226h-606z" />
    <glyph glyph-name="registered" unicode="&#xae;" horiz-adv-x="1826" 
d="M168 721c0 102 19.5 199.001 58.5 291.001s91.667 171.167 158 237.5s145.333 119 237 158s188.167 58.5 289.5 58.5c102 0 199 -19.5 291 -58.5s171.167 -91.667 237.5 -158s119.166 -145.5 158.499 -237.5s59 -189 59 -291c0 -135.333 -33.167 -260 -99.5 -374
s-156.666 -204.167 -270.999 -270.5s-239.5 -99.5 -375.5 -99.5c-101.333 0 -197.833 19.667 -289.5 59s-170.667 92.166 -237 158.499s-119 145.333 -158 237s-58.5 188.167 -58.5 289.5zM307 721.001c0 -81.333 16.167 -159.333 48.5 -234s75.5 -139 129.5 -193
s118.167 -97 192.5 -129s152.166 -48 233.499 -48c82 0 160.5 16 235.5 48s139.5 75 193.5 129s97.167 118.333 129.5 193s48.5 152.667 48.5 234c0 82 -16 160.333 -48 235s-75.167 139.167 -129.5 193.5s-119 97.5 -194 129.5s-153.5 48 -235.5 48
c-81.333 0 -159.166 -16 -233.499 -48s-138.5 -75 -192.5 -129s-97.167 -118.5 -129.5 -193.5s-48.5 -153.5 -48.5 -235.5zM584 311.001l-0.000976562 819h329c106 0 186.167 -22.167 240.5 -66.5s81.5 -103.833 81.5 -178.5c0 -58 -14.167 -108.333 -42.5 -151
s-70.166 -73.667 -125.499 -93l176 -330h-215l-156 310h-98v-310h-190zM773.999 791.001h139c46.667 0 79.5 6.16699 98.5 18.5s28.5 31.833 28.5 58.5c0 28 -9.33301 48.667 -28 62s-51.667 20 -99 20h-139v-159z" />
    <glyph glyph-name="degree" unicode="&#xb0;" horiz-adv-x="876" 
d="M102 1202c0 94.667 32.3311 174 96.998 238s144.334 96 239.001 96c93.333 0 172.333 -32.333 237 -97s97 -143.667 97 -237s-32.167 -172 -96.5 -236s-143.5 -96 -237.5 -96c-95.333 0 -175.166 31.333 -239.499 94s-96.5 142 -96.5 238zM278.998 1202
c0 -46.667 15.001 -85.332 45.001 -115.999s68 -46 114 -46c42 0 78.833 15.667 110.5 47s47.5 69.666 47.5 114.999c0 47.333 -14.833 86.5 -44.5 117.5s-67.5 46.5 -113.5 46.5c-46.667 0 -84.834 -15.5 -114.501 -46.5s-44.5 -70.167 -44.5 -117.5z" />
    <glyph glyph-name="plusminus" unicode="&#xb1;" horiz-adv-x="1275" 
d="M82 18v224h436v325h-436v226h436v413h244v-413h434v-226h-434v-325h432v-224h-1112z" />
    <glyph glyph-name="acute" unicode="&#xb4;" horiz-adv-x="636" 
d="M123 1536l162 279h229l-213 -279h-178z" />
    <glyph glyph-name="uni00B5" unicode="&#xb5;" horiz-adv-x="1093" 
d="M102 -479v1503h236v-547c0 -98 18 -167.833 54 -209.5s87.667 -62.5 155 -62.5c138 0 207 92.667 207 278v541h237v-1024h-209l-26 119c-48 -92.667 -124 -139 -228 -139c-88 0 -151.333 26.333 -190 79v-538h-236z" />
    <glyph glyph-name="paragraph" unicode="&#xb6;" horiz-adv-x="1138" 
d="M66 1040c0 142 46.167 252.333 138.5 331s223.5 118 393.5 118h436v-1690h-190v1491h-172v-1491h-191v781c-126 15.333 -226.667 64.5 -302 147.5s-113 187.167 -113 312.5z" />
    <glyph glyph-name="periodcentered" unicode="&#xb7;" horiz-adv-x="483" 
d="M94 512c0 40.667 14.333 75.334 43 104.001s63.667 43 105 43c40 0 74.167 -14.333 102.5 -43s42.5 -63.334 42.5 -104.001s-14.167 -75.334 -42.5 -104.001s-62.5 -43 -102.5 -43c-41.333 0 -76.333 14.333 -105 43s-43 63.334 -43 104.001z" />
    <glyph glyph-name="cedilla" unicode="&#xb8;" horiz-adv-x="536" 
d="M92 -383l2.00098 118.999c12 -6 28.833 -10.333 50.5 -13s43.5 -3.33398 65.5 -2.00098s41 6.83301 57 16.5s24 22.834 24 39.501c0 22.667 -10 39.5 -30 50.5s-42 15.667 -66 14s-46 -4.16699 -66 -7.5l49 217h121l-27 -121c51.333 4 93.666 -7.66699 126.999 -35
s49 -66 47 -116c-2 -42 -15 -77.667 -39 -107s-53.667 -49.833 -89 -61.5s-73 -17.167 -113 -16.5s-77.667 8.33398 -113 23.001z" />
    <glyph glyph-name="guillemotright" unicode="&#xbb;" horiz-adv-x="1136" 
d="M98 82l330 430l-330 430h219l330 -430l-330 -430h-219zM522 82l330 430l-330 430h219l330 -430l-330 -430h-219z" />
    <glyph glyph-name="questiondown" unicode="&#xbf;" horiz-adv-x="1003" 
d="M68 72c0 38.667 4.33496 74.6689 13.002 108.002s23.667 63.833 45 91.5s39.666 50.5 54.999 68.5s40.333 37.667 75 59s58.167 35.5 70.5 42.5s37.166 19.5 74.499 37.5l25 13c91.333 42.667 137 93.667 137 153h246c0 -74 -22.667 -138.833 -68 -194.5
s-102.666 -100.834 -171.999 -135.501c-14.667 -8.66699 -34 -19 -58 -31l-60 -30c-16 -8 -33.5 -18.5 -52.5 -31.5s-34.167 -26 -45.5 -39s-20.833 -29.167 -28.5 -48.5s-11.5 -40.333 -11.5 -63c0 -60.667 21.833 -106.334 65.5 -137.001s107.167 -46 190.5 -46
c51.333 0 103.333 6.33301 156 19s93.667 27 123 43l74 -219c-107.333 -46.667 -225 -70 -353 -70c-148.667 0 -269.334 35.833 -362.001 107.5s-139 172.5 -139 302.5zM539.002 901.002c0 41.333 14.333 76.333 43 105s63.334 43 104.001 43c40 0 74.167 -14.5 102.5 -43.5
s42.5 -63.833 42.5 -104.5c0 -40 -14.167 -74.167 -42.5 -102.5s-62.5 -42.5 -102.5 -42.5c-40.667 0 -75.334 14.167 -104.001 42.5s-43 62.5 -43 102.5z" />
    <glyph glyph-name="Agrave" unicode="&#xc0;" horiz-adv-x="1222" 
d="M-23 0l508 1331h252l508 -1331h-250l-108 287h-551l-109 -287h-250zM358 1815h222l157 -279h-172zM420 514h381l-191 506z" />
    <glyph glyph-name="Aacute" unicode="&#xc1;" horiz-adv-x="1222" 
d="M-23 0l508 1331h252l508 -1331h-250l-108 287h-551l-109 -287h-250zM420 514h381l-191 506zM485 1536l162 279h232l-215 -279h-179z" />
    <glyph glyph-name="Acircumflex" unicode="&#xc2;" horiz-adv-x="1222" 
d="M-23 0l508 1331h252l508 -1331h-250l-108 287h-551l-109 -287h-250zM324 1536l186 279h199l188 -279h-174l-111 174h-4l-110 -174h-174zM420 514h381l-191 506z" />
    <glyph glyph-name="Atilde" unicode="&#xc3;" horiz-adv-x="1222" 
d="M-23 0l508 1331h252l508 -1331h-250l-108 287h-551l-109 -287h-250zM248 1542c0 187.333 75.0039 281.001 225.004 281.001c27.333 0 52.166 -5 74.499 -15s41 -22.333 56 -37s29.167 -29.334 42.5 -44.001s27.666 -27 42.999 -37s31.333 -15 48 -15
c29.333 0 51.666 13.167 66.999 39.5s23 60.5 23 102.5h148c0 -187.333 -75.667 -281 -227 -281c-26.667 0 -51.167 5 -73.5 15s-41 22.333 -56 37s-29.167 29.167 -42.5 43.5s-27.833 26.5 -43.5 36.5s-32.167 15 -49.5 15c-28.667 0 -50.834 -13 -66.501 -39
s-23.5 -60 -23.5 -102h-145zM420.004 514.001h381l-191 506z" />
    <glyph glyph-name="Adieresis" unicode="&#xc4;" horiz-adv-x="1222" 
d="M-23 0l508 1331h252l508 -1331h-250l-108 287h-551l-109 -287h-250zM215 1679c0 40 13.833 74.333 41.5 103s61.5 43 101.5 43s74.333 -14.333 103 -43s43 -63 43 -103c0 -39.333 -14.333 -73 -43 -101s-63 -42 -103 -42s-73.833 14 -101.5 42s-41.5 61.667 -41.5 101z
M420 514h381l-191 506zM719 1679c0 40 13.833 74.333 41.5 103s61.5 43 101.5 43s74.333 -14.333 103 -43s43 -63 43 -103c0 -39.333 -14.333 -73 -43 -101s-63 -42 -103 -42c-38.667 0 -72.167 14 -100.5 42s-42.5 61.667 -42.5 101z" />
    <glyph glyph-name="Aring" unicode="&#xc5;" horiz-adv-x="1222" 
d="M-23 0l508 1331h252l508 -1331h-250l-108 287h-551l-109 -287h-250zM420 514h381l-191 506zM432 1696c0 50 17.5 89.5 52.5 118.5s76.833 43.5 125.5 43.5c50 0 92.667 -14.5 128 -43.5s53 -68.5 53 -118.5c0 -48.667 -17.833 -87.5 -53.5 -116.5
s-78.167 -43.5 -127.5 -43.5c-48.667 0 -90.5 14.5 -125.5 43.5s-52.5 67.833 -52.5 116.5zM535 1696c0 -22 7 -40.167 21 -54.5s32 -21.5 54 -21.5c23.333 0 42.166 7.16699 56.499 21.5s21.5 32.5 21.5 54.5c0 22.667 -7.16699 41.334 -21.5 56.001s-33.166 22 -56.499 22
c-22 0 -40 -7.33301 -54 -22s-21 -33.334 -21 -56.001z" />
    <glyph glyph-name="AE" unicode="&#xc6;" horiz-adv-x="1818" 
d="M0 0l483 1331h1305v-229h-719v-287h637v-227h-637v-361h719v-227h-963v369h-440l-135 -369h-250zM467 596h358v506h-176z" />
    <glyph glyph-name="Ccedilla" unicode="&#xc7;" horiz-adv-x="1085" 
d="M66 616l0.00195312 99c0 88.667 9.5 168.5 28.5 239.5s45.667 131 80 180s76.166 90 125.499 123s103.5 57 162.5 72s123.167 22.5 192.5 22.5c79.333 0 149.666 -10.333 210.999 -31s122.333 -48.667 183 -84l-74 -223c-42.667 29.333 -93 54.666 -151 75.999
s-114.333 32 -169 32c-229.333 0 -344 -135.667 -344 -407v-99c0 -274 114.667 -411 344 -411c64 0 126.5 11.5 187.5 34.5s105.167 48.167 132.5 75.5l74 -223c-51.333 -35.333 -107.666 -63.333 -168.999 -84s-136.333 -31 -225 -31c-11.333 0 -38 1.66699 -80 5l-10 -52
c50.667 4 92.667 -7.83301 126 -35.5s48.666 -66.167 45.999 -115.5c-2 -42 -15 -77.667 -39 -107s-53.667 -49.833 -89 -61.5s-73 -17.167 -113 -16.5s-77.667 8.33398 -113 23.001l2 119c12 -6 28.833 -10.333 50.5 -13s43.5 -3.33398 65.5 -2.00098s41 6.83301 57 16.5
s24 22.834 24 39.501c0 22.667 -10 39.5 -30 50.5s-42 15.667 -66 14s-46 -4.16699 -66 -7.5l37 168c-123.333 32 -219.333 98.667 -288 200s-103 239.333 -103 414z" />
    <glyph glyph-name="Egrave" unicode="&#xc8;" horiz-adv-x="1060" 
d="M102 0v1331h930v-229h-684v-287h602v-227h-602v-361h684v-227h-930zM309 1815h221l158 -279h-172z" />
    <glyph glyph-name="Eacute" unicode="&#xc9;" horiz-adv-x="1060" 
d="M102 0v1331h930v-229h-684v-287h602v-227h-602v-361h684v-227h-930zM479 1536l162 279h229l-213 -279h-178z" />
    <glyph glyph-name="Ecircumflex" unicode="&#xca;" horiz-adv-x="1060" 
d="M102 0v1331h930v-229h-684v-287h602v-227h-602v-361h684v-227h-930zM297 1536l186 279h199l188 -279h-174l-110 174h-4l-111 -174h-174z" />
    <glyph glyph-name="Edieresis" unicode="&#xcb;" horiz-adv-x="1060" 
d="M102 0v1331h930v-229h-684v-287h602v-227h-602v-361h684v-227h-930zM188 1679c0 40 14 74.333 42 103s62 43 102 43s74.167 -14.333 102.5 -43s42.5 -63 42.5 -103c0 -39.333 -14.167 -73 -42.5 -101s-62.5 -42 -102.5 -42s-74 14 -102 42s-42 61.667 -42 101zM692 1679
c0 40 13.999 74.333 41.999 103s62 43 102 43s74.167 -14.333 102.5 -43s42.5 -63 42.5 -103c0 -38.667 -14.333 -72.167 -43 -100.5s-62.667 -42.5 -102 -42.5s-73.166 14.167 -101.499 42.5s-42.5 61.833 -42.5 100.5z" />
    <glyph glyph-name="Igrave" unicode="&#xcc;" horiz-adv-x="450" 
d="M-59 1815h221l157 -279h-174zM102 0v1331h246v-1331h-246z" />
    <glyph glyph-name="Iacute" unicode="&#xcd;" horiz-adv-x="450" 
d="M102 0v1331h246v-1331h-246zM133 1536l162 279h229l-215 -279h-176z" />
    <glyph glyph-name="Icircumflex" unicode="&#xce;" horiz-adv-x="450" 
d="M-61 1536l186 279h199l188 -279h-176l-109 174h-4l-110 -174h-174zM102 0v1331h246v-1331h-246z" />
    <glyph glyph-name="Idieresis" unicode="&#xcf;" horiz-adv-x="450" 
d="M-170 1679c0 40 13.833 74.333 41.5 103s61.5 43 101.5 43s74.333 -14.333 103 -43s43 -63 43 -103c0 -39.333 -14.333 -73 -43 -101s-63 -42 -103 -42s-73.833 14 -101.5 42s-41.5 61.667 -41.5 101zM102 0v1331h246v-1331h-246zM334 1679c0 40 13.833 74.333 41.5 103
s61.5 43 101.5 43s74.333 -14.333 103 -43s43 -63 43 -103c0 -38.667 -14.5 -72.167 -43.5 -100.5s-63.167 -42.5 -102.5 -42.5s-73 14 -101 42s-42 61.667 -42 101z" />
    <glyph glyph-name="Eth" unicode="&#xd0;" horiz-adv-x="1236" 
d="M-4 592v192h164v547h411c398.667 0 598 -204.667 598 -614v-105c0 -408 -199.333 -612 -598 -612h-411v592h-164zM403 227h168c120 0 209.167 29.167 267.5 87.5s87.5 157.5 87.5 297.5v105c0 140 -29.167 239.167 -87.5 297.5s-147.5 87.5 -267.5 87.5h-168v-318h175
v-192h-175v-365z" />
    <glyph glyph-name="Ntilde" unicode="&#xd1;" horiz-adv-x="1216" 
d="M102 0v1331h236l530 -868v868h246v-1331h-233l-533 864v-864h-246zM244 1542c0 187.333 75.6631 281.001 226.996 281.001c26.667 0 51.167 -5 73.5 -15s41 -22.333 56 -37l43 -44c13.667 -14.667 28.167 -27 43.5 -37s31.333 -15 48 -15
c28.667 0 50.834 13.333 66.501 40s23.5 60.667 23.5 102h146c0 -187.333 -75.333 -281 -226 -281c-27.333 0 -52.166 5 -74.499 15s-41 22.333 -56 37s-29.167 29.167 -42.5 43.5s-27.666 26.5 -42.999 36.5s-31.333 15 -48 15c-29.333 0 -51.666 -12.833 -66.999 -38.5
s-23 -59.834 -23 -102.501h-147z" />
    <glyph glyph-name="Ograve" unicode="&#xd2;" horiz-adv-x="1226" 
d="M66 616l-0.000976562 97.001c0 111.333 13.5 208.666 40.5 291.999s65.333 149.833 115 199.5s107.167 86.667 172.5 111s138.666 36.5 219.999 36.5c64 0 123.333 -7.5 178 -22.5s104.834 -38.833 150.501 -71.5s84.5 -73.5 116.5 -122.5s57 -109.333 75 -181
s27 -152.167 27 -241.5v-97c0 -112 -13.5 -209.667 -40.5 -293s-65.5 -149.833 -115.5 -199.5s-107.5 -86.5 -172.5 -110.5s-137.833 -36 -218.5 -36c-81.333 0 -154.666 12 -219.999 36s-122.833 60.833 -172.5 110.5s-88 116.167 -115 199.5s-40.5 181 -40.5 293z
M312.999 616.001c0 -75.333 7 -139.999 21 -193.999s34.5 -96.667 61.5 -128s58.333 -54 94 -68s77.167 -21 124.5 -21c96 0 169.833 31.667 221.5 95s77.5 168.666 77.5 315.999v97c0 146 -25.833 250.667 -77.5 314s-125.5 95 -221.5 95c-96.667 0 -171 -31.5 -223 -94.5
s-78 -167.833 -78 -314.5v-97zM325.999 1815h223l156 -279h-173z" />
    <glyph glyph-name="Oacute" unicode="&#xd3;" horiz-adv-x="1226" 
d="M66 616l-0.000976562 97.001c0 111.333 13.5 208.666 40.5 291.999s65.333 149.833 115 199.5s107.167 86.667 172.5 111s138.666 36.5 219.999 36.5c64 0 123.333 -7.5 178 -22.5s104.834 -38.833 150.501 -71.5s84.5 -73.5 116.5 -122.5s57 -109.333 75 -181
s27 -152.167 27 -241.5v-97c0 -112 -13.5 -209.667 -40.5 -293s-65.5 -149.833 -115.5 -199.5s-107.5 -86.5 -172.5 -110.5s-137.833 -36 -218.5 -36c-81.333 0 -154.666 12 -219.999 36s-122.833 60.833 -172.5 110.5s-88 116.167 -115 199.5s-40.5 181 -40.5 293z
M312.999 616.001c0 -75.333 7 -139.999 21 -193.999s34.5 -96.667 61.5 -128s58.333 -54 94 -68s77.167 -21 124.5 -21c96 0 169.833 31.667 221.5 95s77.5 168.666 77.5 315.999v97c0 146 -25.833 250.667 -77.5 314s-125.5 95 -221.5 95c-96.667 0 -171 -31.5 -223 -94.5
s-78 -167.833 -78 -314.5v-97zM480.999 1536l162 279h229l-213 -279h-178z" />
    <glyph glyph-name="Ocircumflex" unicode="&#xd4;" horiz-adv-x="1226" 
d="M66 616l-0.000976562 97.001c0 111.333 13.5 208.666 40.5 291.999s65.333 149.833 115 199.5s107.167 86.667 172.5 111s138.666 36.5 219.999 36.5c64 0 123.333 -7.5 178 -22.5s104.834 -38.833 150.501 -71.5s84.5 -73.5 116.5 -122.5s57 -109.333 75 -181
s27 -152.167 27 -241.5v-97c0 -112 -13.5 -209.667 -40.5 -293s-65.5 -149.833 -115.5 -199.5s-107.5 -86.5 -172.5 -110.5s-137.833 -36 -218.5 -36c-81.333 0 -154.666 12 -219.999 36s-122.833 60.833 -172.5 110.5s-88 116.167 -115 199.5s-40.5 181 -40.5 293z
M312.999 616.001c0 -75.333 7 -139.999 21 -193.999s34.5 -96.667 61.5 -128s58.333 -54 94 -68s77.167 -21 124.5 -21c96 0 169.833 31.667 221.5 95s77.5 168.666 77.5 315.999v97c0 146 -25.833 250.667 -77.5 314s-125.5 95 -221.5 95c-96.667 0 -171 -31.5 -223 -94.5
s-78 -167.833 -78 -314.5v-97zM327.999 1536l186 279h199l188 -279h-176l-109 174h-4l-112 -174h-172z" />
    <glyph glyph-name="Otilde" unicode="&#xd5;" horiz-adv-x="1226" 
d="M66 616l-0.000976562 97.001c0 111.333 13.5 208.666 40.5 291.999s65.333 149.833 115 199.5s107.167 86.667 172.5 111s138.666 36.5 219.999 36.5c64 0 123.333 -7.5 178 -22.5s104.834 -38.833 150.501 -71.5s84.5 -73.5 116.5 -122.5s57 -109.333 75 -181
s27 -152.167 27 -241.5v-97c0 -112 -13.5 -209.667 -40.5 -293s-65.5 -149.833 -115.5 -199.5s-107.5 -86.5 -172.5 -110.5s-137.833 -36 -218.5 -36c-81.333 0 -154.666 12 -219.999 36s-122.833 60.833 -172.5 110.5s-88 116.167 -115 199.5s-40.5 181 -40.5 293z
M249.999 1542c0 187.333 75.6641 281.001 226.997 281.001c26.667 0 51.167 -5 73.5 -15s40.833 -22.333 55.5 -37l42 -44c13.333 -14.667 27.666 -27 42.999 -37s31.333 -15 48 -15c29.333 0 51.666 13.167 66.999 39.5s23 60.5 23 102.5h148
c0 -187.333 -75 -281 -225 -281c-27.333 0 -52.166 5 -74.499 15s-41.166 22.333 -56.499 37s-29.666 29.167 -42.999 43.5s-27.666 26.5 -42.999 36.5s-31.333 15 -48 15c-29.333 0 -51.666 -12.833 -66.999 -38.5s-23 -59.834 -23 -102.501h-147zM312.996 616.002
c0 -75.333 7 -139.999 21 -193.999s34.5 -96.667 61.5 -128s58.333 -54 94 -68s77.167 -21 124.5 -21c96 0 169.833 31.667 221.5 95s77.5 168.666 77.5 315.999v97c0 146 -25.833 250.667 -77.5 314s-125.5 95 -221.5 95c-96.667 0 -171 -31.5 -223 -94.5
s-78 -167.833 -78 -314.5v-97z" />
    <glyph glyph-name="Odieresis" unicode="&#xd6;" horiz-adv-x="1226" 
d="M66 616l-0.000976562 97.001c0 111.333 13.5 208.666 40.5 291.999s65.333 149.833 115 199.5s107.167 86.667 172.5 111s138.666 36.5 219.999 36.5c64 0 123.333 -7.5 178 -22.5s104.834 -38.833 150.501 -71.5s84.5 -73.5 116.5 -122.5s57 -109.333 75 -181
s27 -152.167 27 -241.5v-97c0 -112 -13.5 -209.667 -40.5 -293s-65.5 -149.833 -115.5 -199.5s-107.5 -86.5 -172.5 -110.5s-137.833 -36 -218.5 -36c-81.333 0 -154.666 12 -219.999 36s-122.833 60.833 -172.5 110.5s-88 116.167 -115 199.5s-40.5 181 -40.5 293z
M216.999 1679c0 40 14.167 74.333 42.5 103s62.5 43 102.5 43s74 -14.333 102 -43s42 -63 42 -103c0 -39.333 -14 -73 -42 -101s-62 -42 -102 -42s-74.167 14 -102.5 42s-42.5 61.667 -42.5 101zM312.999 616.001c0 -75.333 7 -139.999 21 -193.999s34.5 -96.667 61.5 -128
s58.333 -54 94 -68s77.167 -21 124.5 -21c96 0 169.833 31.667 221.5 95s77.5 168.666 77.5 315.999v97c0 146 -25.833 250.667 -77.5 314s-125.5 95 -221.5 95c-96.667 0 -171 -31.5 -223 -94.5s-78 -167.833 -78 -314.5v-97zM720.999 1679c0 40 14.166 74.333 42.499 103
s62.5 43 102.5 43s74 -14.333 102 -43s42 -63 42 -103c0 -38.667 -14.167 -72.167 -42.5 -100.5s-62.166 -42.5 -101.499 -42.5s-73.333 14.167 -102 42.5s-43 61.833 -43 100.5z" />
    <glyph glyph-name="multiply" unicode="&#xd7;" horiz-adv-x="1341" 
d="M94 256l412 408l-412 409l166 168l412 -414l407 412l166 -166l-411 -409l413 -408l-168 -170l-407 414l-412 -414z" />
    <glyph glyph-name="Oslash" unicode="&#xd8;" horiz-adv-x="1226" 
d="M66 616l-0.000976562 97.001c0 111.333 13.5 208.666 40.5 291.999s65.333 149.833 115 199.5s107.167 86.667 172.5 111s138.666 36.5 219.999 36.5c64 0 123.333 -7.5 178 -22.5s104.834 -38.833 150.501 -71.5s84.5 -73.5 116.5 -122.5s57 -109.333 75 -181
s27 -152.167 27 -241.5v-97c0 -112 -13.5 -209.667 -40.5 -293s-65.5 -149.833 -115.5 -199.5s-107.5 -86.5 -172.5 -110.5s-137.833 -36 -218.5 -36c-81.333 0 -154.666 12 -219.999 36s-122.833 60.833 -172.5 110.5s-88 116.167 -115 199.5s-40.5 181 -40.5 293z
M312.999 616.001c0 -143.333 26 -248.333 78 -315l262 817c-16 2.66699 -29 4 -39 4c-96.667 0 -171 -31.5 -223 -94.5s-78 -167.833 -78 -314.5v-97zM552.999 211.001c18 -4 38.333 -5.99902 61 -5.99902c96 0 169.833 31.667 221.5 95s77.5 168.666 77.5 315.999v97
c0 147.333 -30 254.333 -90 321z" />
    <glyph glyph-name="Ugrave" unicode="&#xd9;" horiz-adv-x="1224" 
d="M86 623v708h246v-708c0 -150 24 -257.167 72 -321.5s117.333 -96.5 208 -96.5c90 0 159.333 32.167 208 96.5s73 171.5 73 321.5v708h246v-708c0 -113.333 -13 -212.166 -39 -296.499s-63 -151.5 -111 -201.5s-103.333 -87.167 -166 -111.5s-133 -36.5 -211 -36.5
c-62 0 -119.167 7.33301 -171.5 22s-100.5 38.5 -144.5 71.5s-81.333 74.333 -112 124s-54.667 110.667 -72 183s-26 154.166 -26 245.499zM324 1815h223l155 -279h-172z" />
    <glyph glyph-name="Uacute" unicode="&#xda;" horiz-adv-x="1224" 
d="M86 623v708h246v-708c0 -150 24 -257.167 72 -321.5s117.333 -96.5 208 -96.5c90 0 159.333 32.167 208 96.5s73 171.5 73 321.5v708h246v-708c0 -113.333 -13 -212.166 -39 -296.499s-63 -151.5 -111 -201.5s-103.333 -87.167 -166 -111.5s-133 -36.5 -211 -36.5
c-62 0 -119.167 7.33301 -171.5 22s-100.5 38.5 -144.5 71.5s-81.333 74.333 -112 124s-54.667 110.667 -72 183s-26 154.166 -26 245.499zM520 1536l162 279h229l-215 -279h-176z" />
    <glyph glyph-name="Ucircumflex" unicode="&#xdb;" horiz-adv-x="1224" 
d="M86 623v708h246v-708c0 -150 24 -257.167 72 -321.5s117.333 -96.5 208 -96.5c90 0 159.333 32.167 208 96.5s73 171.5 73 321.5v708h246v-708c0 -113.333 -13 -212.166 -39 -296.499s-63 -151.5 -111 -201.5s-103.333 -87.167 -166 -111.5s-133 -36.5 -211 -36.5
c-62 0 -119.167 7.33301 -171.5 22s-100.5 38.5 -144.5 71.5s-81.333 74.333 -112 124s-54.667 110.667 -72 183s-26 154.166 -26 245.499zM326 1536l186 279h199l188 -279h-176l-109 174h-4l-112 -174h-172z" />
    <glyph glyph-name="Udieresis" unicode="&#xdc;" horiz-adv-x="1224" 
d="M86 623v708h246v-708c0 -150 24 -257.167 72 -321.5s117.333 -96.5 208 -96.5c90 0 159.333 32.167 208 96.5s73 171.5 73 321.5v708h246v-708c0 -113.333 -13 -212.166 -39 -296.499s-63 -151.5 -111 -201.5s-103.333 -87.167 -166 -111.5s-133 -36.5 -211 -36.5
c-62 0 -119.167 7.33301 -171.5 22s-100.5 38.5 -144.5 71.5s-81.333 74.333 -112 124s-54.667 110.667 -72 183s-26 154.166 -26 245.499zM215 1679c0 40 14.167 74.333 42.5 103s62.5 43 102.5 43s74 -14.333 102 -43s42 -63 42 -103c0 -39.333 -14 -73 -42 -101
s-62 -42 -102 -42s-74.167 14 -102.5 42s-42.5 61.667 -42.5 101zM719 1679c0 40 14.166 74.333 42.499 103s62.5 43 102.5 43s74 -14.333 102 -43s42 -63 42 -103c0 -38.667 -14.167 -72.167 -42.5 -100.5s-62.166 -42.5 -101.499 -42.5s-73.333 14.167 -102 42.5
s-43 61.833 -43 100.5z" />
    <glyph glyph-name="Yacute" unicode="&#xdd;" horiz-adv-x="1265" 
d="M0 1331h279l354 -594l354 594h279l-508 -815v-516h-248v512zM541 1536l161 279h230l-213 -279h-178z" />
    <glyph glyph-name="Thorn" unicode="&#xde;" horiz-adv-x="1175" 
d="M102 0v1434h246v-205h260c174 0 301.833 -37.167 383.5 -111.5s122.5 -177.166 122.5 -308.499c0 -130.667 -40.833 -232.667 -122.5 -306s-209.5 -110 -383.5 -110h-260v-393h-246zM348 620.999h260c94.667 0 161.667 15.5 201 46.5s59 78.167 59 141.5
c0 64 -19.667 111.667 -59 143s-106.333 47 -201 47h-260v-378z" />
    <glyph glyph-name="germandbls" unicode="&#xdf;" horiz-adv-x="1110" 
d="M102 0l-0.00292969 829.003c0 177.333 40.333 308.833 121 394.5s194.667 128.5 342 128.5c120.667 0 216.334 -30.333 287.001 -91s106 -143 106 -247c0 -36 -6.33301 -69 -19 -99s-28.667 -54 -48 -72s-40 -35 -62 -51s-42.667 -29.333 -62 -40
s-35.333 -22.334 -48 -35.001s-19 -25.667 -19 -39s11.833 -26.833 35.5 -40.5s52.334 -28 86.001 -43s67.334 -32.5 101.001 -52.5s62.334 -47.333 86.001 -82s35.5 -74 35.5 -118c0 -119.333 -40.833 -210 -122.5 -272s-192.834 -93 -333.501 -93
c-57.333 0 -108 8.33301 -152 25v240c43.333 -24.667 96.666 -37 159.999 -37c72 0 123.833 9.16699 155.5 27.5s47.5 45.166 47.5 80.499c0 19.333 -6.33301 36.5 -19 51.5s-29 27.667 -49 38s-42.167 20.5 -66.5 30.5s-48.666 21.667 -72.999 35
s-46.5 28.666 -66.5 45.999s-36.333 40.166 -49 68.499s-19 60.833 -19 97.5c0 37.333 8.83301 70.833 26.5 100.5s39 54 64 73s50 36.5 75 52.5s46.333 33.167 64 51.5s26.5 37.833 26.5 58.5c0 34.667 -14 61.334 -42 80.001s-65.333 28 -112 28
c-74 0 -127.667 -22.167 -161 -66.5s-50 -117.5 -50 -219.5v-838h-246z" />
    <glyph glyph-name="agrave" unicode="&#xe0;" horiz-adv-x="997" 
d="M39 326l0.000976562 13.999c0 96.667 42.667 171.667 128 225s205.666 82 360.999 86l162 6v41c0 83.333 -74.333 125 -223 125c-108.667 0 -211.667 -21 -309 -63l-35 106.5l-35 106.5c132 49.333 264.333 74 397 74c65.333 0 123.833 -6.83301 175.5 -20.5
s98 -35 139 -64s72.667 -68.667 95 -119s33.5 -110.166 33.5 -179.499v-633c-120 -36 -269.667 -54 -449 -54c-77.333 0 -148.5 12.167 -213.5 36.5s-119 63.5 -162 117.5s-64.5 119 -64.5 195zM231.001 1425h222l157 -278h-174l-102.5 139zM276.001 325.999
c0 -42 19.167 -73.332 57.5 -93.999s88.833 -31 151.5 -31c76 0 144.333 5.33301 205 16v254c-48 -0.666992 -88.333 -1.5 -121 -2.5s-66.167 -3.16699 -100.5 -6.5s-62 -7.83301 -83 -13.5s-40.5 -13.334 -58.5 -23.001s-31 -21.5 -39 -35.5s-12 -30.667 -12 -50v-14z" />
    <glyph glyph-name="aacute" unicode="&#xe1;" horiz-adv-x="997" 
d="M39 326l0.000976562 13.999c0 96.667 42.667 171.667 128 225s205.666 82 360.999 86l162 6v41c0 83.333 -74.333 125 -223 125c-108.667 0 -211.667 -21 -309 -63l-35 106.5l-35 106.5c132 49.333 264.333 74 397 74c65.333 0 123.833 -6.83301 175.5 -20.5
s98 -35 139 -64s72.667 -68.667 95 -119s33.5 -110.166 33.5 -179.499v-633c-120 -36 -269.667 -54 -449 -54c-77.333 0 -148.5 12.167 -213.5 36.5s-119 63.5 -162 117.5s-64.5 119 -64.5 195zM276.001 325.999c0 -42 19.167 -73.332 57.5 -93.999s88.833 -31 151.5 -31
c76 0 144.333 5.33301 205 16v254c-48 -0.666992 -88.333 -1.5 -121 -2.5s-66.167 -3.16699 -100.5 -6.5s-62 -7.83301 -83 -13.5s-40.5 -13.334 -58.5 -23.001s-31 -21.5 -39 -35.5s-12 -30.667 -12 -50v-14zM375.001 1147l81.5 139l80.5 139h229l-107.5 -139l-107.5 -139
h-176z" />
    <glyph glyph-name="acircumflex" unicode="&#xe2;" horiz-adv-x="997" 
d="M39 326l0.000976562 13.999c0 96.667 42.667 171.667 128 225s205.666 82 360.999 86l162 6v41c0 83.333 -74.333 125 -223 125c-108.667 0 -211.667 -21 -309 -63l-35 106.5l-35 106.5c132 49.333 264.333 74 397 74c65.333 0 123.833 -6.83301 175.5 -20.5
s98 -35 139 -64s72.667 -68.667 95 -119s33.5 -110.166 33.5 -179.499v-633c-120 -36 -269.667 -54 -449 -54c-77.333 0 -148.5 12.167 -213.5 36.5s-119 63.5 -162 117.5s-64.5 119 -64.5 195zM231.001 1147l93 139l94 139h198l94 -139l95 -139h-176l-54.5 87l-54.5 87h-4
l-110 -174h-175zM276.001 325.999c0 -42 19.167 -73.332 57.5 -93.999s88.833 -31 151.5 -31c76 0 144.333 5.33301 205 16v254c-48 -0.666992 -88.333 -1.5 -121 -2.5s-66.167 -3.16699 -100.5 -6.5s-62 -7.83301 -83 -13.5s-40.5 -13.334 -58.5 -23.001
s-31 -21.5 -39 -35.5s-12 -30.667 -12 -50v-14z" />
    <glyph glyph-name="atilde" unicode="&#xe3;" horiz-adv-x="997" 
d="M39 326l0.000976562 13.999c0 96.667 42.667 171.667 128 225s205.666 82 360.999 86l162 6v41c0 83.333 -74.333 125 -223 125c-108.667 0 -211.667 -21 -309 -63l-35 106.5l-35 106.5c132 49.333 264.333 74 397 74c65.333 0 123.833 -6.83301 175.5 -20.5
s98 -35 139 -64s72.667 -68.667 95 -119s33.5 -110.166 33.5 -179.499v-633c-120 -36 -269.667 -54 -449 -54c-77.333 0 -148.5 12.167 -213.5 36.5s-119 63.5 -162 117.5s-64.5 119 -64.5 195zM154.001 1153c0 187.333 74.998 281.002 224.998 281.002
c26.667 0 51.167 -5 73.5 -15s41 -22.333 56 -37l43 -44c13.667 -14.667 28.167 -27 43.5 -37s31.333 -15 48 -15c28.667 0 50.834 13.167 66.501 39.5s23.5 60.166 23.5 101.499h146c0 -186.667 -75.333 -280 -226 -280c-26.667 0 -51.167 5 -73.5 15s-41 22.167 -56 36.5
s-29.333 28.833 -43 43.5s-28.167 27 -43.5 37s-31.333 15 -48 15c-29.333 0 -51.666 -12.833 -66.999 -38.5s-23 -59.834 -23 -102.501h-145zM275.999 326.001c0 -42 19.167 -73.332 57.5 -93.999s88.833 -31 151.5 -31c76 0 144.333 5.33301 205 16v254
c-48 -0.666992 -88.333 -1.5 -121 -2.5s-66.167 -3.16699 -100.5 -6.5s-62 -7.83301 -83 -13.5s-40.5 -13.334 -58.5 -23.001s-31 -21.5 -39 -35.5s-12 -30.667 -12 -50v-14z" />
    <glyph glyph-name="adieresis" unicode="&#xe4;" horiz-adv-x="997" 
d="M39 326l0.000976562 13.999c0 96.667 42.667 171.667 128 225s205.666 82 360.999 86l162 6v41c0 83.333 -74.333 125 -223 125c-108.667 0 -211.667 -21 -309 -63l-35 106.5l-35 106.5c132 49.333 264.333 74 397 74c65.333 0 123.833 -6.83301 175.5 -20.5
s98 -35 139 -64s72.667 -68.667 95 -119s33.5 -110.166 33.5 -179.499v-633c-120 -36 -269.667 -54 -449 -54c-77.333 0 -148.5 12.167 -213.5 36.5s-119 63.5 -162 117.5s-64.5 119 -64.5 195zM119.001 1290c0 40 13.833 74.333 41.5 103s61.5 43 101.5 43
s74.333 -14.333 103 -43s43 -63 43 -103c0 -39.333 -14.333 -73 -43 -101s-63 -42 -103 -42s-73.833 14 -101.5 42s-41.5 61.667 -41.5 101zM276.001 325.999c0 -42 19.167 -73.332 57.5 -93.999s88.833 -31 151.5 -31c76 0 144.333 5.33301 205 16v254
c-48 -0.666992 -88.333 -1.5 -121 -2.5s-66.167 -3.16699 -100.5 -6.5s-62 -7.83301 -83 -13.5s-40.5 -13.334 -58.5 -23.001s-31 -21.5 -39 -35.5s-12 -30.667 -12 -50v-14zM623.001 1290c0 40 13.833 74.333 41.5 103s61.5 43 101.5 43s74.167 -14.333 102.5 -43
s42.5 -63 42.5 -103c0 -38.667 -14.333 -72.167 -43 -100.5s-62.667 -42.5 -102 -42.5c-38.667 0 -72.167 14.167 -100.5 42.5s-42.5 61.833 -42.5 100.5z" />
    <glyph glyph-name="aring" unicode="&#xe5;" horiz-adv-x="997" 
d="M39 326l0.000976562 13.999c0 96.667 42.667 171.667 128 225s205.666 82 360.999 86l162 6v41c0 83.333 -74.333 125 -223 125c-108.667 0 -211.667 -21 -309 -63l-35 106.5l-35 106.5c132 49.333 264.333 74 397 74c65.333 0 123.833 -6.83301 175.5 -20.5
s98 -35 139 -64s72.667 -68.667 95 -119s33.5 -110.166 33.5 -179.499v-633c-120 -36 -269.667 -54 -449 -54c-77.333 0 -148.5 12.167 -213.5 36.5s-119 63.5 -162 117.5s-64.5 119 -64.5 195zM276.001 325.999c0 -42 19.167 -73.332 57.5 -93.999s88.833 -31 151.5 -31
c76 0 144.333 5.33301 205 16v254c-48 -0.666992 -88.333 -1.5 -121 -2.5s-66.167 -3.16699 -100.5 -6.5s-62 -7.83301 -83 -13.5s-40.5 -13.334 -58.5 -23.001s-31 -21.5 -39 -35.5s-12 -30.667 -12 -50v-14zM334.001 1307c0 50 17.498 89.333 52.498 118s77.5 43 127.5 43
s92.5 -14.333 127.5 -43s52.5 -68 52.5 -118c0 -48.667 -17.667 -87.5 -53 -116.5s-77.666 -43.5 -126.999 -43.5s-91.666 14.5 -126.999 43.5s-53 67.833 -53 116.5zM437.999 1307c0 -22 7.16699 -40.167 21.5 -54.5s32.5 -21.5 54.5 -21.5
c22.667 0 41.334 7.33301 56.001 22s22 32.667 22 54c0 22.667 -7.33301 41.167 -22 55.5s-33.334 21.5 -56.001 21.5s-41 -7.16699 -55 -21.5s-21 -32.833 -21 -55.5z" />
    <glyph glyph-name="ae" unicode="&#xe6;" horiz-adv-x="1652" 
d="M39 309l-0.00195312 30.9971c0 94.667 42.833 168.834 128.5 222.501s201.834 82.5 348.501 86.5l87 3l87 3v45c0 82 -74.333 123 -223 123c-111.333 0 -214.333 -20.333 -309 -61c-8.66699 24.667 -20.5 60.834 -35.5 108.501s-26.5 82.5 -34.5 104.5
c134.667 48 267 72 397 72c154.667 0 268.667 -37.667 342 -113c73.333 75.333 177.333 113 312 113c140 0 249.667 -42.667 329 -128s119 -217 119 -395v-106h-653v-12c1.33301 -61.333 25 -110.833 71 -148.5s107 -56.5 183 -56.5c120 0 223 18.333 309 55
c8.66699 -23.333 20.834 -58.166 36.501 -104.499l35.5 -104.5c-116 -46.667 -243 -70 -381 -70c-80 0 -151.5 14.667 -214.5 44s-111.833 70 -146.5 122c-36.667 -54.667 -85.5 -96 -146.5 -124s-143.833 -42 -248.5 -42c-118 0 -213 27.667 -285 83s-108 138.333 -108 249
zM275.998 308.997c0 -46.667 19 -80.832 57 -102.499s88.667 -32.5 152 -32.5c60 0 109.167 15.833 147.5 47.5s57.5 81.5 57.5 149.5v98c-47.333 -0.666992 -85 -1.33398 -113 -2.00098s-60.167 -2.5 -96.5 -5.5s-65 -7.33301 -86 -13s-41.5 -13.167 -61.5 -22.5
s-34.5 -21.333 -43.5 -36s-13.5 -32 -13.5 -52v-29zM933.998 595.999l409.002 0.000976562v2v8c0 70.667 -18.5 124.5 -55.5 161.5s-86.5 55.5 -148.5 55.5c-60.667 0 -109.834 -18.333 -147.501 -55s-56.834 -89.334 -57.501 -158.001v-14z" />
    <glyph glyph-name="ccedilla" unicode="&#xe7;" horiz-adv-x="899" 
d="M49 506l-0.00292969 23.998c0 170 45.833 298.667 137.5 386s213.834 131 366.501 131c104.667 0 207 -30.333 307 -91c-10 -34 -32.333 -102.667 -67 -206c-71.333 48.667 -151.333 73 -240 73c-86.667 0 -152.667 -22.833 -198 -68.5s-68 -120.5 -68 -224.5v-24
c0 -104.667 26 -181.667 78 -231s121.333 -74 208 -74s166 19 238 57c40.667 -120 63.334 -188.333 68.001 -205c-88.667 -50.667 -190.667 -76 -306 -76c-7.33301 0 -30.333 1.66699 -69 5c-2 -16 -5.33301 -33.333 -10 -52c50.667 4 92.834 -7.83301 126.501 -35.5
s49.5 -66.167 47.5 -115.5c-2.66699 -42 -16 -77.667 -40 -107s-53.667 -49.833 -89 -61.5s-73 -17.167 -113 -16.5s-77.667 8.33398 -113 23.001c0 12.667 0.333008 32.334 1 59.001s1 46.667 1 60c12 -6 28.833 -10.333 50.5 -13s43.5 -3.33398 65.5 -2.00098
s41 6.83301 57 16.5s24 22.834 24 39.501c0 22.667 -10 39.5 -30 50.5s-42.167 15.667 -66.5 14s-46.833 -4.16699 -67.5 -7.5c4 18.667 10.5 47 19.5 85s15.5 66.333 19.5 85c-107.333 34 -190.5 95.333 -249.5 184s-88.5 194.667 -88.5 318z" />
    <glyph glyph-name="egrave" unicode="&#xe8;" horiz-adv-x="1026" 
d="M31 496l0.00292969 31.998c0 176.667 40.833 307.334 122.5 392.001s196.5 127 344.5 127c147.333 0 261.666 -42.333 342.999 -127s122 -215.334 122 -392.001v-104h-689v-10c0 -65.333 24.167 -117.166 72.5 -155.499s115.166 -57.5 200.499 -57.5
c128 0 237 15.667 327 47l70 -213c-120.667 -38.667 -253 -58 -397 -58c-164.667 0 -291.834 42.333 -381.501 127s-134.5 215.334 -134.5 392.001zM227.003 1425h222l157 -278h-172zM274.003 599.998h445v10c0 68.667 -19.667 121.334 -59 158.001s-93.333 55 -162 55
c-69.333 0 -124 -18.333 -164 -55s-60 -89.334 -60 -158.001v-10z" />
    <glyph glyph-name="eacute" unicode="&#xe9;" horiz-adv-x="1026" 
d="M31 496l0.00292969 31.998c0 176.667 40.833 307.334 122.5 392.001s196.5 127 344.5 127c147.333 0 261.666 -42.333 342.999 -127s122 -215.334 122 -392.001v-104h-689v-10c0 -65.333 24.167 -117.166 72.5 -155.499s115.166 -57.5 200.499 -57.5
c128 0 237 15.667 327 47l70 -213c-120.667 -38.667 -253 -58 -397 -58c-164.667 0 -291.834 42.333 -381.501 127s-134.5 215.334 -134.5 392.001zM274.003 599.998h445v10c0 68.667 -19.667 121.334 -59 158.001s-93.333 55 -162 55c-69.333 0 -124 -18.333 -164 -55
s-60 -89.334 -60 -158.001v-10zM422.003 1147l162 278h229l-213 -278h-178z" />
    <glyph glyph-name="ecircumflex" unicode="&#xea;" horiz-adv-x="1026" 
d="M31 496l0.00292969 31.998c0 176.667 40.833 307.334 122.5 392.001s196.5 127 344.5 127c147.333 0 261.666 -42.333 342.999 -127s122 -215.334 122 -392.001v-104h-689v-10c0 -65.333 24.167 -117.166 72.5 -155.499s115.166 -57.5 200.499 -57.5
c128 0 237 15.667 327 47l70 -213c-120.667 -38.667 -253 -58 -397 -58c-164.667 0 -291.834 42.333 -381.501 127s-134.5 215.334 -134.5 392.001zM227.003 1147l187 278h198l189 -278h-176l-109 174h-4l-111 -174h-174zM274.003 599.998h445v10
c0 68.667 -19.667 121.334 -59 158.001s-93.333 55 -162 55c-69.333 0 -124 -18.333 -164 -55s-60 -89.334 -60 -158.001v-10z" />
    <glyph glyph-name="edieresis" unicode="&#xeb;" horiz-adv-x="1026" 
d="M31 496l0.00292969 31.998c0 176.667 40.833 307.334 122.5 392.001s196.5 127 344.5 127c147.333 0 261.666 -42.333 342.999 -127s122 -215.334 122 -392.001v-104h-689v-10c0 -65.333 24.167 -117.166 72.5 -155.499s115.166 -57.5 200.499 -57.5
c128 0 237 15.667 327 47l70 -213c-120.667 -38.667 -253 -58 -397 -58c-164.667 0 -291.834 42.333 -381.501 127s-134.5 215.334 -134.5 392.001zM119.003 1290c0 40 13.833 74.333 41.5 103s61.5 43 101.5 43s74.333 -14.333 103 -43s43 -63 43 -103
c0 -39.333 -14.333 -73 -43 -101s-63 -42 -103 -42s-73.833 14 -101.5 42s-41.5 61.667 -41.5 101zM274.003 599.998h445v10c0 68.667 -19.667 121.334 -59 158.001s-93.333 55 -162 55c-69.333 0 -124 -18.333 -164 -55s-60 -89.334 -60 -158.001v-10zM623.003 1290
c0 40 13.833 74.333 41.5 103s61.5 43 101.5 43s74.167 -14.333 102.5 -43s42.5 -63 42.5 -103c0 -38.667 -14.333 -72.167 -43 -100.5s-62.667 -42.5 -102 -42.5c-38.667 0 -72.167 14.167 -100.5 42.5s-42.5 61.833 -42.5 100.5z" />
    <glyph glyph-name="igrave" unicode="&#xec;" horiz-adv-x="507" 
d="M-33 1425h223l156 -278h-172zM135 0v1024h238v-1024h-238z" />
    <glyph glyph-name="iacute" unicode="&#xed;" horiz-adv-x="507" 
d="M135 0v1024h238v-1024h-238zM162 1147l162 278h229l-215 -278h-176z" />
    <glyph glyph-name="icircumflex" unicode="&#xee;" horiz-adv-x="507" 
d="M-33 1147l187 278h198l189 -278h-176l-109 174h-4l-111 -174h-174zM135 0v1024h238v-1024h-238z" />
    <glyph glyph-name="idieresis" unicode="&#xef;" horiz-adv-x="507" 
d="M-143 1290c0 40 14.167 74.333 42.5 103s62.5 43 102.5 43s73.833 -14.333 101.5 -43s41.5 -63 41.5 -103c0 -39.333 -13.833 -73 -41.5 -101s-61.5 -42 -101.5 -42s-74.167 14 -102.5 42s-42.5 61.667 -42.5 101zM135 0v1024h238v-1024h-238zM360 1290
c0 40 14.333 74.333 43 103s63 43 103 43s73.833 -14.333 101.5 -43s41.5 -63 41.5 -103c0 -38.667 -14.167 -72.167 -42.5 -100.5s-61.833 -42.5 -100.5 -42.5c-39.333 0 -73.5 14.167 -102.5 42.5s-43.5 61.833 -43.5 100.5z" />
    <glyph glyph-name="eth" unicode="&#xf0;" horiz-adv-x="1083" 
d="M63 414c0 71.333 11.5039 134.17 34.5039 188.503s55.167 97.666 96.5 129.999s88.333 56.5 141 72.5s111 24 175 24c97.333 0 182 -15 254 -45c-6.66699 82 -23.334 149.667 -50.001 203s-64 100.333 -112 141l-205 -204l-108 108l180 180
c-80 37.333 -174.333 60 -283 68l64 209c56.667 -4.66699 120.667 -16.667 192 -36s136.333 -44.333 195 -75l129 131l108 -108l-108 -111c39.333 -34 73.166 -69 101.499 -105s54.5 -79.5 78.5 -130.5s42 -111 54 -180s18 -146.833 18 -233.5
c0 -78 -4.66699 -148.5 -14 -211.5s-26 -123.333 -50 -181s-55.333 -105.834 -94 -144.501s-88.834 -69.5 -150.501 -92.5s-133.5 -34.5 -215.5 -34.5c-60.667 0 -116.5 8.66699 -167.5 26s-96.333 43.166 -136 77.499s-70.834 80 -93.501 137s-34 122.5 -34 196.5z
M307.004 414.004c0 -70.667 18.667 -123.168 56 -157.501s83 -51.5 137 -51.5c52.667 0 96.667 8 132 24s62.5 40.667 81.5 74s32.167 70.5 39.5 111.5s11 91.167 11 150.5c-69.333 35.333 -151.333 53 -246 53c-28 0 -53.5 -3.16699 -76.5 -9.5
s-45.167 -16.666 -66.5 -30.999s-38 -35.333 -50 -63s-18 -61.167 -18 -100.5z" />
    <glyph glyph-name="ntilde" unicode="&#xf1;" 
d="M102 0l-0.00195312 992.999c118.667 36 266.334 54 443.001 54c135.333 0 243.5 -37.5 324.5 -112.5s121.5 -187.167 121.5 -336.5v-598h-235v616c0 74.667 -19.667 127.834 -59 159.501s-95.666 47.5 -168.999 47.5c-70 0 -132.667 -4.66699 -188 -14v-809h-238z
M169.998 1153c0 187.333 74.998 281.002 224.998 281.002c26.667 0 51.167 -5 73.5 -15s41 -22.333 56 -37l43 -44c13.667 -14.667 28.167 -27 43.5 -37s31.333 -15 48 -15c28.667 0 51 13.167 67 39.5s24 60.166 24 101.499h145c0 -186.667 -75 -280 -225 -280
c-27.333 0 -52.166 5 -74.499 15s-41 22.167 -56 36.5s-29.167 28.833 -42.5 43.5s-27.666 27 -42.999 37s-31.333 15 -48 15c-29.333 0 -51.833 -12.833 -67.5 -38.5s-23.5 -59.834 -23.5 -102.501h-145z" />
    <glyph glyph-name="ograve" unicode="&#xf2;" horiz-adv-x="1083" 
d="M66 502v20c0 90.667 11.833 170.167 35.5 238.5s57.167 123.166 100.5 164.499s93.5 72 150.5 92s120.5 30 190.5 30s133.167 -10 189.5 -30s106.166 -50.667 149.499 -92s76.833 -96.166 100.5 -164.499s35.5 -147.833 35.5 -238.5v-20
c0 -90.667 -11.833 -170.167 -35.5 -238.5s-57.167 -123.166 -100.5 -164.499s-93.166 -72 -149.499 -92s-119.5 -30 -189.5 -30s-133.5 10 -190.5 30s-107.167 50.667 -150.5 92s-76.833 96.166 -100.5 164.499s-35.5 147.833 -35.5 238.5zM262 1425h221l78.5 -139
l79.5 -139h-172l-103.5 139zM305 502c0 -110 19.667 -187.667 59 -233s99 -68 179 -68c79.333 0 138.333 22.667 177 68s58 123 58 233v20c0 110 -19.333 187.667 -58 233s-97.667 68 -177 68c-80 0 -139.667 -22.667 -179 -68s-59 -123 -59 -233v-20z" />
    <glyph glyph-name="oacute" unicode="&#xf3;" horiz-adv-x="1083" 
d="M66 502v20c0 90.667 11.833 170.167 35.5 238.5s57.167 123.166 100.5 164.499s93.5 72 150.5 92s120.5 30 190.5 30s133.167 -10 189.5 -30s106.166 -50.667 149.499 -92s76.833 -96.166 100.5 -164.499s35.5 -147.833 35.5 -238.5v-20
c0 -90.667 -11.833 -170.167 -35.5 -238.5s-57.167 -123.166 -100.5 -164.499s-93.166 -72 -149.499 -92s-119.5 -30 -189.5 -30s-133.5 10 -190.5 30s-107.167 50.667 -150.5 92s-76.833 96.166 -100.5 164.499s-35.5 147.833 -35.5 238.5zM305 502
c0 -110 19.667 -187.667 59 -233s99 -68 179 -68c79.333 0 138.333 22.667 177 68s58 123 58 233v20c0 110 -19.333 187.667 -58 233s-97.667 68 -177 68c-80 0 -139.667 -22.667 -179 -68s-59 -123 -59 -233v-20zM451 1147l80.5 139l80.5 139h230l-213 -278h-178z" />
    <glyph glyph-name="ocircumflex" unicode="&#xf4;" horiz-adv-x="1083" 
d="M66 502v20c0 90.667 11.833 170.167 35.5 238.5s57.167 123.166 100.5 164.499s93.5 72 150.5 92s120.5 30 190.5 30s133.167 -10 189.5 -30s106.166 -50.667 149.499 -92s76.833 -96.166 100.5 -164.499s35.5 -147.833 35.5 -238.5v-20
c0 -90.667 -11.833 -170.167 -35.5 -238.5s-57.167 -123.166 -100.5 -164.499s-93.166 -72 -149.499 -92s-119.5 -30 -189.5 -30s-133.5 10 -190.5 30s-107.167 50.667 -150.5 92s-76.833 96.166 -100.5 164.499s-35.5 147.833 -35.5 238.5zM256 1147l92.501 139l93.5 139
h199l94.5 -139l93.5 -139h-176l-53.5 87c-23.667 39.333 -41.834 68.333 -54.501 87h-4l-113 -174h-172zM305.001 502c0 -110 19.667 -187.667 59 -233s99 -68 179 -68c79.333 0 138.333 22.667 177 68s58 123 58 233v20c0 110 -19.333 187.667 -58 233s-97.667 68 -177 68
c-80 0 -139.667 -22.667 -179 -68s-59 -123 -59 -233v-20z" />
    <glyph glyph-name="otilde" unicode="&#xf5;" horiz-adv-x="1083" 
d="M66 502v20c0 90.667 11.833 170.167 35.5 238.5s57.167 123.166 100.5 164.499s93.5 72 150.5 92s120.5 30 190.5 30s133.167 -10 189.5 -30s106.166 -50.667 149.499 -92s76.833 -96.166 100.5 -164.499s35.5 -147.833 35.5 -238.5v-20
c0 -90.667 -11.833 -170.167 -35.5 -238.5s-57.167 -123.166 -100.5 -164.499s-93.166 -72 -149.499 -92s-119.5 -30 -189.5 -30s-133.5 10 -190.5 30s-107.167 50.667 -150.5 92s-76.833 96.166 -100.5 164.499s-35.5 147.833 -35.5 238.5zM178 1153
c0 187.333 75.9961 281.002 227.996 281.002c26.667 0 51.167 -5 73.5 -15s41 -22.333 56 -37l43 -44c13.667 -14.667 28.167 -27 43.5 -37s31.333 -15 48 -15c28.667 0 50.834 13.167 66.501 39.5s23.5 60.166 23.5 101.499h145c0 -186.667 -75 -280 -225 -280
c-27.333 0 -52.166 5.16699 -74.499 15.5s-41 22.833 -56 37.5s-29.167 29.167 -42.5 43.5s-27.666 26.666 -42.999 36.999s-31.333 15.5 -48 15.5c-29.333 0 -51.666 -13 -66.999 -39s-23 -60.667 -23 -104h-148zM304.996 502.002c0 -110 19.667 -187.667 59 -233
s99 -68 179 -68c79.333 0 138.333 22.667 177 68s58 123 58 233v20c0 110 -19.333 187.667 -58 233s-97.667 68 -177 68c-80 0 -139.667 -22.667 -179 -68s-59 -123 -59 -233v-20z" />
    <glyph glyph-name="odieresis" unicode="&#xf6;" horiz-adv-x="1083" 
d="M66 502v20c0 90.667 11.833 170.167 35.5 238.5s57.167 123.166 100.5 164.499s93.5 72 150.5 92s120.5 30 190.5 30s133.167 -10 189.5 -30s106.166 -50.667 149.499 -92s76.833 -96.166 100.5 -164.499s35.5 -147.833 35.5 -238.5v-20
c0 -90.667 -11.833 -170.167 -35.5 -238.5s-57.167 -123.166 -100.5 -164.499s-93.166 -72 -149.499 -92s-119.5 -30 -189.5 -30s-133.5 10 -190.5 30s-107.167 50.667 -150.5 92s-76.833 96.166 -100.5 164.499s-35.5 147.833 -35.5 238.5zM145 1290
c0 40 14.333 74.333 43 103s63 43 103 43s73.833 -14.333 101.5 -43s41.5 -63 41.5 -103c0 -39.333 -13.833 -73 -41.5 -101s-61.5 -42 -101.5 -42s-74.333 14 -103 42s-43 61.667 -43 101zM305 502c0 -110 19.667 -187.667 59 -233s99 -68 179 -68
c79.333 0 138.333 22.667 177 68s58 123 58 233v20c0 110 -19.333 187.667 -58 233s-97.667 68 -177 68c-80 0 -139.667 -22.667 -179 -68s-59 -123 -59 -233v-20zM649 1290c0 40 14.333 74.333 43 103s63 43 103 43s73.833 -14.333 101.5 -43s41.5 -63 41.5 -103
c0 -38.667 -14 -72.167 -42 -100.5s-61.667 -42.5 -101 -42.5s-73.5 14.167 -102.5 42.5s-43.5 61.833 -43.5 100.5z" />
    <glyph glyph-name="divide" unicode="&#xf7;" horiz-adv-x="1288" 
d="M86 535v225h1114v-225h-1114zM498 268c0 40 14.167 74.332 42.5 102.999s62.5 43 102.5 43c40.667 0 75.5 -14.5 104.5 -43.5s43.5 -63.167 43.5 -102.5c0 -40 -14.5 -74.5 -43.5 -103.5s-63.833 -43.5 -104.5 -43.5c-40 0 -74.167 14.333 -102.5 43
s-42.5 63.334 -42.5 104.001zM498 1026c0 40.667 14.167 75.5 42.5 104.5s62.5 43.5 102.5 43.5c40.667 0 75.5 -14.667 104.5 -44s43.5 -64 43.5 -104c0 -39.333 -14.5 -73.333 -43.5 -102s-63.833 -43 -104.5 -43c-40 0 -74.167 14.167 -102.5 42.5
s-42.5 62.5 -42.5 102.5z" />
    <glyph glyph-name="oslash" unicode="&#xf8;" horiz-adv-x="1077" 
d="M66 502v20.002c0 90.667 11.833 170.167 35.5 238.5s57 123.166 100 164.499s92.667 72 149 92s119.166 30 188.499 30c144 0 258.833 -43 344.5 -129s128.5 -218 128.5 -396v-20c0 -178 -42.833 -310 -128.5 -396s-200.5 -129 -344.5 -129
c-69.333 0 -132.166 10 -188.499 30s-106 50.667 -149 92s-76.333 96.166 -100 164.499s-35.5 147.833 -35.5 238.5zM305 502.002c0 -110.667 18.999 -188 56.999 -232l114 274.5l114 274.5c-24 2.66699 -41 4 -51 4c-79.333 0 -138.166 -22.5 -176.499 -67.5
s-57.5 -122.833 -57.5 -233.5v-20zM478.999 205.002c5.33301 -0.666992 13.5 -1.33203 24.5 -1.99902s19.167 -1.33398 24.5 -2.00098c13.333 0 33.333 1.33301 60 4c62 7.33301 108.167 33.833 138.5 79.5s45.5 118.167 45.5 217.5v20c0 111.333 -20.333 189.333 -61 234
l-116 -275.5z" />
    <glyph glyph-name="ugrave" unicode="&#xf9;" 
d="M84 426l0.000976562 597.999h235v-616c0 -75.333 19.667 -128.666 59 -159.999s96.333 -47 171 -47c78 0 140 4.66699 186 14v809h238v-993c-138.667 -36 -286.334 -54 -443.001 -54c-134.667 0 -242.667 37.5 -324 112.5s-122 187.167 -122 336.5zM240.001 1425h223
l155 -278h-172z" />
    <glyph glyph-name="uacute" unicode="&#xfa;" 
d="M84 426l0.000976562 597.999h235v-616c0 -75.333 19.667 -128.666 59 -159.999s96.333 -47 171 -47c78 0 140 4.66699 186 14v809h238v-993c-138.667 -36 -286.334 -54 -443.001 -54c-134.667 0 -242.667 37.5 -324 112.5s-122 187.167 -122 336.5zM436.001 1147l162 278
h229l-213 -278h-178z" />
    <glyph glyph-name="ucircumflex" unicode="&#xfb;" 
d="M84 426l0.000976562 597.999h235v-616c0 -75.333 19.667 -128.666 59 -159.999s96.333 -47 171 -47c78 0 140 4.66699 186 14v809h238v-993c-138.667 -36 -286.334 -54 -443.001 -54c-134.667 0 -242.667 37.5 -324 112.5s-122 187.167 -122 336.5zM244.001 1147l186 278
h199l188 -278h-174l-111 174h-4l-110 -174h-174z" />
    <glyph glyph-name="udieresis" unicode="&#xfc;" 
d="M84 426l0.000976562 597.999h235v-616c0 -75.333 19.667 -128.666 59 -159.999s96.333 -47 171 -47c78 0 140 4.66699 186 14v809h238v-993c-138.667 -36 -286.334 -54 -443.001 -54c-134.667 0 -242.667 37.5 -324 112.5s-122 187.167 -122 336.5zM131.001 1290
c0 40 14.167 74.333 42.5 103s62.5 43 102.5 43s74 -14.333 102 -43s42 -63 42 -103c0 -39.333 -14 -73 -42 -101s-62 -42 -102 -42s-74.167 14 -102.5 42s-42.5 61.667 -42.5 101zM635.001 1290c0 40 14.166 74.333 42.499 103s62.5 43 102.5 43s74 -14.333 102 -43
s42 -63 42 -103c0 -38.667 -14.167 -72.167 -42.5 -100.5s-62.166 -42.5 -101.499 -42.5s-73.333 14.167 -102 42.5s-43 61.833 -43 100.5z" />
    <glyph glyph-name="yacute" unicode="&#xfd;" 
d="M84 426l-0.000976562 597.999h235v-616c0 -75.333 19.667 -128.666 59 -159.999s96.333 -47 171 -47c63.333 0 125.333 5.33301 186 16v807h238v-1090c0 -145.333 -42.333 -256 -127 -332s-196.667 -114 -336 -114c-149.333 0 -284 31.333 -404 94l70 211
c90 -53.333 201.333 -80 334 -80c150 0 225 73.667 225 221v64c-55.333 -14 -123.666 -21 -204.999 -21c-50 0 -96.5 5 -139.5 15s-83.5 26.5 -121.5 49.5s-70.5 51.5 -97.5 85.5s-48.333 76.5 -64 127.5s-23.5 108.167 -23.5 171.5zM435.999 1147l162 278h229l-213 -278
h-178z" />
    <glyph glyph-name="thorn" unicode="&#xfe;" horiz-adv-x="1058" 
d="M102 -512l-0.000976562 1946h238v-525c50.667 92 137.334 138 260.001 138c54 0 104.333 -10.667 151 -32s88.167 -52.666 124.5 -93.999s65 -96.166 86 -164.499s31.5 -146.5 31.5 -234.5v-30c0 -85.333 -10.5 -161.5 -31.5 -228.5s-49.667 -121 -86 -162
s-77.833 -72 -124.5 -93s-97 -31.5 -151 -31.5c-118.667 0 -206 45.333 -262 136v-625h-236zM339.999 491.998c0 -108 18 -185.333 54 -232s87.667 -70 155 -70c33.333 0 61.833 4.5 85.5 13.5s44.834 24.5 63.501 46.5s32.667 53 42 93s14 89.667 14 149v30
c0 59.333 -4.66699 109 -14 149s-23.333 70.833 -42 92.5s-39.834 37 -63.501 46s-52.167 13.5 -85.5 13.5c-64.667 0 -115 -21.833 -151 -65.5s-55.333 -114.5 -58 -212.5v-53z" />
    <glyph glyph-name="ydieresis" unicode="&#xff;" 
d="M84 426l-0.000976562 597.999h235v-616c0 -75.333 19.667 -128.666 59 -159.999s96.333 -47 171 -47c63.333 0 125.333 5.33301 186 16v807h238v-1090c0 -145.333 -42.333 -256 -127 -332s-196.667 -114 -336 -114c-149.333 0 -284 31.333 -404 94l70 211
c90 -53.333 201.333 -80 334 -80c150 0 225 73.667 225 221v64c-55.333 -14 -123.666 -21 -204.999 -21c-50 0 -96.5 5 -139.5 15s-83.5 26.5 -121.5 49.5s-70.5 51.5 -97.5 85.5s-48.333 76.5 -64 127.5s-23.5 108.167 -23.5 171.5zM132.999 1290
c0 40 14.333 74.333 43 103s63 43 103 43s73.833 -14.333 101.5 -43s41.5 -63 41.5 -103c0 -39.333 -13.833 -73 -41.5 -101s-61.5 -42 -101.5 -42s-74.333 14 -103 42s-43 61.667 -43 101zM636.999 1290c0 40 14.166 74.333 42.499 103s62.5 43 102.5 43
s74 -14.333 102 -43s42 -63 42 -103c0 -38.667 -14.167 -72.167 -42.5 -100.5s-62.166 -42.5 -101.499 -42.5s-73.333 14.167 -102 42.5s-43 61.833 -43 100.5z" />
    <glyph glyph-name="OE" unicode="&#x152;" horiz-adv-x="1871" 
d="M66 616v97.001c0 111.333 13.5 208.666 40.5 291.999s65.333 149.833 115 199.5s107.167 86.667 172.5 111s138.666 36.5 219.999 36.5c116.667 0 216.334 -28.667 299.001 -86v65h930v-229h-684v-287h602v-227h-602v-361h684v-227h-930v61
c-80.667 -56 -180.334 -84 -299.001 -84c-81.333 0 -154.666 12 -219.999 36s-122.833 60.833 -172.5 110.5s-88 116.167 -115 199.5s-40.5 181 -40.5 293zM313 616.001c0 -75.333 7 -139.999 21 -193.999s34.5 -96.667 61.5 -128s58.333 -54 94 -68s77.167 -21 124.5 -21
c96 0 169.833 31.667 221.5 95s77.5 168.666 77.5 315.999v117c-2.66699 138.667 -30 238.167 -82 298.5s-124.333 90.5 -217 90.5c-96.667 0 -171 -31.5 -223 -94.5s-78 -167.833 -78 -314.5v-97z" />
    <glyph glyph-name="oe" unicode="&#x153;" horiz-adv-x="1685" 
d="M66 502l0.000976562 20.002c0 90.667 11.333 170.167 34 238.5s54.667 123.166 96 164.499s88.5 72 141.5 92s111.833 30 176.5 30c140.667 0 249.334 -46 326.001 -138c78 92 188.333 138 331 138c139.333 0 249 -42.833 329 -128.5s120 -217.167 120 -394.5v-106h-653
v-12c0 -61.333 23.333 -110.833 70 -148.5s108 -56.5 184 -56.5c60.667 0 120.167 7.66699 178.5 23s107.166 34.333 146.499 57c46.667 -136.667 70 -205.667 70 -207c-112.667 -64.667 -244.334 -97 -395.001 -97c-167.333 0 -292.333 47.333 -375 142
c-75.333 -94.667 -186 -142 -332 -142c-64.667 0 -123.5 10 -176.5 30s-100.167 50.667 -141.5 92s-73.333 96.166 -96 164.499s-34 147.833 -34 238.5zM305.001 502.002c0 -109.333 17.501 -186.833 52.501 -232.5s87.167 -68.5 156.5 -68.5c68 0 119.833 22 155.5 66
s53.5 119 53.5 225v49c-0.666992 102 -18.834 174.5 -54.501 217.5s-87.167 64.5 -154.5 64.5c-69.333 0 -121.5 -22.833 -156.5 -68.5s-52.5 -123.167 -52.5 -232.5v-20zM967.002 596.002h409.001v2v8c0 69.333 -18.833 122.833 -56.5 160.5s-87.167 56.5 -148.5 56.5
c-60.667 0 -109.834 -18.5 -147.501 -55.5s-56.5 -90.167 -56.5 -159.5v-12z" />
    <glyph glyph-name="Ydieresis" unicode="&#x178;" horiz-adv-x="1265" 
d="M0 1331h279l354 -594l354 594h279l-508 -815v-516h-248v512zM236 1679c0 40 14.167 74.333 42.5 103s62.5 43 102.5 43s73.833 -14.333 101.5 -43s41.5 -63 41.5 -103c0 -39.333 -13.833 -73 -41.5 -101s-61.5 -42 -101.5 -42s-74.167 14 -102.5 42
s-42.5 61.667 -42.5 101zM739 1679c0 40 14.333 74.333 43 103s63 43 103 43s73.833 -14.333 101.5 -43s41.5 -63 41.5 -103c0 -39.333 -14 -73 -42 -101s-61.667 -42 -101 -42s-73.5 14.167 -102.5 42.5s-43.5 61.833 -43.5 100.5z" />
    <glyph glyph-name="circumflex" unicode="&#x2c6;" horiz-adv-x="901" 
d="M164 1536l186 279h199l188 -279h-174l-110 174h-4l-111 -174h-174z" />
    <glyph glyph-name="tilde" unicode="&#x2dc;" horiz-adv-x="1048" 
d="M162 1542c0 187.333 75.0039 281.001 225.004 281.001c27.333 0 52.166 -5 74.499 -15s41 -22.333 56 -37s29.167 -29.334 42.5 -44.001s27.666 -27 42.999 -37s31.333 -15 48 -15c29.333 0 51.666 13.167 66.999 39.5s23 60.5 23 102.5h146
c0 -187.333 -75 -281 -225 -281c-26.667 0 -51.167 5 -73.5 15s-41 22.333 -56 37s-29.167 29.167 -42.5 43.5s-27.833 26.5 -43.5 36.5s-32.167 15 -49.5 15c-28.667 0 -50.834 -13 -66.501 -39s-23.5 -60 -23.5 -102h-145z" />
    <glyph glyph-name="uni2000" unicode="&#x2000;" horiz-adv-x="929" 
 />
    <glyph glyph-name="uni2001" unicode="&#x2001;" horiz-adv-x="1858" 
 />
    <glyph glyph-name="uni2002" unicode="&#x2002;" horiz-adv-x="929" 
 />
    <glyph glyph-name="uni2003" unicode="&#x2003;" horiz-adv-x="1858" 
 />
    <glyph glyph-name="uni2004" unicode="&#x2004;" horiz-adv-x="619" 
 />
    <glyph glyph-name="uni2005" unicode="&#x2005;" horiz-adv-x="464" 
 />
    <glyph glyph-name="uni2006" unicode="&#x2006;" horiz-adv-x="309" 
 />
    <glyph glyph-name="uni2007" unicode="&#x2007;" horiz-adv-x="309" 
 />
    <glyph glyph-name="uni2008" unicode="&#x2008;" horiz-adv-x="232" 
 />
    <glyph glyph-name="uni2009" unicode="&#x2009;" horiz-adv-x="371" 
 />
    <glyph glyph-name="uni200A" unicode="&#x200a;" horiz-adv-x="103" 
 />
    <glyph glyph-name="uni2010" unicode="&#x2010;" horiz-adv-x="684" 
d="M39 399v226h606v-226h-606z" />
    <glyph glyph-name="uni2011" unicode="&#x2011;" horiz-adv-x="684" 
d="M39 399v226h606v-226h-606z" />
    <glyph glyph-name="figuredash" unicode="&#x2012;" horiz-adv-x="684" 
d="M39 399v226h606v-226h-606z" />
    <glyph glyph-name="endash" unicode="&#x2013;" horiz-adv-x="1222" 
d="M86 543v223h1051v-223h-1051z" />
    <glyph glyph-name="emdash" unicode="&#x2014;" horiz-adv-x="1622" 
d="M86 494v180h1450v-180h-1450z" />
    <glyph glyph-name="quoteleft" unicode="&#x2018;" horiz-adv-x="505" 
d="M102 1174c0.666992 28 4.49805 58.166 11.498 90.499s18.333 68 34 107s39.334 76.5 71.001 112.5s68.834 65 111.501 87c8.66699 -7.33301 20.5 -18.5 35.5 -33.5s26.833 -26.5 35.5 -34.5c-33.333 -31.333 -62.166 -68.666 -86.499 -111.999
s-37.833 -88.666 -40.5 -135.999c37.333 -4 68.166 -19.667 92.499 -47s36.5 -60 36.5 -98c0 -40.667 -14.167 -75.334 -42.5 -104.001s-62.5 -43 -102.5 -43c-52 0 -91 20.167 -117 60.5s-39 90.5 -39 150.5z" />
    <glyph glyph-name="quoteright" unicode="&#x2019;" horiz-adv-x="505" 
d="M102 1425c0 40 14.332 74.332 42.999 102.999s63 43 103 43c52 0 90.833 -20 116.5 -60s37.834 -89.667 36.501 -149c0 -28 -3.33301 -58.5 -10 -91.5s-17.834 -69 -33.501 -108s-39.167 -76.5 -70.5 -112.5s-68.333 -65 -111 -87l-72 69
c32.667 30.667 61 67.834 85 111.501s38 89.167 42 136.5c-37.333 4 -68.166 19.667 -92.499 47s-36.5 60 -36.5 98z" />
    <glyph glyph-name="quotesinglbase" unicode="&#x201a;" horiz-adv-x="475" 
d="M70 123c0 40 14.333 74.1689 43 102.502s63.334 42.5 104.001 42.5c52 0 91 -20 117 -60s38.333 -89.667 37 -149c0 -28 -3.5 -58.5 -10.5 -91.5s-18.167 -68.833 -33.5 -107.5s-38.833 -75.834 -70.5 -111.501s-68.834 -64.5 -111.501 -86.5l-71 68
c32.667 30.667 61 67.667 85 111s38 88.666 42 135.999c-38 4 -69.333 19.833 -94 47.5s-37 60.5 -37 98.5z" />
    <glyph glyph-name="quotedblleft" unicode="&#x201c;" horiz-adv-x="909" 
d="M102 1174c0.666992 28 4.49805 58.166 11.498 90.499s18.333 68 34 107s39.334 76.5 71.001 112.5s68.834 65 111.501 87c8.66699 -7.33301 20.5 -18.5 35.5 -33.5s26.833 -26.5 35.5 -34.5c-33.333 -31.333 -62.166 -68.666 -86.499 -111.999
s-37.833 -88.666 -40.5 -135.999c37.333 -4 68.166 -19.667 92.499 -47s36.5 -60 36.5 -98c0 -40.667 -14.167 -75.334 -42.5 -104.001s-62.5 -43 -102.5 -43c-52 0 -91 20.167 -117 60.5s-39 90.5 -39 150.5zM505.998 1174c0.666992 28 4.50098 58.1689 11.501 90.502
s18.333 68 34 107s39.167 76.5 70.5 112.5s68.333 65 111 87c14.667 -14.667 38.667 -37.334 72 -68.001c-34 -30.667 -63 -67.667 -87 -111s-37.333 -89 -40 -137c37.333 -4 68.166 -19.667 92.499 -47s36.5 -60 36.5 -98c0 -40.667 -14.333 -75.334 -43 -104.001
s-63.667 -43 -105 -43c-52 0 -90.5 20.167 -115.5 60.5s-37.5 90.5 -37.5 150.5z" />
    <glyph glyph-name="quotedblright" unicode="&#x201d;" horiz-adv-x="909" 
d="M102 1425c0 40 14.332 74.332 42.999 102.999s63 43 103 43c52 0 90.833 -20 116.5 -60s37.834 -89.667 36.501 -149c0 -28 -3.33301 -58.5 -10 -91.5s-17.834 -69 -33.501 -108s-39.167 -76.5 -70.5 -112.5s-68.333 -65 -111 -87l-72 69
c32.667 30.667 61 67.834 85 111.501s38 89.167 42 136.5c-37.333 4 -68.166 19.667 -92.499 47s-36.5 60 -36.5 98zM503.999 1425c0 40 14.333 74.332 43 102.999s63.334 43 104.001 43c52 0 91 -20 117 -60s38.333 -89.667 37 -149c0 -28 -3.33301 -58.5 -10 -91.5
s-17.834 -69 -33.501 -108s-39.167 -76.5 -70.5 -112.5s-68.333 -65 -111 -87l-72 69c32.667 30.667 61 67.834 85 111.501s38 89.167 42 136.5c-38 4 -69.333 19.667 -94 47s-37 60 -37 98z" />
    <glyph glyph-name="quotedblbase" unicode="&#x201e;" horiz-adv-x="876" 
d="M70 123c0 40 14.333 74.1689 43 102.502s63.334 42.5 104.001 42.5c52 0 91 -20 117 -60s38.333 -89.667 37 -149c0 -28 -3.5 -58.5 -10.5 -91.5s-18.167 -68.833 -33.5 -107.5s-38.833 -75.834 -70.5 -111.501s-68.834 -64.5 -111.501 -86.5l-71 68
c32.667 30.667 61 67.667 85 111s38 88.666 42 135.999c-38 4 -69.333 19.833 -94 47.5s-37 60.5 -37 98.5zM473 123.002c0 40 14.498 74.168 43.498 102.501s63.833 42.5 104.5 42.5c52 0 90.5 -19.833 115.5 -59.5s37.5 -89.5 37.5 -149.5
c-0.666992 -28.667 -4.5 -59.167 -11.5 -91.5s-18.167 -68 -33.5 -107s-38.666 -76.333 -69.999 -112s-68 -64.5 -110 -86.5l-74 68c34 30.667 63 67.667 87 111s37.333 88.666 40 135.999c-37.333 4 -68.166 19.833 -92.499 47.5s-36.5 60.5 -36.5 98.5z" />
    <glyph glyph-name="bullet" unicode="&#x2022;" horiz-adv-x="706" 
d="M84 651c0 65.333 24.667 123 74 173s114 75 194 75c78.667 0 143.5 -25.167 194.5 -75.5s76.5 -107.833 76.5 -172.5c0 -64 -24.833 -120.833 -74.5 -170.5s-115.167 -74.5 -196.5 -74.5c-80.667 0 -145.5 24.833 -194.5 74.5s-73.5 106.5 -73.5 170.5z" />
    <glyph glyph-name="ellipsis" unicode="&#x2026;" horiz-adv-x="1822" 
d="M98 123c0 40 14.333 74.167 43 102.5s63 42.5 103 42.5c40.667 0 75.334 -14.167 104.001 -42.5s43 -62.5 43 -102.5c0 -41.333 -14.333 -76.333 -43 -105s-63.334 -43 -104.001 -43c-40 0 -74.333 14.5 -103 43.5s-43 63.833 -43 104.5zM764 123
c0 40 14.333 74.167 43 102.5s63.334 42.5 104.001 42.5c40 0 74.333 -14.167 103 -42.5s43 -62.5 43 -102.5c0 -40.667 -14.333 -75.5 -43 -104.5s-63 -43.5 -103 -43.5c-40.667 0 -75.334 14.333 -104.001 43s-43 63.667 -43 105zM1432 123c0 40 14.333 74.167 43 102.5
s63.334 42.5 104.001 42.5c40 0 74.167 -14.167 102.5 -42.5s42.5 -62.5 42.5 -102.5c0 -40.667 -14.167 -75.5 -42.5 -104.5s-62.5 -43.5 -102.5 -43.5c-40.667 0 -75.334 14.333 -104.001 43s-43 63.667 -43 105z" />
    <glyph glyph-name="uni202F" unicode="&#x202f;" horiz-adv-x="371" 
 />
    <glyph glyph-name="guilsinglleft" unicode="&#x2039;" horiz-adv-x="673" 
d="M66 502v88l542 422v-226l-348 -241l348 -240v-225z" />
    <glyph glyph-name="guilsinglright" unicode="&#x203a;" horiz-adv-x="673" 
d="M66 80v225l348 240l-348 241v226l542 -422v-88z" />
    <glyph glyph-name="uni205F" unicode="&#x205f;" horiz-adv-x="464" 
 />
    <glyph glyph-name="Euro" unicode="&#x20ac;" horiz-adv-x="1300" 
d="M41 412l0.000976562 172.001h188v39v82v26h-188v172h209c30.667 152 97.167 264.833 199.5 338.5s231.166 110.5 386.499 110.5c151.333 0 294 -42.333 428 -127l-90 -211c-44.667 29.333 -97.667 54.666 -159 75.999s-121 32 -179 32c-174 0 -284 -73 -330 -219h508
v-172h-539v-26v-82v-39h539v-172h-504c46.667 -138 155.334 -207 326.001 -207c67.333 0 133 11.5 197 34.5s111 48.167 141 75.5l90 -211c-132 -84.667 -274.667 -127 -428 -127s-280.833 35.5 -382.5 106.5s-168.834 180.5 -201.501 328.5h-211z" />
    <glyph glyph-name="trademark" unicode="&#x2122;" horiz-adv-x="1937" 
d="M74 1163v168h676v-168h-246v-649h-185v649h-245zM924 514v817h315l141 -565l140 565h307v-817h-187v664l-178 -664h-168l-184 664v-664h-186z" />
    <glyph glyph-name="uniE000" unicode="&#xe000;" horiz-adv-x="1024" 
d="M0 0v1024h1024v-1024h-1024z" />
    <glyph glyph-name="uniFB01" unicode="&#xfb01;" horiz-adv-x="1136" 
d="M102 0v1073c0 68.667 9.33301 128.167 28 178.5s45.5 90.166 80.5 119.499s75 50.833 120 64.5s95.833 20.5 152.5 20.5c104 0 195 -18.333 273 -55l-70 -213c-61.333 30 -129 45 -203 45c-95.333 0 -143 -53.333 -143 -160v-49h342v-225h-342v-799h-238zM766 1305
c0 40 13.833 73.833 41.5 101.5s61.5 41.5 101.5 41.5s74 -13.833 102 -41.5s42 -61.5 42 -101.5s-14 -74.333 -42 -103s-62 -43 -102 -43s-73.833 14.333 -101.5 43s-41.5 63 -41.5 103zM791 0.000976562v1024h237v-1024h-237z" />
    <glyph glyph-name="uniFB02" unicode="&#xfb02;" horiz-adv-x="1228" 
d="M102 0v1073c0 68.667 9.33301 128.167 28 178.5s45.5 90.166 80.5 119.499s75 50.833 120 64.5s95.833 20.5 152.5 20.5c104 0 195 -18.333 273 -55l-70 -213c-61.333 30 -129 45 -203 45c-95.333 0 -143 -53.333 -143 -160v-49h342v-225h-342v-799h-238zM786 356.001
l-0.000976562 1078h236v-1080c0 -99.333 26 -149 78 -149c20 0 40.333 4.66699 61 14l70 -211c-58 -17.333 -113.333 -26 -166 -26c-85.333 0 -153.166 29.333 -203.499 88s-75.5 154 -75.5 286z" />
  </font>
</defs>
</svg>
