<?xml version="1.0" encoding="utf-8"?>
<!-- Generator: Adobe Illustrator 16.0.3, SVG Export Plug-In . SVG Version: 6.00 Build 0)  -->
<!DOCTYPE svg PUBLIC "-//W3C//DTD SVG 1.1//EN" "http://www.w3.org/Graphics/SVG/1.1/DTD/svg11.dtd">
<svg version="1.1" id="Layer_1" xmlns="http://www.w3.org/2000/svg" xmlns:xlink="http://www.w3.org/1999/xlink" x="0px" y="0px"
	 width="30px" height="30px" viewBox="0 0 30 30" enable-background="new 0 0 30 30" xml:space="preserve">
<path fill="none" stroke="#FFFFFF" stroke-linecap="round" stroke-miterlimit="10" d="M16.761,21.526
	c-2.663,0.141-3.084-1.823-3.084-1.823c3.225,0.7,4.487-3.085,4.487-3.085c-2.945-0.981-1.964-2.944-2.665-6.729
	c-0.701-3.786-3.519-4.207-5.188-4.207c-1.669,0-4.487,0.421-5.188,4.207c-0.701,3.786,0.282,5.748-2.664,6.729
	c0,0,1.262,3.785,4.487,3.085c0,0-0.421,1.964-3.085,1.823c0,0-3.646,1.4-3.084,4.486c0,0,3.084,2.245,9.534,1.963
	c6.45,0.282,9.536-1.963,9.536-1.963C20.408,22.927,16.761,21.526,16.761,21.526z"/>
<path fill="none" stroke="#FFFFFF" stroke-linecap="round" stroke-miterlimit="10" d="M18.023,9.468c0,0,0.735-2.629,3.785-2.524
	c3.051,0.105,3.472,3.049,3.472,3.049s3.787-1.275,3.998,1.487c0.261,3.424-3.257,2.709-3.257,2.709s-2.646,3.072-6.117,0.969"/>
<circle fill="none" stroke="#FFFFFF" stroke-linecap="round" stroke-miterlimit="10" cx="20.605" cy="18.37" r="0.701"/>
<circle fill="none" stroke="#FFFFFF" stroke-linecap="round" stroke-miterlimit="10" cx="19.17" cy="20.437" r="0.523"/>
</svg>
