<?xml version="1.0" encoding="utf-8"?>
<!-- Generator: Adobe Illustrator 16.0.3, SVG Export Plug-In . SVG Version: 6.00 Build 0)  -->
<!DOCTYPE svg PUBLIC "-//W3C//DTD SVG 1.1//EN" "http://www.w3.org/Graphics/SVG/1.1/DTD/svg11.dtd">
<svg version="1.1" id="Layer_1" xmlns="http://www.w3.org/2000/svg" xmlns:xlink="http://www.w3.org/1999/xlink" x="0px" y="0px"
	 width="27px" height="27px" viewBox="0 0 27 27" enable-background="new 0 0 27 27" xml:space="preserve">
<g>
	<path fill="none" stroke="#FFFFFF" stroke-width="0.6038" stroke-miterlimit="10" d="M5.832,3.656c0,0,0.314,0.91,1.682,0.806
		c1.367-0.104,0.77-1.507,2.383-1.331c1.612,0.175,0.807,2.838,2.593,2.838c1.788,0,0.912-2.242,2.665-2.173
		c1.751,0.071,0.314,4.136,2.663,3.891c2.348-0.246,0.349-3.679,2.628-4.696"/>
	<line fill="none" stroke="#FFFFFF" stroke-width="0.6038" stroke-miterlimit="10" x1="5.762" y1="9.648" x2="20.375" y2="9.648"/>
	
		<line fill="none" stroke="#FFFFFF" stroke-width="0.6038" stroke-miterlimit="10" x1="5.808" y1="12.191" x2="20.422" y2="12.191"/>
	<line fill="none" stroke="#FFFFFF" stroke-width="0.6038" stroke-miterlimit="10" x1="7.654" y1="8.738" x2="7.654" y2="9.648"/>
	<line fill="none" stroke="#FFFFFF" stroke-width="0.6038" stroke-miterlimit="10" x1="9.336" y1="4.918" x2="9.336" y2="9.578"/>
	<line fill="none" stroke="#FFFFFF" stroke-width="0.6038" stroke-miterlimit="10" x1="15.369" y1="6.074" x2="15.369" y2="9.62"/>
	<line fill="none" stroke="#FFFFFF" stroke-width="0.6038" stroke-miterlimit="10" x1="12.635" y1="7.476" x2="12.635" y2="9.55"/>
	<line fill="none" stroke="#FFFFFF" stroke-width="0.6038" stroke-miterlimit="10" x1="18.296" y1="8.738" x2="18.296" y2="9.668"/>
	<path fill="none" stroke="#FFFFFF" stroke-width="0.6038" stroke-miterlimit="10" d="M19.195,1.293h-6.04h-0.035H7.083
		c-0.692,0-1.256,0.562-1.256,1.255v5.031v4.287v1.265c0,1.734,1.409,3.025,3.139,3.138c1.667,0.108,2.123,0.81,2.158,2.069
		c0.053,1.896-0.006,3.798-0.104,5.065c-0.105,1.34,0.751,2.435,2.096,2.435c0.009,0,0.017,0,0.023-0.002
		c0.008,0.002,0.015,0.002,0.024,0.002c1.344,0,2.202-1.095,2.098-2.435c-0.1-1.268-0.158-3.169-0.105-5.065
		c0.034-1.26,0.49-1.961,2.156-2.069c1.73-0.113,3.139-1.404,3.139-3.138v-1.265V7.579V2.548
		C20.449,1.855,19.888,1.293,19.195,1.293z"/>
	<line fill="none" stroke="#FFFFFF" stroke-width="0.6038" stroke-miterlimit="10" x1="12.21" y1="21.178" x2="12.21" y2="22.789"/>
	
		<line fill="none" stroke="#FFFFFF" stroke-width="0.6038" stroke-miterlimit="10" x1="12.195" y1="23.254" x2="12.195" y2="23.876"/>
</g>
</svg>
