<?xml version="1.0" encoding="utf-8"?>
<!-- Generator: Adobe Illustrator 16.0.3, SVG Export Plug-In . SVG Version: 6.00 Build 0)  -->
<!DOCTYPE svg PUBLIC "-//W3C//DTD SVG 1.1//EN" "http://www.w3.org/Graphics/SVG/1.1/DTD/svg11.dtd">
<svg version="1.1" id="Layer_1" xmlns="http://www.w3.org/2000/svg" xmlns:xlink="http://www.w3.org/1999/xlink" x="0px" y="0px"
	 width="30px" height="30px" viewBox="0 0 30 30" enable-background="new 0 0 30 30" xml:space="preserve">
<g>
	<path fill="none" stroke="#FFFFFF" stroke-linecap="round" stroke-miterlimit="10" d="M10.261,10.816l2.886-2.19L8.148,1.99
		C1.963,5.734,2.093,7.881,2.093,7.881c-0.036,7.203,8.541,18.585,15.475,20.539c0,0,2.028,0.719,7.334-4.193L19.9,17.59
		l-2.901,2.17c0,0-1.585,1.635-3.554,1.348c-1.067-0.152-5.649-6.355-5.424-7.456C8.396,11.813,10.261,10.816,10.261,10.816z"/>
	<line fill="none" stroke="#FFFFFF" stroke-linecap="round" stroke-miterlimit="10" x1="5.448" y1="3.743" x2="10.59" y2="10.568"/>
	
		<line fill="none" stroke="#FFFFFF" stroke-linecap="round" stroke-miterlimit="10" x1="17.3" y1="19.475" x2="22.443" y2="26.299"/>
	<path fill="none" stroke="#FFFFFF" stroke-linecap="round" stroke-miterlimit="10" d="M15.748,7.42c0,0,6.843-1.058,6.595,6.845"/>
	<path fill="none" stroke="#FFFFFF" stroke-linecap="round" stroke-miterlimit="10" d="M14.565,3.128
		c0,0,13.936-1.741,12.007,13.065"/>
</g>
</svg>
