<?xml version="1.0" encoding="utf-8"?>
<!-- Generator: Adobe Illustrator 16.0.3, SVG Export Plug-In . SVG Version: 6.00 Build 0)  -->
<!DOCTYPE svg PUBLIC "-//W3C//DTD SVG 1.1//EN" "http://www.w3.org/Graphics/SVG/1.1/DTD/svg11.dtd">
<svg version="1.1" id="Layer_1" xmlns="http://www.w3.org/2000/svg" xmlns:xlink="http://www.w3.org/1999/xlink" x="0px" y="0px"
	 width="75px" height="75px" viewBox="0 0 75 75" enable-background="new 0 0 75 75" xml:space="preserve">
<circle fill="#48C2C5" cx="37.5" cy="37.5" r="35"/>
<path fill="#FFFFFF" d="M60.702,37.502c-0.233-0.261-0.633-0.281-0.892-0.049l-1.239,1.113l-6.721-6.664
	c-0.248-0.245-0.646-0.245-0.894,0.003c-0.246,0.247-0.245,0.647,0.004,0.894l6.669,6.612l-3.302,2.962l-10.98-11.121l10.915-10.325
	c0.253-0.24,0.265-0.64,0.023-0.894c-0.239-0.254-0.639-0.264-0.893-0.025L42.012,30.778c-0.124,0.117-0.194,0.278-0.199,0.448
	c-0.003,0.17,0.063,0.334,0.183,0.456l1.011,1.024l-2.228,2.331l-4.297-0.458c-0.19-0.023-0.376,0.045-0.511,0.18l-1.747,1.731
	l-3.247-3.207l1.093-1.108c0.119-0.121,0.186-0.286,0.182-0.455c-0.003-0.17-0.074-0.331-0.197-0.448L20.672,20.503
	c-0.252-0.239-0.653-0.229-0.893,0.025c-0.24,0.253-0.229,0.653,0.024,0.893l7.681,7.266L16.236,39.726l-1.98-1.777
	c-0.258-0.232-0.659-0.211-0.892,0.048c-0.233,0.259-0.211,0.658,0.048,0.892l5.931,5.323c0.12,0.107,0.271,0.161,0.422,0.161
	c0.164,0,0.327-0.063,0.45-0.188l1.074-1.088l5.907,5.825l-1.085,1.104c-0.243,0.247-0.242,0.645,0.004,0.89l2.214,2.215
	c0,0,0.002,0,0.002,0.001c0,0,0,0.001,0.001,0.001l2.215,2.189l2.212,2.213l2.214,2.215c0.124,0.123,0.285,0.185,0.447,0.185
	s0.323-0.062,0.447-0.185l1.146-1.146l1.165,1.149c0.121,0.121,0.283,0.182,0.442,0.182c0.162,0,0.324-0.062,0.447-0.185
	l1.767-1.768l0.262,0.26c0.124,0.124,0.285,0.186,0.447,0.186c0.161,0,0.323-0.062,0.445-0.186l1.769-1.767l0.261,0.26
	c0.123,0.124,0.284,0.186,0.446,0.186c0.163,0,0.324-0.062,0.447-0.186l1.768-1.768l0.26,0.26c0.123,0.124,0.286,0.186,0.446,0.186
	c0.162,0,0.325-0.062,0.447-0.186l2.214-2.214c0.247-0.247,0.247-0.646,0-0.894l-3.288-3.288l5.943-6.306l1.152,1.168
	c0.123,0.125,0.286,0.187,0.449,0.187c0.15,0,0.303-0.053,0.422-0.16l5.931-5.323C60.913,38.161,60.936,37.762,60.702,37.502z
	 M28.756,37.854c0,1.524-1.24,2.763-2.763,2.763c-0.606,0-1.188-0.2-1.664-0.559l3.869-3.869
	C28.557,36.665,28.756,37.248,28.756,37.854z M29.094,35.294l1.054-1.054l0.57,0.563l-1.161,1.188
	C29.428,35.744,29.274,35.511,29.094,35.294z M19.738,42.868l-2.56-2.298l11.226-11.015l2.315,2.19L19.738,42.868z M23.434,40.955
	c0.223,0.185,0.465,0.343,0.721,0.476c-0.2,0.206-0.407,0.42-0.615,0.635c-0.251,0.259-0.497,0.512-0.734,0.755l-0.623-0.615
	L23.434,40.955z M28.095,49.809l1.328,1.309l-0.653,0.666l-1.32-1.319L28.095,49.809z M30.987,53.981l-1.319-1.304l0.659-0.668
	l1.325,1.307L30.987,53.981z M32.551,54.204l1.33,1.312l-0.678,0.678l-1.321-1.321L32.551,54.204z M35.418,58.408l-1.321-1.322
	l0.685-0.684l1.33,1.313L35.418,58.408z M47.384,53.885l-0.26-0.26l0,0l-2.551-2.55c0,0,0,0,0-0.001L43.798,50.3
	c-0.247-0.247-0.646-0.247-0.893,0s-0.247,0.646,0,0.893l2.879,2.879l-1.321,1.322l-3.586-3.587c-0.247-0.247-0.646-0.247-0.894,0
	s-0.247,0.646,0,0.894l0.777,0.775l2.103,2.104L41.542,56.9l-2.074-2.073l-0.737-0.736c0,0-0.001,0-0.001-0.001l-0.774-0.774
	c-0.247-0.247-0.646-0.247-0.894,0c-0.247,0.246-0.247,0.646,0,0.893l1.45,1.449l1.43,1.43l-1.325,1.325l-14.91-14.706
	c0.239-0.245,0.488-0.501,0.741-0.764c0.372-0.384,0.738-0.763,1.064-1.093c0.16,0.02,0.319,0.031,0.481,0.031
	c2.221,0,4.027-1.807,4.027-4.027c0-0.166-0.013-0.331-0.034-0.494l1.63-1.669l1.71,1.688l-5.962,5.913
	c-0.129,0.127-0.196,0.303-0.186,0.482c0.01,0.182,0.096,0.348,0.237,0.46c0.147,0.118,3.606,2.737,9.612-3.35l11.677,11.679
	L47.384,53.885z M45.863,47.936l-8.398-8.398c-0.12-0.12-0.27-0.188-0.456-0.184c-0.171,0.002-0.333,0.073-0.451,0.198
	c-3.874,4.122-6.47,4.248-7.64,3.978l7.728-7.664l3.03,0.323l-0.456,0.476c-0.24,0.253-0.23,0.652,0.02,0.893
	c0.253,0.241,0.652,0.233,0.895-0.02l3.631-3.797l7.968,7.967L45.863,47.936z M46.968,29.803c0,1.088,0.886,1.973,1.975,1.973
	c1.087,0,1.973-0.885,1.973-1.973c0-1.089-0.886-1.974-1.973-1.974C47.854,27.829,46.968,28.714,46.968,29.803z M49.652,29.803
	c0,0.392-0.318,0.71-0.71,0.71s-0.711-0.319-0.711-0.71s0.319-0.71,0.711-0.71S49.652,29.411,49.652,29.803z"/>
</svg>
