<?xml version="1.0" encoding="utf-8"?>
<!-- Generator: Adobe Illustrator 16.0.3, SVG Export Plug-In . SVG Version: 6.00 Build 0)  -->
<!DOCTYPE svg PUBLIC "-//W3C//DTD SVG 1.1//EN" "http://www.w3.org/Graphics/SVG/1.1/DTD/svg11.dtd">
<svg version="1.1" id="Layer_1" xmlns="http://www.w3.org/2000/svg" xmlns:xlink="http://www.w3.org/1999/xlink" x="0px" y="0px"
	 width="75px" height="75px" viewBox="0 0 75 75" enable-background="new 0 0 75 75" xml:space="preserve">
<circle fill="#1B3764" cx="37.5" cy="37.5" r="35"/>
<g>
	<path fill="#FFFFFF" d="M52.93,41.963V23.708c0-0.445-0.365-0.806-0.807-0.806H42.047c-0.447,0-0.807,0.36-0.807,0.806v8.869
		h-9.272c-0.445,0-0.807,0.361-0.807,0.807v7.257h-9.272c-0.445,0-0.806,0.359-0.806,0.805V54.75c0,0.443,0.361,0.805,0.806,0.805
		h10.079h4.737l16.19-0.135L52.93,41.963z M42.85,24.515h8.466v29.348l-8.466-0.025v-4.316v-0.77V37.211V24.515z M22.692,42.252
		h8.465v11.691h-8.465V42.252z M32.771,53.943V41.445V34.19h8.466v7.255l0.012,12.496L32.771,53.943L32.771,53.943z M21.4,37.627
		c-0.151,0.129-0.337,0.191-0.522,0.191c-0.23,0-0.457-0.098-0.613-0.285c-0.292-0.34-0.25-0.846,0.091-1.135l22.642-19.285
		c0.031-0.028,0.069-0.037,0.101-0.057h-3.675c-0.444,0-0.807-0.363-0.807-0.806c0-0.446,0.362-0.806,0.807-0.806h5.24
		c0.443,0,0.808,0.36,0.808,0.806v5.239c0,0.445-0.364,0.806-0.808,0.806c-0.448,0-0.807-0.361-0.807-0.806V18.5L21.4,37.627z"/>
</g>
</svg>
