<?xml version="1.0" encoding="utf-8"?>
<!-- Generator: Adobe Illustrator 16.0.3, SVG Export Plug-In . SVG Version: 6.00 Build 0)  -->
<!DOCTYPE svg PUBLIC "-//W3C//DTD SVG 1.1//EN" "http://www.w3.org/Graphics/SVG/1.1/DTD/svg11.dtd">
<svg version="1.1" id="Layer_1" xmlns="http://www.w3.org/2000/svg" xmlns:xlink="http://www.w3.org/1999/xlink" x="0px" y="0px"
	 width="27px" height="27px" viewBox="0 0 27 27" enable-background="new 0 0 27 27" xml:space="preserve">
<path fill="none" stroke="#FFFFFF" stroke-miterlimit="10" d="M10.57,24.4c0,0.884-0.716,1.6-1.6,1.6H5.434
	c-0.885,0-1.6-0.716-1.6-1.6V4.027c0-0.883,0.715-1.6,1.6-1.6h3.537c0.883,0,1.6,0.717,1.6,1.6L10.57,24.4L10.57,24.4z"/>
<path fill="none" stroke="#FFFFFF" stroke-miterlimit="10" d="M5.262,15.393c3.879,0,3.879,0,3.879,0"/>
<circle fill="none" stroke="#FFFFFF" stroke-miterlimit="10" cx="7.202" cy="23.048" r="0.715"/>
<path fill="none" stroke="#FFFFFF" stroke-miterlimit="10" d="M5.262,19.854c3.879,0,3.879,0,3.879,0"/>
<path fill="none" stroke="#FFFFFF" stroke-miterlimit="10" d="M5.262,6.698c3.879,0,3.879,0,3.879,0"/>
<path fill="none" stroke="#FFFFFF" stroke-miterlimit="10" d="M5.262,11.159c3.879,0,3.879,0,3.879,0"/>
<path fill="none" stroke="#FFFFFF" stroke-miterlimit="10" d="M10.568,6.305l1.024-2.346c0.354-0.811,1.296-1.181,2.106-0.828
	l3.241,1.416c0.81,0.354,1.181,1.298,0.826,2.107l-7.188,16.459"/>
<path fill="none" stroke="#FFFFFF" stroke-miterlimit="10" d="M10.501,15.883c0.606,0.266,0.952,0.415,1.148,0.502
	c0.26,0.112,0.26,0.112,0.26,0.112"/>
<path fill="none" stroke="#FFFFFF" stroke-miterlimit="10" d="M11.833,6.978c3.556,1.552,3.556,1.552,3.556,1.552"/>
<path fill="none" stroke="#FFFFFF" stroke-miterlimit="10" d="M10.782,11.388c2.821,1.23,2.821,1.23,2.821,1.23"/>
<path fill="none" stroke="#FFFFFF" stroke-miterlimit="10" d="M17.42,7.692l1.359-1.333c0.631-0.621,1.645-0.609,2.263,0.02
	l2.478,2.527c0.617,0.631,0.608,1.646-0.022,2.263L10.673,23.744"/>
<path fill="none" stroke="#FFFFFF" stroke-miterlimit="10" d="M13.307,17.009c0.462,0.474,0.727,0.742,0.876,0.896
	c0.199,0.201,0.199,0.201,0.199,0.203"/>
<path fill="none" stroke="#FFFFFF" stroke-miterlimit="10" d="M17.872,9.25c2.718,2.77,2.718,2.77,2.718,2.77"/>
<path fill="none" stroke="#FFFFFF" stroke-miterlimit="10" d="M15.248,12.945c2.156,2.196,2.156,2.196,2.156,2.196"/>
</svg>
