<?xml version="1.0" encoding="utf-8"?>
<!-- Generator: Adobe Illustrator 16.0.3, SVG Export Plug-In . SVG Version: 6.00 Build 0)  -->
<!DOCTYPE svg PUBLIC "-//W3C//DTD SVG 1.1//EN" "http://www.w3.org/Graphics/SVG/1.1/DTD/svg11.dtd">
<svg version="1.1" id="Layer_1" xmlns="http://www.w3.org/2000/svg" xmlns:xlink="http://www.w3.org/1999/xlink" x="0px" y="0px"
	 width="165px" height="165px" viewBox="0 0 165 165" enable-background="new 0 0 165 165" xml:space="preserve">
<g>
	<path fill="none" stroke="#522E8C" stroke-width="2" stroke-linecap="round" stroke-linejoin="round" stroke-miterlimit="10" d="
		M89.961,21.754H38.287h-13.13c0,0-14.69,29.68-17.08,40.377c-1.258,5.636-0.64,16.295,14.019,18.366
		C36.755,82.566,40.686,73,40.686,73l6.211-50.726"/>
	<path fill="none" stroke="#522E8C" stroke-width="2" stroke-linecap="round" stroke-linejoin="round" stroke-miterlimit="10" d="
		M40.686,73c0,0,4.154,7.308,15.057,7.498C66.642,80.687,69.671,73,69.671,73l2.979-51.245"/>
	<path fill="none" stroke="#522E8C" stroke-width="2" stroke-linecap="round" stroke-linejoin="round" stroke-miterlimit="10" d="
		M70.175,73c0,0,1.171,7.308,12.074,7.498S96.178,73,96.178,73l-2.979-51.245"/>
	<g>
		<path fill="none" stroke="#522E8C" stroke-width="2" stroke-linecap="round" stroke-linejoin="round" stroke-miterlimit="10" d="
			M83.998,21.754h51.677h5.052c0,0,14.689,29.68,17.08,40.377c1.258,5.636,0.64,16.295-14.019,18.366
			c-14.66,2.069-18.59-7.498-18.59-7.498l-6.212-50.726"/>
		<path fill="none" stroke="#522E8C" stroke-width="2" stroke-linecap="round" stroke-linejoin="round" stroke-miterlimit="10" d="
			M125.198,73c0,0-4.154,7.308-15.054,7.498C99.241,80.687,96.212,73,96.212,73l-2.979-51.245"/>
	</g>
	
		<line fill="none" stroke="#522E8C" stroke-width="2" stroke-linecap="round" stroke-linejoin="round" stroke-miterlimit="10" x1="25.29" y1="90.787" x2="25.29" y2="149.434"/>
	
		<line fill="none" stroke="#522E8C" stroke-width="2" stroke-linecap="round" stroke-linejoin="round" stroke-miterlimit="10" x1="61.298" y1="90.787" x2="61.298" y2="149.434"/>
	
		<line fill="none" stroke="#522E8C" stroke-width="2" stroke-linecap="round" stroke-linejoin="round" stroke-miterlimit="10" x1="140.674" y1="90.787" x2="140.674" y2="149.434"/>
	
		<line fill="none" stroke="#522E8C" stroke-width="2" stroke-linecap="round" stroke-linejoin="round" stroke-miterlimit="10" x1="5.744" y1="150.241" x2="159.873" y2="150.241"/>
	
		<line fill="none" stroke="#522E8C" stroke-width="2" stroke-linecap="round" stroke-linejoin="round" stroke-miterlimit="10" x1="48.973" y1="107.01" x2="48.973" y2="127.119"/>
	
		<line fill="none" stroke="#522E8C" stroke-width="2" stroke-linecap="round" stroke-linejoin="round" stroke-miterlimit="10" x1="89.386" y1="132.192" x2="125.664" y2="96.293"/>
	
		<line fill="none" stroke="#522E8C" stroke-width="2" stroke-linecap="round" stroke-linejoin="round" stroke-miterlimit="10" x1="103.106" y1="141.029" x2="127.543" y2="117.344"/>
</g>
</svg>
