<?xml version="1.0" encoding="utf-8"?>
<!-- Generator: Adobe Illustrator 16.0.3, SVG Export Plug-In . SVG Version: 6.00 Build 0)  -->
<!DOCTYPE svg PUBLIC "-//W3C//DTD SVG 1.1//EN" "http://www.w3.org/Graphics/SVG/1.1/DTD/svg11.dtd">
<svg version="1.1" id="Layer_1" xmlns="http://www.w3.org/2000/svg" xmlns:xlink="http://www.w3.org/1999/xlink" x="0px" y="0px"
	 width="30px" height="28px" viewBox="0 0 30 28" enable-background="new 0 0 30 28" xml:space="preserve">
<g>
	
		<line fill="none" stroke="#512E8B" stroke-width="1.0483" stroke-miterlimit="10" x1="0.807" y1="25.125" x2="29.193" y2="25.125"/>
	<g>
		<g>
			
				<line fill="none" stroke="#512E8B" stroke-width="1.0483" stroke-miterlimit="10" x1="5.714" y1="10.948" x2="5.714" y2="24.976"/>
			
				<line fill="none" stroke="#512E8B" stroke-width="1.0483" stroke-miterlimit="10" x1="24.273" y1="10.607" x2="24.273" y2="24.976"/>
			<polygon fill="none" stroke="#512E8B" stroke-width="1.0483" stroke-miterlimit="10" points="21.602,4.33 15,4.33 8.4,4.33 
				3.723,10.948 11.587,10.948 15,7.413 18.414,10.948 26.277,10.948 			"/>
			<circle fill="none" stroke="#512E8B" stroke-width="1.0483" stroke-miterlimit="10" cx="15.001" cy="12.854" r="1.715"/>
			<path fill="none" stroke="#512E8B" stroke-width="1.0483" stroke-miterlimit="10" d="M17.824,25.125v-4.91
				c0-1.482-1.203-2.685-2.685-2.685c-1.483,0-2.685,1.202-2.685,2.685v4.91"/>
			
				<rect x="19.469" y="13.617" fill="none" stroke="#512E8B" stroke-width="1.0483" stroke-miterlimit="10" width="2.46" height="2.564"/>
			
				<rect x="8.071" y="13.617" fill="none" stroke="#512E8B" stroke-width="1.0483" stroke-miterlimit="10" width="2.459" height="2.564"/>
			
				<rect x="19.539" y="19.091" fill="none" stroke="#512E8B" stroke-width="1.0483" stroke-miterlimit="10" width="2.458" height="3.569"/>
			
				<rect x="8.071" y="19.091" fill="none" stroke="#512E8B" stroke-width="1.0483" stroke-miterlimit="10" width="2.459" height="3.569"/>
		</g>
	</g>
</g>
</svg>
