<?xml version="1.0" encoding="utf-8"?>
<!-- Generator: Adobe Illustrator 16.0.3, SVG Export Plug-In . SVG Version: 6.00 Build 0)  -->
<!DOCTYPE svg PUBLIC "-//W3C//DTD SVG 1.1//EN" "http://www.w3.org/Graphics/SVG/1.1/DTD/svg11.dtd">
<svg version="1.1" id="Layer_1" xmlns="http://www.w3.org/2000/svg" xmlns:xlink="http://www.w3.org/1999/xlink" x="0px" y="0px"
	 width="18px" height="18px" viewBox="0 0 18 18" enable-background="new 0 0 18 18" xml:space="preserve">
<g>
	<path fill="none" stroke="#414042" stroke-width="0.65" stroke-miterlimit="10" d="M13.808,16.948H4.21
		c-1.764,0-3.207-1.443-3.207-3.206V4.076c0-1.763,1.443-3.207,3.207-3.207h9.598c1.765,0,3.207,1.443,3.207,3.207v9.667
		C17.015,15.505,15.572,16.948,13.808,16.948z"/>
	<line fill="none" stroke="#414042" stroke-width="0.65" stroke-miterlimit="10" x1="6.821" y1="5.589" x2="1.003" y2="5.589"/>
	<line fill="none" stroke="#414042" stroke-width="0.65" stroke-miterlimit="10" x1="17.015" y1="5.589" x2="11.196" y2="5.589"/>
	<circle fill="none" stroke="#414042" stroke-width="0.65" stroke-miterlimit="10" cx="9.009" cy="8.694" r="3.845"/>
	<circle fill="none" stroke="#414042" stroke-width="0.65" stroke-miterlimit="10" cx="9.009" cy="8.694" r="1.787"/>
	<line fill="none" stroke="#414042" stroke-width="0.65" stroke-miterlimit="10" x1="3.784" y1="0.892" x2="3.784" y2="3.819"/>
	<line fill="none" stroke="#414042" stroke-width="0.65" stroke-miterlimit="10" x1="5.164" y1="0.892" x2="5.164" y2="3.819"/>
	<path fill="none" stroke="#414042" stroke-width="0.65" stroke-miterlimit="10" d="M14.671,4.463h-1.464
		c-0.294,0-0.536-0.241-0.536-0.534V2.511c0-0.293,0.242-0.534,0.536-0.534h1.464c0.293,0,0.534,0.241,0.534,0.534v1.418
		C15.205,4.223,14.964,4.463,14.671,4.463z"/>
</g>
</svg>
