<?xml version="1.0" encoding="utf-8"?>
<!-- Generator: Adobe Illustrator 16.0.3, SVG Export Plug-In . SVG Version: 6.00 Build 0)  -->
<!DOCTYPE svg PUBLIC "-//W3C//DTD SVG 1.1//EN" "http://www.w3.org/Graphics/SVG/1.1/DTD/svg11.dtd">
<svg version="1.1" id="Layer_1" xmlns="http://www.w3.org/2000/svg" xmlns:xlink="http://www.w3.org/1999/xlink" x="0px" y="0px"
	 width="30px" height="28px" viewBox="0 0 30 28" enable-background="new 0 0 30 28" xml:space="preserve">
<g>
	<polygon fill="none" stroke="#512E8B" stroke-width="0.644" stroke-miterlimit="10" points="4.202,1.484 4.202,14.237 
		13.561,14.237 13.561,26.618 25.799,26.618 25.799,14.237 25.799,12.118 25.799,1.484 	"/>
	<line fill="none" stroke="#512E8B" stroke-width="0.644" stroke-miterlimit="10" x1="13.468" y1="1.382" x2="13.468" y2="8.376"/>
	<line fill="none" stroke="#512E8B" stroke-width="0.644" stroke-miterlimit="10" x1="12.028" y1="8.376" x2="14.805" y2="8.376"/>
	<line fill="none" stroke="#512E8B" stroke-width="0.644" stroke-miterlimit="10" x1="19.844" y1="1.384" x2="19.844" y2="8.858"/>
	<line fill="none" stroke="#512E8B" stroke-width="0.644" stroke-miterlimit="10" x1="19.844" y1="4.158" x2="25.699" y2="4.158"/>
	<line fill="none" stroke="#512E8B" stroke-width="0.644" stroke-miterlimit="10" x1="19.844" y1="6.778" x2="25.699" y2="6.778"/>
	
		<line fill="none" stroke="#512E8B" stroke-width="0.644" stroke-miterlimit="10" x1="19.611" y1="14.176" x2="25.469" y2="14.176"/>
	<path fill="none" stroke="#512E8B" stroke-width="0.644" stroke-miterlimit="10" d="M25.699,21.032c0,0-4.932-0.076-5.779,5.549"/>
	
		<line fill="none" stroke="#512E8B" stroke-width="0.644" stroke-miterlimit="10" x1="13.524" y1="19.877" x2="19.381" y2="19.877"/>
	
		<line fill="none" stroke="#512E8B" stroke-width="0.644" stroke-miterlimit="10" x1="13.524" y1="22.497" x2="19.381" y2="22.497"/>
</g>
</svg>
