<?xml version="1.0" encoding="utf-8"?>
<!-- Generator: Adobe Illustrator 16.0.3, SVG Export Plug-In . SVG Version: 6.00 Build 0)  -->
<!DOCTYPE svg PUBLIC "-//W3C//DTD SVG 1.1//EN" "http://www.w3.org/Graphics/SVG/1.1/DTD/svg11.dtd">
<svg version="1.1" id="Layer_1" xmlns="http://www.w3.org/2000/svg" xmlns:xlink="http://www.w3.org/1999/xlink" x="0px" y="0px"
	 width="30px" height="28px" viewBox="0 0 30 28" enable-background="new 0 0 30 28" xml:space="preserve">
<g>
	<path fill="none" stroke="#512E8B" stroke-miterlimit="10" d="M28.499,20.307c0,0.765-0.62,1.385-1.385,1.385H2.886
		c-0.765,0-1.385-0.62-1.385-1.385V3c0-0.764,0.62-1.384,1.385-1.384h24.229c0.765,0,1.385,0.62,1.385,1.384V20.307z"/>
	<line fill="none" stroke="#512E8B" stroke-miterlimit="10" x1="1.501" y1="17.884" x2="28.499" y2="17.884"/>
	<g>
		<line fill="none" stroke="#512E8B" stroke-miterlimit="10" x1="12.154" y1="21.691" x2="12.154" y2="23.922"/>
		<line fill="none" stroke="#512E8B" stroke-miterlimit="10" x1="17.847" y1="21.691" x2="17.847" y2="23.922"/>
	</g>
	<path fill="none" stroke="#512E8B" stroke-miterlimit="10" d="M15.917,23.922h2.923c0,0,2.001,0.309,1.615,2.462H15H9.544
		c-0.385-2.153,1.615-2.462,1.615-2.462h2.923"/>
	<polygon fill="none" stroke="#512E8B" stroke-miterlimit="10" points="14.038,9.154 15.961,13.769 18.423,11.461 	"/>
	<line fill="none" stroke="#512E8B" stroke-miterlimit="10" x1="17.187" y1="12.62" x2="19.269" y2="14.615"/>
	<line fill="none" stroke="#512E8B" stroke-miterlimit="10" x1="11.116" y1="6.308" x2="12.654" y2="7.924"/>
	<line fill="none" stroke="#512E8B" stroke-miterlimit="10" x1="14.038" y1="5.077" x2="14.038" y2="7.616"/>
	<line fill="none" stroke="#512E8B" stroke-miterlimit="10" x1="16.808" y1="6.346" x2="15.27" y2="7.924"/>
	<line fill="none" stroke="#512E8B" stroke-miterlimit="10" x1="10.192" y1="9.154" x2="12.654" y2="9.154"/>
	<path fill="none" stroke="#512E8B" stroke-miterlimit="10" d="M11.116,11.654"/>
	<line fill="none" stroke="#512E8B" stroke-miterlimit="10" x1="12.654" y1="10.231" x2="11.116" y2="11.654"/>
</g>
</svg>
