<?xml version="1.0" encoding="utf-8"?>
<!-- Generator: Adobe Illustrator 16.0.3, SVG Export Plug-In . SVG Version: 6.00 Build 0)  -->
<!DOCTYPE svg PUBLIC "-//W3C//DTD SVG 1.1//EN" "http://www.w3.org/Graphics/SVG/1.1/DTD/svg11.dtd">
<svg version="1.1" id="Layer_1" xmlns="http://www.w3.org/2000/svg" xmlns:xlink="http://www.w3.org/1999/xlink" x="0px" y="0px"
	 width="30px" height="28px" viewBox="0 0 30 28" enable-background="new 0 0 30 28" xml:space="preserve">
<g>
	<g>
		<path fill="#512E8B" d="M10.916,22.891c0,0,0.306,0.235,0.717,0.628c0.411,0.394,0.939,0.936,1.424,1.514
			c0.489,0.574,0.936,1.185,1.254,1.656s0.5,0.813,0.5,0.813s-0.306-0.235-0.718-0.628c-0.412-0.394-0.939-0.936-1.424-1.514
			c-0.489-0.574-0.935-1.186-1.254-1.656C11.098,23.231,10.916,22.891,10.916,22.891z"/>
	</g>
	<g>
		<path fill="#512E8B" d="M12.207,21.738c0,0,0.305,0.235,0.717,0.628c0.411,0.394,0.939,0.936,1.424,1.514
			c0.489,0.574,0.935,1.185,1.253,1.656s0.499,0.813,0.499,0.813s-0.306-0.235-0.718-0.628c-0.412-0.394-0.938-0.936-1.423-1.514
			c-0.489-0.574-0.934-1.186-1.253-1.656C12.388,22.079,12.207,21.738,12.207,21.738z"/>
	</g>
	<g>
		<path fill="#512E8B" d="M13.495,20.589c0,0,0.306,0.235,0.718,0.629c0.411,0.394,0.939,0.935,1.424,1.513
			c0.489,0.574,0.936,1.186,1.255,1.657c0.318,0.472,0.499,0.813,0.499,0.813s-0.306-0.235-0.718-0.628
			c-0.412-0.394-0.939-0.936-1.424-1.514c-0.489-0.574-0.935-1.187-1.254-1.657C13.676,20.93,13.495,20.589,13.495,20.589z"/>
	</g>
</g>
<g>
	<g>
		<path fill="#512E8B" d="M3.277,11.36c0,0,0.306,0.236,0.717,0.628c0.411,0.394,0.939,0.935,1.424,1.513
			c0.489,0.574,0.936,1.185,1.254,1.656s0.5,0.813,0.5,0.813s-0.306-0.235-0.718-0.628c-0.412-0.393-0.939-0.935-1.424-1.513
			c-0.489-0.574-0.935-1.186-1.254-1.656C3.459,11.7,3.277,11.36,3.277,11.36z"/>
	</g>
	<g>
		<path fill="#512E8B" d="M4.567,10.21c0,0,0.306,0.236,0.717,0.628c0.411,0.394,0.939,0.935,1.424,1.512
			c0.489,0.574,0.936,1.185,1.254,1.656c0.318,0.472,0.5,0.813,0.5,0.813s-0.306-0.235-0.718-0.628s-0.939-0.934-1.424-1.512
			c-0.489-0.574-0.935-1.186-1.254-1.656C4.749,10.55,4.567,10.21,4.567,10.21z"/>
	</g>
	<g>
		<path fill="#512E8B" d="M5.855,9.06c0,0,0.306,0.236,0.718,0.628c0.411,0.394,0.939,0.935,1.424,1.513
			c0.489,0.575,0.936,1.185,1.254,1.657c0.318,0.472,0.5,0.813,0.5,0.813s-0.306-0.235-0.718-0.628
			c-0.412-0.393-0.939-0.935-1.424-1.513c-0.489-0.575-0.935-1.186-1.254-1.657C6.037,9.4,5.855,9.06,5.855,9.06z"/>
	</g>
</g>
<g>
	<g>
		<path fill="#512E8B" d="M12.062,3.006c0,0,0.305,0.236,0.717,0.628c0.411,0.394,0.939,0.935,1.424,1.512
			c0.489,0.574,0.935,1.185,1.254,1.656c0.318,0.472,0.499,0.813,0.499,0.813s-0.306-0.235-0.718-0.628
			c-0.412-0.393-0.939-0.935-1.423-1.512c-0.489-0.574-0.934-1.186-1.253-1.656C12.243,3.347,12.062,3.006,12.062,3.006z"/>
	</g>
	<g>
		<path fill="#512E8B" d="M13.351,1.854c0,0,0.306,0.236,0.717,0.628c0.411,0.394,0.939,0.935,1.424,1.513
			c0.489,0.575,0.935,1.185,1.254,1.657c0.318,0.472,0.499,0.813,0.499,0.813s-0.306-0.235-0.718-0.628
			c-0.412-0.393-0.939-0.935-1.424-1.513c-0.489-0.575-0.935-1.186-1.254-1.657C13.533,2.195,13.351,1.854,13.351,1.854z"/>
	</g>
	<g>
		<path fill="#512E8B" d="M14.64,0.704c0,0,0.306,0.236,0.717,0.628c0.411,0.394,0.939,0.935,1.424,1.513
			c0.489,0.574,0.936,1.185,1.255,1.656c0.318,0.472,0.499,0.813,0.499,0.813s-0.306-0.235-0.718-0.628
			c-0.412-0.393-0.939-0.935-1.424-1.513c-0.489-0.574-0.935-1.186-1.254-1.656C14.822,1.044,14.64,0.704,14.64,0.704z"/>
	</g>
</g>
<g>
	<g>
		<path fill="#512E8B" d="M12.041,5.166c0,0-0.236,0.305-0.628,0.717C11.02,6.294,10.479,6.822,9.9,7.307
			C9.326,7.795,8.715,8.242,8.244,8.561C7.772,8.879,7.432,9.06,7.432,9.06S7.667,8.754,8.06,8.342
			C8.453,7.93,8.994,7.403,9.572,6.918c0.574-0.489,1.186-0.934,1.657-1.253C11.701,5.347,12.041,5.166,12.041,5.166z"/>
	</g>
	<g>
		<path fill="#512E8B" d="M13.194,6.455c0,0-0.236,0.305-0.628,0.717c-0.394,0.411-0.935,0.939-1.513,1.423
			c-0.575,0.489-1.185,0.935-1.657,1.253s-0.813,0.499-0.813,0.499s0.235-0.306,0.628-0.718c0.393-0.411,0.935-0.938,1.513-1.423
			c0.575-0.489,1.186-0.934,1.657-1.253C12.854,6.636,13.194,6.455,13.194,6.455z"/>
	</g>
	<g>
		<path fill="#512E8B" d="M14.344,7.744c0,0-0.236,0.305-0.628,0.717c-0.394,0.411-0.935,0.939-1.513,1.424
			c-0.575,0.489-1.185,0.935-1.657,1.253s-0.813,0.499-0.813,0.499s0.235-0.306,0.628-0.718c0.393-0.412,0.935-0.938,1.513-1.423
			c0.575-0.489,1.186-0.934,1.657-1.253C14.003,7.925,14.344,7.744,14.344,7.744z"/>
	</g>
</g>
<g>
	<g>
		<path fill="#512E8B" d="M11.87,13.094c0,0,0.306,0.236,0.717,0.628c0.411,0.394,0.939,0.935,1.424,1.513
			c0.489,0.574,0.936,1.185,1.254,1.656s0.5,0.813,0.5,0.813s-0.306-0.235-0.718-0.628s-0.939-0.935-1.424-1.513
			c-0.489-0.575-0.935-1.186-1.254-1.657C12.052,13.435,11.87,13.094,11.87,13.094z"/>
	</g>
	<g>
		<path fill="#512E8B" d="M13.16,11.945c0,0,0.306,0.236,0.718,0.628c0.411,0.393,0.939,0.935,1.424,1.513
			c0.489,0.574,0.936,1.185,1.255,1.656c0.318,0.472,0.499,0.813,0.499,0.813s-0.306-0.235-0.718-0.628s-0.939-0.935-1.424-1.513
			c-0.489-0.574-0.935-1.186-1.254-1.656C13.341,12.285,13.16,11.945,13.16,11.945z"/>
	</g>
	<g>
		<path fill="#512E8B" d="M14.45,10.794c0,0,0.305,0.236,0.717,0.628c0.411,0.393,0.939,0.934,1.424,1.512
			c0.489,0.574,0.935,1.185,1.254,1.656c0.318,0.472,0.499,0.813,0.499,0.813s-0.306-0.235-0.718-0.628
			c-0.411-0.393-0.939-0.935-1.424-1.513c-0.489-0.574-0.934-1.186-1.253-1.657C14.632,11.134,14.45,10.794,14.45,10.794z"/>
	</g>
</g>
<g>
	<g>
		<path fill="#512E8B" d="M11.85,15.256c0,0-0.236,0.306-0.628,0.717c-0.394,0.411-0.935,0.939-1.513,1.424
			c-0.574,0.489-1.185,0.936-1.656,1.254c-0.472,0.318-0.813,0.499-0.813,0.499s0.235-0.306,0.628-0.718
			c0.393-0.411,0.935-0.938,1.513-1.423c0.574-0.489,1.186-0.935,1.656-1.254C11.51,15.438,11.85,15.256,11.85,15.256z"/>
	</g>
	<g>
		<path fill="#512E8B" d="M13.004,16.546c0,0-0.236,0.306-0.628,0.717c-0.394,0.411-0.935,0.939-1.513,1.424
			c-0.575,0.488-1.186,0.935-1.657,1.253c-0.472,0.318-0.813,0.499-0.813,0.499s0.235-0.306,0.628-0.718
			c0.393-0.411,0.935-0.938,1.513-1.423c0.575-0.488,1.186-0.934,1.657-1.253C12.664,16.728,13.004,16.546,13.004,16.546z"/>
	</g>
	<g>
		<path fill="#512E8B" d="M14.153,17.834c0,0-0.236,0.306-0.628,0.718c-0.394,0.41-0.935,0.938-1.513,1.424
			c-0.574,0.489-1.185,0.935-1.656,1.254c-0.472,0.318-0.813,0.499-0.813,0.499s0.235-0.306,0.628-0.718
			c0.393-0.411,0.935-0.939,1.513-1.424c0.574-0.488,1.186-0.934,1.656-1.253C13.813,18.016,14.153,17.834,14.153,17.834z"/>
	</g>
</g>
<g>
	<g>
		<path fill="#512E8B" d="M21.006,7.203c0,0-0.235,0.305-0.628,0.717c-0.394,0.411-0.936,0.939-1.514,1.424
			c-0.574,0.489-1.185,0.935-1.656,1.254c-0.472,0.318-0.813,0.499-0.813,0.499s0.235-0.306,0.628-0.718
			c0.394-0.412,0.936-0.939,1.514-1.423c0.574-0.489,1.186-0.934,1.656-1.253C20.665,7.384,21.006,7.203,21.006,7.203z"/>
	</g>
	<g>
		<path fill="#512E8B" d="M22.159,8.493c0,0-0.235,0.305-0.629,0.717c-0.393,0.411-0.935,0.939-1.513,1.423
			c-0.574,0.489-1.185,0.935-1.656,1.253s-0.813,0.499-0.813,0.499s0.235-0.306,0.628-0.718c0.394-0.411,0.936-0.938,1.514-1.423
			c0.574-0.489,1.186-0.934,1.656-1.252C21.818,8.674,22.159,8.493,22.159,8.493z"/>
	</g>
	<g>
		<path fill="#512E8B" d="M23.308,9.781c0,0-0.235,0.305-0.628,0.717c-0.394,0.411-0.936,0.939-1.514,1.424
			c-0.574,0.489-1.185,0.935-1.656,1.254c-0.472,0.318-0.813,0.499-0.813,0.499s0.235-0.306,0.628-0.718
			c0.394-0.412,0.936-0.939,1.514-1.423c0.574-0.489,1.186-0.934,1.656-1.253C22.967,9.962,23.308,9.781,23.308,9.781z"/>
	</g>
</g>
<g>
	<g>
		<path fill="#512E8B" d="M20.836,15.106c0,0,0.306,0.235,0.718,0.628c0.41,0.394,0.938,0.935,1.424,1.513
			c0.489,0.574,0.935,1.185,1.254,1.656c0.318,0.472,0.499,0.813,0.499,0.813s-0.306-0.235-0.718-0.628
			c-0.411-0.393-0.939-0.935-1.424-1.513c-0.488-0.574-0.934-1.186-1.253-1.656C21.018,15.447,20.836,15.106,20.836,15.106z"/>
	</g>
	<g>
		<path fill="#512E8B" d="M22.123,13.955c0,0,0.306,0.236,0.718,0.628c0.411,0.394,0.939,0.935,1.425,1.513
			c0.489,0.575,0.936,1.186,1.254,1.657c0.319,0.472,0.5,0.813,0.5,0.813s-0.306-0.235-0.718-0.628
			c-0.412-0.394-0.939-0.936-1.425-1.514c-0.489-0.574-0.935-1.186-1.254-1.657C22.305,14.295,22.123,13.955,22.123,13.955z"/>
	</g>
	<g>
		<path fill="#512E8B" d="M23.414,12.806c0,0,0.306,0.236,0.718,0.628c0.41,0.393,0.938,0.934,1.424,1.512
			c0.489,0.574,0.935,1.185,1.254,1.656c0.318,0.472,0.499,0.813,0.499,0.813s-0.306-0.235-0.718-0.628
			c-0.411-0.393-0.939-0.935-1.424-1.513c-0.488-0.574-0.934-1.186-1.253-1.657C23.596,13.146,23.414,12.806,23.414,12.806z"/>
	</g>
</g>
<g>
	<g>
		<path fill="#512E8B" d="M20.815,17.269c0,0-0.235,0.306-0.628,0.717c-0.394,0.411-0.935,0.939-1.513,1.424
			c-0.574,0.488-1.185,0.935-1.656,1.253s-0.813,0.499-0.813,0.499s0.235-0.306,0.628-0.718c0.393-0.411,0.935-0.938,1.513-1.423
			c0.574-0.488,1.186-0.934,1.656-1.253C20.475,17.45,20.815,17.269,20.815,17.269z"/>
	</g>
	<g>
		<path fill="#512E8B" d="M21.967,18.557c0,0-0.235,0.306-0.628,0.717c-0.394,0.411-0.935,0.939-1.513,1.424
			c-0.574,0.489-1.185,0.936-1.656,1.254s-0.813,0.499-0.813,0.499s0.235-0.306,0.628-0.718c0.393-0.411,0.935-0.938,1.513-1.423
			c0.574-0.489,1.186-0.935,1.656-1.254C21.626,18.738,21.967,18.557,21.967,18.557z"/>
	</g>
	<g>
		<path fill="#512E8B" d="M23.117,19.846c0,0-0.235,0.306-0.628,0.718c-0.394,0.41-0.936,0.938-1.514,1.424
			c-0.574,0.489-1.185,0.935-1.656,1.254c-0.472,0.318-0.813,0.499-0.813,0.499s0.235-0.306,0.628-0.718
			c0.394-0.411,0.936-0.939,1.514-1.424c0.574-0.488,1.186-0.934,1.656-1.253C22.776,20.027,23.117,19.846,23.117,19.846z"/>
	</g>
</g>
</svg>
