<?xml version="1.0" encoding="utf-8"?>
<!-- Generator: Adobe Illustrator 16.0.3, SVG Export Plug-In . SVG Version: 6.00 Build 0)  -->
<!DOCTYPE svg PUBLIC "-//W3C//DTD SVG 1.1//EN" "http://www.w3.org/Graphics/SVG/1.1/DTD/svg11.dtd">
<svg version="1.1" id="Layer_1" xmlns="http://www.w3.org/2000/svg" xmlns:xlink="http://www.w3.org/1999/xlink" x="0px" y="0px"
	 width="30px" height="28px" viewBox="0 0 30 28" enable-background="new 0 0 30 28" xml:space="preserve">
<g>
	<path fill="none" stroke="#512E8B" stroke-width="0.644" stroke-miterlimit="10" d="M16.812,8.565"/>
	<polyline fill="none" stroke="#512E8B" stroke-width="0.644" stroke-miterlimit="10" points="7.26,8.565 7.26,4.187 17.05,4.187 	
		"/>
	<line fill="none" stroke="#512E8B" stroke-width="0.644" stroke-miterlimit="10" x1="0.789" y1="4.187" x2="7.256" y2="4.187"/>
	<polyline fill="none" stroke="#512E8B" stroke-width="0.644" stroke-miterlimit="10" points="16.94,8.565 16.94,4.187 
		26.729,4.187 26.729,8.565 	"/>
	<path fill="none" stroke="#512E8B" stroke-width="0.644" stroke-miterlimit="10" d="M26.729,8.565"/>
	<path fill="none" stroke="#512E8B" stroke-width="0.644" stroke-miterlimit="10" d="M26.729,4.187"/>
	<path fill="none" stroke="#512E8B" stroke-width="0.644" stroke-miterlimit="10" d="M22.985,12.958"/>
	<polyline fill="none" stroke="#512E8B" stroke-width="0.644" stroke-miterlimit="10" points="13.433,12.958 13.433,8.578 
		23.223,8.578 	"/>
	<polyline fill="none" stroke="#512E8B" stroke-width="0.644" stroke-miterlimit="10" points="3.64,12.958 3.64,8.578 13.429,8.578 
			"/>
	<polyline fill="none" stroke="#512E8B" stroke-width="0.644" stroke-miterlimit="10" points="23.114,12.958 23.114,8.578 
		29.296,8.578 	"/>
	<path fill="none" stroke="#512E8B" stroke-width="0.644" stroke-miterlimit="10" d="M16.812,17.379"/>
	<polyline fill="none" stroke="#512E8B" stroke-width="0.644" stroke-miterlimit="10" points="7.26,17.379 7.26,12.999 
		17.05,12.999 	"/>
	<line fill="none" stroke="#512E8B" stroke-width="0.644" stroke-miterlimit="10" x1="0.789" y1="12.999" x2="7.256" y2="12.999"/>
	<polyline fill="none" stroke="#512E8B" stroke-width="0.644" stroke-miterlimit="10" points="16.94,17.379 16.94,12.999 
		26.729,12.999 26.729,17.379 	"/>
	<path fill="none" stroke="#512E8B" stroke-width="0.644" stroke-miterlimit="10" d="M26.729,17.379"/>
	<path fill="none" stroke="#512E8B" stroke-width="0.644" stroke-miterlimit="10" d="M26.729,12.999"/>
	<path fill="none" stroke="#512E8B" stroke-width="0.644" stroke-miterlimit="10" d="M22.985,21.771"/>
	<polyline fill="none" stroke="#512E8B" stroke-width="0.644" stroke-miterlimit="10" points="13.433,21.771 13.433,17.392 
		23.223,17.392 	"/>
	<polyline fill="none" stroke="#512E8B" stroke-width="0.644" stroke-miterlimit="10" points="3.64,21.771 3.64,17.392 
		13.429,17.392 	"/>
	<polyline fill="none" stroke="#512E8B" stroke-width="0.644" stroke-miterlimit="10" points="23.114,21.771 23.114,17.392 
		29.296,17.392 	"/>
	<path fill="none" stroke="#512E8B" stroke-width="0.644" stroke-miterlimit="10" d="M16.812,26.191"/>
	<polyline fill="none" stroke="#512E8B" stroke-width="0.644" stroke-miterlimit="10" points="7.26,26.191 7.26,21.812 
		17.05,21.812 	"/>
	<line fill="none" stroke="#512E8B" stroke-width="0.644" stroke-miterlimit="10" x1="0.789" y1="21.812" x2="7.256" y2="21.812"/>
	<polyline fill="none" stroke="#512E8B" stroke-width="0.644" stroke-miterlimit="10" points="16.94,26.191 16.94,21.812 
		26.729,21.812 26.729,26.191 	"/>
	<path fill="none" stroke="#512E8B" stroke-width="0.644" stroke-miterlimit="10" d="M26.729,26.191"/>
	<path fill="none" stroke="#512E8B" stroke-width="0.644" stroke-miterlimit="10" d="M26.729,21.812"/>
	<path fill="none" stroke="#512E8B" stroke-width="0.644" stroke-miterlimit="10" d="M29.296,8.578"/>
</g>
</svg>
