<?xml version="1.0" encoding="utf-8"?>
<!-- Generator: Adobe Illustrator 16.0.3, SVG Export Plug-In . SVG Version: 6.00 Build 0)  -->
<!DOCTYPE svg PUBLIC "-//W3C//DTD SVG 1.1//EN" "http://www.w3.org/Graphics/SVG/1.1/DTD/svg11.dtd">
<svg version="1.1" id="Layer_1" xmlns="http://www.w3.org/2000/svg" xmlns:xlink="http://www.w3.org/1999/xlink" x="0px" y="0px"
	 width="165px" height="165px" viewBox="0 0 165 165" enable-background="new 0 0 165 165" xml:space="preserve">
<g>
	<path fill="none" stroke="#522E8C" stroke-width="0.644" stroke-miterlimit="10" d="M36.416,20.325c0,0,1.99,5.763,10.658,5.106
		c8.658-0.662,4.88-9.552,15.093-8.436c10.214,1.111,5.112,17.982,16.432,17.982c11.326,0,5.773-14.208,16.882-13.769
		c11.096,0.45,1.988,26.205,16.871,24.649c14.875-1.556,2.217-23.311,16.648-29.751"/>
	
		<line fill="none" stroke="#522E8C" stroke-width="0.644" stroke-miterlimit="10" x1="35.971" y1="58.294" x2="128.559" y2="58.294"/>
	
		<line fill="none" stroke="#522E8C" stroke-width="0.644" stroke-miterlimit="10" x1="36.263" y1="74.404" x2="128.855" y2="74.404"/>
	
		<line fill="none" stroke="#522E8C" stroke-width="0.644" stroke-miterlimit="10" x1="47.958" y1="52.521" x2="47.958" y2="58.294"/>
	<line fill="none" stroke="#522E8C" stroke-width="0.644" stroke-miterlimit="10" x1="58.616" y1="28.32" x2="58.616" y2="57.845"/>
	
		<line fill="none" stroke="#522E8C" stroke-width="0.644" stroke-miterlimit="10" x1="96.838" y1="35.645" x2="96.838" y2="58.111"/>
	
		<line fill="none" stroke="#522E8C" stroke-width="0.644" stroke-miterlimit="10" x1="79.517" y1="44.525" x2="79.517" y2="57.667"/>
	
		<line fill="none" stroke="#522E8C" stroke-width="0.644" stroke-miterlimit="10" x1="115.389" y1="52.521" x2="115.389" y2="58.417"/>
	<path fill="none" stroke="#522E8C" stroke-width="0.644" stroke-miterlimit="10" d="M121.082,5.355H82.816h-0.217H44.338
		c-4.391,0-7.957,3.561-7.957,7.947v31.88V72.34v8.011c0,10.989,8.924,19.167,19.884,19.883
		c10.564,0.687,13.454,5.132,13.675,13.117c0.331,12.013-0.044,24.058-0.662,32.094c-0.672,8.489,4.756,15.429,13.28,15.429
		c0.055,0,0.104-0.01,0.144-0.016c0.05,0.006,0.099,0.016,0.148,0.016c8.524,0,13.958-6.939,13.295-15.429
		c-0.627-8.036-1.002-20.081-0.666-32.094c0.215-7.985,3.105-12.431,13.664-13.117c10.965-0.716,19.885-8.895,19.885-19.883V72.34
		V45.182v-31.88C129.029,8.916,125.473,5.355,121.082,5.355z"/>
	
		<line fill="none" stroke="#522E8C" stroke-width="0.644" stroke-miterlimit="10" x1="76.825" y1="131.34" x2="76.825" y2="141.553"/>
	
		<line fill="none" stroke="#522E8C" stroke-width="0.644" stroke-miterlimit="10" x1="76.732" y1="144.496" x2="76.732" y2="148.438"/>
</g>
</svg>
