<?xml version="1.0" encoding="utf-8"?>
<!-- Generator: Adobe Illustrator 16.0.3, SVG Export Plug-In . SVG Version: 6.00 Build 0)  -->
<!DOCTYPE svg PUBLIC "-//W3C//DTD SVG 1.1//EN" "http://www.w3.org/Graphics/SVG/1.1/DTD/svg11.dtd">
<svg version="1.1" id="Layer_1" xmlns="http://www.w3.org/2000/svg" xmlns:xlink="http://www.w3.org/1999/xlink" x="0px" y="0px"
	 width="30px" height="28px" viewBox="0 0 30 28" enable-background="new 0 0 30 28" xml:space="preserve">
<g>
	<path fill="none" stroke="#512E8B" stroke-miterlimit="10" d="M7.616,3.939c0,0,0.319,0.924,1.708,0.818
		c1.388-0.106,0.782-1.53,2.419-1.352c1.637,0.178,0.819,2.881,2.632,2.881c1.815,0,0.926-2.276,2.706-2.206
		c1.777,0.072,0.318,4.199,2.703,3.95c2.383-0.25,0.355-3.735,2.668-4.768"/>
	<line fill="none" stroke="#512E8B" stroke-miterlimit="10" x1="7.544" y1="10.023" x2="22.381" y2="10.023"/>
	<line fill="none" stroke="#512E8B" stroke-miterlimit="10" x1="7.591" y1="12.604" x2="22.428" y2="12.604"/>
	<line fill="none" stroke="#512E8B" stroke-miterlimit="10" x1="9.465" y1="9.099" x2="9.465" y2="10.023"/>
	<line fill="none" stroke="#512E8B" stroke-miterlimit="10" x1="11.173" y1="5.221" x2="11.173" y2="9.951"/>
	<line fill="none" stroke="#512E8B" stroke-miterlimit="10" x1="17.297" y1="6.394" x2="17.297" y2="9.994"/>
	<line fill="none" stroke="#512E8B" stroke-miterlimit="10" x1="14.522" y1="7.817" x2="14.522" y2="9.924"/>
	<line fill="none" stroke="#512E8B" stroke-miterlimit="10" x1="20.27" y1="9.099" x2="20.27" y2="10.043"/>
	<path fill="none" stroke="#512E8B" stroke-miterlimit="10" d="M21.182,1.541h-6.131h-0.035h-6.13c-0.703,0-1.275,0.57-1.275,1.273
		v5.107v4.353v1.283c0,1.76,1.43,3.071,3.186,3.187c1.693,0.108,2.155,0.821,2.191,2.102c0.053,1.924-0.006,3.854-0.106,5.142
		c-0.107,1.36,0.762,2.472,2.128,2.472c0.009,0,0.017-0.001,0.023-0.002c0.008,0.001,0.016,0.002,0.024,0.002
		c1.365,0,2.236-1.111,2.131-2.472c-0.102-1.287-0.162-3.218-0.107-5.142c0.033-1.28,0.498-1.993,2.189-2.102
		c1.756-0.115,3.186-1.427,3.186-3.187v-1.283V7.922V2.814C22.455,2.111,21.885,1.541,21.182,1.541z"/>
	<line fill="none" stroke="#512E8B" stroke-miterlimit="10" x1="14.09" y1="21.727" x2="14.09" y2="23.364"/>
	<line fill="none" stroke="#512E8B" stroke-miterlimit="10" x1="14.076" y1="23.835" x2="14.076" y2="24.467"/>
</g>
</svg>
