<?xml version="1.0" encoding="utf-8"?>
<!-- Generator: Adobe Illustrator 16.0.3, SVG Export Plug-In . SVG Version: 6.00 Build 0)  -->
<!DOCTYPE svg PUBLIC "-//W3C//DTD SVG 1.1//EN" "http://www.w3.org/Graphics/SVG/1.1/DTD/svg11.dtd">
<svg version="1.1" id="Layer_1" xmlns="http://www.w3.org/2000/svg" xmlns:xlink="http://www.w3.org/1999/xlink" x="0px" y="0px"
	 width="30px" height="28px" viewBox="0 0 30 28" enable-background="new 0 0 30 28" xml:space="preserve">
<g>
	<g>
		
			<rect x="5.574" y="15.44" fill="none" stroke="#522E8C" stroke-width="0.75" stroke-miterlimit="10" width="14.351" height="9.876"/>
	</g>
	<g>
		<polygon fill="none" stroke="#522E8C" stroke-width="0.75" stroke-miterlimit="10" points="6.597,22.783 6.597,23.909 
			18.901,23.909 18.901,22.004 15.609,18.19 10.93,22.004 8.764,21.18 		"/>
		<circle fill="none" stroke="#522E8C" stroke-width="0.75" stroke-miterlimit="10" cx="9.478" cy="18.212" r="1.365"/>
	</g>
	<g>
		<polyline fill="none" stroke="#522E8C" stroke-width="0.75" stroke-miterlimit="10" points="14,15.318 14,10.537 28.351,10.537 
			28.351,20.413 19.925,20.413 		"/>
	</g>
	<g>
		<polyline fill="none" stroke="#522E8C" stroke-width="0.75" stroke-miterlimit="10" points="19.925,19.006 27.326,19.006 
			27.326,17.1 24.034,13.287 19.925,16.636 		"/>
		<circle fill="none" stroke="#522E8C" stroke-width="0.75" stroke-miterlimit="10" cx="17.904" cy="13.309" r="1.364"/>
	</g>
	<g>
		<polyline fill="none" stroke="#522E8C" stroke-width="0.75" stroke-miterlimit="10" points="5.574,18.247 1.649,18.247 
			1.649,8.371 16.001,8.371 16.001,10.537 		"/>
	</g>
	<g>
		<polyline fill="none" stroke="#522E8C" stroke-width="0.75" stroke-miterlimit="10" points="14,13.802 11.685,11.121 
			7.006,14.934 4.839,14.11 2.673,15.713 2.673,16.84 5.574,16.84 		"/>
		<circle fill="none" stroke="#522E8C" stroke-width="0.75" stroke-miterlimit="10" cx="5.554" cy="11.142" r="1.365"/>
	</g>
	<g>
		<polyline fill="none" stroke="#522E8C" stroke-width="0.75" stroke-miterlimit="10" points="7.845,8.371 7.845,2.869 
			22.196,2.869 22.196,10.537 		"/>
	</g>
	<g>
		<polyline fill="none" stroke="#522E8C" stroke-width="0.75" stroke-miterlimit="10" points="21.173,9.432 17.881,5.619 
			14.504,8.371 		"/>
		<circle fill="none" stroke="#522E8C" stroke-width="0.75" stroke-miterlimit="10" cx="11.751" cy="5.641" r="1.365"/>
	</g>
</g>
</svg>
