<?xml version="1.0" encoding="utf-8"?>
<!-- Generator: Adobe Illustrator 16.0.3, SVG Export Plug-In . SVG Version: 6.00 Build 0)  -->
<!DOCTYPE svg PUBLIC "-//W3C//DTD SVG 1.1//EN" "http://www.w3.org/Graphics/SVG/1.1/DTD/svg11.dtd">
<svg version="1.1" id="Layer_1" xmlns="http://www.w3.org/2000/svg" xmlns:xlink="http://www.w3.org/1999/xlink" x="0px" y="0px"
	 width="18px" height="18px" viewBox="0 0 18 18" enable-background="new 0 0 18 18" xml:space="preserve">
<g>
	<path fill="none" stroke="#414042" stroke-width="0.65" stroke-miterlimit="10" d="M9.103,1.434c-4.216,0-6.34,3.022-6.34,5.543
		c0,1.526,0.577,2.884,1.816,3.39c0.204,0.084,0.386,0.003,0.446-0.222C5.065,9.99,5.162,9.597,5.205,9.434
		c0.06-0.223,0.035-0.302-0.128-0.495c-0.358-0.422-0.586-0.967-0.586-1.74c0-2.243,1.677-4.251,4.369-4.251
		c2.382,0,3.691,1.457,3.691,3.401c0,2.559-1.132,4.718-2.812,4.718c-0.929,0-1.623-0.769-1.401-1.709
		C8.606,8.233,9.122,7.021,9.122,6.21c0-0.727-0.39-1.333-1.196-1.333c-0.95,0-1.711,0.982-1.711,2.297
		c0,0.838,0.283,1.405,0.283,1.405s-0.971,4.114-1.142,4.835c-0.338,1.436-0.049,3.194-0.027,3.372
		c0.016,0.104,0.151,0.131,0.212,0.051c0.088-0.114,1.217-1.51,1.603-2.903c0.109-0.396,0.623-2.439,0.623-2.439
		c0.308,0.589,1.21,1.106,2.169,1.106c2.853,0,4.786-2.601,4.786-6.082C14.723,3.885,12.491,1.434,9.103,1.434z"/>
</g>
</svg>
