<?xml version="1.0" encoding="utf-8"?>
<!-- Generator: Adobe Illustrator 16.0.3, SVG Export Plug-In . SVG Version: 6.00 Build 0)  -->
<!DOCTYPE svg PUBLIC "-//W3C//DTD SVG 1.1//EN" "http://www.w3.org/Graphics/SVG/1.1/DTD/svg11.dtd">
<svg version="1.1" id="Layer_1" xmlns="http://www.w3.org/2000/svg" xmlns:xlink="http://www.w3.org/1999/xlink" x="0px" y="0px"
	 width="28px" height="28px" viewBox="0 0 28 28" enable-background="new 0 0 28 28" xml:space="preserve">
<g>
	<path fill="none" stroke="#424143" stroke-width="0.65" stroke-miterlimit="10" d="M14.337,1.422
		c-6.952,0-10.454,4.983-10.454,9.14c0,2.516,0.951,4.756,2.994,5.59c0.336,0.139,0.636,0.005,0.735-0.367
		c0.066-0.255,0.227-0.902,0.297-1.171c0.099-0.368,0.057-0.499-0.211-0.816c-0.59-0.696-0.966-1.594-0.966-2.869
		c0-3.699,2.765-7.009,7.203-7.009c3.929,0,6.086,2.402,6.086,5.607c0,4.22-1.866,7.778-4.638,7.778
		c-1.53,0-2.674-1.267-2.309-2.816c0.442-1.855,1.293-3.854,1.293-5.191c0-1.199-0.644-2.198-1.973-2.198
		c-1.566,0-2.821,1.619-2.821,3.787c0,1.382,0.467,2.317,0.467,2.317s-1.602,6.783-1.883,7.972
		c-0.557,2.367-0.081,5.266-0.044,5.561c0.026,0.172,0.249,0.216,0.349,0.083c0.145-0.188,2.006-2.489,2.643-4.787
		c0.18-0.651,1.027-4.021,1.027-4.021c0.508,0.972,1.995,1.824,3.575,1.824c4.705,0,7.894-4.289,7.894-10.029
		C23.603,5.463,19.923,1.422,14.337,1.422z"/>
</g>
</svg>
