<?xml version="1.0" encoding="utf-8"?>
<!-- Generator: Adobe Illustrator 18.1.1, SVG Export Plug-In . SVG Version: 6.00 Build 0)  -->
<svg version="1.1" id="Layer_3" xmlns="http://www.w3.org/2000/svg" xmlns:xlink="http://www.w3.org/1999/xlink" x="0px" y="0px"
	 viewBox="0 0 26.3 28.5" enable-background="new 0 0 26.3 28.5" xml:space="preserve">
<g>
	<ellipse fill="none" stroke="#5E3B8D" stroke-width="0.75" stroke-miterlimit="10" cx="14.1" cy="3.1" rx="10.4" ry="2.2"/>
	<path fill="none" stroke="#5E3B8D" stroke-width="0.75" stroke-miterlimit="10" d="M14.1,5.3c-5.4,0-9.8-0.9-10.3-2H3.7v22.5
		c0,0,3.1,1.7,9.8,1.7c8,0,11.1-1.7,11.1-1.7V3.3h-0.1C23.9,4.4,19.5,5.3,14.1,5.3z"/>
	<path fill="none" stroke="#5E3B8D" stroke-width="0.75" stroke-miterlimit="10" d="M5.4,4.2c1.9-0.5,5.4-0.8,8.7-0.8
		c3.4,0,6.9,0.3,8.8,0.9"/>
	<path fill="none" stroke="#5E3B8D" stroke-width="0.75" stroke-miterlimit="10" d="M4.6,2c0,0-3.3,1.2-3.3,6.9
		c0,5.8,5.2,8.8,5.2,8.8"/>
	<path fill="none" stroke="#5E3B8D" stroke-width="0.75" stroke-miterlimit="10" d="M14.1,19c0,0,4.8-0.3,8.2-4.4
		c1.5-1.8,4.8-6,2.4-11.5"/>
	<path fill="none" stroke="#5E3B8D" stroke-width="0.75" stroke-miterlimit="10" d="M14.2,19.2c-0.1,0.7-0.8,1.3-1.6,1.2l-5.2-0.8
		c-0.7-0.1-1.3-0.8-1.2-1.6l0,0c0.1-0.8,0.8-1.3,1.6-1.2l5.2,0.8C13.8,17.7,14.3,18.4,14.2,19.2L14.2,19.2z"/>
	<line fill="none" stroke="#5E3B8D" stroke-width="0.75" stroke-miterlimit="10" x1="5.2" y1="8.2" x2="5.2" y2="12.8"/>
	<line fill="none" stroke="#5E3B8D" stroke-width="0.75" stroke-miterlimit="10" x1="5.2" y1="13.5" x2="5.2" y2="14.9"/>
	<line fill="none" stroke="#5E3B8D" stroke-width="0.75" stroke-miterlimit="10" x1="5.5" y1="21.4" x2="5.5" y2="24"/>
	<path fill="none" stroke="#5E3B8D" stroke-width="0.75" stroke-miterlimit="10" d="M3.7,5.2c0,0,2,0.2,3.1,0.6c1.1,0.5,1.1,2,2.6,2
		c1.5,0,1.8-1.2,3.3-1.1c1.6,0.1,1.6,1.3,1.6,2.5c0,1.8,1.5,2.2,2.2,0.5C17.2,8,16.1,5.6,20.7,7c0.6,0.2,1.4,0.7,2.1-1
		c0.4-1.2,1.7-0.7,1.7-0.7"/>
</g>
</svg>
