<?xml version="1.0" encoding="utf-8"?>
<!-- Generator: Adobe Illustrator 16.0.3, SVG Export Plug-In . SVG Version: 6.00 Build 0)  -->
<!DOCTYPE svg PUBLIC "-//W3C//DTD SVG 1.1//EN" "http://www.w3.org/Graphics/SVG/1.1/DTD/svg11.dtd">
<svg version="1.1" id="Layer_1" xmlns="http://www.w3.org/2000/svg" xmlns:xlink="http://www.w3.org/1999/xlink" x="0px" y="0px"
	 width="165px" height="165px" viewBox="0 0 165 165" enable-background="new 0 0 165 165" xml:space="preserve">
<g>
	<g>
		<g>
			<defs>
				<path id="SVGID_1_" d="M20.424,38.547c0.304-0.814,0.481-1.387,0.502-1.594c0-0.243-0.147-0.639-0.304-1.064l-0.038-0.105
					c-0.059-0.145-0.111-0.293-0.161-0.45c-0.042,0.14-0.093,0.275-0.144,0.403l-0.058,0.156c-0.153,0.421-0.301,0.816-0.304,1.018
					C19.941,37.139,20.12,37.724,20.424,38.547 M27.575,37.212c0.411,0,0.617-0.296,0.617-0.878c0-0.406-0.244-0.729-0.423-0.868
					c-0.062,0.134-0.141,0.356-0.215,0.721l-0.203,1.004C27.426,37.205,27.503,37.212,27.575,37.212 M13.274,37.212
					c0.073,0,0.149-0.007,0.225-0.021l-0.202-1.004c-0.076-0.363-0.157-0.587-0.218-0.718c-0.18,0.137-0.424,0.458-0.424,0.865
					C12.655,36.917,12.863,37.212,13.274,37.212 M35.766,29.578c0.928-1.303,1.62-3.022,1.62-4.667c0-2.418-1.933-4.538-4.135-4.538
					c-3.859,0-5.418,1.214-7.453,3.941c-0.528,0.706-0.919,1.617-1.196,2.536c1.1-1.032,2.663-1.682,4.392-1.682
					C32.52,25.168,34.844,26.709,35.766,29.578 M5.083,29.578c0.921-2.869,3.245-4.41,6.772-4.41c1.729,0,3.292,0.646,4.391,1.682
					c-0.276-0.921-0.667-1.831-1.198-2.539c-2.032-2.724-3.59-3.938-7.449-3.938c-2.203,0-4.135,2.12-4.135,4.538
					C3.463,26.556,4.155,28.275,5.083,29.578 M20.424,27.227c0.569-2.384,1.656-4.644,2.724-6.638
					c0.486-0.92,1.298-2.465,1.298-3.559c0-1.194-0.536-2.68-1.742-4.833c-0.669-1.225-1.498-2.785-2.28-4.389
					c-0.782,1.604-1.613,3.167-2.288,4.403c-1.199,2.139-1.734,3.624-1.734,4.818c0,1.091,0.812,2.636,1.293,3.55
					C18.767,22.582,19.853,24.843,20.424,27.227 M20.424,42.579c-0.907-2.024-2.044-4.84-2.044-5.626
					c0-0.564,0.227-1.125,0.456-1.747c0.34-0.842,0.454-1.967,0.454-3.375h-1.137c-0.226,4.051-2.61,6.922-4.879,6.922
					c-1.362,0-2.158-1.069-2.158-2.418c0-1.296,1.023-2.477,2.101-2.477c0.907,0,1.362,0.899,1.589,2.024
					c1.077-1.125,1.533-2.7,1.533-4.051c-0.853,0-1.589,0.337-2.44,0.844c0-1.463,1.248-2.194,2.44-2.194
					c0-1.914-1.874-3.771-4.484-3.771c-4.143,0-5.676,2.307-5.676,6.022c-2.214-1.296-4.256-4.672-4.256-7.821
					c0-3.154,2.496-6.078,5.675-6.078c4.654,0,6.583,1.743,8.683,4.557c1.646,2.193,2.099,5.739,2.099,7.091h0.91
					c0-3.208-1.477-6.417-2.951-9.172c-0.683-1.297-1.476-2.873-1.476-4.278c0-1.689,0.793-3.546,1.931-5.571
					c1.077-1.971,2.609-4.896,3.631-7.372c1.021,2.476,2.554,5.4,3.631,7.372c1.137,2.025,1.931,3.882,1.931,5.571
					c0,1.406-0.794,2.981-1.477,4.278c-1.476,2.755-2.951,5.963-2.951,9.172h0.908c0-1.352,0.454-4.897,2.1-7.091
					c2.101-2.814,4.03-4.557,8.685-4.557c3.178,0,5.675,2.924,5.675,6.078c0,3.149-2.042,6.525-4.256,7.821
					c0-3.715-1.533-6.022-5.675-6.022c-2.611,0-4.485,1.857-4.485,3.771c1.193,0,2.44,0.731,2.44,2.194
					c-0.85-0.507-1.587-0.844-2.44-0.844c0,1.351,0.456,2.926,1.533,4.051c0.229-1.125,0.683-2.024,1.59-2.024
					c1.079,0,2.101,1.181,2.101,2.477c0,1.35-0.796,2.418-2.158,2.418c-2.271,0-4.654-2.871-4.881-6.922h-1.135
					c0,1.408,0.114,2.533,0.455,3.375c0.228,0.621,0.453,1.183,0.453,1.747C22.467,37.739,21.332,40.555,20.424,42.579
					L20.424,42.579L20.424,42.579z"/>
			</defs>
			<use xlink:href="#SVGID_1_"  overflow="visible" fill="#512E8B"/>
			<clipPath id="SVGID_2_">
				<use xlink:href="#SVGID_1_"  overflow="visible"/>
			</clipPath>
			<g transform="matrix(1 0 0 1 -5.571428e-008 3.086158e-008)" clip-path="url(#SVGID_2_)">
			</g>
		</g>
	</g>
</g>
<g>
	<g>
		<g>
			<defs>
				<path id="SVGID_3_" d="M61.923,38.547c0.305-0.814,0.482-1.387,0.503-1.594c0-0.243-0.147-0.64-0.304-1.064l-0.038-0.105
					c-0.059-0.145-0.111-0.293-0.161-0.449c-0.042,0.141-0.093,0.275-0.144,0.403l-0.058,0.156
					c-0.153,0.421-0.301,0.816-0.304,1.019C61.44,37.139,61.619,37.724,61.923,38.547 M69.073,37.213
					c0.411,0,0.617-0.297,0.617-0.879c0-0.406-0.244-0.729-0.423-0.867c-0.062,0.133-0.142,0.355-0.216,0.721l-0.202,1.004
					C68.925,37.205,69.002,37.213,69.073,37.213 M54.773,37.213c0.073,0,0.149-0.008,0.225-0.021l-0.202-1.004
					c-0.076-0.363-0.157-0.588-0.218-0.719c-0.18,0.138-0.424,0.459-0.424,0.865C54.154,36.916,54.362,37.213,54.773,37.213
					 M77.265,29.578c0.928-1.303,1.62-3.021,1.62-4.668c0-2.418-1.933-4.538-4.135-4.538c-3.859,0-5.418,1.214-7.452,3.941
					c-0.528,0.706-0.92,1.616-1.196,2.536c1.1-1.032,2.663-1.682,4.392-1.682C74.019,25.168,76.343,26.709,77.265,29.578
					 M46.582,29.578c0.921-2.869,3.245-4.41,6.772-4.41c1.729,0,3.292,0.646,4.391,1.682c-0.276-0.921-0.667-1.83-1.198-2.539
					c-2.032-2.724-3.59-3.938-7.449-3.938c-2.203,0-4.135,2.12-4.135,4.538C44.962,26.557,45.654,28.275,46.582,29.578
					 M61.923,27.227c0.569-2.383,1.656-4.643,2.725-6.637c0.485-0.92,1.298-2.465,1.298-3.559c0-1.194-0.536-2.68-1.742-4.833
					c-0.669-1.225-1.497-2.785-2.28-4.389c-0.782,1.604-1.612,3.167-2.287,4.403c-1.199,2.139-1.734,3.624-1.734,4.818
					c0,1.091,0.812,2.636,1.293,3.55C60.266,22.582,61.352,24.844,61.923,27.227 M61.923,42.579
					c-0.907-2.024-2.043-4.841-2.043-5.626c0-0.564,0.227-1.126,0.456-1.747c0.34-0.843,0.454-1.968,0.454-3.376h-1.137
					c-0.226,4.051-2.61,6.922-4.879,6.922c-1.362,0-2.158-1.068-2.158-2.418c0-1.297,1.023-2.477,2.101-2.477
					c0.907,0,1.362,0.898,1.589,2.023c1.077-1.125,1.533-2.699,1.533-4.051c-0.853,0-1.589,0.338-2.44,0.845
					c0-1.464,1.248-2.194,2.44-2.194c0-1.914-1.874-3.771-4.484-3.771c-4.143,0-5.676,2.308-5.676,6.023
					c-2.214-1.297-4.256-4.672-4.256-7.822c0-3.154,2.496-6.078,5.675-6.078c4.654,0,6.583,1.743,8.683,4.557
					c1.646,2.193,2.099,5.739,2.099,7.091h0.91c0-3.209-1.477-6.416-2.951-9.172c-0.683-1.297-1.476-2.873-1.476-4.278
					c0-1.689,0.793-3.546,1.931-5.571c1.077-1.971,2.609-4.896,3.63-7.372c1.021,2.476,2.555,5.4,3.631,7.372
					c1.137,2.025,1.932,3.882,1.932,5.571c0,1.406-0.795,2.981-1.477,4.278c-1.477,2.756-2.951,5.963-2.951,9.172h0.908
					c0-1.352,0.454-4.897,2.1-7.091c2.102-2.814,4.029-4.557,8.685-4.557c3.179,0,5.675,2.923,5.675,6.078
					c0,3.15-2.043,6.525-4.256,7.822c0-3.716-1.533-6.023-5.676-6.023c-2.61,0-4.484,1.857-4.484,3.771
					c1.192,0,2.439,0.73,2.439,2.194c-0.85-0.507-1.587-0.845-2.439-0.845c0,1.352,0.455,2.926,1.532,4.051
					c0.229-1.125,0.683-2.023,1.59-2.023c1.079,0,2.101,1.18,2.101,2.477c0,1.35-0.795,2.418-2.158,2.418
					c-2.271,0-4.653-2.871-4.881-6.922H63.06c0,1.408,0.114,2.533,0.455,3.376c0.228,0.621,0.453,1.183,0.453,1.747
					C63.966,37.738,62.831,40.555,61.923,42.579L61.923,42.579L61.923,42.579z"/>
			</defs>
			<use xlink:href="#SVGID_3_"  overflow="visible" fill="#512E8B"/>
			<clipPath id="SVGID_4_">
				<use xlink:href="#SVGID_3_"  overflow="visible"/>
			</clipPath>
			<g transform="matrix(1 0 0 1 1.112859e-006 3.086158e-008)" clip-path="url(#SVGID_4_)">
			</g>
		</g>
	</g>
</g>
<g>
	<g>
		<g>
			<defs>
				<path id="SVGID_5_" d="M103.461,38.547c0.305-0.814,0.482-1.387,0.503-1.594c0-0.243-0.147-0.64-0.304-1.064l-0.038-0.105
					c-0.06-0.145-0.111-0.293-0.161-0.449c-0.042,0.141-0.093,0.275-0.145,0.403l-0.058,0.156c-0.153,0.421-0.301,0.816-0.304,1.019
					C102.979,37.139,103.157,37.724,103.461,38.547 M110.611,37.213c0.41,0,0.617-0.297,0.617-0.879
					c0-0.406-0.244-0.729-0.424-0.867c-0.062,0.133-0.142,0.355-0.216,0.721l-0.202,1.004
					C110.463,37.205,110.54,37.213,110.611,37.213 M96.311,37.213c0.073,0,0.149-0.008,0.227-0.021l-0.202-1.004
					c-0.076-0.363-0.155-0.588-0.218-0.719c-0.18,0.138-0.424,0.459-0.424,0.865C95.691,36.916,95.9,37.213,96.311,37.213
					 M118.803,29.578c0.928-1.303,1.62-3.021,1.62-4.668c0-2.418-1.933-4.538-4.135-4.538c-3.858,0-5.418,1.214-7.452,3.941
					c-0.527,0.706-0.92,1.616-1.195,2.536c1.1-1.032,2.662-1.682,4.392-1.682C115.557,25.168,117.881,26.709,118.803,29.578
					 M88.119,29.578c0.922-2.869,3.246-4.41,6.773-4.41c1.729,0,3.291,0.646,4.391,1.682c-0.277-0.921-0.668-1.83-1.199-2.539
					c-2.031-2.724-3.59-3.938-7.449-3.938c-2.201,0-4.135,2.12-4.135,4.538C86.5,26.557,87.191,28.275,88.119,29.578
					 M103.461,27.227c0.568-2.383,1.656-4.643,2.725-6.637c0.485-0.92,1.299-2.465,1.299-3.559c0-1.194-0.536-2.68-1.742-4.833
					c-0.669-1.225-1.497-2.785-2.28-4.389c-0.782,1.604-1.612,3.167-2.287,4.403c-1.198,2.139-1.733,3.624-1.733,4.818
					c0,1.091,0.813,2.636,1.293,3.55C101.805,22.582,102.891,24.844,103.461,27.227 M103.461,42.579
					c-0.906-2.024-2.043-4.841-2.043-5.626c0-0.564,0.227-1.126,0.455-1.747c0.34-0.843,0.454-1.968,0.454-3.376h-1.138
					c-0.226,4.051-2.609,6.922-4.879,6.922c-1.361,0-2.158-1.068-2.158-2.418c0-1.297,1.022-2.477,2.102-2.477
					c0.906,0,1.361,0.898,1.59,2.023c1.076-1.125,1.532-2.699,1.532-4.051c-0.853,0-1.589,0.338-2.44,0.845
					c0-1.464,1.248-2.194,2.44-2.194c0-1.914-1.874-3.771-4.483-3.771c-4.144,0-5.676,2.308-5.676,6.023
					c-2.215-1.297-4.256-4.672-4.256-7.822c0-3.154,2.496-6.078,5.674-6.078c4.654,0,6.583,1.743,8.684,4.557
					c1.646,2.193,2.101,5.739,2.101,7.091h0.909c0-3.209-1.477-6.416-2.951-9.172c-0.684-1.297-1.477-2.873-1.477-4.278
					c0-1.689,0.793-3.546,1.931-5.571c1.077-1.971,2.608-4.896,3.631-7.372c1.021,2.476,2.556,5.4,3.631,7.372
					c1.138,2.025,1.933,3.882,1.933,5.571c0,1.406-0.795,2.981-1.478,4.278c-1.478,2.756-2.95,5.963-2.95,9.172h0.907
					c0-1.352,0.454-4.897,2.101-7.091c2.102-2.814,4.028-4.557,8.685-4.557c3.179,0,5.675,2.923,5.675,6.078
					c0,3.15-2.043,6.525-4.256,7.822c0-3.716-1.533-6.023-5.676-6.023c-2.61,0-4.484,1.857-4.484,3.771
					c1.192,0,2.439,0.73,2.439,2.194c-0.85-0.507-1.588-0.845-2.439-0.845c0,1.352,0.455,2.926,1.532,4.051
					c0.229-1.125,0.683-2.023,1.59-2.023c1.079,0,2.101,1.18,2.101,2.477c0,1.35-0.795,2.418-2.158,2.418
					c-2.271,0-4.652-2.871-4.881-6.922h-1.135c0,1.408,0.114,2.533,0.455,3.376c0.229,0.621,0.453,1.183,0.453,1.747
					C105.504,37.738,104.369,40.555,103.461,42.579L103.461,42.579L103.461,42.579z"/>
			</defs>
			<use xlink:href="#SVGID_5_"  overflow="visible" fill="#512E8B"/>
			<clipPath id="SVGID_6_">
				<use xlink:href="#SVGID_5_"  overflow="visible"/>
			</clipPath>
			<g transform="matrix(1 0 0 1 4.216477e-007 3.086158e-008)" clip-path="url(#SVGID_6_)">
			</g>
		</g>
	</g>
</g>
<g>
	<g>
		<g>
			<defs>
				<path id="SVGID_7_" d="M144.498,38.547c0.305-0.814,0.482-1.387,0.503-1.594c0-0.243-0.147-0.64-0.304-1.064l-0.038-0.105
					c-0.06-0.145-0.111-0.293-0.161-0.449c-0.042,0.141-0.093,0.275-0.145,0.403l-0.058,0.156c-0.153,0.421-0.301,0.816-0.304,1.019
					C144.016,37.139,144.193,37.724,144.498,38.547 M151.648,37.213c0.41,0,0.617-0.297,0.617-0.879
					c0-0.406-0.244-0.729-0.424-0.867c-0.063,0.133-0.142,0.355-0.216,0.721l-0.202,1.004
					C151.5,37.205,151.577,37.213,151.648,37.213 M137.348,37.213c0.073,0,0.149-0.008,0.227-0.021l-0.202-1.004
					c-0.076-0.363-0.156-0.588-0.218-0.719c-0.18,0.138-0.424,0.459-0.424,0.865C136.729,36.916,136.938,37.213,137.348,37.213
					 M159.84,29.578c0.928-1.303,1.62-3.021,1.62-4.668c0-2.418-1.933-4.538-4.135-4.538c-3.859,0-5.418,1.214-7.452,3.941
					c-0.527,0.706-0.92,1.616-1.196,2.536c1.101-1.032,2.663-1.682,4.392-1.682C156.594,25.168,158.918,26.709,159.84,29.578
					 M129.156,29.578c0.922-2.869,3.246-4.41,6.773-4.41c1.729,0,3.291,0.646,4.391,1.682c-0.277-0.921-0.668-1.83-1.199-2.539
					c-2.031-2.724-3.59-3.938-7.449-3.938c-2.201,0-4.135,2.12-4.135,4.538C127.537,26.557,128.229,28.275,129.156,29.578
					 M144.498,27.227c0.568-2.383,1.656-4.643,2.725-6.637c0.485-0.92,1.299-2.465,1.299-3.559c0-1.194-0.537-2.68-1.742-4.833
					c-0.67-1.225-1.497-2.785-2.28-4.389c-0.782,1.604-1.612,3.167-2.287,4.403c-1.198,2.139-1.733,3.624-1.733,4.818
					c0,1.091,0.813,2.636,1.293,3.55C142.841,22.582,143.927,24.844,144.498,27.227 M144.498,42.579
					c-0.907-2.024-2.043-4.841-2.043-5.626c0-0.564,0.227-1.126,0.455-1.747c0.34-0.843,0.454-1.968,0.454-3.376h-1.138
					c-0.226,4.051-2.609,6.922-4.879,6.922c-1.361,0-2.158-1.068-2.158-2.418c0-1.297,1.022-2.477,2.102-2.477
					c0.906,0,1.361,0.898,1.59,2.023c1.076-1.125,1.532-2.699,1.532-4.051c-0.853,0-1.589,0.338-2.44,0.845
					c0-1.464,1.248-2.194,2.44-2.194c0-1.914-1.874-3.771-4.483-3.771c-4.144,0-5.676,2.308-5.676,6.023
					c-2.215-1.297-4.256-4.672-4.256-7.822c0-3.154,2.496-6.078,5.674-6.078c4.654,0,6.583,1.743,8.684,4.557
					c1.646,2.193,2.101,5.739,2.101,7.091h0.909c0-3.209-1.477-6.416-2.951-9.172c-0.684-1.297-1.477-2.873-1.477-4.278
					c0-1.689,0.793-3.546,1.931-5.571c1.077-1.971,2.608-4.896,3.631-7.372c1.021,2.476,2.556,5.4,3.631,7.372
					c1.138,2.025,1.933,3.882,1.933,5.571c0,1.406-0.795,2.981-1.478,4.278c-1.478,2.756-2.951,5.963-2.951,9.172h0.908
					c0-1.352,0.454-4.897,2.101-7.091c2.102-2.814,4.028-4.557,8.685-4.557c3.179,0,5.675,2.923,5.675,6.078
					c0,3.15-2.043,6.525-4.256,7.822c0-3.716-1.533-6.023-5.676-6.023c-2.61,0-4.484,1.857-4.484,3.771
					c1.191,0,2.439,0.73,2.439,2.194c-0.851-0.507-1.588-0.845-2.439-0.845c0,1.352,0.455,2.926,1.532,4.051
					c0.229-1.125,0.683-2.023,1.59-2.023c1.079,0,2.101,1.18,2.101,2.477c0,1.35-0.795,2.418-2.158,2.418
					c-2.271,0-4.652-2.871-4.881-6.922h-1.135c0,1.408,0.114,2.533,0.455,3.376c0.229,0.621,0.453,1.183,0.453,1.747
					C146.541,37.738,145.406,40.555,144.498,42.579L144.498,42.579L144.498,42.579z"/>
			</defs>
			<use xlink:href="#SVGID_7_"  overflow="visible" fill="#512E8B"/>
			<clipPath id="SVGID_8_">
				<use xlink:href="#SVGID_7_"  overflow="visible"/>
			</clipPath>
			<g transform="matrix(1 0 0 1 5.031892e-006 3.086158e-008)" clip-path="url(#SVGID_8_)">
			</g>
		</g>
	</g>
</g>
<g>
	<g>
		<g>
			<defs>
				<path id="SVGID_9_" d="M42.424,77.547c0.304-0.814,0.481-1.387,0.502-1.594c0-0.243-0.147-0.64-0.304-1.064l-0.038-0.105
					c-0.059-0.145-0.111-0.293-0.161-0.449c-0.042,0.141-0.093,0.275-0.144,0.403l-0.058,0.156
					c-0.153,0.421-0.301,0.816-0.304,1.019C41.941,76.139,42.12,76.724,42.424,77.547 M49.575,76.213
					c0.411,0,0.617-0.297,0.617-0.879c0-0.406-0.244-0.729-0.423-0.867c-0.062,0.133-0.141,0.355-0.215,0.721l-0.203,1.004
					C49.426,76.205,49.503,76.213,49.575,76.213 M35.274,76.213c0.073,0,0.149-0.008,0.225-0.021l-0.202-1.004
					c-0.076-0.363-0.157-0.588-0.218-0.719c-0.18,0.138-0.424,0.459-0.424,0.865C34.655,75.916,34.863,76.213,35.274,76.213
					 M57.766,68.578c0.928-1.303,1.62-3.021,1.62-4.668c0-2.418-1.933-4.538-4.135-4.538c-3.859,0-5.418,1.214-7.453,3.941
					c-0.528,0.706-0.919,1.616-1.196,2.536c1.1-1.032,2.663-1.682,4.392-1.682C54.52,64.168,56.844,65.709,57.766,68.578
					 M27.083,68.578c0.921-2.869,3.245-4.41,6.772-4.41c1.729,0,3.292,0.646,4.391,1.682c-0.276-0.921-0.667-1.83-1.198-2.539
					c-2.032-2.724-3.59-3.938-7.449-3.938c-2.203,0-4.135,2.12-4.135,4.538C25.463,65.557,26.155,67.275,27.083,68.578
					 M42.424,66.227c0.569-2.383,1.656-4.643,2.724-6.637c0.486-0.92,1.298-2.465,1.298-3.559c0-1.194-0.536-2.68-1.742-4.833
					c-0.669-1.225-1.498-2.785-2.28-4.389c-0.782,1.604-1.613,3.167-2.288,4.403c-1.199,2.139-1.734,3.624-1.734,4.818
					c0,1.091,0.812,2.636,1.293,3.55C40.767,61.582,41.853,63.844,42.424,66.227 M42.424,81.579
					c-0.907-2.024-2.044-4.841-2.044-5.626c0-0.564,0.227-1.126,0.456-1.747c0.34-0.843,0.454-1.968,0.454-3.376h-1.137
					c-0.226,4.051-2.61,6.922-4.879,6.922c-1.362,0-2.158-1.068-2.158-2.418c0-1.297,1.023-2.477,2.101-2.477
					c0.907,0,1.362,0.898,1.589,2.023c1.077-1.125,1.533-2.699,1.533-4.051c-0.853,0-1.589,0.338-2.44,0.845
					c0-1.464,1.248-2.194,2.44-2.194c0-1.914-1.874-3.771-4.484-3.771c-4.143,0-5.676,2.308-5.676,6.023
					c-2.214-1.297-4.256-4.672-4.256-7.822c0-3.154,2.496-6.078,5.675-6.078c4.654,0,6.583,1.743,8.683,4.557
					c1.646,2.193,2.099,5.739,2.099,7.091h0.91c0-3.209-1.477-6.416-2.951-9.172c-0.683-1.297-1.476-2.873-1.476-4.278
					c0-1.689,0.793-3.546,1.931-5.571c1.077-1.971,2.609-4.896,3.631-7.372c1.021,2.476,2.554,5.4,3.631,7.372
					c1.137,2.025,1.931,3.882,1.931,5.571c0,1.406-0.794,2.981-1.477,4.278c-1.476,2.756-2.951,5.963-2.951,9.172h0.908
					c0-1.352,0.454-4.897,2.1-7.091c2.101-2.814,4.03-4.557,8.685-4.557c3.178,0,5.675,2.923,5.675,6.078
					c0,3.15-2.042,6.525-4.256,7.822c0-3.716-1.533-6.023-5.675-6.023c-2.611,0-4.485,1.857-4.485,3.771
					c1.193,0,2.44,0.73,2.44,2.194c-0.85-0.507-1.587-0.845-2.44-0.845c0,1.352,0.456,2.926,1.533,4.051
					c0.229-1.125,0.683-2.023,1.59-2.023c1.079,0,2.101,1.18,2.101,2.477c0,1.35-0.796,2.418-2.158,2.418
					c-2.271,0-4.654-2.871-4.881-6.922h-1.135c0,1.408,0.114,2.533,0.455,3.376c0.228,0.621,0.453,1.183,0.453,1.747
					C44.467,76.738,43.332,79.555,42.424,81.579L42.424,81.579L42.424,81.579z"/>
			</defs>
			<use xlink:href="#SVGID_9_"  overflow="visible" fill="#512E8B"/>
			<clipPath id="SVGID_10_">
				<use xlink:href="#SVGID_9_"  overflow="visible"/>
			</clipPath>
			<g transform="matrix(1 0 0 1 8.068441e-007 5.000484e-007)" clip-path="url(#SVGID_10_)">
			</g>
		</g>
	</g>
</g>
<g>
	<g>
		<g>
			<defs>
				<path id="SVGID_11_" d="M83.923,77.547c0.306-0.814,0.481-1.387,0.503-1.594c0-0.243-0.146-0.64-0.304-1.064l-0.038-0.105
					c-0.059-0.145-0.111-0.293-0.161-0.449c-0.042,0.141-0.093,0.275-0.144,0.403l-0.059,0.156
					c-0.152,0.421-0.301,0.816-0.304,1.019C83.439,76.139,83.619,76.724,83.923,77.547 M91.073,76.213
					c0.411,0,0.616-0.297,0.616-0.879c0-0.406-0.244-0.729-0.422-0.867c-0.063,0.133-0.143,0.355-0.217,0.721l-0.201,1.004
					C90.925,76.205,91.002,76.213,91.073,76.213 M76.773,76.213c0.073,0,0.149-0.008,0.225-0.021l-0.202-1.004
					c-0.076-0.363-0.157-0.588-0.218-0.719c-0.18,0.138-0.424,0.459-0.424,0.865C76.154,75.916,76.362,76.213,76.773,76.213
					 M99.266,68.578c0.928-1.303,1.619-3.021,1.619-4.668c0-2.418-1.933-4.538-4.135-4.538c-3.859,0-5.418,1.214-7.452,3.941
					c-0.528,0.706-0.92,1.616-1.196,2.536c1.101-1.032,2.664-1.682,4.393-1.682C96.02,64.168,98.343,65.709,99.266,68.578
					 M68.582,68.578c0.921-2.869,3.245-4.41,6.772-4.41c1.729,0,3.292,0.646,4.391,1.682c-0.276-0.921-0.667-1.83-1.198-2.539
					c-2.032-2.724-3.59-3.938-7.449-3.938c-2.203,0-4.135,2.12-4.135,4.538C66.962,65.557,67.654,67.275,68.582,68.578
					 M83.923,66.227c0.569-2.383,1.656-4.643,2.726-6.637c0.484-0.92,1.297-2.465,1.297-3.559c0-1.194-0.535-2.68-1.741-4.833
					c-0.669-1.225-1.497-2.785-2.28-4.389c-0.781,1.604-1.612,3.167-2.287,4.403c-1.199,2.139-1.734,3.624-1.734,4.818
					c0,1.091,0.812,2.636,1.293,3.55C82.266,61.582,83.352,63.844,83.923,66.227 M83.923,81.579
					c-0.907-2.024-2.043-4.841-2.043-5.626c0-0.564,0.227-1.126,0.456-1.747c0.34-0.843,0.454-1.968,0.454-3.376h-1.137
					c-0.226,4.051-2.61,6.922-4.879,6.922c-1.362,0-2.158-1.068-2.158-2.418c0-1.297,1.023-2.477,2.101-2.477
					c0.907,0,1.362,0.898,1.589,2.023c1.077-1.125,1.533-2.699,1.533-4.051c-0.853,0-1.589,0.338-2.44,0.845
					c0-1.464,1.248-2.194,2.44-2.194c0-1.914-1.874-3.771-4.484-3.771c-4.143,0-5.676,2.308-5.676,6.023
					c-2.214-1.297-4.256-4.672-4.256-7.822c0-3.154,2.496-6.078,5.675-6.078c4.654,0,6.583,1.743,8.683,4.557
					c1.646,2.193,2.099,5.739,2.099,7.091h0.91c0-3.209-1.477-6.416-2.951-9.172c-0.683-1.297-1.476-2.873-1.476-4.278
					c0-1.689,0.793-3.546,1.931-5.571c1.077-1.971,2.609-4.896,3.63-7.372c1.021,2.476,2.555,5.4,3.631,7.372
					c1.137,2.025,1.932,3.882,1.932,5.571c0,1.406-0.795,2.981-1.477,4.278c-1.477,2.756-2.951,5.963-2.951,9.172h0.908
					c0-1.352,0.454-4.897,2.1-7.091c2.103-2.814,4.029-4.557,8.686-4.557c3.18,0,5.675,2.923,5.675,6.078
					c0,3.15-2.043,6.525-4.256,7.822c0-3.716-1.532-6.023-5.676-6.023c-2.61,0-4.484,1.857-4.484,3.771
					c1.192,0,2.439,0.73,2.439,2.194c-0.851-0.507-1.587-0.845-2.439-0.845c0,1.352,0.455,2.926,1.532,4.051
					c0.229-1.125,0.684-2.023,1.59-2.023c1.079,0,2.102,1.18,2.102,2.477c0,1.35-0.795,2.418-2.158,2.418
					c-2.271,0-4.653-2.871-4.881-6.922h-1.135c0,1.408,0.113,2.533,0.455,3.376c0.228,0.621,0.452,1.183,0.452,1.747
					C85.966,76.738,84.831,79.555,83.923,81.579L83.923,81.579L83.923,81.579z"/>
			</defs>
			<use xlink:href="#SVGID_11_"  overflow="visible" fill="#512E8B"/>
			<clipPath id="SVGID_12_">
				<use xlink:href="#SVGID_11_"  overflow="visible"/>
			</clipPath>
			<g transform="matrix(1 0 0 1 1.975417e-006 5.000484e-007)" clip-path="url(#SVGID_12_)">
			</g>
		</g>
	</g>
</g>
<g>
	<g>
		<g>
			<defs>
				<path id="SVGID_13_" d="M125.461,77.547c0.305-0.814,0.482-1.387,0.503-1.594c0-0.243-0.147-0.64-0.304-1.064l-0.038-0.105
					c-0.06-0.145-0.111-0.293-0.161-0.449c-0.042,0.141-0.093,0.275-0.145,0.403l-0.058,0.156c-0.153,0.421-0.301,0.816-0.304,1.019
					C124.979,76.139,125.157,76.724,125.461,77.547 M132.611,76.213c0.41,0,0.617-0.297,0.617-0.879
					c0-0.406-0.244-0.729-0.424-0.867c-0.062,0.133-0.142,0.355-0.216,0.721l-0.202,1.004
					C132.463,76.205,132.54,76.213,132.611,76.213 M118.311,76.213c0.073,0,0.149-0.008,0.227-0.021l-0.202-1.004
					c-0.076-0.363-0.155-0.588-0.218-0.719c-0.18,0.138-0.424,0.459-0.424,0.865C117.691,75.916,117.9,76.213,118.311,76.213
					 M140.803,68.578c0.928-1.303,1.62-3.021,1.62-4.668c0-2.418-1.933-4.538-4.135-4.538c-3.858,0-5.418,1.214-7.452,3.941
					c-0.527,0.706-0.92,1.616-1.195,2.536c1.1-1.032,2.662-1.682,4.392-1.682C137.557,64.168,139.881,65.709,140.803,68.578
					 M110.119,68.578c0.922-2.869,3.246-4.41,6.773-4.41c1.729,0,3.291,0.646,4.391,1.682c-0.277-0.921-0.668-1.83-1.199-2.539
					c-2.031-2.724-3.59-3.938-7.449-3.938c-2.201,0-4.135,2.12-4.135,4.538C108.5,65.557,109.191,67.275,110.119,68.578
					 M125.461,66.227c0.568-2.383,1.656-4.643,2.725-6.637c0.485-0.92,1.299-2.465,1.299-3.559c0-1.194-0.536-2.68-1.742-4.833
					c-0.669-1.225-1.497-2.785-2.28-4.389c-0.782,1.604-1.612,3.167-2.287,4.403c-1.198,2.139-1.733,3.624-1.733,4.818
					c0,1.091,0.813,2.636,1.293,3.55C123.805,61.582,124.891,63.844,125.461,66.227 M125.461,81.579
					c-0.906-2.024-2.043-4.841-2.043-5.626c0-0.564,0.227-1.126,0.455-1.747c0.34-0.843,0.454-1.968,0.454-3.376h-1.138
					c-0.226,4.051-2.609,6.922-4.879,6.922c-1.361,0-2.158-1.068-2.158-2.418c0-1.297,1.022-2.477,2.102-2.477
					c0.906,0,1.361,0.898,1.59,2.023c1.076-1.125,1.532-2.699,1.532-4.051c-0.853,0-1.589,0.338-2.44,0.845
					c0-1.464,1.248-2.194,2.44-2.194c0-1.914-1.874-3.771-4.483-3.771c-4.144,0-5.676,2.308-5.676,6.023
					c-2.215-1.297-4.256-4.672-4.256-7.822c0-3.154,2.496-6.078,5.674-6.078c4.654,0,6.583,1.743,8.684,4.557
					c1.646,2.193,2.101,5.739,2.101,7.091h0.909c0-3.209-1.477-6.416-2.951-9.172c-0.684-1.297-1.477-2.873-1.477-4.278
					c0-1.689,0.793-3.546,1.931-5.571c1.077-1.971,2.608-4.896,3.631-7.372c1.021,2.476,2.556,5.4,3.631,7.372
					c1.138,2.025,1.933,3.882,1.933,5.571c0,1.406-0.795,2.981-1.478,4.278c-1.478,2.756-2.95,5.963-2.95,9.172h0.907
					c0-1.352,0.454-4.897,2.101-7.091c2.102-2.814,4.028-4.557,8.685-4.557c3.179,0,5.675,2.923,5.675,6.078
					c0,3.15-2.043,6.525-4.256,7.822c0-3.716-1.533-6.023-5.676-6.023c-2.61,0-4.484,1.857-4.484,3.771
					c1.192,0,2.439,0.73,2.439,2.194c-0.85-0.507-1.588-0.845-2.439-0.845c0,1.352,0.455,2.926,1.532,4.051
					c0.229-1.125,0.683-2.023,1.59-2.023c1.079,0,2.101,1.18,2.101,2.477c0,1.35-0.795,2.418-2.157,2.418
					c-2.271,0-4.653-2.871-4.882-6.922h-1.135c0,1.408,0.114,2.533,0.455,3.376c0.229,0.621,0.453,1.183,0.453,1.747
					C127.504,76.738,126.369,79.555,125.461,81.579L125.461,81.579L125.461,81.579z"/>
			</defs>
			<use xlink:href="#SVGID_13_"  overflow="visible" fill="#512E8B"/>
			<clipPath id="SVGID_14_">
				<use xlink:href="#SVGID_13_"  overflow="visible"/>
			</clipPath>
			<g transform="matrix(1 0 0 1 7.159524e-006 5.000484e-007)" clip-path="url(#SVGID_14_)">
			</g>
		</g>
	</g>
</g>
<g>
	<g>
		<g>
			<defs>
				<path id="SVGID_15_" d="M20.424,116.547c0.304-0.814,0.481-1.387,0.502-1.594c0-0.243-0.147-0.641-0.304-1.064l-0.038-0.104
					c-0.059-0.146-0.111-0.293-0.161-0.449c-0.042,0.142-0.093,0.274-0.144,0.403l-0.058,0.156c-0.153,0.42-0.301,0.815-0.304,1.019
					C19.941,115.139,20.12,115.725,20.424,116.547 M27.575,115.213c0.411,0,0.617-0.297,0.617-0.879
					c0-0.406-0.244-0.729-0.423-0.867c-0.062,0.133-0.141,0.355-0.215,0.721l-0.203,1.004
					C27.426,115.205,27.503,115.213,27.575,115.213 M13.274,115.213c0.073,0,0.149-0.008,0.225-0.021l-0.202-1.004
					c-0.076-0.362-0.157-0.588-0.218-0.719c-0.18,0.139-0.424,0.459-0.424,0.865C12.655,114.916,12.863,115.213,13.274,115.213
					 M35.766,107.578c0.928-1.303,1.62-3.021,1.62-4.668c0-2.418-1.933-4.537-4.135-4.537c-3.859,0-5.418,1.214-7.453,3.939
					c-0.528,0.707-0.919,1.617-1.196,2.537c1.1-1.033,2.663-1.683,4.392-1.683C32.52,103.168,34.844,104.709,35.766,107.578
					 M5.083,107.578c0.921-2.869,3.245-4.41,6.772-4.41c1.729,0,3.292,0.646,4.391,1.682c-0.276-0.92-0.667-1.83-1.198-2.539
					c-2.032-2.724-3.59-3.938-7.449-3.938c-2.203,0-4.135,2.119-4.135,4.537C3.463,104.557,4.155,106.275,5.083,107.578
					 M20.424,105.227c0.569-2.383,1.656-4.643,2.724-6.637c0.486-0.921,1.298-2.466,1.298-3.561c0-1.193-0.536-2.68-1.742-4.832
					c-0.669-1.225-1.498-2.785-2.28-4.389c-0.782,1.604-1.613,3.166-2.288,4.402c-1.199,2.139-1.734,3.624-1.734,4.818
					c0,1.091,0.812,2.636,1.293,3.55C18.767,100.582,19.853,102.844,20.424,105.227 M20.424,120.579
					c-0.907-2.024-2.044-4.841-2.044-5.626c0-0.564,0.227-1.126,0.456-1.747c0.34-0.843,0.454-1.968,0.454-3.376h-1.137
					c-0.226,4.051-2.61,6.922-4.879,6.922c-1.362,0-2.158-1.068-2.158-2.418c0-1.297,1.023-2.477,2.101-2.477
					c0.907,0,1.362,0.897,1.589,2.022c1.077-1.125,1.533-2.698,1.533-4.051c-0.853,0-1.589,0.338-2.44,0.845
					c0-1.464,1.248-2.193,2.44-2.193c0-1.914-1.874-3.771-4.484-3.771c-4.143,0-5.676,2.309-5.676,6.023
					c-2.214-1.297-4.256-4.672-4.256-7.822c0-3.154,2.496-6.078,5.675-6.078c4.654,0,6.583,1.744,8.683,4.559
					c1.646,2.192,2.099,5.738,2.099,7.09h0.91c0-3.209-1.477-6.416-2.951-9.172c-0.683-1.297-1.476-2.873-1.476-4.277
					c0-1.689,0.793-3.547,1.931-5.571c1.077-1.972,2.609-4.896,3.631-7.372c1.021,2.475,2.554,5.4,3.631,7.372
					c1.137,2.024,1.931,3.882,1.931,5.571c0,1.404-0.794,2.98-1.477,4.277c-1.476,2.756-2.951,5.963-2.951,9.172h0.908
					c0-1.352,0.454-4.896,2.1-7.09c2.101-2.813,4.03-4.559,8.685-4.559c3.178,0,5.675,2.924,5.675,6.078
					c0,3.15-2.042,6.525-4.256,7.822c0-3.717-1.533-6.023-5.675-6.023c-2.611,0-4.485,1.857-4.485,3.771
					c1.193,0,2.44,0.729,2.44,2.193c-0.85-0.507-1.587-0.845-2.44-0.845c0,1.353,0.456,2.926,1.533,4.051
					c0.229-1.125,0.683-2.022,1.59-2.022c1.079,0,2.101,1.18,2.101,2.477c0,1.35-0.796,2.418-2.158,2.418
					c-2.271,0-4.654-2.871-4.881-6.922h-1.135c0,1.408,0.114,2.533,0.455,3.376c0.228,0.621,0.453,1.183,0.453,1.747
					C22.467,115.738,21.332,118.555,20.424,120.579L20.424,120.579L20.424,120.579z"/>
			</defs>
			<use xlink:href="#SVGID_15_"  overflow="visible" fill="#512E8B"/>
			<clipPath id="SVGID_16_">
				<use xlink:href="#SVGID_15_"  overflow="visible"/>
			</clipPath>
			<g transform="matrix(1 0 0 1 -5.571428e-008 3.631489e-006)" clip-path="url(#SVGID_16_)">
			</g>
		</g>
	</g>
</g>
<g>
	<g>
		<g>
			<defs>
				<path id="SVGID_17_" d="M61.923,116.547c0.305-0.814,0.482-1.387,0.503-1.594c0-0.243-0.147-0.641-0.304-1.064l-0.038-0.104
					c-0.059-0.146-0.111-0.293-0.161-0.449c-0.042,0.142-0.093,0.274-0.144,0.403l-0.058,0.156c-0.153,0.42-0.301,0.815-0.304,1.019
					C61.44,115.139,61.619,115.725,61.923,116.547 M69.073,115.213c0.411,0,0.617-0.297,0.617-0.879
					c0-0.406-0.244-0.729-0.423-0.867c-0.062,0.133-0.142,0.355-0.216,0.721l-0.202,1.004
					C68.925,115.205,69.002,115.213,69.073,115.213 M54.773,115.213c0.073,0,0.149-0.008,0.225-0.021l-0.202-1.004
					c-0.076-0.362-0.157-0.588-0.218-0.719c-0.18,0.139-0.424,0.459-0.424,0.865C54.154,114.916,54.362,115.213,54.773,115.213
					 M77.265,107.578c0.928-1.303,1.62-3.021,1.62-4.668c0-2.418-1.933-4.537-4.135-4.537c-3.859,0-5.418,1.214-7.452,3.939
					c-0.528,0.707-0.92,1.617-1.196,2.537c1.1-1.033,2.663-1.683,4.392-1.683C74.019,103.168,76.343,104.709,77.265,107.578
					 M46.582,107.578c0.921-2.869,3.245-4.41,6.772-4.41c1.729,0,3.292,0.646,4.391,1.682c-0.276-0.92-0.667-1.83-1.198-2.539
					c-2.032-2.724-3.59-3.938-7.449-3.938c-2.203,0-4.135,2.119-4.135,4.537C44.962,104.557,45.654,106.275,46.582,107.578
					 M61.923,105.227c0.569-2.383,1.656-4.643,2.725-6.637c0.485-0.921,1.298-2.466,1.298-3.561c0-1.193-0.536-2.68-1.742-4.832
					c-0.669-1.225-1.497-2.785-2.28-4.389c-0.782,1.604-1.612,3.166-2.287,4.402c-1.199,2.139-1.734,3.624-1.734,4.818
					c0,1.091,0.812,2.636,1.293,3.55C60.266,100.582,61.352,102.844,61.923,105.227 M61.923,120.579
					c-0.907-2.024-2.043-4.841-2.043-5.626c0-0.564,0.227-1.126,0.456-1.747c0.34-0.843,0.454-1.968,0.454-3.376h-1.137
					c-0.226,4.051-2.61,6.922-4.879,6.922c-1.362,0-2.158-1.068-2.158-2.418c0-1.297,1.023-2.477,2.101-2.477
					c0.907,0,1.362,0.897,1.589,2.022c1.077-1.125,1.533-2.698,1.533-4.051c-0.853,0-1.589,0.338-2.44,0.845
					c0-1.464,1.248-2.193,2.44-2.193c0-1.914-1.874-3.771-4.484-3.771c-4.143,0-5.676,2.309-5.676,6.023
					c-2.214-1.297-4.256-4.672-4.256-7.822c0-3.154,2.496-6.078,5.675-6.078c4.654,0,6.583,1.744,8.683,4.559
					c1.646,2.192,2.099,5.738,2.099,7.09h0.91c0-3.209-1.477-6.416-2.951-9.172c-0.683-1.297-1.476-2.873-1.476-4.277
					c0-1.689,0.793-3.547,1.931-5.571c1.077-1.972,2.609-4.896,3.63-7.372c1.021,2.475,2.555,5.4,3.631,7.372
					c1.137,2.024,1.932,3.882,1.932,5.571c0,1.404-0.795,2.98-1.477,4.277c-1.477,2.756-2.951,5.963-2.951,9.172h0.908
					c0-1.352,0.454-4.896,2.1-7.09c2.102-2.813,4.029-4.559,8.685-4.559c3.179,0,5.675,2.924,5.675,6.078
					c0,3.15-2.043,6.525-4.256,7.822c0-3.717-1.533-6.023-5.676-6.023c-2.61,0-4.484,1.857-4.484,3.771
					c1.192,0,2.439,0.729,2.439,2.193c-0.85-0.507-1.587-0.845-2.439-0.845c0,1.353,0.455,2.926,1.532,4.051
					c0.229-1.125,0.683-2.022,1.59-2.022c1.079,0,2.101,1.18,2.101,2.477c0,1.35-0.795,2.418-2.158,2.418
					c-2.271,0-4.653-2.871-4.881-6.922H63.06c0,1.408,0.114,2.533,0.455,3.376c0.228,0.621,0.453,1.183,0.453,1.747
					C63.966,115.738,62.831,118.555,61.923,120.579L61.923,120.579L61.923,120.579z"/>
			</defs>
			<use xlink:href="#SVGID_17_"  overflow="visible" fill="#512E8B"/>
			<clipPath id="SVGID_18_">
				<use xlink:href="#SVGID_17_"  overflow="visible"/>
			</clipPath>
			<g transform="matrix(1 0 0 1 1.112859e-006 3.631489e-006)" clip-path="url(#SVGID_18_)">
			</g>
		</g>
	</g>
</g>
<g>
	<g>
		<g>
			<defs>
				<path id="SVGID_19_" d="M103.461,116.547c0.305-0.814,0.482-1.387,0.503-1.594c0-0.243-0.147-0.641-0.304-1.064l-0.038-0.104
					c-0.06-0.146-0.111-0.293-0.161-0.449c-0.042,0.142-0.093,0.274-0.145,0.403l-0.058,0.156c-0.153,0.42-0.301,0.815-0.304,1.019
					C102.979,115.139,103.157,115.725,103.461,116.547 M110.611,115.213c0.41,0,0.617-0.297,0.617-0.879
					c0-0.406-0.244-0.729-0.424-0.867c-0.062,0.133-0.142,0.355-0.216,0.721l-0.202,1.004
					C110.463,115.205,110.54,115.213,110.611,115.213 M96.311,115.213c0.073,0,0.149-0.008,0.227-0.021l-0.202-1.004
					c-0.076-0.362-0.155-0.588-0.218-0.719c-0.18,0.139-0.424,0.459-0.424,0.865C95.691,114.916,95.9,115.213,96.311,115.213
					 M118.803,107.578c0.928-1.303,1.62-3.021,1.62-4.668c0-2.418-1.933-4.537-4.135-4.537c-3.858,0-5.418,1.214-7.452,3.939
					c-0.527,0.707-0.92,1.617-1.195,2.537c1.1-1.033,2.662-1.683,4.392-1.683C115.557,103.168,117.881,104.709,118.803,107.578
					 M88.119,107.578c0.922-2.869,3.246-4.41,6.773-4.41c1.729,0,3.291,0.646,4.391,1.682c-0.277-0.92-0.668-1.83-1.199-2.539
					c-2.031-2.724-3.59-3.938-7.449-3.938c-2.201,0-4.135,2.119-4.135,4.537C86.5,104.557,87.191,106.275,88.119,107.578
					 M103.461,105.227c0.568-2.383,1.656-4.643,2.725-6.637c0.485-0.921,1.299-2.466,1.299-3.561c0-1.193-0.536-2.68-1.742-4.832
					c-0.669-1.225-1.497-2.785-2.28-4.389c-0.782,1.604-1.612,3.166-2.287,4.402c-1.198,2.139-1.733,3.624-1.733,4.818
					c0,1.091,0.813,2.636,1.293,3.55C101.805,100.582,102.891,102.844,103.461,105.227 M103.461,120.579
					c-0.906-2.024-2.043-4.841-2.043-5.626c0-0.564,0.227-1.126,0.455-1.747c0.34-0.843,0.454-1.968,0.454-3.376h-1.138
					c-0.226,4.051-2.609,6.922-4.879,6.922c-1.361,0-2.158-1.068-2.158-2.418c0-1.297,1.022-2.477,2.102-2.477
					c0.906,0,1.361,0.897,1.59,2.022c1.076-1.125,1.532-2.698,1.532-4.051c-0.853,0-1.589,0.338-2.44,0.845
					c0-1.464,1.248-2.193,2.44-2.193c0-1.914-1.874-3.771-4.483-3.771c-4.144,0-5.676,2.309-5.676,6.023
					c-2.215-1.297-4.256-4.672-4.256-7.822c0-3.154,2.496-6.078,5.674-6.078c4.654,0,6.583,1.744,8.684,4.559
					c1.646,2.192,2.101,5.738,2.101,7.09h0.909c0-3.209-1.477-6.416-2.951-9.172c-0.684-1.297-1.477-2.873-1.477-4.277
					c0-1.689,0.793-3.547,1.931-5.571c1.077-1.972,2.608-4.896,3.631-7.372c1.021,2.475,2.556,5.4,3.631,7.372
					c1.138,2.024,1.933,3.882,1.933,5.571c0,1.404-0.795,2.98-1.478,4.277c-1.478,2.756-2.95,5.963-2.95,9.172h0.907
					c0-1.352,0.454-4.896,2.101-7.09c2.102-2.813,4.028-4.559,8.685-4.559c3.179,0,5.675,2.924,5.675,6.078
					c0,3.15-2.043,6.525-4.256,7.822c0-3.717-1.533-6.023-5.676-6.023c-2.61,0-4.484,1.857-4.484,3.771
					c1.192,0,2.439,0.729,2.439,2.193c-0.85-0.507-1.588-0.845-2.439-0.845c0,1.353,0.455,2.926,1.532,4.051
					c0.229-1.125,0.683-2.022,1.59-2.022c1.079,0,2.101,1.18,2.101,2.477c0,1.35-0.795,2.418-2.158,2.418
					c-2.271,0-4.652-2.871-4.881-6.922h-1.135c0,1.408,0.114,2.533,0.455,3.376c0.229,0.621,0.453,1.183,0.453,1.747
					C105.504,115.738,104.369,118.555,103.461,120.579L103.461,120.579L103.461,120.579z"/>
			</defs>
			<use xlink:href="#SVGID_19_"  overflow="visible" fill="#512E8B"/>
			<clipPath id="SVGID_20_">
				<use xlink:href="#SVGID_19_"  overflow="visible"/>
			</clipPath>
			<g transform="matrix(1 0 0 1 4.216477e-007 3.631489e-006)" clip-path="url(#SVGID_20_)">
			</g>
		</g>
	</g>
</g>
<g>
	<g>
		<g>
			<defs>
				<path id="SVGID_21_" d="M144.498,116.547c0.305-0.814,0.482-1.387,0.503-1.594c0-0.243-0.147-0.641-0.304-1.064l-0.038-0.104
					c-0.06-0.146-0.111-0.293-0.161-0.449c-0.042,0.142-0.093,0.274-0.145,0.403l-0.058,0.156c-0.153,0.42-0.301,0.815-0.304,1.019
					C144.016,115.139,144.193,115.725,144.498,116.547 M151.648,115.213c0.41,0,0.617-0.297,0.617-0.879
					c0-0.406-0.244-0.729-0.424-0.867c-0.063,0.133-0.142,0.355-0.216,0.721l-0.202,1.004
					C151.5,115.205,151.577,115.213,151.648,115.213 M137.348,115.213c0.073,0,0.149-0.008,0.227-0.021l-0.202-1.004
					c-0.076-0.362-0.156-0.588-0.218-0.719c-0.18,0.139-0.424,0.459-0.424,0.865C136.729,114.916,136.938,115.213,137.348,115.213
					 M159.84,107.578c0.928-1.303,1.62-3.021,1.62-4.668c0-2.418-1.933-4.537-4.135-4.537c-3.859,0-5.418,1.214-7.452,3.939
					c-0.527,0.707-0.92,1.617-1.196,2.537c1.101-1.033,2.663-1.683,4.392-1.683C156.594,103.168,158.918,104.709,159.84,107.578
					 M129.156,107.578c0.922-2.869,3.246-4.41,6.773-4.41c1.729,0,3.291,0.646,4.391,1.682c-0.277-0.92-0.668-1.83-1.199-2.539
					c-2.031-2.724-3.59-3.938-7.449-3.938c-2.201,0-4.135,2.119-4.135,4.537C127.537,104.557,128.229,106.275,129.156,107.578
					 M144.498,105.227c0.568-2.383,1.656-4.643,2.725-6.637c0.485-0.921,1.299-2.466,1.299-3.561c0-1.193-0.537-2.68-1.742-4.832
					c-0.67-1.225-1.497-2.785-2.28-4.389c-0.782,1.604-1.612,3.166-2.287,4.402c-1.198,2.139-1.733,3.624-1.733,4.818
					c0,1.091,0.813,2.636,1.293,3.55C142.841,100.582,143.927,102.844,144.498,105.227 M144.498,120.579
					c-0.907-2.024-2.043-4.841-2.043-5.626c0-0.564,0.227-1.126,0.455-1.747c0.34-0.843,0.454-1.968,0.454-3.376h-1.138
					c-0.226,4.051-2.609,6.922-4.879,6.922c-1.361,0-2.158-1.068-2.158-2.418c0-1.297,1.022-2.477,2.102-2.477
					c0.906,0,1.361,0.897,1.59,2.022c1.076-1.125,1.532-2.698,1.532-4.051c-0.853,0-1.589,0.338-2.44,0.845
					c0-1.464,1.248-2.193,2.44-2.193c0-1.914-1.874-3.771-4.483-3.771c-4.144,0-5.676,2.309-5.676,6.023
					c-2.215-1.297-4.256-4.672-4.256-7.822c0-3.154,2.496-6.078,5.674-6.078c4.654,0,6.583,1.744,8.684,4.559
					c1.646,2.192,2.101,5.738,2.101,7.09h0.909c0-3.209-1.477-6.416-2.951-9.172c-0.684-1.297-1.477-2.873-1.477-4.277
					c0-1.689,0.793-3.547,1.931-5.571c1.077-1.972,2.608-4.896,3.631-7.372c1.021,2.475,2.556,5.4,3.631,7.372
					c1.138,2.024,1.933,3.882,1.933,5.571c0,1.404-0.795,2.98-1.478,4.277c-1.478,2.756-2.951,5.963-2.951,9.172h0.908
					c0-1.352,0.454-4.896,2.101-7.09c2.102-2.813,4.028-4.559,8.685-4.559c3.179,0,5.675,2.924,5.675,6.078
					c0,3.15-2.043,6.525-4.256,7.822c0-3.717-1.533-6.023-5.676-6.023c-2.61,0-4.484,1.857-4.484,3.771
					c1.191,0,2.439,0.729,2.439,2.193c-0.851-0.507-1.588-0.845-2.439-0.845c0,1.353,0.455,2.926,1.532,4.051
					c0.229-1.125,0.683-2.022,1.59-2.022c1.079,0,2.101,1.18,2.101,2.477c0,1.35-0.795,2.418-2.158,2.418
					c-2.271,0-4.652-2.871-4.881-6.922h-1.135c0,1.408,0.114,2.533,0.455,3.376c0.229,0.621,0.453,1.183,0.453,1.747
					C146.541,115.738,145.406,118.555,144.498,120.579L144.498,120.579L144.498,120.579z"/>
			</defs>
			<use xlink:href="#SVGID_21_"  overflow="visible" fill="#512E8B"/>
			<clipPath id="SVGID_22_">
				<use xlink:href="#SVGID_21_"  overflow="visible"/>
			</clipPath>
			<g transform="matrix(1 0 0 1 5.031892e-006 3.631489e-006)" clip-path="url(#SVGID_22_)">
			</g>
		</g>
	</g>
</g>
<g>
	<g>
		<g>
			<defs>
				<path id="SVGID_23_" d="M42.424,155.547c0.304-0.814,0.481-1.387,0.502-1.594c0-0.243-0.147-0.641-0.304-1.064l-0.038-0.104
					c-0.059-0.146-0.111-0.293-0.161-0.449c-0.042,0.142-0.093,0.274-0.144,0.403l-0.058,0.156c-0.153,0.42-0.301,0.815-0.304,1.019
					C41.941,154.139,42.12,154.725,42.424,155.547 M49.575,154.213c0.411,0,0.617-0.297,0.617-0.879
					c0-0.406-0.244-0.729-0.423-0.867c-0.062,0.133-0.141,0.355-0.215,0.721l-0.203,1.004
					C49.426,154.205,49.503,154.213,49.575,154.213 M35.274,154.213c0.073,0,0.149-0.008,0.225-0.021l-0.202-1.004
					c-0.076-0.362-0.157-0.588-0.218-0.719c-0.18,0.139-0.424,0.459-0.424,0.865C34.655,153.916,34.863,154.213,35.274,154.213
					 M57.766,146.578c0.928-1.303,1.62-3.021,1.62-4.668c0-2.418-1.933-4.537-4.135-4.537c-3.859,0-5.418,1.214-7.453,3.939
					c-0.528,0.707-0.919,1.617-1.196,2.537c1.1-1.033,2.663-1.683,4.392-1.683C54.52,142.168,56.844,143.709,57.766,146.578
					 M27.083,146.578c0.921-2.869,3.245-4.41,6.772-4.41c1.729,0,3.292,0.646,4.391,1.682c-0.276-0.92-0.667-1.83-1.198-2.539
					c-2.032-2.724-3.59-3.938-7.449-3.938c-2.203,0-4.135,2.119-4.135,4.537C25.463,143.557,26.155,145.275,27.083,146.578
					 M42.424,144.227c0.569-2.383,1.656-4.643,2.724-6.637c0.486-0.921,1.298-2.466,1.298-3.561c0-1.193-0.536-2.68-1.742-4.832
					c-0.669-1.225-1.498-2.785-2.28-4.389c-0.782,1.604-1.613,3.166-2.288,4.402c-1.199,2.139-1.734,3.624-1.734,4.818
					c0,1.091,0.812,2.636,1.293,3.55C40.767,139.582,41.853,141.844,42.424,144.227 M42.424,159.579
					c-0.907-2.024-2.044-4.841-2.044-5.626c0-0.564,0.227-1.126,0.456-1.747c0.34-0.843,0.454-1.968,0.454-3.376h-1.137
					c-0.226,4.051-2.61,6.922-4.879,6.922c-1.362,0-2.158-1.068-2.158-2.418c0-1.297,1.023-2.477,2.101-2.477
					c0.907,0,1.362,0.897,1.589,2.022c1.077-1.125,1.533-2.698,1.533-4.051c-0.853,0-1.589,0.338-2.44,0.845
					c0-1.464,1.248-2.193,2.44-2.193c0-1.914-1.874-3.771-4.484-3.771c-4.143,0-5.676,2.309-5.676,6.023
					c-2.214-1.297-4.256-4.672-4.256-7.822c0-3.154,2.496-6.078,5.675-6.078c4.654,0,6.583,1.744,8.683,4.559
					c1.646,2.192,2.099,5.738,2.099,7.09h0.91c0-3.209-1.477-6.416-2.951-9.172c-0.683-1.297-1.476-2.873-1.476-4.277
					c0-1.689,0.793-3.547,1.931-5.571c1.077-1.972,2.609-4.896,3.631-7.371c1.021,2.476,2.554,5.399,3.631,7.371
					c1.137,2.024,1.931,3.882,1.931,5.571c0,1.404-0.794,2.98-1.477,4.277c-1.476,2.756-2.951,5.963-2.951,9.172h0.908
					c0-1.352,0.454-4.896,2.1-7.09c2.101-2.813,4.03-4.559,8.685-4.559c3.178,0,5.675,2.924,5.675,6.078
					c0,3.15-2.042,6.525-4.256,7.822c0-3.717-1.533-6.023-5.675-6.023c-2.611,0-4.485,1.857-4.485,3.771
					c1.193,0,2.44,0.729,2.44,2.193c-0.85-0.507-1.587-0.845-2.44-0.845c0,1.353,0.456,2.926,1.533,4.051
					c0.229-1.125,0.683-2.022,1.59-2.022c1.079,0,2.101,1.18,2.101,2.477c0,1.35-0.796,2.418-2.158,2.418
					c-2.271,0-4.654-2.871-4.881-6.922h-1.135c0,1.408,0.114,2.533,0.455,3.376c0.228,0.621,0.453,1.183,0.453,1.747
					C44.467,154.738,43.332,157.555,42.424,159.579L42.424,159.579L42.424,159.579z"/>
			</defs>
			<use xlink:href="#SVGID_23_"  overflow="visible" fill="#512E8B"/>
			<clipPath id="SVGID_24_">
				<use xlink:href="#SVGID_23_"  overflow="visible"/>
			</clipPath>
			<g transform="matrix(1 0 0 1 8.068441e-007 6.762929e-006)" clip-path="url(#SVGID_24_)">
			</g>
		</g>
	</g>
</g>
<g>
	<g>
		<g>
			<defs>
				<path id="SVGID_25_" d="M83.923,155.547c0.306-0.814,0.481-1.387,0.503-1.594c0-0.243-0.146-0.641-0.304-1.064l-0.038-0.104
					c-0.059-0.146-0.111-0.293-0.161-0.449c-0.042,0.142-0.093,0.274-0.144,0.403l-0.059,0.156c-0.152,0.42-0.301,0.815-0.304,1.019
					C83.439,154.139,83.619,154.725,83.923,155.547 M91.073,154.213c0.411,0,0.616-0.297,0.616-0.879
					c0-0.406-0.244-0.729-0.422-0.867c-0.063,0.133-0.143,0.355-0.217,0.721l-0.201,1.004
					C90.925,154.205,91.002,154.213,91.073,154.213 M76.773,154.213c0.073,0,0.149-0.008,0.225-0.021l-0.202-1.004
					c-0.076-0.362-0.157-0.588-0.218-0.719c-0.18,0.139-0.424,0.459-0.424,0.865C76.154,153.916,76.362,154.213,76.773,154.213
					 M99.266,146.578c0.928-1.303,1.619-3.021,1.619-4.668c0-2.418-1.933-4.537-4.135-4.537c-3.859,0-5.418,1.214-7.452,3.939
					c-0.528,0.707-0.92,1.617-1.196,2.537c1.101-1.033,2.664-1.683,4.393-1.683C96.02,142.168,98.343,143.709,99.266,146.578
					 M68.582,146.578c0.921-2.869,3.245-4.41,6.772-4.41c1.729,0,3.292,0.646,4.391,1.682c-0.276-0.92-0.667-1.83-1.198-2.539
					c-2.032-2.724-3.59-3.938-7.449-3.938c-2.203,0-4.135,2.119-4.135,4.537C66.962,143.557,67.654,145.275,68.582,146.578
					 M83.923,144.227c0.569-2.383,1.656-4.643,2.726-6.637c0.484-0.921,1.297-2.466,1.297-3.561c0-1.193-0.535-2.68-1.741-4.832
					c-0.669-1.225-1.497-2.785-2.28-4.389c-0.781,1.604-1.612,3.166-2.287,4.402c-1.199,2.139-1.734,3.624-1.734,4.818
					c0,1.091,0.812,2.636,1.293,3.55C82.266,139.582,83.352,141.844,83.923,144.227 M83.923,159.579
					c-0.907-2.024-2.043-4.841-2.043-5.626c0-0.564,0.227-1.126,0.456-1.747c0.34-0.843,0.454-1.968,0.454-3.376h-1.137
					c-0.226,4.051-2.61,6.922-4.879,6.922c-1.362,0-2.158-1.068-2.158-2.418c0-1.297,1.023-2.477,2.101-2.477
					c0.907,0,1.362,0.897,1.589,2.022c1.077-1.125,1.533-2.698,1.533-4.051c-0.853,0-1.589,0.338-2.44,0.845
					c0-1.464,1.248-2.193,2.44-2.193c0-1.914-1.874-3.771-4.484-3.771c-4.143,0-5.676,2.309-5.676,6.023
					c-2.214-1.297-4.256-4.672-4.256-7.822c0-3.154,2.496-6.078,5.675-6.078c4.654,0,6.583,1.744,8.683,4.559
					c1.646,2.192,2.099,5.738,2.099,7.09h0.91c0-3.209-1.477-6.416-2.951-9.172c-0.683-1.297-1.476-2.873-1.476-4.277
					c0-1.689,0.793-3.547,1.931-5.571c1.077-1.972,2.61-4.896,3.63-7.371c1.021,2.476,2.555,5.399,3.631,7.371
					c1.137,2.024,1.932,3.882,1.932,5.571c0,1.404-0.795,2.98-1.477,4.277c-1.477,2.756-2.951,5.963-2.951,9.172h0.908
					c0-1.352,0.454-4.896,2.1-7.09c2.103-2.813,4.029-4.559,8.686-4.559c3.18,0,5.675,2.924,5.675,6.078
					c0,3.15-2.043,6.525-4.256,7.822c0-3.717-1.532-6.023-5.676-6.023c-2.61,0-4.484,1.857-4.484,3.771
					c1.192,0,2.439,0.729,2.439,2.193c-0.851-0.507-1.587-0.845-2.439-0.845c0,1.353,0.455,2.926,1.532,4.051
					c0.229-1.125,0.684-2.022,1.59-2.022c1.079,0,2.102,1.18,2.102,2.477c0,1.35-0.795,2.418-2.158,2.418
					c-2.271,0-4.653-2.871-4.881-6.922h-1.135c0,1.408,0.113,2.533,0.455,3.376c0.228,0.621,0.452,1.183,0.452,1.747
					C85.966,154.738,84.831,157.555,83.923,159.579L83.923,159.579L83.923,159.579z"/>
			</defs>
			<use xlink:href="#SVGID_25_"  overflow="visible" fill="#512E8B"/>
			<clipPath id="SVGID_26_">
				<use xlink:href="#SVGID_25_"  overflow="visible"/>
			</clipPath>
			<g transform="matrix(1 0 0 1 1.975417e-006 6.762929e-006)" clip-path="url(#SVGID_26_)">
			</g>
		</g>
	</g>
</g>
<g>
	<g>
		<g>
			<defs>
				<path id="SVGID_27_" d="M125.461,155.547c0.305-0.814,0.482-1.387,0.503-1.594c0-0.243-0.147-0.641-0.304-1.064l-0.038-0.104
					c-0.06-0.146-0.111-0.293-0.161-0.449c-0.042,0.142-0.093,0.274-0.145,0.403l-0.058,0.156c-0.153,0.42-0.301,0.815-0.304,1.019
					C124.979,154.139,125.157,154.725,125.461,155.547 M132.611,154.213c0.41,0,0.617-0.297,0.617-0.879
					c0-0.406-0.244-0.729-0.424-0.867c-0.062,0.133-0.142,0.355-0.216,0.721l-0.202,1.004
					C132.463,154.205,132.54,154.213,132.611,154.213 M118.311,154.213c0.073,0,0.149-0.008,0.227-0.021l-0.202-1.004
					c-0.076-0.362-0.155-0.588-0.218-0.719c-0.18,0.139-0.424,0.459-0.424,0.865C117.691,153.916,117.9,154.213,118.311,154.213
					 M140.803,146.578c0.928-1.303,1.62-3.021,1.62-4.668c0-2.418-1.933-4.537-4.135-4.537c-3.858,0-5.418,1.214-7.452,3.939
					c-0.527,0.707-0.92,1.617-1.195,2.537c1.1-1.033,2.662-1.683,4.392-1.683C137.557,142.168,139.881,143.709,140.803,146.578
					 M110.119,146.578c0.922-2.869,3.246-4.41,6.773-4.41c1.729,0,3.291,0.646,4.391,1.682c-0.277-0.92-0.668-1.83-1.199-2.539
					c-2.031-2.724-3.59-3.938-7.449-3.938c-2.201,0-4.135,2.119-4.135,4.537C108.5,143.557,109.191,145.275,110.119,146.578
					 M125.461,144.227c0.568-2.383,1.656-4.643,2.725-6.637c0.485-0.921,1.299-2.466,1.299-3.561c0-1.193-0.536-2.68-1.742-4.832
					c-0.669-1.225-1.497-2.785-2.28-4.389c-0.782,1.604-1.612,3.166-2.287,4.402c-1.198,2.139-1.733,3.624-1.733,4.818
					c0,1.091,0.813,2.636,1.293,3.55C123.805,139.582,124.891,141.844,125.461,144.227 M125.461,159.579
					c-0.906-2.024-2.043-4.841-2.043-5.626c0-0.564,0.227-1.126,0.455-1.747c0.34-0.843,0.454-1.968,0.454-3.376h-1.138
					c-0.226,4.051-2.609,6.922-4.879,6.922c-1.361,0-2.158-1.068-2.158-2.418c0-1.297,1.022-2.477,2.102-2.477
					c0.906,0,1.361,0.897,1.59,2.022c1.076-1.125,1.532-2.698,1.532-4.051c-0.853,0-1.589,0.338-2.44,0.845
					c0-1.464,1.248-2.193,2.44-2.193c0-1.914-1.874-3.771-4.483-3.771c-4.144,0-5.676,2.309-5.676,6.023
					c-2.215-1.297-4.256-4.672-4.256-7.822c0-3.154,2.496-6.078,5.674-6.078c4.654,0,6.583,1.744,8.684,4.559
					c1.646,2.192,2.101,5.738,2.101,7.09h0.909c0-3.209-1.477-6.416-2.951-9.172c-0.684-1.297-1.477-2.873-1.477-4.277
					c0-1.689,0.793-3.547,1.931-5.571c1.077-1.972,2.608-4.896,3.631-7.371c1.021,2.476,2.556,5.399,3.631,7.371
					c1.138,2.024,1.933,3.882,1.933,5.571c0,1.404-0.795,2.98-1.478,4.277c-1.478,2.756-2.95,5.963-2.95,9.172h0.907
					c0-1.352,0.454-4.896,2.101-7.09c2.102-2.813,4.028-4.559,8.685-4.559c3.179,0,5.675,2.924,5.675,6.078
					c0,3.15-2.043,6.525-4.256,7.822c0-3.717-1.533-6.023-5.676-6.023c-2.61,0-4.484,1.857-4.484,3.771
					c1.192,0,2.439,0.729,2.439,2.193c-0.85-0.507-1.588-0.845-2.439-0.845c0,1.353,0.455,2.926,1.532,4.051
					c0.229-1.125,0.683-2.022,1.59-2.022c1.079,0,2.101,1.18,2.101,2.477c0,1.35-0.795,2.418-2.157,2.418
					c-2.271,0-4.653-2.871-4.882-6.922h-1.135c0,1.408,0.114,2.533,0.455,3.376c0.229,0.621,0.453,1.183,0.453,1.747
					C127.504,154.738,126.369,157.555,125.461,159.579L125.461,159.579L125.461,159.579z"/>
			</defs>
			<use xlink:href="#SVGID_27_"  overflow="visible" fill="#512E8B"/>
			<clipPath id="SVGID_28_">
				<use xlink:href="#SVGID_27_"  overflow="visible"/>
			</clipPath>
			<g transform="matrix(1 0 0 1 7.159524e-006 6.762929e-006)" clip-path="url(#SVGID_28_)">
			</g>
		</g>
	</g>
</g>
</svg>
