<?xml version="1.0" encoding="utf-8"?>
<!-- Generator: Adobe Illustrator 16.0.3, SVG Export Plug-In . SVG Version: 6.00 Build 0)  -->
<!DOCTYPE svg PUBLIC "-//W3C//DTD SVG 1.1//EN" "http://www.w3.org/Graphics/SVG/1.1/DTD/svg11.dtd">
<svg version="1.1" id="Layer_1" xmlns="http://www.w3.org/2000/svg" xmlns:xlink="http://www.w3.org/1999/xlink" x="0px" y="0px"
	 width="30px" height="28px" viewBox="0 0 30 28" enable-background="new 0 0 30 28" xml:space="preserve">
<g>
	<g>
		<g>
			<defs>
				<path id="SVGID_1_" d="M4.23,6.486c0.053-0.141,0.084-0.241,0.088-0.277c0-0.042-0.026-0.111-0.053-0.185L4.259,6.006
					C4.249,5.981,4.24,5.955,4.23,5.928c-0.007,0.024-0.016,0.048-0.025,0.07l-0.01,0.027C4.169,6.098,4.144,6.167,4.143,6.202
					C4.146,6.241,4.178,6.343,4.23,6.486 M5.472,6.254c0.071,0,0.107-0.052,0.107-0.153c0-0.071-0.042-0.127-0.074-0.151
					c-0.01,0.023-0.024,0.063-0.037,0.125L5.433,6.25C5.446,6.253,5.459,6.254,5.472,6.254 M2.989,6.254
					c0.013,0,0.025-0.001,0.04-0.004L2.994,6.076C2.98,6.013,2.966,5.974,2.956,5.951c-0.031,0.024-0.073,0.08-0.073,0.15
					C2.882,6.203,2.918,6.254,2.989,6.254 M6.894,4.929c0.161-0.227,0.281-0.525,0.281-0.811c0-0.419-0.335-0.788-0.718-0.788
					c-0.67,0-0.94,0.211-1.294,0.684c-0.091,0.122-0.16,0.281-0.208,0.44c0.191-0.179,0.462-0.292,0.762-0.292
					C6.331,4.163,6.734,4.431,6.894,4.929 M1.567,4.929C1.727,4.43,2.13,4.162,2.743,4.162c0.299,0,0.571,0.113,0.762,0.292
					C3.457,4.295,3.39,4.137,3.297,4.014C2.944,3.542,2.674,3.331,2.004,3.331c-0.382,0-0.718,0.368-0.718,0.788
					C1.286,4.404,1.406,4.703,1.567,4.929 M4.23,4.521c0.1-0.415,0.288-0.807,0.473-1.153C4.788,3.208,4.929,2.94,4.929,2.75
					c0-0.207-0.093-0.465-0.302-0.838C4.511,1.699,4.366,1.428,4.23,1.149c-0.136,0.279-0.28,0.55-0.397,0.765
					c-0.208,0.371-0.3,0.629-0.3,0.836c0,0.19,0.141,0.458,0.225,0.617C3.943,3.714,4.131,4.106,4.23,4.521 M4.23,7.186
					c-0.157-0.351-0.354-0.84-0.354-0.977c0-0.098,0.039-0.195,0.079-0.303C4.014,5.76,4.034,5.564,4.034,5.32H3.836
					C3.797,6.023,3.383,6.521,2.989,6.521c-0.236,0-0.375-0.186-0.375-0.42c0-0.225,0.178-0.43,0.365-0.43
					c0.157,0,0.236,0.156,0.276,0.351c0.187-0.195,0.266-0.469,0.266-0.704c-0.148,0-0.276,0.059-0.423,0.147
					c0-0.254,0.217-0.381,0.423-0.381c0-0.332-0.326-0.654-0.778-0.654c-0.719,0-0.985,0.4-0.985,1.046
					C1.373,5.251,1.019,4.665,1.019,4.118c0-0.547,0.434-1.055,0.985-1.055c0.809,0,1.143,0.303,1.508,0.792
					c0.286,0.38,0.364,0.996,0.364,1.23h0.158c0-0.557-0.256-1.114-0.513-1.592C3.403,3.268,3.266,2.995,3.266,2.75
					c0-0.293,0.137-0.615,0.335-0.967c0.187-0.342,0.453-0.85,0.63-1.28c0.178,0.43,0.444,0.938,0.631,1.28
					C5.059,2.135,5.196,2.457,5.196,2.75c0,0.245-0.138,0.518-0.256,0.743C4.684,3.971,4.428,4.528,4.428,5.085h0.158
					c0-0.234,0.079-0.85,0.364-1.23c0.365-0.489,0.7-0.792,1.508-0.792c0.552,0,0.985,0.508,0.985,1.055
					c0,0.547-0.355,1.133-0.739,1.358c0-0.646-0.266-1.046-0.986-1.046c-0.453,0-0.778,0.323-0.778,0.654
					c0.207,0,0.423,0.127,0.423,0.381C5.216,5.378,5.088,5.319,4.94,5.319c0,0.235,0.079,0.508,0.266,0.704
					c0.04-0.195,0.119-0.351,0.276-0.351c0.187,0,0.365,0.205,0.365,0.43c0,0.234-0.138,0.42-0.375,0.42
					c-0.394,0-0.808-0.499-0.847-1.202H4.428c0,0.245,0.02,0.44,0.079,0.586c0.04,0.108,0.079,0.205,0.079,0.303
					C4.585,6.345,4.389,6.834,4.23,7.186L4.23,7.186L4.23,7.186z"/>
			</defs>
			<use xlink:href="#SVGID_1_"  overflow="visible" fill="#512E8B"/>
			<clipPath id="SVGID_2_">
				<use xlink:href="#SVGID_1_"  overflow="visible"/>
			</clipPath>
			<g transform="matrix(1 0 0 1 9.201777e-010 -3.748601e-011)" clip-path="url(#SVGID_2_)">
			</g>
		</g>
	</g>
</g>
<g>
	<g>
		<g>
			<defs>
				<path id="SVGID_3_" d="M11.435,6.486c0.052-0.142,0.083-0.241,0.087-0.277c0-0.042-0.025-0.111-0.052-0.185l-0.007-0.018
					c-0.01-0.025-0.02-0.051-0.028-0.078c-0.007,0.024-0.016,0.048-0.025,0.07L11.4,6.025c-0.026,0.073-0.052,0.142-0.053,0.177
					C11.351,6.241,11.382,6.343,11.435,6.486 M12.676,6.254c0.072,0,0.107-0.052,0.107-0.153c0-0.071-0.042-0.127-0.073-0.151
					c-0.01,0.023-0.024,0.062-0.038,0.125L12.638,6.25C12.651,6.253,12.664,6.254,12.676,6.254 M10.194,6.254
					c0.012,0,0.026-0.001,0.039-0.004l-0.035-0.174c-0.013-0.063-0.027-0.103-0.038-0.125c-0.031,0.024-0.074,0.08-0.074,0.15
					C10.086,6.203,10.123,6.254,10.194,6.254 M14.098,4.929c0.162-0.227,0.281-0.525,0.281-0.811c0-0.419-0.335-0.788-0.717-0.788
					c-0.67,0-0.94,0.211-1.294,0.684c-0.091,0.122-0.159,0.281-0.208,0.44c0.19-0.179,0.462-0.292,0.762-0.292
					C13.535,4.163,13.938,4.431,14.098,4.929 M8.771,4.929c0.16-0.499,0.563-0.767,1.176-0.767c0.3,0,0.571,0.113,0.763,0.292
					c-0.048-0.16-0.117-0.318-0.209-0.441C10.149,3.54,9.878,3.329,9.209,3.329c-0.382,0-0.718,0.368-0.718,0.788
					C8.49,4.404,8.61,4.703,8.771,4.929 M11.435,4.521c0.099-0.414,0.288-0.806,0.473-1.153c0.084-0.159,0.225-0.427,0.225-0.618
					c0-0.207-0.093-0.465-0.302-0.838c-0.116-0.213-0.259-0.483-0.396-0.762c-0.136,0.279-0.28,0.55-0.397,0.765
					c-0.209,0.371-0.301,0.629-0.301,0.836c0,0.19,0.141,0.458,0.225,0.617C11.147,3.714,11.336,4.107,11.435,4.521 M11.435,7.186
					c-0.158-0.351-0.355-0.84-0.355-0.977c0-0.098,0.039-0.195,0.08-0.303c0.059-0.146,0.079-0.342,0.079-0.586h-0.198
					c-0.039,0.704-0.453,1.202-0.847,1.202c-0.236,0-0.375-0.186-0.375-0.42c0-0.226,0.178-0.43,0.365-0.43
					c0.158,0,0.236,0.156,0.276,0.351c0.187-0.195,0.266-0.469,0.266-0.704c-0.148,0-0.276,0.059-0.424,0.147
					c0-0.254,0.217-0.381,0.424-0.381c0-0.332-0.325-0.654-0.778-0.654c-0.719,0-0.985,0.4-0.985,1.046
					c-0.385-0.226-0.74-0.812-0.74-1.359c0-0.547,0.434-1.055,0.985-1.055c0.808,0,1.142,0.303,1.507,0.792
					c0.286,0.38,0.364,0.996,0.364,1.23h0.158c0-0.557-0.257-1.114-0.513-1.592C10.607,3.268,10.47,2.995,10.47,2.75
					c0-0.293,0.138-0.615,0.335-0.967c0.187-0.342,0.453-0.85,0.63-1.28c0.177,0.43,0.443,0.938,0.63,1.28
					C12.263,2.135,12.4,2.457,12.4,2.75c0,0.245-0.138,0.518-0.256,0.743c-0.256,0.478-0.513,1.035-0.513,1.592h0.158
					c0-0.234,0.079-0.85,0.364-1.23c0.365-0.489,0.7-0.792,1.508-0.792c0.551,0,0.985,0.508,0.985,1.055
					c0,0.547-0.354,1.133-0.738,1.358c0-0.646-0.267-1.046-0.986-1.046c-0.453,0-0.778,0.323-0.778,0.654
					c0.207,0,0.423,0.127,0.423,0.381c-0.147-0.088-0.275-0.147-0.423-0.147c0,0.235,0.079,0.508,0.266,0.704
					c0.04-0.195,0.118-0.351,0.276-0.351c0.187,0,0.364,0.204,0.364,0.43c0,0.234-0.138,0.42-0.375,0.42
					c-0.394,0-0.808-0.499-0.847-1.202h-0.197c0,0.245,0.02,0.44,0.08,0.586c0.04,0.108,0.079,0.205,0.079,0.303
					C11.79,6.345,11.592,6.834,11.435,7.186L11.435,7.186L11.435,7.186z"/>
			</defs>
			<use xlink:href="#SVGID_3_"  overflow="visible" fill="#512E8B"/>
			<clipPath id="SVGID_4_">
				<use xlink:href="#SVGID_3_"  overflow="visible"/>
			</clipPath>
			<g transform="matrix(1 0 0 1 -2.148653e-008 -3.748601e-011)" clip-path="url(#SVGID_4_)">
			</g>
		</g>
	</g>
</g>
<g>
	<g>
		<g>
			<defs>
				<path id="SVGID_5_" d="M18.646,6.486c0.053-0.142,0.082-0.241,0.086-0.277c0-0.042-0.023-0.111-0.051-0.185l-0.008-0.018
					c-0.01-0.025-0.02-0.051-0.027-0.078c-0.008,0.024-0.017,0.048-0.024,0.07l-0.013,0.027c-0.025,0.073-0.053,0.142-0.053,0.177
					C18.563,6.241,18.593,6.343,18.646,6.486 M19.887,6.254c0.071,0,0.106-0.052,0.106-0.153c0-0.071-0.041-0.127-0.072-0.151
					c-0.011,0.023-0.024,0.062-0.037,0.125L19.848,6.25C19.861,6.253,19.874,6.254,19.887,6.254 M17.404,6.254
					c0.013,0,0.025-0.001,0.039-0.004l-0.035-0.174c-0.014-0.063-0.027-0.103-0.037-0.125c-0.031,0.024-0.074,0.08-0.074,0.15
					C17.297,6.203,17.332,6.254,17.404,6.254 M21.311,4.929c0.16-0.227,0.279-0.525,0.279-0.811c0-0.419-0.335-0.788-0.718-0.788
					c-0.669,0-0.938,0.211-1.293,0.684c-0.093,0.122-0.16,0.281-0.209,0.44c0.19-0.179,0.464-0.292,0.764-0.292
					C20.746,4.163,21.148,4.431,21.311,4.929 M15.982,4.929c0.16-0.499,0.563-0.767,1.176-0.767c0.301,0,0.57,0.113,0.762,0.292
					c-0.048-0.16-0.115-0.318-0.207-0.441c-0.354-0.473-0.623-0.684-1.295-0.684c-0.381,0-0.717,0.368-0.717,0.788
					C15.701,4.404,15.82,4.703,15.982,4.929 M18.646,4.521c0.099-0.414,0.287-0.806,0.474-1.153
					c0.084-0.159,0.226-0.427,0.226-0.618c0-0.207-0.094-0.465-0.304-0.838c-0.116-0.213-0.26-0.483-0.396-0.762
					c-0.137,0.279-0.279,0.55-0.397,0.765c-0.207,0.371-0.301,0.629-0.301,0.836c0,0.19,0.142,0.458,0.225,0.617
					C18.357,3.714,18.547,4.107,18.646,4.521 M18.646,7.186c-0.157-0.351-0.354-0.84-0.354-0.977c0-0.098,0.039-0.195,0.079-0.303
					c0.059-0.146,0.078-0.342,0.078-0.586h-0.197c-0.039,0.704-0.452,1.202-0.848,1.202c-0.235,0-0.373-0.186-0.373-0.42
					c0-0.226,0.177-0.43,0.363-0.43c0.158,0,0.236,0.156,0.275,0.351c0.188-0.195,0.268-0.469,0.268-0.704
					c-0.148,0-0.275,0.059-0.424,0.147c0-0.254,0.217-0.381,0.424-0.381c0-0.332-0.326-0.654-0.778-0.654
					c-0.72,0-0.984,0.4-0.984,1.046c-0.385-0.226-0.74-0.812-0.74-1.358c0-0.547,0.433-1.055,0.984-1.055
					c0.81,0,1.146,0.303,1.508,0.792c0.286,0.38,0.365,0.996,0.365,1.23h0.157c0-0.557-0.256-1.114-0.512-1.592
					c-0.119-0.226-0.256-0.499-0.256-0.743c0-0.293,0.137-0.615,0.334-0.967c0.188-0.342,0.452-0.85,0.631-1.28
					c0.178,0.43,0.442,0.938,0.631,1.28c0.195,0.352,0.334,0.674,0.334,0.967c0,0.245-0.139,0.518-0.256,0.743
					c-0.256,0.478-0.513,1.035-0.513,1.592H19c0-0.234,0.079-0.85,0.364-1.23c0.366-0.489,0.7-0.792,1.508-0.792
					c0.553,0,0.985,0.508,0.985,1.055c0,0.547-0.354,1.133-0.739,1.358c0-0.646-0.265-1.046-0.984-1.046
					c-0.452,0-0.778,0.323-0.778,0.654c0.207,0,0.424,0.127,0.424,0.381c-0.146-0.088-0.276-0.147-0.424-0.147
					c0,0.235,0.078,0.508,0.267,0.704c0.04-0.195,0.119-0.351,0.274-0.351c0.188,0,0.365,0.204,0.365,0.43
					c0,0.234-0.137,0.42-0.375,0.42c-0.394,0-0.808-0.499-0.848-1.202h-0.196c0,0.245,0.021,0.44,0.079,0.586
					C18.961,6.014,19,6.111,19,6.209C19,6.345,18.805,6.834,18.646,7.186L18.646,7.186L18.646,7.186z"/>
			</defs>
			<use xlink:href="#SVGID_5_"  overflow="visible" fill="#512E8B"/>
			<clipPath id="SVGID_6_">
				<use xlink:href="#SVGID_5_"  overflow="visible"/>
			</clipPath>
			<g transform="matrix(1 0 0 1 -4.119956e-007 -3.748601e-011)" clip-path="url(#SVGID_6_)">
			</g>
		</g>
	</g>
</g>
<g>
	<g>
		<g>
			<defs>
				<path id="SVGID_7_" d="M25.77,6.486c0.054-0.142,0.084-0.241,0.088-0.277c0-0.042-0.025-0.111-0.053-0.185l-0.007-0.018
					c-0.011-0.025-0.021-0.051-0.028-0.078c-0.006,0.024-0.016,0.048-0.023,0.07l-0.012,0.027c-0.025,0.073-0.053,0.142-0.053,0.177
					C25.686,6.241,25.718,6.343,25.77,6.486 M27.012,6.254c0.07,0,0.106-0.052,0.106-0.153c0-0.071-0.042-0.127-0.074-0.151
					c-0.011,0.023-0.022,0.062-0.037,0.125L26.973,6.25C26.984,6.253,26.998,6.254,27.012,6.254 M24.527,6.254
					c0.014,0,0.027-0.001,0.041-0.004l-0.036-0.174c-0.013-0.063-0.027-0.103-0.038-0.125c-0.03,0.024-0.072,0.08-0.072,0.15
					C24.422,6.203,24.457,6.254,24.527,6.254 M28.434,4.929c0.16-0.227,0.281-0.525,0.281-0.811c0-0.419-0.336-0.788-0.719-0.788
					c-0.67,0-0.939,0.211-1.294,0.684c-0.093,0.122-0.159,0.281-0.207,0.44c0.19-0.179,0.462-0.292,0.763-0.292
					C27.869,4.163,28.273,4.431,28.434,4.929 M23.107,4.929c0.158-0.499,0.562-0.767,1.174-0.767c0.302,0,0.572,0.113,0.764,0.292
					c-0.049-0.16-0.115-0.318-0.209-0.441c-0.354-0.473-0.623-0.684-1.293-0.684c-0.382,0-0.717,0.368-0.717,0.788
					C22.826,4.404,22.945,4.703,23.107,4.929 M25.77,4.521c0.1-0.414,0.289-0.806,0.475-1.153c0.084-0.159,0.225-0.427,0.225-0.618
					c0-0.207-0.093-0.465-0.303-0.838c-0.115-0.213-0.259-0.483-0.396-0.762c-0.136,0.279-0.279,0.55-0.396,0.765
					c-0.208,0.371-0.302,0.629-0.302,0.836c0,0.19,0.142,0.458,0.224,0.617C25.482,3.714,25.671,4.107,25.77,4.521 M25.77,7.186
					c-0.156-0.351-0.354-0.84-0.354-0.977c0-0.098,0.039-0.195,0.079-0.303c0.06-0.146,0.079-0.342,0.079-0.586h-0.197
					c-0.04,0.704-0.453,1.202-0.848,1.202c-0.236,0-0.375-0.186-0.375-0.42c0-0.226,0.178-0.43,0.365-0.43
					c0.156,0,0.235,0.156,0.274,0.351c0.188-0.195,0.267-0.469,0.267-0.704c-0.147,0-0.275,0.059-0.424,0.147
					c0-0.254,0.217-0.381,0.424-0.381c0-0.332-0.326-0.654-0.778-0.654c-0.72,0-0.984,0.4-0.984,1.046
					c-0.384-0.226-0.739-0.812-0.739-1.358c0-0.547,0.435-1.055,0.985-1.055c0.81,0,1.144,0.303,1.508,0.792
					c0.285,0.38,0.364,0.996,0.364,1.23h0.158c0-0.557-0.258-1.114-0.514-1.592c-0.117-0.226-0.256-0.499-0.256-0.743
					c0-0.293,0.139-0.615,0.336-0.967c0.187-0.342,0.451-0.85,0.629-1.28c0.179,0.43,0.443,0.938,0.631,1.28
					c0.197,0.352,0.336,0.674,0.336,0.967c0,0.245-0.139,0.518-0.256,0.743c-0.258,0.478-0.514,1.035-0.514,1.592h0.157
					c0-0.234,0.079-0.85,0.365-1.23c0.364-0.489,0.698-0.792,1.507-0.792c0.553,0,0.984,0.508,0.984,1.055
					c0,0.547-0.354,1.133-0.738,1.358c0-0.646-0.266-1.046-0.984-1.046c-0.453,0-0.777,0.323-0.777,0.654
					c0.207,0,0.422,0.127,0.422,0.381c-0.146-0.088-0.274-0.147-0.422-0.147c0,0.235,0.078,0.508,0.265,0.704
					c0.041-0.195,0.119-0.351,0.276-0.351c0.188,0,0.363,0.204,0.363,0.43c0,0.234-0.137,0.42-0.373,0.42
					c-0.395,0-0.809-0.499-0.849-1.202h-0.196c0,0.245,0.02,0.44,0.079,0.586c0.039,0.108,0.078,0.205,0.078,0.303
					C26.124,6.345,25.928,6.834,25.77,7.186L25.77,7.186L25.77,7.186z"/>
			</defs>
			<use xlink:href="#SVGID_7_"  overflow="visible" fill="#512E8B"/>
			<clipPath id="SVGID_8_">
				<use xlink:href="#SVGID_7_"  overflow="visible"/>
			</clipPath>
			<g transform="matrix(1 0 0 1 -4.583394e-007 -3.748601e-011)" clip-path="url(#SVGID_8_)">
			</g>
		</g>
	</g>
</g>
<g>
	<g>
		<g>
			<defs>
				<path id="SVGID_9_" d="M8.05,13.256c0.052-0.142,0.083-0.241,0.086-0.277c0-0.042-0.025-0.111-0.052-0.184l-0.007-0.019
					c-0.01-0.025-0.02-0.051-0.027-0.078c-0.008,0.023-0.017,0.048-0.025,0.07l-0.01,0.027c-0.027,0.072-0.053,0.142-0.053,0.177
					C7.966,13.012,7.997,13.113,8.05,13.256 M9.291,13.024c0.071,0,0.107-0.052,0.107-0.153c0-0.071-0.042-0.126-0.073-0.15
					c-0.011,0.022-0.025,0.062-0.038,0.125L9.252,13.02C9.265,13.023,9.279,13.024,9.291,13.024 M6.809,13.024
					c0.013,0,0.026-0.001,0.039-0.004l-0.035-0.174c-0.013-0.063-0.027-0.102-0.038-0.125c-0.031,0.024-0.074,0.079-0.074,0.15
					C6.701,12.973,6.737,13.024,6.809,13.024 M10.713,11.699c0.162-0.227,0.282-0.524,0.282-0.81c0-0.42-0.335-0.788-0.718-0.788
					c-0.67,0-0.94,0.21-1.293,0.684c-0.092,0.124-0.16,0.28-0.208,0.441c0.191-0.18,0.462-0.292,0.762-0.292
					C10.15,10.934,10.553,11.201,10.713,11.699 M5.387,11.699c0.16-0.498,0.563-0.765,1.175-0.765c0.3,0,0.572,0.111,0.762,0.292
					c-0.047-0.161-0.116-0.317-0.208-0.441c-0.353-0.473-0.623-0.684-1.293-0.684c-0.382,0-0.718,0.367-0.718,0.788
					C5.105,11.175,5.226,11.472,5.387,11.699 M8.05,11.291c0.099-0.414,0.287-0.806,0.473-1.153C8.607,9.978,8.749,9.71,8.749,9.52
					c0-0.208-0.093-0.465-0.303-0.839C8.33,8.469,8.186,8.198,8.05,7.92C7.914,8.198,7.77,8.469,7.653,8.685
					C7.444,9.056,7.352,9.313,7.352,9.521c0,0.189,0.141,0.458,0.224,0.617C7.762,10.484,7.951,10.877,8.05,11.291 M8.05,13.956
					c-0.158-0.351-0.355-0.841-0.355-0.977c0-0.098,0.04-0.195,0.079-0.303c0.059-0.146,0.079-0.341,0.079-0.586H7.655
					c-0.039,0.704-0.453,1.202-0.847,1.202c-0.236,0-0.375-0.185-0.375-0.419c0-0.225,0.177-0.43,0.365-0.43
					c0.157,0,0.236,0.157,0.276,0.352C7.261,12.6,7.34,12.327,7.34,12.091c-0.148,0-0.276,0.06-0.424,0.147
					c0-0.254,0.217-0.381,0.424-0.381c0-0.332-0.325-0.654-0.779-0.654c-0.719,0-0.985,0.401-0.985,1.046
					c-0.384-0.225-0.738-0.811-0.738-1.358c0-0.548,0.433-1.055,0.985-1.055c0.808,0,1.143,0.303,1.508,0.791
					c0.286,0.38,0.364,0.997,0.364,1.23h0.158c0-0.556-0.256-1.113-0.512-1.592c-0.119-0.224-0.256-0.498-0.256-0.742
					c0-0.293,0.138-0.615,0.335-0.967c0.187-0.343,0.453-0.85,0.631-1.28c0.176,0.43,0.443,0.937,0.63,1.28
					c0.198,0.352,0.335,0.673,0.335,0.967c0,0.244-0.138,0.518-0.257,0.742c-0.256,0.479-0.512,1.036-0.512,1.592h0.157
					c0-0.234,0.079-0.85,0.365-1.23c0.365-0.488,0.699-0.791,1.507-0.791c0.552,0,0.985,0.507,0.985,1.055
					c0,0.547-0.354,1.133-0.739,1.358c0-0.645-0.266-1.046-0.985-1.046c-0.453,0-0.779,0.322-0.779,0.654
					c0.208,0,0.424,0.127,0.424,0.381c-0.147-0.087-0.275-0.147-0.424-0.147c0,0.235,0.08,0.509,0.266,0.704
					C9.065,12.6,9.143,12.443,9.3,12.443c0.187,0,0.365,0.206,0.365,0.43c0,0.234-0.139,0.419-0.375,0.419
					c-0.394,0-0.808-0.498-0.848-1.202H8.247c0,0.245,0.02,0.44,0.079,0.586c0.04,0.108,0.079,0.206,0.079,0.303
					C8.404,13.115,8.207,13.605,8.05,13.956L8.05,13.956L8.05,13.956z"/>
			</defs>
			<use xlink:href="#SVGID_9_"  overflow="visible" fill="#512E8B"/>
			<clipPath id="SVGID_10_">
				<use xlink:href="#SVGID_9_"  overflow="visible"/>
			</clipPath>
			<g transform="matrix(1 0 0 1 7.906885e-008 3.288920e-008)" clip-path="url(#SVGID_10_)">
			</g>
		</g>
	</g>
</g>
<g>
	<g>
		<g>
			<defs>
				<path id="SVGID_11_" d="M15.254,13.256c0.053-0.142,0.084-0.241,0.088-0.277c0-0.042-0.025-0.111-0.053-0.184l-0.007-0.019
					c-0.01-0.025-0.019-0.051-0.028-0.078c-0.007,0.023-0.016,0.048-0.025,0.07l-0.01,0.027c-0.026,0.072-0.052,0.142-0.052,0.177
					C15.17,13.012,15.201,13.113,15.254,13.256 M16.495,13.024c0.071,0,0.106-0.052,0.106-0.153c0-0.071-0.041-0.126-0.072-0.15
					c-0.012,0.022-0.024,0.062-0.038,0.125l-0.034,0.174C16.469,13.023,16.482,13.024,16.495,13.024 M14.013,13.024
					c0.013,0,0.025-0.001,0.039-0.004l-0.035-0.174c-0.013-0.063-0.027-0.102-0.037-0.125c-0.032,0.024-0.073,0.079-0.073,0.15
					C13.906,12.973,13.941,13.024,14.013,13.024 M17.917,11.699c0.161-0.227,0.281-0.524,0.281-0.81c0-0.42-0.335-0.788-0.718-0.788
					c-0.67,0-0.94,0.21-1.293,0.684c-0.092,0.124-0.16,0.28-0.209,0.441c0.191-0.18,0.463-0.292,0.764-0.292
					C17.354,10.934,17.758,11.201,17.917,11.699 M12.591,11.699c0.16-0.498,0.563-0.765,1.176-0.765c0.3,0,0.571,0.111,0.762,0.292
					c-0.048-0.161-0.116-0.317-0.208-0.441c-0.354-0.473-0.623-0.684-1.294-0.684c-0.382,0-0.717,0.367-0.717,0.788
					C12.31,11.175,12.43,11.472,12.591,11.699 M15.254,11.291c0.099-0.414,0.287-0.806,0.473-1.153
					c0.086-0.16,0.227-0.428,0.227-0.618c0-0.208-0.094-0.465-0.303-0.839c-0.116-0.212-0.259-0.483-0.396-0.762
					c-0.135,0.278-0.279,0.549-0.396,0.765c-0.209,0.371-0.302,0.628-0.302,0.836c0,0.189,0.141,0.458,0.225,0.617
					C14.966,10.484,15.155,10.877,15.254,11.291 M15.254,13.956c-0.157-0.351-0.354-0.841-0.354-0.977
					c0-0.098,0.039-0.195,0.079-0.303c0.059-0.146,0.079-0.341,0.079-0.586H14.86c-0.04,0.704-0.454,1.202-0.847,1.202
					c-0.237,0-0.375-0.185-0.375-0.419c0-0.225,0.178-0.43,0.364-0.43c0.158,0,0.237,0.157,0.276,0.352
					c0.188-0.195,0.267-0.468,0.267-0.704c-0.148,0-0.276,0.06-0.424,0.147c0-0.254,0.217-0.381,0.424-0.381
					c0-0.332-0.326-0.654-0.778-0.654c-0.719,0-0.985,0.401-0.985,1.046c-0.384-0.225-0.739-0.811-0.739-1.358
					c0-0.548,0.433-1.055,0.984-1.055c0.809,0,1.144,0.303,1.508,0.791c0.286,0.38,0.365,0.997,0.365,1.23h0.158
					c0-0.556-0.257-1.113-0.512-1.592c-0.119-0.224-0.257-0.498-0.257-0.742c0-0.293,0.138-0.615,0.335-0.967
					c0.187-0.343,0.453-0.85,0.63-1.28c0.178,0.43,0.443,0.937,0.631,1.28c0.196,0.352,0.336,0.673,0.336,0.967
					c0,0.244-0.14,0.518-0.257,0.742c-0.257,0.479-0.513,1.036-0.513,1.592h0.158c0-0.234,0.078-0.85,0.363-1.23
					c0.365-0.488,0.699-0.791,1.508-0.791c0.554,0,0.985,0.507,0.985,1.055c0,0.547-0.354,1.133-0.739,1.358
					c0-0.645-0.266-1.046-0.983-1.046c-0.453,0-0.778,0.322-0.778,0.654c0.207,0,0.424,0.127,0.424,0.381
					c-0.147-0.087-0.275-0.147-0.424-0.147c0,0.235,0.078,0.509,0.266,0.704c0.041-0.195,0.119-0.352,0.276-0.352
					c0.187,0,0.364,0.206,0.364,0.43c0,0.234-0.139,0.419-0.375,0.419c-0.395,0-0.809-0.498-0.848-1.202h-0.197
					c0,0.245,0.02,0.44,0.08,0.586c0.039,0.108,0.078,0.206,0.078,0.303C15.607,13.115,15.412,13.605,15.254,13.956L15.254,13.956
					L15.254,13.956z"/>
			</defs>
			<use xlink:href="#SVGID_11_"  overflow="visible" fill="#512E8B"/>
			<clipPath id="SVGID_12_">
				<use xlink:href="#SVGID_11_"  overflow="visible"/>
			</clipPath>
			<g transform="matrix(1 0 0 1 -3.725982e-007 3.288920e-008)" clip-path="url(#SVGID_12_)">
			</g>
		</g>
	</g>
</g>
<g>
	<g>
		<g>
			<defs>
				<path id="SVGID_13_" d="M22.464,13.256c0.054-0.142,0.084-0.241,0.088-0.277c0-0.042-0.024-0.111-0.053-0.184l-0.005-0.019
					c-0.012-0.025-0.021-0.051-0.03-0.078c-0.007,0.023-0.016,0.048-0.022,0.07l-0.01,0.027c-0.027,0.072-0.054,0.142-0.055,0.177
					C22.382,13.012,22.412,13.113,22.464,13.256 M23.706,13.024c0.071,0,0.106-0.052,0.106-0.153c0-0.071-0.043-0.126-0.072-0.15
					c-0.012,0.022-0.025,0.062-0.038,0.125l-0.035,0.174C23.68,13.023,23.693,13.024,23.706,13.024 M21.225,13.024
					c0.014,0,0.024-0.001,0.039-0.004l-0.035-0.174c-0.014-0.063-0.027-0.102-0.039-0.125c-0.03,0.024-0.072,0.079-0.072,0.15
					C21.116,12.973,21.152,13.024,21.225,13.024 M25.128,11.699c0.161-0.227,0.281-0.524,0.281-0.81c0-0.42-0.335-0.788-0.718-0.788
					c-0.67,0-0.941,0.21-1.293,0.684c-0.092,0.124-0.16,0.28-0.209,0.441c0.19-0.18,0.463-0.292,0.763-0.292
					C24.564,10.934,24.968,11.201,25.128,11.699 M19.802,11.699c0.16-0.498,0.564-0.765,1.177-0.765c0.301,0,0.57,0.111,0.763,0.292
					c-0.05-0.161-0.117-0.317-0.21-0.441c-0.352-0.473-0.623-0.684-1.292-0.684c-0.384,0-0.718,0.367-0.718,0.788
					C19.521,11.175,19.643,11.472,19.802,11.699 M22.464,11.291c0.101-0.414,0.289-0.806,0.474-1.153
					c0.086-0.16,0.228-0.428,0.228-0.618c0-0.208-0.095-0.465-0.304-0.839c-0.115-0.212-0.26-0.483-0.396-0.762
					c-0.135,0.278-0.279,0.549-0.396,0.765C21.861,9.055,21.77,9.312,21.77,9.52c0,0.189,0.141,0.458,0.224,0.617
					C22.177,10.484,22.365,10.877,22.464,11.291 M22.464,13.956c-0.157-0.351-0.354-0.841-0.354-0.977
					c0-0.098,0.041-0.195,0.08-0.303c0.06-0.146,0.078-0.341,0.078-0.586H22.07c-0.039,0.704-0.452,1.202-0.848,1.202
					c-0.234,0-0.375-0.185-0.375-0.419c0-0.225,0.18-0.43,0.365-0.43c0.157,0,0.235,0.157,0.275,0.352
					c0.187-0.195,0.267-0.468,0.267-0.704c-0.147,0-0.274,0.06-0.424,0.147c0-0.254,0.217-0.381,0.424-0.381
					c0-0.332-0.325-0.654-0.778-0.654c-0.72,0-0.984,0.401-0.984,1.046c-0.385-0.225-0.738-0.811-0.738-1.358
					c0-0.548,0.434-1.055,0.984-1.055c0.809,0,1.143,0.303,1.508,0.791c0.285,0.38,0.363,0.997,0.363,1.23h0.158
					c0-0.556-0.257-1.113-0.513-1.592c-0.119-0.224-0.257-0.498-0.257-0.742c0-0.293,0.138-0.615,0.335-0.967
					c0.188-0.343,0.454-0.85,0.63-1.28c0.178,0.43,0.444,0.937,0.633,1.28c0.196,0.352,0.334,0.673,0.334,0.967
					c0,0.244-0.138,0.518-0.257,0.742c-0.256,0.479-0.512,1.036-0.512,1.592h0.157c0-0.234,0.078-0.85,0.363-1.23
					c0.365-0.488,0.7-0.791,1.51-0.791c0.552,0,0.984,0.507,0.984,1.055c0,0.547-0.355,1.133-0.74,1.358
					c0-0.645-0.266-1.046-0.984-1.046c-0.453,0-0.778,0.322-0.778,0.654c0.207,0,0.425,0.127,0.425,0.381
					c-0.147-0.087-0.275-0.147-0.425-0.147c0,0.235,0.08,0.509,0.267,0.704c0.039-0.195,0.119-0.352,0.275-0.352
					c0.188,0,0.365,0.206,0.365,0.43c0,0.234-0.139,0.419-0.375,0.419c-0.395,0-0.809-0.498-0.848-1.202h-0.196
					c0,0.245,0.021,0.44,0.078,0.586c0.04,0.108,0.079,0.206,0.079,0.303C22.818,13.115,22.623,13.605,22.464,13.956L22.464,13.956
					L22.464,13.956z"/>
			</defs>
			<use xlink:href="#SVGID_13_"  overflow="visible" fill="#512E8B"/>
			<clipPath id="SVGID_14_">
				<use xlink:href="#SVGID_13_"  overflow="visible"/>
			</clipPath>
			<g transform="matrix(1 0 0 1 -1.003182e-006 3.288920e-008)" clip-path="url(#SVGID_14_)">
			</g>
		</g>
	</g>
</g>
<g>
	<g>
		<g>
			<defs>
				<path id="SVGID_15_" d="M4.23,20.025c0.053-0.142,0.084-0.239,0.088-0.276c0-0.042-0.026-0.11-0.053-0.185l-0.006-0.019
					c-0.01-0.026-0.019-0.051-0.028-0.079c-0.007,0.025-0.016,0.049-0.025,0.07l-0.01,0.027c-0.026,0.072-0.052,0.142-0.052,0.177
					C4.146,19.781,4.178,19.884,4.23,20.025 M5.472,19.795c0.071,0,0.107-0.052,0.107-0.152c0-0.07-0.042-0.127-0.074-0.15
					c-0.01,0.023-0.024,0.063-0.037,0.125l-0.035,0.175C5.446,19.794,5.459,19.795,5.472,19.795 M2.989,19.795
					c0.013,0,0.025-0.001,0.04-0.004l-0.035-0.175c-0.013-0.063-0.028-0.103-0.038-0.124c-0.031,0.023-0.073,0.078-0.073,0.15
					C2.882,19.743,2.918,19.795,2.989,19.795 M6.894,18.469c0.161-0.226,0.281-0.523,0.281-0.81c0-0.421-0.335-0.788-0.718-0.788
					c-0.67,0-0.94,0.211-1.294,0.686c-0.091,0.123-0.16,0.279-0.208,0.438c0.191-0.179,0.462-0.292,0.762-0.292
					C6.331,17.703,6.734,17.971,6.894,18.469 M1.567,18.469c0.16-0.498,0.563-0.766,1.176-0.766c0.299,0,0.571,0.113,0.762,0.292
					c-0.048-0.16-0.116-0.315-0.208-0.44c-0.353-0.473-0.623-0.684-1.293-0.684c-0.382,0-0.718,0.367-0.718,0.788
					C1.286,17.943,1.406,18.243,1.567,18.469 M4.23,18.063c0.099-0.414,0.288-0.808,0.473-1.153
					c0.084-0.159,0.226-0.429,0.226-0.617c0-0.207-0.093-0.466-0.302-0.839c-0.116-0.213-0.261-0.482-0.396-0.764
					c-0.136,0.279-0.28,0.551-0.397,0.767c-0.208,0.37-0.3,0.629-0.3,0.836c0,0.188,0.141,0.457,0.225,0.616
					C3.943,17.255,4.131,17.646,4.23,18.063 M4.23,20.727c-0.157-0.352-0.354-0.84-0.354-0.978c0-0.099,0.039-0.194,0.079-0.304
					c0.059-0.146,0.079-0.34,0.079-0.586H3.836c-0.039,0.703-0.453,1.201-0.847,1.201c-0.236,0-0.375-0.185-0.375-0.418
					c0-0.227,0.178-0.431,0.365-0.431c0.157,0,0.236,0.155,0.276,0.351c0.187-0.194,0.266-0.469,0.266-0.703
					c-0.148,0-0.276,0.06-0.423,0.146c0-0.254,0.217-0.381,0.423-0.381c0-0.333-0.326-0.654-0.778-0.654
					c-0.719,0-0.985,0.4-0.985,1.045c-0.385-0.226-0.739-0.811-0.739-1.356c0-0.548,0.434-1.056,0.985-1.056
					c0.809,0,1.143,0.303,1.508,0.791c0.286,0.381,0.364,0.996,0.364,1.23h0.158c0-0.559-0.256-1.113-0.513-1.592
					c-0.119-0.227-0.256-0.499-0.256-0.743c0-0.294,0.137-0.616,0.335-0.968c0.187-0.342,0.453-0.85,0.63-1.279
					c0.178,0.43,0.444,0.938,0.631,1.279c0.197,0.352,0.335,0.674,0.335,0.968c0,0.244-0.138,0.519-0.256,0.743
					c-0.256,0.479-0.512,1.033-0.512,1.592h0.158c0-0.234,0.079-0.85,0.364-1.23c0.365-0.487,0.7-0.791,1.508-0.791
					c0.552,0,0.985,0.508,0.985,1.056c0,0.547-0.355,1.132-0.739,1.356c0-0.645-0.266-1.045-0.986-1.045
					c-0.453,0-0.778,0.321-0.778,0.654c0.207,0,0.423,0.127,0.423,0.381c-0.147-0.087-0.275-0.146-0.423-0.146
					c0,0.234,0.079,0.509,0.266,0.703c0.04-0.194,0.119-0.351,0.276-0.351c0.187,0,0.365,0.204,0.365,0.431
					c0,0.233-0.138,0.418-0.375,0.418c-0.394,0-0.808-0.498-0.847-1.201H4.428c0,0.246,0.02,0.439,0.079,0.586
					c0.04,0.109,0.079,0.205,0.079,0.304C4.585,19.887,4.389,20.375,4.23,20.727L4.23,20.727L4.23,20.727z"/>
			</defs>
			<use xlink:href="#SVGID_15_"  overflow="visible" fill="#512E8B"/>
			<clipPath id="SVGID_16_">
				<use xlink:href="#SVGID_15_"  overflow="visible"/>
			</clipPath>
			<g transform="matrix(1 0 0 1 9.201777e-010 -4.082967e-007)" clip-path="url(#SVGID_16_)">
			</g>
		</g>
	</g>
</g>
<g>
	<g>
		<g>
			<defs>
				<path id="SVGID_17_" d="M11.435,20.025c0.052-0.142,0.083-0.239,0.087-0.276c0-0.042-0.025-0.11-0.052-0.185l-0.007-0.019
					c-0.01-0.026-0.02-0.051-0.028-0.079c-0.007,0.025-0.016,0.049-0.025,0.07l-0.01,0.027c-0.026,0.072-0.052,0.142-0.053,0.177
					C11.351,19.781,11.382,19.884,11.435,20.025 M12.676,19.795c0.072,0,0.107-0.052,0.107-0.152c0-0.07-0.042-0.127-0.073-0.15
					c-0.01,0.023-0.024,0.063-0.038,0.125l-0.035,0.175C12.651,19.794,12.664,19.795,12.676,19.795 M10.194,19.795
					c0.012,0,0.026-0.001,0.039-0.004l-0.035-0.175c-0.013-0.063-0.027-0.103-0.038-0.124c-0.031,0.023-0.074,0.078-0.074,0.15
					C10.086,19.743,10.123,19.795,10.194,19.795 M14.098,18.469c0.162-0.226,0.281-0.523,0.281-0.81
					c0-0.421-0.335-0.788-0.717-0.788c-0.67,0-0.94,0.211-1.294,0.686c-0.091,0.123-0.159,0.279-0.208,0.438
					c0.19-0.179,0.462-0.292,0.762-0.292C13.535,17.703,13.938,17.971,14.098,18.469 M8.771,18.469
					c0.16-0.498,0.563-0.766,1.176-0.766c0.3,0,0.571,0.113,0.763,0.292c-0.048-0.16-0.117-0.315-0.209-0.44
					c-0.352-0.473-0.623-0.684-1.292-0.684c-0.382,0-0.718,0.367-0.718,0.788C8.49,17.943,8.61,18.243,8.771,18.469 M11.435,18.063
					c0.099-0.414,0.288-0.808,0.473-1.153c0.084-0.159,0.225-0.429,0.225-0.617c0-0.207-0.093-0.466-0.302-0.839
					c-0.116-0.213-0.259-0.482-0.396-0.764c-0.136,0.279-0.28,0.551-0.397,0.767c-0.209,0.37-0.301,0.629-0.301,0.836
					c0,0.188,0.141,0.457,0.225,0.616C11.147,17.255,11.336,17.646,11.435,18.063 M11.435,20.727
					c-0.158-0.352-0.355-0.84-0.355-0.978c0-0.099,0.039-0.194,0.08-0.304c0.059-0.146,0.079-0.34,0.079-0.586h-0.198
					c-0.039,0.703-0.453,1.201-0.847,1.201c-0.236,0-0.375-0.185-0.375-0.418c0-0.227,0.178-0.431,0.365-0.431
					c0.158,0,0.236,0.155,0.276,0.351c0.187-0.194,0.266-0.469,0.266-0.703c-0.148,0-0.276,0.06-0.424,0.146
					c0-0.254,0.217-0.381,0.424-0.381c0-0.333-0.325-0.654-0.778-0.654c-0.719,0-0.985,0.4-0.985,1.045
					c-0.384-0.226-0.739-0.811-0.739-1.356c0-0.548,0.434-1.056,0.985-1.056c0.808,0,1.142,0.303,1.507,0.791
					c0.286,0.381,0.364,0.996,0.364,1.23h0.158c0-0.559-0.257-1.113-0.513-1.592c-0.118-0.227-0.256-0.499-0.256-0.743
					c0-0.294,0.138-0.616,0.335-0.968c0.187-0.342,0.453-0.85,0.63-1.279c0.177,0.43,0.443,0.938,0.63,1.279
					c0.198,0.352,0.335,0.674,0.335,0.968c0,0.244-0.138,0.519-0.256,0.743c-0.256,0.479-0.513,1.033-0.513,1.592h0.158
					c0-0.234,0.079-0.85,0.364-1.23c0.365-0.487,0.7-0.791,1.508-0.791c0.551,0,0.985,0.508,0.985,1.056
					c0,0.547-0.354,1.132-0.738,1.356c0-0.645-0.267-1.045-0.986-1.045c-0.453,0-0.778,0.321-0.778,0.654
					c0.207,0,0.423,0.127,0.423,0.381c-0.147-0.088-0.275-0.146-0.423-0.146c0,0.234,0.079,0.509,0.266,0.703
					c0.04-0.194,0.118-0.351,0.276-0.351c0.187,0,0.364,0.204,0.364,0.431c0,0.233-0.138,0.418-0.375,0.418
					c-0.394,0-0.808-0.498-0.847-1.201H11.63c0,0.246,0.02,0.439,0.08,0.586c0.04,0.109,0.079,0.205,0.079,0.304
					C11.79,19.887,11.592,20.375,11.435,20.727L11.435,20.727L11.435,20.727z"/>
			</defs>
			<use xlink:href="#SVGID_17_"  overflow="visible" fill="#512E8B"/>
			<clipPath id="SVGID_18_">
				<use xlink:href="#SVGID_17_"  overflow="visible"/>
			</clipPath>
			<g transform="matrix(1 0 0 1 -2.148653e-008 -4.082967e-007)" clip-path="url(#SVGID_18_)">
			</g>
		</g>
	</g>
</g>
<g>
	<g>
		<g>
			<defs>
				<path id="SVGID_19_" d="M18.646,20.025c0.053-0.142,0.082-0.239,0.086-0.276c0-0.042-0.023-0.11-0.051-0.185l-0.008-0.019
					c-0.01-0.026-0.02-0.051-0.027-0.079c-0.008,0.025-0.017,0.049-0.024,0.07l-0.011,0.027c-0.026,0.072-0.053,0.142-0.053,0.177
					C18.563,19.781,18.593,19.884,18.646,20.025 M19.887,19.795c0.071,0,0.106-0.052,0.106-0.152c0-0.07-0.041-0.127-0.072-0.15
					c-0.011,0.023-0.024,0.063-0.037,0.125l-0.036,0.175C19.861,19.794,19.874,19.795,19.887,19.795 M17.404,19.795
					c0.013,0,0.025-0.001,0.039-0.004l-0.035-0.175c-0.014-0.063-0.027-0.103-0.037-0.124c-0.031,0.023-0.074,0.078-0.074,0.15
					C17.297,19.743,17.332,19.795,17.404,19.795 M21.311,18.469c0.16-0.226,0.279-0.523,0.279-0.81c0-0.421-0.335-0.788-0.718-0.788
					c-0.669,0-0.938,0.211-1.293,0.686c-0.093,0.123-0.16,0.279-0.209,0.438c0.19-0.179,0.464-0.292,0.764-0.292
					C20.746,17.703,21.148,17.971,21.311,18.469 M15.982,18.469c0.16-0.498,0.563-0.766,1.176-0.766c0.301,0,0.57,0.113,0.762,0.292
					c-0.048-0.16-0.115-0.315-0.207-0.44c-0.354-0.473-0.623-0.684-1.295-0.684c-0.381,0-0.717,0.367-0.717,0.788
					C15.701,17.943,15.82,18.243,15.982,18.469 M18.646,18.063c0.099-0.414,0.287-0.808,0.474-1.153
					c0.084-0.159,0.226-0.429,0.226-0.617c0-0.207-0.094-0.466-0.304-0.839c-0.116-0.213-0.26-0.482-0.396-0.764
					c-0.137,0.279-0.279,0.551-0.397,0.767c-0.207,0.37-0.301,0.629-0.301,0.836c0,0.188,0.142,0.457,0.225,0.616
					C18.357,17.255,18.547,17.646,18.646,18.063 M18.646,20.727c-0.157-0.352-0.354-0.84-0.354-0.978
					c0-0.099,0.039-0.194,0.079-0.304c0.059-0.146,0.078-0.34,0.078-0.586h-0.197c-0.039,0.703-0.452,1.201-0.848,1.201
					c-0.235,0-0.373-0.185-0.373-0.418c0-0.227,0.177-0.431,0.363-0.431c0.158,0,0.236,0.155,0.275,0.351
					c0.188-0.194,0.268-0.469,0.268-0.703c-0.148,0-0.275,0.06-0.424,0.146c0-0.254,0.217-0.381,0.424-0.381
					c0-0.333-0.326-0.654-0.778-0.654c-0.72,0-0.984,0.4-0.984,1.045c-0.385-0.226-0.74-0.811-0.74-1.356
					c0-0.548,0.433-1.056,0.984-1.056c0.81,0,1.146,0.303,1.508,0.791c0.286,0.381,0.365,0.996,0.365,1.23h0.157
					c0-0.559-0.256-1.113-0.512-1.592c-0.119-0.227-0.256-0.499-0.256-0.743c0-0.294,0.137-0.616,0.334-0.968
					c0.188-0.342,0.452-0.85,0.631-1.279c0.178,0.43,0.442,0.938,0.631,1.279c0.195,0.352,0.334,0.674,0.334,0.968
					c0,0.244-0.139,0.519-0.256,0.743c-0.256,0.479-0.513,1.033-0.513,1.592H19c0-0.234,0.079-0.85,0.364-1.23
					c0.366-0.487,0.7-0.791,1.508-0.791c0.553,0,0.985,0.508,0.985,1.056c0,0.547-0.354,1.132-0.739,1.356
					c0-0.645-0.265-1.045-0.984-1.045c-0.452,0-0.778,0.321-0.778,0.654c0.207,0,0.424,0.127,0.424,0.381
					c-0.146-0.088-0.276-0.146-0.424-0.146c0,0.234,0.078,0.509,0.267,0.703c0.04-0.194,0.119-0.351,0.274-0.351
					c0.188,0,0.365,0.204,0.365,0.431c0,0.233-0.137,0.418-0.375,0.418c-0.394,0-0.808-0.498-0.848-1.201h-0.196
					c0,0.246,0.021,0.439,0.079,0.586C18.961,19.555,19,19.65,19,19.749C19,19.887,18.805,20.375,18.646,20.727L18.646,20.727
					L18.646,20.727z"/>
			</defs>
			<use xlink:href="#SVGID_19_"  overflow="visible" fill="#512E8B"/>
			<clipPath id="SVGID_20_">
				<use xlink:href="#SVGID_19_"  overflow="visible"/>
			</clipPath>
			<g transform="matrix(1 0 0 1 -4.119956e-007 -4.082967e-007)" clip-path="url(#SVGID_20_)">
			</g>
		</g>
	</g>
</g>
<g>
	<g>
		<g>
			<defs>
				<path id="SVGID_21_" d="M25.77,20.025c0.054-0.142,0.084-0.239,0.088-0.276c0-0.042-0.025-0.11-0.053-0.185l-0.007-0.019
					c-0.011-0.026-0.021-0.051-0.028-0.079c-0.006,0.025-0.016,0.049-0.023,0.07l-0.012,0.027c-0.025,0.072-0.053,0.142-0.053,0.177
					C25.686,19.781,25.718,19.884,25.77,20.025 M27.012,19.795c0.07,0,0.106-0.052,0.106-0.152c0-0.07-0.042-0.127-0.074-0.15
					c-0.011,0.023-0.022,0.063-0.037,0.125l-0.034,0.175C26.984,19.794,26.998,19.795,27.012,19.795 M24.527,19.795
					c0.014,0,0.027-0.001,0.041-0.004l-0.036-0.175c-0.013-0.063-0.027-0.103-0.038-0.124c-0.03,0.023-0.072,0.078-0.072,0.15
					C24.422,19.743,24.457,19.795,24.527,19.795 M28.434,18.469c0.16-0.226,0.281-0.523,0.281-0.81c0-0.421-0.336-0.788-0.719-0.788
					c-0.67,0-0.939,0.211-1.294,0.686c-0.093,0.123-0.159,0.279-0.207,0.438c0.19-0.179,0.462-0.292,0.763-0.292
					C27.869,17.703,28.273,17.971,28.434,18.469 M23.107,18.469c0.158-0.498,0.562-0.766,1.174-0.766
					c0.302,0,0.572,0.113,0.764,0.292c-0.049-0.16-0.115-0.315-0.209-0.44c-0.354-0.473-0.623-0.684-1.293-0.684
					c-0.382,0-0.717,0.367-0.717,0.788C22.826,17.943,22.945,18.243,23.107,18.469 M25.77,18.063c0.1-0.414,0.289-0.808,0.475-1.153
					c0.084-0.159,0.225-0.429,0.225-0.617c0-0.207-0.093-0.466-0.303-0.839c-0.115-0.213-0.259-0.482-0.396-0.764
					c-0.136,0.279-0.279,0.551-0.396,0.767c-0.208,0.37-0.302,0.629-0.302,0.836c0,0.188,0.142,0.457,0.224,0.616
					C25.482,17.255,25.671,17.646,25.77,18.063 M25.77,20.727c-0.156-0.352-0.354-0.84-0.354-0.978c0-0.099,0.039-0.194,0.079-0.304
					c0.06-0.146,0.079-0.34,0.079-0.586h-0.197c-0.04,0.703-0.453,1.201-0.848,1.201c-0.236,0-0.375-0.185-0.375-0.418
					c0-0.227,0.178-0.431,0.365-0.431c0.156,0,0.235,0.155,0.274,0.351c0.188-0.194,0.267-0.469,0.267-0.703
					c-0.147,0-0.275,0.06-0.424,0.146c0-0.254,0.217-0.381,0.424-0.381c0-0.333-0.326-0.654-0.778-0.654
					c-0.72,0-0.984,0.4-0.984,1.045c-0.384-0.226-0.739-0.811-0.739-1.356c0-0.548,0.435-1.056,0.985-1.056
					c0.81,0,1.144,0.303,1.508,0.791c0.285,0.381,0.364,0.996,0.364,1.23h0.158c0-0.559-0.258-1.113-0.514-1.592
					c-0.117-0.227-0.256-0.499-0.256-0.743c0-0.294,0.139-0.616,0.336-0.968c0.187-0.342,0.451-0.85,0.629-1.279
					c0.179,0.43,0.443,0.938,0.631,1.279c0.197,0.352,0.336,0.674,0.336,0.968c0,0.244-0.139,0.519-0.256,0.743
					c-0.258,0.479-0.514,1.033-0.514,1.592h0.157c0-0.234,0.079-0.85,0.365-1.23c0.364-0.487,0.698-0.791,1.507-0.791
					c0.553,0,0.984,0.508,0.984,1.056c0,0.547-0.354,1.132-0.738,1.356c0-0.645-0.266-1.045-0.984-1.045
					c-0.453,0-0.777,0.321-0.777,0.654c0.207,0,0.422,0.127,0.422,0.381c-0.146-0.088-0.274-0.146-0.422-0.146
					c0,0.234,0.078,0.509,0.265,0.703c0.041-0.194,0.119-0.351,0.276-0.351c0.188,0,0.363,0.204,0.363,0.431
					c0,0.233-0.137,0.418-0.373,0.418c-0.395,0-0.809-0.498-0.849-1.201h-0.196c0,0.246,0.02,0.439,0.079,0.586
					c0.039,0.109,0.078,0.205,0.078,0.304C26.124,19.887,25.928,20.375,25.77,20.727L25.77,20.727L25.77,20.727z"/>
			</defs>
			<use xlink:href="#SVGID_21_"  overflow="visible" fill="#512E8B"/>
			<clipPath id="SVGID_22_">
				<use xlink:href="#SVGID_21_"  overflow="visible"/>
			</clipPath>
			<g transform="matrix(1 0 0 1 -4.583394e-007 -4.082967e-007)" clip-path="url(#SVGID_22_)">
			</g>
		</g>
	</g>
</g>
<g>
	<g>
		<g>
			<defs>
				<path id="SVGID_23_" d="M8.05,26.796c0.052-0.142,0.083-0.239,0.086-0.276c0-0.041-0.025-0.109-0.052-0.185l-0.007-0.021
					c-0.01-0.022-0.02-0.049-0.027-0.076c-0.008,0.025-0.017,0.048-0.025,0.07l-0.01,0.026c-0.027,0.073-0.053,0.142-0.053,0.177
					C7.966,26.553,7.997,26.652,8.05,26.796 M9.291,26.564c0.071,0,0.107-0.053,0.107-0.152c0-0.07-0.042-0.126-0.073-0.148
					c-0.011,0.021-0.025,0.061-0.038,0.123l-0.035,0.174C9.265,26.563,9.279,26.564,9.291,26.564 M6.809,26.564
					c0.013,0,0.026-0.002,0.039-0.004l-0.035-0.174c-0.013-0.064-0.027-0.103-0.038-0.125c-0.031,0.023-0.074,0.079-0.074,0.149
					C6.701,26.514,6.737,26.564,6.809,26.564 M10.713,25.24c0.162-0.229,0.282-0.524,0.282-0.813c0-0.42-0.335-0.787-0.718-0.787
					c-0.67,0-0.94,0.211-1.293,0.686c-0.092,0.121-0.16,0.279-0.208,0.439c0.191-0.18,0.462-0.291,0.762-0.291
					C10.15,24.475,10.553,24.741,10.713,25.24 M5.387,25.24c0.16-0.499,0.563-0.766,1.175-0.766c0.3,0,0.572,0.11,0.762,0.291
					c-0.047-0.16-0.116-0.318-0.208-0.44c-0.353-0.474-0.623-0.685-1.293-0.685c-0.382,0-0.718,0.367-0.718,0.787
					C5.105,24.716,5.226,25.014,5.387,25.24 M8.05,24.831c0.099-0.413,0.287-0.806,0.473-1.151c0.084-0.16,0.226-0.429,0.226-0.617
					c0-0.209-0.093-0.465-0.303-0.84C8.33,22.01,8.186,21.738,8.05,21.46c-0.136,0.278-0.28,0.55-0.397,0.765
					c-0.208,0.373-0.301,0.629-0.301,0.838c0,0.188,0.141,0.457,0.224,0.615C7.762,24.025,7.951,24.418,8.05,24.831 M8.05,27.496
					c-0.158-0.352-0.355-0.84-0.355-0.977c0-0.099,0.04-0.195,0.079-0.304c0.059-0.146,0.079-0.342,0.079-0.586H7.655
					c-0.039,0.703-0.453,1.201-0.847,1.201c-0.236,0-0.375-0.185-0.375-0.42c0-0.226,0.177-0.431,0.365-0.431
					c0.157,0,0.236,0.156,0.276,0.353c0.187-0.196,0.266-0.47,0.266-0.703c-0.148,0-0.276,0.058-0.424,0.146
					c0-0.254,0.217-0.381,0.424-0.381c0-0.332-0.325-0.654-0.779-0.654c-0.719,0-0.985,0.4-0.985,1.045
					c-0.384-0.225-0.738-0.811-0.738-1.357c0-0.546,0.433-1.056,0.985-1.056c0.808,0,1.143,0.304,1.508,0.792
					c0.286,0.381,0.364,0.996,0.364,1.23h0.158c0-0.557-0.256-1.113-0.512-1.592c-0.119-0.227-0.256-0.5-0.256-0.742
					c0-0.293,0.138-0.615,0.335-0.969c0.187-0.342,0.453-0.849,0.631-1.279c0.176,0.432,0.443,0.938,0.63,1.279
					c0.198,0.354,0.335,0.676,0.335,0.969c0,0.242-0.138,0.517-0.257,0.742c-0.256,0.479-0.512,1.035-0.512,1.592h0.157
					c0-0.234,0.079-0.851,0.365-1.23c0.365-0.488,0.699-0.792,1.507-0.792c0.552,0,0.985,0.509,0.985,1.056
					s-0.354,1.135-0.739,1.357c0-0.645-0.266-1.045-0.985-1.045c-0.453,0-0.779,0.322-0.779,0.654c0.208,0,0.424,0.127,0.424,0.381
					c-0.147-0.088-0.275-0.146-0.424-0.146c0,0.233,0.08,0.507,0.266,0.703C9.065,26.137,9.143,25.98,9.3,25.98
					c0.187,0,0.365,0.205,0.365,0.431c0,0.235-0.139,0.42-0.375,0.42c-0.394,0-0.808-0.498-0.848-1.201H8.247
					c0,0.244,0.02,0.438,0.079,0.586c0.04,0.106,0.079,0.205,0.079,0.304C8.404,26.656,8.207,27.145,8.05,27.496L8.05,27.496
					L8.05,27.496z"/>
			</defs>
			<use xlink:href="#SVGID_23_"  overflow="visible" fill="#512E8B"/>
			<clipPath id="SVGID_24_">
				<use xlink:href="#SVGID_23_"  overflow="visible"/>
			</clipPath>
			<g transform="matrix(1 0 0 1 7.906885e-008 -1.292572e-007)" clip-path="url(#SVGID_24_)">
			</g>
		</g>
	</g>
</g>
<g>
	<g>
		<g>
			<defs>
				<path id="SVGID_25_" d="M15.254,26.796c0.053-0.142,0.084-0.239,0.088-0.276c0-0.041-0.025-0.109-0.053-0.185l-0.007-0.021
					c-0.01-0.022-0.019-0.049-0.028-0.076c-0.007,0.025-0.016,0.048-0.025,0.07l-0.01,0.026c-0.026,0.073-0.052,0.142-0.052,0.177
					C15.17,26.553,15.201,26.652,15.254,26.796 M16.495,26.564c0.071,0,0.106-0.053,0.106-0.152c0-0.07-0.041-0.126-0.072-0.148
					c-0.012,0.021-0.024,0.061-0.038,0.123l-0.034,0.174C16.469,26.563,16.482,26.564,16.495,26.564 M14.013,26.564
					c0.013,0,0.025-0.002,0.039-0.004l-0.035-0.174c-0.013-0.064-0.027-0.103-0.037-0.125c-0.032,0.023-0.073,0.079-0.073,0.149
					C13.906,26.514,13.941,26.564,14.013,26.564 M17.917,25.24c0.161-0.229,0.281-0.524,0.281-0.813c0-0.42-0.335-0.787-0.718-0.787
					c-0.67,0-0.94,0.211-1.293,0.686c-0.092,0.121-0.16,0.279-0.209,0.439c0.191-0.18,0.463-0.291,0.764-0.291
					C17.354,24.475,17.758,24.741,17.917,25.24 M12.591,25.24c0.16-0.499,0.563-0.766,1.176-0.766c0.3,0,0.571,0.11,0.762,0.291
					c-0.048-0.16-0.116-0.318-0.208-0.44c-0.354-0.474-0.623-0.685-1.294-0.685c-0.382,0-0.717,0.367-0.717,0.787
					C12.31,24.716,12.43,25.014,12.591,25.24 M15.254,24.831c0.099-0.413,0.287-0.806,0.473-1.151
					c0.086-0.16,0.227-0.429,0.227-0.617c0-0.209-0.094-0.465-0.303-0.84c-0.116-0.213-0.259-0.484-0.396-0.763
					c-0.135,0.278-0.279,0.55-0.396,0.765c-0.209,0.373-0.302,0.629-0.302,0.838c0,0.188,0.141,0.457,0.225,0.615
					C14.966,24.025,15.155,24.418,15.254,24.831 M15.254,27.496c-0.157-0.352-0.354-0.84-0.354-0.977
					c0-0.099,0.039-0.195,0.079-0.304c0.059-0.146,0.079-0.342,0.079-0.586H14.86c-0.04,0.703-0.454,1.201-0.847,1.201
					c-0.237,0-0.375-0.185-0.375-0.42c0-0.226,0.178-0.431,0.364-0.431c0.158,0,0.237,0.156,0.276,0.353
					c0.188-0.196,0.267-0.47,0.267-0.703c-0.148,0-0.276,0.058-0.424,0.146c0-0.254,0.217-0.381,0.424-0.381
					c0-0.332-0.326-0.654-0.778-0.654c-0.719,0-0.985,0.4-0.985,1.045c-0.384-0.225-0.739-0.811-0.739-1.357
					c0-0.546,0.433-1.056,0.984-1.056c0.809,0,1.144,0.304,1.508,0.792c0.286,0.381,0.365,0.996,0.365,1.23h0.158
					c0-0.557-0.257-1.113-0.512-1.592c-0.119-0.227-0.257-0.5-0.257-0.742c0-0.293,0.138-0.615,0.335-0.969
					c0.187-0.342,0.453-0.849,0.63-1.279c0.178,0.432,0.443,0.938,0.631,1.279c0.196,0.354,0.336,0.676,0.336,0.969
					c0,0.242-0.14,0.517-0.257,0.742c-0.257,0.479-0.513,1.035-0.513,1.592h0.158c0-0.234,0.078-0.851,0.363-1.23
					c0.365-0.488,0.699-0.792,1.508-0.792c0.554,0,0.985,0.509,0.985,1.056s-0.354,1.135-0.739,1.357
					c0-0.645-0.266-1.045-0.983-1.045c-0.453,0-0.778,0.322-0.778,0.654c0.207,0,0.424,0.127,0.424,0.381
					c-0.147-0.088-0.275-0.146-0.424-0.146c0,0.233,0.078,0.507,0.266,0.703c0.041-0.196,0.119-0.353,0.276-0.353
					c0.187,0,0.364,0.205,0.364,0.431c0,0.235-0.139,0.42-0.375,0.42c-0.395,0-0.809-0.498-0.848-1.201h-0.197
					c0,0.244,0.02,0.438,0.08,0.586c0.039,0.106,0.078,0.205,0.078,0.304C15.607,26.656,15.412,27.145,15.254,27.496L15.254,27.496
					L15.254,27.496z"/>
			</defs>
			<use xlink:href="#SVGID_25_"  overflow="visible" fill="#512E8B"/>
			<clipPath id="SVGID_26_">
				<use xlink:href="#SVGID_25_"  overflow="visible"/>
			</clipPath>
			<g transform="matrix(1 0 0 1 -3.725982e-007 -1.292572e-007)" clip-path="url(#SVGID_26_)">
			</g>
		</g>
	</g>
</g>
<g>
	<g>
		<g>
			<defs>
				<path id="SVGID_27_" d="M22.464,26.796c0.054-0.142,0.084-0.239,0.088-0.276c0-0.041-0.024-0.109-0.053-0.185l-0.005-0.021
					c-0.012-0.022-0.021-0.049-0.03-0.076c-0.007,0.025-0.016,0.048-0.022,0.07l-0.01,0.026c-0.027,0.073-0.054,0.142-0.055,0.177
					C22.382,26.553,22.412,26.652,22.464,26.796 M23.706,26.564c0.071,0,0.106-0.053,0.106-0.152c0-0.07-0.043-0.126-0.072-0.148
					c-0.012,0.021-0.025,0.061-0.038,0.123l-0.035,0.174C23.68,26.563,23.693,26.564,23.706,26.564 M21.225,26.564
					c0.014,0,0.024-0.002,0.039-0.004l-0.035-0.174c-0.014-0.064-0.027-0.103-0.039-0.125c-0.03,0.023-0.072,0.079-0.072,0.149
					C21.116,26.514,21.152,26.564,21.225,26.564 M25.128,25.24c0.161-0.229,0.281-0.524,0.281-0.813c0-0.42-0.335-0.787-0.718-0.787
					c-0.67,0-0.941,0.211-1.293,0.686c-0.092,0.121-0.16,0.279-0.209,0.439c0.19-0.18,0.463-0.291,0.763-0.291
					C24.564,24.475,24.968,24.741,25.128,25.24 M19.802,25.24c0.16-0.499,0.564-0.766,1.177-0.766c0.301,0,0.57,0.11,0.763,0.291
					c-0.05-0.16-0.117-0.318-0.21-0.44c-0.352-0.474-0.623-0.685-1.292-0.685c-0.384,0-0.718,0.367-0.718,0.787
					C19.521,24.716,19.643,25.014,19.802,25.24 M22.464,24.831c0.101-0.413,0.289-0.806,0.474-1.151
					c0.086-0.16,0.228-0.429,0.228-0.617c0-0.209-0.095-0.465-0.304-0.84c-0.115-0.213-0.26-0.484-0.396-0.763
					c-0.135,0.278-0.279,0.55-0.396,0.765c-0.207,0.373-0.299,0.629-0.299,0.838c0,0.188,0.141,0.457,0.224,0.615
					C22.177,24.025,22.365,24.418,22.464,24.831 M22.464,27.496c-0.157-0.352-0.354-0.84-0.354-0.977
					c0-0.099,0.041-0.195,0.08-0.304c0.06-0.146,0.078-0.342,0.078-0.586H22.07c-0.039,0.703-0.452,1.201-0.848,1.201
					c-0.234,0-0.375-0.185-0.375-0.42c0-0.226,0.18-0.431,0.365-0.431c0.157,0,0.235,0.156,0.275,0.353
					c0.187-0.196,0.267-0.47,0.267-0.703c-0.147,0-0.274,0.058-0.424,0.146c0-0.254,0.217-0.381,0.424-0.381
					c0-0.332-0.325-0.654-0.778-0.654c-0.72,0-0.984,0.4-0.984,1.045c-0.385-0.225-0.738-0.811-0.738-1.357
					c0-0.546,0.434-1.056,0.984-1.056c0.809,0,1.143,0.304,1.508,0.792c0.285,0.381,0.363,0.996,0.363,1.23h0.158
					c0-0.557-0.257-1.113-0.513-1.592c-0.119-0.227-0.257-0.5-0.257-0.742c0-0.293,0.138-0.615,0.335-0.969
					c0.188-0.342,0.454-0.849,0.63-1.279c0.178,0.432,0.444,0.938,0.633,1.279c0.196,0.354,0.334,0.676,0.334,0.969
					c0,0.242-0.138,0.517-0.257,0.742c-0.256,0.479-0.512,1.035-0.512,1.592h0.157c0-0.234,0.078-0.851,0.363-1.23
					c0.365-0.488,0.7-0.792,1.51-0.792c0.552,0,0.984,0.509,0.984,1.056s-0.355,1.135-0.74,1.357c0-0.645-0.266-1.045-0.984-1.045
					c-0.453,0-0.778,0.322-0.778,0.654c0.207,0,0.425,0.127,0.425,0.381c-0.147-0.088-0.275-0.146-0.425-0.146
					c0,0.233,0.08,0.507,0.267,0.703c0.039-0.196,0.119-0.353,0.275-0.353c0.188,0,0.365,0.205,0.365,0.431
					c0,0.235-0.139,0.42-0.375,0.42c-0.395,0-0.809-0.498-0.848-1.201h-0.196c0,0.244,0.021,0.438,0.078,0.586
					c0.04,0.106,0.079,0.205,0.079,0.304C22.818,26.656,22.623,27.145,22.464,27.496L22.464,27.496L22.464,27.496z"/>
			</defs>
			<use xlink:href="#SVGID_27_"  overflow="visible" fill="#512E8B"/>
			<clipPath id="SVGID_28_">
				<use xlink:href="#SVGID_27_"  overflow="visible"/>
			</clipPath>
			<g transform="matrix(1 0 0 1 -1.003182e-006 -1.292572e-007)" clip-path="url(#SVGID_28_)">
			</g>
		</g>
	</g>
</g>
</svg>
