<?xml version="1.0" encoding="utf-8"?>
<!-- Generator: Adobe Illustrator 16.0.3, SVG Export Plug-In . SVG Version: 6.00 Build 0)  -->
<!DOCTYPE svg PUBLIC "-//W3C//DTD SVG 1.1//EN" "http://www.w3.org/Graphics/SVG/1.1/DTD/svg11.dtd">
<svg version="1.1" id="Layer_1" xmlns="http://www.w3.org/2000/svg" xmlns:xlink="http://www.w3.org/1999/xlink" x="0px" y="0px"
	 width="27px" height="27px" viewBox="0 0 27 27" enable-background="new 0 0 27 27" xml:space="preserve">
<g>
	<ellipse fill="none" stroke="#FFFFFF" stroke-miterlimit="10" cx="13.687" cy="3.546" rx="9.566" ry="2.009"/>
	<path fill="none" stroke="#FFFFFF" stroke-miterlimit="10" d="M13.686,5.555c-4.938,0-9.002-0.786-9.509-1.796H4.12V24.46
		c0,0,2.845,1.54,8.964,1.54c7.325,0,10.169-1.54,10.169-1.54V3.759h-0.056C22.689,4.769,18.627,5.555,13.686,5.555z"/>
	<path fill="none" stroke="#FFFFFF" stroke-miterlimit="10" d="M5.675,4.567c1.751-0.472,4.942-0.776,8.011-0.776
		c3.132,0,6.373,0.316,8.117,0.804"/>
	<path fill="none" stroke="#FFFFFF" stroke-miterlimit="10" d="M4.91,2.609c0,0-3.041,1.064-3.041,6.386
		c0,5.321,4.743,8.12,4.743,8.12"/>
	<path fill="none" stroke="#FFFFFF" stroke-miterlimit="10" d="M13.609,18.148c0,0,4.382-0.299,7.51-4.041
		c1.393-1.666,4.38-5.504,2.189-10.552"/>
	<path fill="none" stroke="#FFFFFF" stroke-miterlimit="10" d="M13.749,18.352c-0.104,0.688-0.747,1.164-1.436,1.059l-4.751-0.717
		c-0.688-0.104-1.164-0.748-1.059-1.437l0,0c0.104-0.688,0.746-1.163,1.436-1.062l4.751,0.718
		C13.379,17.02,13.854,17.661,13.749,18.352L13.749,18.352z"/>
	<line fill="none" stroke="#FFFFFF" stroke-miterlimit="10" x1="5.428" y1="8.275" x2="5.428" y2="12.533"/>
	<line fill="none" stroke="#FFFFFF" stroke-miterlimit="10" x1="5.428" y1="13.111" x2="5.428" y2="14.417"/>
	<line fill="none" stroke="#FFFFFF" stroke-miterlimit="10" x1="5.746" y1="20.413" x2="5.746" y2="22.813"/>
	<path fill="none" stroke="#FFFFFF" stroke-miterlimit="10" d="M4.12,5.481c0,0,1.855,0.151,2.828,0.578
		C7.921,6.484,7.981,7.852,9.35,7.852c1.369,0,1.612-1.124,3.072-1.003c1.46,0.122,1.441,1.216,1.46,2.281
		c0.029,1.673,1.397,2.068,2.007,0.487c0.607-1.581-0.375-3.767,3.801-2.494c0.592,0.18,1.305,0.656,1.887-0.913
		c0.395-1.064,1.581-0.637,1.581-0.637"/>
</g>
</svg>
