<?xml version="1.0" encoding="utf-8"?>
<!-- Generator: Adobe Illustrator 16.0.3, SVG Export Plug-In . SVG Version: 6.00 Build 0)  -->
<!DOCTYPE svg PUBLIC "-//W3C//DTD SVG 1.1//EN" "http://www.w3.org/Graphics/SVG/1.1/DTD/svg11.dtd">
<svg version="1.1" id="Layer_1" xmlns="http://www.w3.org/2000/svg" xmlns:xlink="http://www.w3.org/1999/xlink" x="0px" y="0px"
	 width="165px" height="165px" viewBox="0 0 165 165" enable-background="new 0 0 165 165" xml:space="preserve">
<g>
	
		<rect x="12.827" y="9.133" fill="none" stroke="#522E8C" stroke-width="2" stroke-miterlimit="10" width="71.25" height="145.474"/>
	<polyline fill="none" stroke="#522E8C" stroke-width="2" stroke-miterlimit="10" points="84.422,55.902 152.728,55.902 
		152.728,154.606 84.422,154.606 	"/>
	<path fill="none" stroke="#522E8C" stroke-width="2" stroke-miterlimit="10" d="M28.041,20.279c0,17.813,0,17.813,0,17.813"/>
	<path fill="none" stroke="#522E8C" stroke-width="2" stroke-miterlimit="10" d="M48.183,20.279c0,17.813,0,17.813,0,17.813"/>
	<path fill="none" stroke="#522E8C" stroke-width="2" stroke-miterlimit="10" d="M67.819,20.279c0,17.813,0,17.813,0,17.813"/>
	<path fill="none" stroke="#522E8C" stroke-width="2" stroke-miterlimit="10" d="M28.385,45.736c0,17.817,0,17.817,0,17.817"/>
	<path fill="none" stroke="#522E8C" stroke-width="2" stroke-miterlimit="10" d="M48.525,45.736c0,17.817,0,17.817,0,17.817"/>
	<path fill="none" stroke="#522E8C" stroke-width="2" stroke-miterlimit="10" d="M68.161,45.736c0,17.817,0,17.817,0,17.817"/>
	<path fill="none" stroke="#522E8C" stroke-width="2" stroke-miterlimit="10" d="M28.354,71.193c0,17.815,0,17.815,0,17.815"/>
	<path fill="none" stroke="#522E8C" stroke-width="2" stroke-miterlimit="10" d="M48.492,71.193c0,17.815,0,17.815,0,17.815"/>
	<path fill="none" stroke="#522E8C" stroke-width="2" stroke-miterlimit="10" d="M68.135,71.193c0,17.815,0,17.815,0,17.815"/>
	<path fill="none" stroke="#522E8C" stroke-width="2" stroke-miterlimit="10" d="M27.583,96.653c0,17.813,0,17.813,0,17.813"/>
	<path fill="none" stroke="#522E8C" stroke-width="2" stroke-miterlimit="10" d="M47.722,96.653c0,17.813,0,17.813,0,17.813"/>
	<path fill="none" stroke="#522E8C" stroke-width="2" stroke-miterlimit="10" d="M67.365,96.653c0,17.813,0,17.813,0,17.813"/>
	<path fill="none" stroke="#522E8C" stroke-width="2" stroke-miterlimit="10" d="M28.295,122.11c0,17.813,0,17.813,0,17.813"/>
	<path fill="none" stroke="#522E8C" stroke-width="2" stroke-miterlimit="10" d="M48.437,122.11c0,17.813,0,17.813,0,17.813"/>
	<path fill="none" stroke="#522E8C" stroke-width="2" stroke-miterlimit="10" d="M68.078,122.11c0,17.813,0,17.813,0,17.813"/>
	<g>
		<path fill="none" stroke="#522E8C" stroke-width="2" stroke-miterlimit="10" d="M98.521,71.199c0,17.81,0,17.81,0,17.81"/>
		<path fill="none" stroke="#522E8C" stroke-width="2" stroke-miterlimit="10" d="M118.663,71.199c0,17.81,0,17.81,0,17.81"/>
		<path fill="none" stroke="#522E8C" stroke-width="2" stroke-miterlimit="10" d="M138.302,71.199c0,17.81,0,17.81,0,17.81"/>
		<path fill="none" stroke="#522E8C" stroke-width="2" stroke-miterlimit="10" d="M98.862,96.653c0,17.813,0,17.813,0,17.813"/>
		<path fill="none" stroke="#522E8C" stroke-width="2" stroke-miterlimit="10" d="M119.004,96.653c0,17.813,0,17.813,0,17.813"/>
		<path fill="none" stroke="#522E8C" stroke-width="2" stroke-miterlimit="10" d="M138.645,96.653c0,17.813,0,17.813,0,17.813"/>
		<path fill="none" stroke="#522E8C" stroke-width="2" stroke-miterlimit="10" d="M98.837,122.11c0,17.813,0,17.813,0,17.813"/>
		<path fill="none" stroke="#522E8C" stroke-width="2" stroke-miterlimit="10" d="M118.972,122.11c0,17.813,0,17.813,0,17.813"/>
		<path fill="none" stroke="#522E8C" stroke-width="2" stroke-miterlimit="10" d="M138.612,122.11c0,17.813,0,17.813,0,17.813"/>
	</g>
</g>
</svg>
