<?xml version="1.0" encoding="utf-8"?>
<!-- Generator: Adobe Illustrator 16.0.3, SVG Export Plug-In . SVG Version: 6.00 Build 0)  -->
<!DOCTYPE svg PUBLIC "-//W3C//DTD SVG 1.1//EN" "http://www.w3.org/Graphics/SVG/1.1/DTD/svg11.dtd">
<svg version="1.1" id="Layer_1" xmlns="http://www.w3.org/2000/svg" xmlns:xlink="http://www.w3.org/1999/xlink" x="0px" y="0px"
	 width="30px" height="28px" viewBox="0 0 30 28" enable-background="new 0 0 30 28" xml:space="preserve">
<g>
	<g>
		
			<rect x="3.009" y="1.531" fill="none" stroke="#512E8B" stroke-width="1.0483" stroke-miterlimit="10" width="12.214" height="24.938"/>
		<polyline fill="none" stroke="#512E8B" stroke-width="1.0483" stroke-miterlimit="10" points="15.282,9.548 26.991,9.548 
			26.991,26.469 15.282,26.469 		"/>
		<path fill="none" stroke="#512E8B" stroke-width="1.0483" stroke-miterlimit="10" d="M5.617,3.441c0,3.054,0,3.054,0,3.054"/>
		<path fill="none" stroke="#512E8B" stroke-width="1.0483" stroke-miterlimit="10" d="M9.07,3.441c0,3.054,0,3.054,0,3.054"/>
		<path fill="none" stroke="#512E8B" stroke-width="1.0483" stroke-miterlimit="10" d="M12.436,3.441c0,3.054,0,3.054,0,3.054"/>
		<path fill="none" stroke="#512E8B" stroke-width="1.0483" stroke-miterlimit="10" d="M5.676,7.806c0,3.054,0,3.054,0,3.054"/>
		<path fill="none" stroke="#512E8B" stroke-width="1.0483" stroke-miterlimit="10" d="M9.128,7.806c0,3.054,0,3.054,0,3.054"/>
		<path fill="none" stroke="#512E8B" stroke-width="1.0483" stroke-miterlimit="10" d="M12.494,7.806c0,3.054,0,3.054,0,3.054"/>
		<path fill="none" stroke="#512E8B" stroke-width="1.0483" stroke-miterlimit="10" d="M5.671,12.169c0,3.055,0,3.055,0,3.055"/>
		<path fill="none" stroke="#512E8B" stroke-width="1.0483" stroke-miterlimit="10" d="M9.123,12.169c0,3.055,0,3.055,0,3.055"/>
		<path fill="none" stroke="#512E8B" stroke-width="1.0483" stroke-miterlimit="10" d="M12.49,12.169c0,3.055,0,3.055,0,3.055"/>
		<path fill="none" stroke="#512E8B" stroke-width="1.0483" stroke-miterlimit="10" d="M5.539,16.533c0,3.055,0,3.055,0,3.055"/>
		<path fill="none" stroke="#512E8B" stroke-width="1.0483" stroke-miterlimit="10" d="M8.991,16.533c0,3.055,0,3.055,0,3.055"/>
		<path fill="none" stroke="#512E8B" stroke-width="1.0483" stroke-miterlimit="10" d="M12.357,16.533c0,3.055,0,3.055,0,3.055"/>
		<path fill="none" stroke="#512E8B" stroke-width="1.0483" stroke-miterlimit="10" d="M5.661,20.897c0,3.054,0,3.054,0,3.054"/>
		<path fill="none" stroke="#512E8B" stroke-width="1.0483" stroke-miterlimit="10" d="M9.113,20.897c0,3.054,0,3.054,0,3.054"/>
		<path fill="none" stroke="#512E8B" stroke-width="1.0483" stroke-miterlimit="10" d="M12.48,20.897c0,3.054,0,3.054,0,3.054"/>
		<g>
			<path fill="none" stroke="#512E8B" stroke-width="1.0483" stroke-miterlimit="10" d="M17.699,12.171c0,3.054,0,3.054,0,3.054"/>
			<path fill="none" stroke="#512E8B" stroke-width="1.0483" stroke-miterlimit="10" d="M21.152,12.171c0,3.054,0,3.054,0,3.054"/>
			<path fill="none" stroke="#512E8B" stroke-width="1.0483" stroke-miterlimit="10" d="M24.519,12.171c0,3.054,0,3.054,0,3.054"/>
			<path fill="none" stroke="#512E8B" stroke-width="1.0483" stroke-miterlimit="10" d="M17.758,16.533c0,3.055,0,3.055,0,3.055"/>
			<path fill="none" stroke="#512E8B" stroke-width="1.0483" stroke-miterlimit="10" d="M21.21,16.533c0,3.055,0,3.055,0,3.055"/>
			<path fill="none" stroke="#512E8B" stroke-width="1.0483" stroke-miterlimit="10" d="M24.577,16.533c0,3.055,0,3.055,0,3.055"/>
			<path fill="none" stroke="#512E8B" stroke-width="1.0483" stroke-miterlimit="10" d="M17.753,20.897c0,3.054,0,3.054,0,3.054"/>
			<path fill="none" stroke="#512E8B" stroke-width="1.0483" stroke-miterlimit="10" d="M21.205,20.897c0,3.054,0,3.054,0,3.054"/>
			<path fill="none" stroke="#512E8B" stroke-width="1.0483" stroke-miterlimit="10" d="M24.571,20.897c0,3.054,0,3.054,0,3.054"/>
		</g>
	</g>
</g>
</svg>
