<?xml version="1.0" encoding="utf-8"?>
<!-- Generator: Adobe Illustrator 16.0.3, SVG Export Plug-In . SVG Version: 6.00 Build 0)  -->
<!DOCTYPE svg PUBLIC "-//W3C//DTD SVG 1.1//EN" "http://www.w3.org/Graphics/SVG/1.1/DTD/svg11.dtd">
<svg version="1.1" id="Layer_1" xmlns="http://www.w3.org/2000/svg" xmlns:xlink="http://www.w3.org/1999/xlink" x="0px" y="0px"
	 width="18px" height="18px" viewBox="0 0 18 18" enable-background="new 0 0 18 18" xml:space="preserve">
<g>
	<g>
		<polyline fill="none" stroke="#414042" stroke-width="0.65" stroke-miterlimit="10" points="5.178,1.008 6.245,3.883 7.29,1.014 
					"/>
		<line fill="none" stroke="#414042" stroke-width="0.65" stroke-miterlimit="10" x1="6.245" y1="3.59" x2="6.245" y2="6.921"/>
		<path fill="none" stroke="#414042" stroke-width="0.65" stroke-miterlimit="10" d="M9.123,6.921H9.022
			c-0.439,0-0.799-0.359-0.799-0.8V3.704c0-0.44,0.36-0.799,0.799-0.799h0.101c0.439,0,0.799,0.359,0.799,0.799v2.417
			C9.922,6.562,9.562,6.921,9.123,6.921z"/>
		<g>
			<line fill="none" stroke="#414042" stroke-width="0.65" stroke-miterlimit="10" x1="12.759" y1="2.905" x2="12.759" y2="6.93"/>
			<path fill="none" stroke="#414042" stroke-width="0.65" stroke-miterlimit="10" d="M11.314,2.905v3.143
				c0,0-0.01,0.811,0.287,0.733c0.697-0.181,1.157-0.7,1.157-0.7"/>
		</g>
	</g>
	<g>
		<line fill="none" stroke="#414042" stroke-width="0.65" stroke-miterlimit="10" x1="3.667" y1="10.083" x2="6.604" y2="10.083"/>
		<line fill="none" stroke="#414042" stroke-width="0.65" stroke-miterlimit="10" x1="5.136" y1="10.083" x2="5.136" y2="15.328"/>
		<g>
			<line fill="none" stroke="#414042" stroke-width="0.65" stroke-miterlimit="10" x1="8.41" y1="11.303" x2="8.41" y2="15.328"/>
			<path fill="none" stroke="#414042" stroke-width="0.65" stroke-miterlimit="10" d="M6.966,11.303v3.143
				c0,0-0.01,0.813,0.289,0.734c0.696-0.182,1.156-0.701,1.156-0.701"/>
		</g>
		<polyline fill="none" stroke="#414042" stroke-width="0.65" stroke-miterlimit="10" points="9.787,9.715 9.787,11.917 
			9.787,12.216 9.787,15.185 		"/>
		<path fill="none" stroke="#414042" stroke-width="0.65" stroke-miterlimit="10" d="M12.891,13.018h1.378v-1.135
			c0,0,0.062-0.604-0.833-0.604c-0.768,0-0.701,0.638-0.701,0.638l-0.018,2.468c0,0,0.021,0.641,0.776,0.676
			c0.756,0.036,0.743-0.61,0.776-0.977"/>
		<path fill="none" stroke="#414042" stroke-width="0.65" stroke-miterlimit="10" d="M9.787,12.216c0-0.439,0.581-1.005,1.16-1.005
			c0.387,0,0.44,0.323,0.44,0.764v2.418c0,0.608-0.129,0.878-0.46,0.792c-0.371-0.096-1.106-0.62-1.106-1.059"/>
	</g>
	<path fill="none" stroke="#414042" stroke-width="0.65" stroke-miterlimit="10" d="M13.84,16.86H4.098
		c-0.881,0-1.601-0.719-1.601-1.601v-5.36c0-0.881,0.72-1.6,1.601-1.6h9.742c0.879,0,1.601,0.719,1.601,1.6v5.36
		C15.44,16.142,14.719,16.86,13.84,16.86z"/>
</g>
</svg>
