<?xml version="1.0" encoding="utf-8"?>
<!-- Generator: Adobe Illustrator 16.0.3, SVG Export Plug-In . SVG Version: 6.00 Build 0)  -->
<!DOCTYPE svg PUBLIC "-//W3C//DTD SVG 1.1//EN" "http://www.w3.org/Graphics/SVG/1.1/DTD/svg11.dtd">
<svg version="1.1" id="Layer_1" xmlns="http://www.w3.org/2000/svg" xmlns:xlink="http://www.w3.org/1999/xlink" x="0px" y="0px"
	 width="30px" height="28px" viewBox="0 0 30 28" enable-background="new 0 0 30 28" xml:space="preserve">
<g>
	<path fill="none" stroke="#512E8B" stroke-width="0.644" stroke-miterlimit="10" d="M13.633,1.644
		C5.915,2.132,3.278,8.872,3.278,8.872c3.614-2.54,6.74,0.391,6.74,0.391c2.148-1.856,3.614-1.368,3.614-1.368
		s1.464-0.488,3.613,1.368c0,0,3.126-2.931,6.74-0.391C23.986,8.872,21.349,2.132,13.633,1.644z"/>
	<line fill="none" stroke="#512E8B" stroke-width="0.644" stroke-miterlimit="10" x1="13.633" y1="16.296" x2="13.633" y2="7.838"/>
	<polyline fill="none" stroke="#512E8B" stroke-width="0.644" stroke-miterlimit="10" points="10.994,18.64 18.833,11.509 
		26.722,18.64 	"/>
	<polyline fill="none" stroke="#512E8B" stroke-width="0.644" stroke-miterlimit="10" points="24.475,18.151 24.475,26.356 
		13.633,26.356 13.633,18.151 	"/>
	<polyline fill="none" stroke="#512E8B" stroke-width="0.644" stroke-miterlimit="10" points="20.47,15.303 18.833,13.854 
		14.608,17.761 	"/>
</g>
</svg>
