<?xml version="1.0" encoding="utf-8"?>
<!-- Generator: Adobe Illustrator 16.0.3, SVG Export Plug-In . SVG Version: 6.00 Build 0)  -->
<!DOCTYPE svg PUBLIC "-//W3C//DTD SVG 1.1//EN" "http://www.w3.org/Graphics/SVG/1.1/DTD/svg11.dtd">
<svg version="1.1" id="Layer_1" xmlns="http://www.w3.org/2000/svg" xmlns:xlink="http://www.w3.org/1999/xlink" x="0px" y="0px"
	 width="30px" height="30px" viewBox="0 0 30 30" enable-background="new 0 0 30 30" xml:space="preserve">
<g>
	<polyline fill="none" stroke="#FFFFFF" stroke-linecap="round" stroke-miterlimit="10" points="11.753,27.813 0.99,27.813 
		0.99,8.637 4.125,8.637 	"/>
	<polyline fill="none" stroke="#FFFFFF" stroke-linecap="round" stroke-miterlimit="10" points="26.121,8.637 28.994,8.637 
		28.994,27.813 19.226,27.813 	"/>
	<path fill="none" stroke="#FFFFFF" stroke-linecap="round" stroke-miterlimit="10" d="M6.718,10.623c0,0,3.656-0.208,5.8,2.037"/>
	<path fill="none" stroke="#FFFFFF" stroke-linecap="round" stroke-miterlimit="10" d="M6.718,14.451c0,0,3.656-0.209,5.8,2.038"/>
	<path fill="none" stroke="#FFFFFF" stroke-linecap="round" stroke-miterlimit="10" d="M6.718,18.28c0,0,3.656-0.21,5.8,2.037"/>
	<path fill="none" stroke="#FFFFFF" stroke-linecap="round" stroke-miterlimit="10" d="M26.18,4.875
		c-4.963-0.94-11.014,3.92-11.014,3.92s-6.049-4.86-11.013-3.92c-0.053,0.011,0,18.391,0,18.391
		c6.896-0.991,11.013,3.448,11.013,3.448s3.772-3.814,11.014-3.448C26.241,23.269,26.231,4.885,26.18,4.875z"/>
	<path fill="none" stroke="#FFFFFF" stroke-linecap="round" stroke-miterlimit="10" d="M23.561,10.623c0,0-3.656-0.208-5.801,2.037"
		/>
	<path fill="none" stroke="#FFFFFF" stroke-linecap="round" stroke-miterlimit="10" d="M23.561,14.451c0,0-3.656-0.209-5.801,2.038"
		/>
	<path fill="none" stroke="#FFFFFF" stroke-linecap="round" stroke-miterlimit="10" d="M23.561,18.28c0,0-3.656-0.21-5.801,2.037"/>
	
		<line fill="none" stroke="#FFFFFF" stroke-linecap="round" stroke-miterlimit="10" x1="15.176" y1="26.506" x2="15.176" y2="8.794"/>
</g>
</svg>
