<?xml version="1.0" encoding="utf-8"?>
<!-- Generator: Adobe Illustrator 16.0.3, SVG Export Plug-In . SVG Version: 6.00 Build 0)  -->
<!DOCTYPE svg PUBLIC "-//W3C//DTD SVG 1.1//EN" "http://www.w3.org/Graphics/SVG/1.1/DTD/svg11.dtd">
<svg version="1.1" id="Layer_1" xmlns="http://www.w3.org/2000/svg" xmlns:xlink="http://www.w3.org/1999/xlink" x="0px" y="0px"
	 width="27px" height="27px" viewBox="0 0 27 27" enable-background="new 0 0 27 27" xml:space="preserve">
<g>
	<path fill="none" stroke="#FFFFFF" stroke-width="1.25" stroke-miterlimit="10" d="M14.129,6.767c0,0-3.494-0.188-5.26,3.092
		c-0.414,0.768-2.382,3.585,0.933,8.049c0,0,1.16,1.088,0.828,3.078"/>
	<path fill="none" stroke="#FFFFFF" stroke-width="1.25" stroke-miterlimit="10" d="M14.129,6.767c0,0,3.492-0.188,5.262,3.092
		c0.412,0.768,2.379,3.585-0.937,8.049c0,0-1.157,1.088-0.825,3.078"/>
	<line fill="none" stroke="#FFFFFF" stroke-width="1.25" stroke-miterlimit="10" x1="14.129" y1="0" x2="14.129" y2="4.327"/>
	<line fill="none" stroke="#FFFFFF" stroke-width="1.25" stroke-miterlimit="10" x1="1.912" y1="12.947" x2="6.238" y2="12.947"/>
	<line fill="none" stroke="#FFFFFF" stroke-width="1.25" stroke-miterlimit="10" x1="22.674" y1="12.947" x2="27" y2="12.947"/>
	<line fill="none" stroke="#FFFFFF" stroke-width="1.25" stroke-miterlimit="10" x1="4.663" y1="4.348" x2="7.813" y2="7.314"/>
	<line fill="none" stroke="#FFFFFF" stroke-width="1.25" stroke-miterlimit="10" x1="21.1" y1="18.578" x2="24.248" y2="21.545"/>
	<line fill="none" stroke="#FFFFFF" stroke-width="1.25" stroke-miterlimit="10" x1="24.248" y1="4.224" x2="21.1" y2="7.19"/>
	<line fill="none" stroke="#FFFFFF" stroke-width="1.25" stroke-miterlimit="10" x1="7.813" y1="18.455" x2="4.663" y2="21.42"/>
	<line fill="none" stroke="#FFFFFF" stroke-width="1.25" stroke-miterlimit="10" x1="10.63" y1="22.561" x2="18.174" y2="22.561"/>
	<line fill="none" stroke="#FFFFFF" stroke-width="1.25" stroke-miterlimit="10" x1="11.542" y1="24.219" x2="17.236" y2="24.219"/>
	<line fill="none" stroke="#FFFFFF" stroke-width="1.25" stroke-miterlimit="10" x1="12.454" y1="25.875" x2="16.102" y2="25.875"/>
	<path fill="none" stroke="#FFFFFF" stroke-width="1.25" stroke-miterlimit="10" d="M14.775,9.051c0,0-4.887-0.539-4.559,4.826"/>
</g>
</svg>
