<?xml version="1.0" encoding="utf-8"?>
<!-- Generator: Adobe Illustrator 16.0.3, SVG Export Plug-In . SVG Version: 6.00 Build 0)  -->
<!DOCTYPE svg PUBLIC "-//W3C//DTD SVG 1.1//EN" "http://www.w3.org/Graphics/SVG/1.1/DTD/svg11.dtd">
<svg version="1.1" id="Layer_1" xmlns="http://www.w3.org/2000/svg" xmlns:xlink="http://www.w3.org/1999/xlink" x="0px" y="0px"
	 width="75px" height="75px" viewBox="0 0 75 75" enable-background="new 0 0 75 75" xml:space="preserve">
<circle fill="#1B3764" cx="37.5" cy="37.5" r="35"/>
<g>
	<path fill="#FFFFFF" d="M38.146,49.9V26.637c0-0.429-0.289-0.778-0.646-0.778c-0.357,0-0.646,0.349-0.646,0.778V49.9
		c0,0.432,0.288,0.78,0.646,0.78C37.856,50.681,38.146,50.332,38.146,49.9z"/>
	<path fill="#FFFFFF" d="M56.875,24.005c-1.366,0-3.068-0.589-4.869-1.212c-2.28-0.79-4.865-1.686-7.549-1.686
		c-3.103,0-4.995,1.36-6.037,2.5c-0.39,0.427-0.691,0.854-0.92,1.234c-0.229-0.379-0.53-0.807-0.92-1.234
		c-1.042-1.141-2.935-2.5-6.038-2.5c-2.682,0-5.267,0.896-7.548,1.686c-1.802,0.623-3.503,1.212-4.869,1.212
		c-0.355,0-0.645,0.289-0.645,0.646v26.012c0,0.358,0.289,0.646,0.645,0.646c1.583,0,3.385-0.623,5.292-1.285
		c2.185-0.755,4.661-1.613,7.125-1.613c2.113,0,3.824,0.7,5.083,2.08c0.241,0.264,0.649,0.282,0.913,0.041
		c0.264-0.239,0.282-0.649,0.042-0.912c-1.042-1.14-2.936-2.499-6.038-2.499c-2.682,0-5.268,0.894-7.548,1.685
		c-1.527,0.528-2.983,1.032-4.223,1.175V25.265c1.42-0.135,2.992-0.68,4.646-1.251c2.185-0.757,4.661-1.614,7.125-1.614
		c4.984,0,6.288,3.958,6.341,4.124c0.083,0.271,0.333,0.457,0.617,0.457s0.533-0.185,0.618-0.457
		c0.012-0.041,1.323-4.124,6.339-4.124c2.465,0,4.941,0.857,7.127,1.614c1.651,0.572,3.225,1.116,4.644,1.251V49.98
		c-1.239-0.143-2.693-0.646-4.222-1.175c-2.28-0.791-4.865-1.685-7.549-1.685c-3.103,0-4.995,1.359-6.037,2.5
		c-0.24,0.263-0.221,0.672,0.042,0.911c0.263,0.241,0.672,0.223,0.912-0.041c1.262-1.38,2.971-2.08,5.083-2.08
		c2.465,0,4.941,0.858,7.127,1.613c1.906,0.662,3.707,1.285,5.291,1.285c0.356,0,0.645-0.288,0.645-0.646V24.651
		C57.52,24.294,57.231,24.005,56.875,24.005z"/>
	<path fill="#FFFFFF" d="M56.875,52.602c-1.366,0-3.068-0.589-4.869-1.213c-2.28-0.79-4.865-1.686-7.549-1.686
		c-2.913,0-4.76,1.199-5.837,2.291h-2.24c-1.077-1.092-2.923-2.291-5.838-2.291c-2.682,0-5.268,0.896-7.548,1.686
		c-1.802,0.624-3.503,1.213-4.869,1.213c-0.355,0-0.645,0.289-0.645,0.646c0,0.355,0.289,0.645,0.645,0.645
		c1.583,0,3.385-0.623,5.292-1.282c2.185-0.759,4.661-1.616,7.125-1.616c2.113,0,3.824,0.7,5.083,2.08
		c0.123,0.136,0.297,0.21,0.479,0.21h2.793c0.183,0,0.354-0.074,0.478-0.21c1.262-1.38,2.971-2.08,5.083-2.08
		c2.465,0,4.941,0.857,7.127,1.616c1.906,0.659,3.707,1.282,5.289,1.282c0.358,0,0.646-0.289,0.646-0.645
		C57.52,52.891,57.231,52.602,56.875,52.602z"/>
</g>
</svg>
