<?xml version="1.0" encoding="utf-8"?>
<!-- Generator: Adobe Illustrator 16.0.3, SVG Export Plug-In . SVG Version: 6.00 Build 0)  -->
<!DOCTYPE svg PUBLIC "-//W3C//DTD SVG 1.1//EN" "http://www.w3.org/Graphics/SVG/1.1/DTD/svg11.dtd">
<svg version="1.1" id="Layer_1" xmlns="http://www.w3.org/2000/svg" xmlns:xlink="http://www.w3.org/1999/xlink" x="0px" y="0px"
	 width="75px" height="75px" viewBox="0 0 75 75" enable-background="new 0 0 75 75" xml:space="preserve">
<circle fill="#1B3764" cx="37.5" cy="37.5" r="35"/>
<g>
	<g>
		<path fill="#FFFFFF" d="M37.5,20.604c-5.36,0-9.721,4.36-9.721,9.72c0,5.359,4.36,9.72,9.721,9.72c5.361,0,9.72-4.361,9.72-9.72
			C47.221,24.964,42.861,20.604,37.5,20.604z M37.5,38.709c-4.623,0-8.385-3.762-8.385-8.385c0-4.623,3.761-8.384,8.385-8.384
			c4.622,0,8.385,3.762,8.385,8.384S42.122,38.709,37.5,38.709z"/>
		<path fill="#FFFFFF" d="M52.529,30.324c0-8.287-6.742-15.029-15.029-15.029c-8.286,0-15.029,6.742-15.029,15.029
			c0,4.841,2.317,9.336,6.224,12.166l-4.784,12.259c-0.101,0.258-0.063,0.551,0.099,0.773c0.163,0.225,0.435,0.355,0.705,0.336
			l5.434-0.298l3.795,3.899c0.155,0.159,0.367,0.246,0.583,0.246c0.054,0,0.108-0.005,0.162-0.017
			c0.271-0.053,0.496-0.243,0.597-0.5l2.213-5.672l2.214,5.672c0.1,0.257,0.324,0.447,0.596,0.5
			c0.053,0.012,0.109,0.017,0.162,0.017c0.217,0,0.428-0.086,0.584-0.246l3.795-3.899l5.434,0.298c0.018,0,0.037,0.002,0.055,0
			c0.445,0.007,0.822-0.36,0.822-0.813c0-0.161-0.049-0.311-0.129-0.438l-4.729-12.117C50.211,39.66,52.529,35.165,52.529,30.324z
			 M34.23,57.417l-3.173-3.26c-0.154-0.158-0.365-0.247-0.583-0.247c-0.015,0-0.03,0-0.045,0.001l-4.541,0.249l4.203-10.768
			c0.015,0.009,0.031,0.017,0.047,0.024c0.183,0.103,0.372,0.194,0.558,0.288c0.15,0.078,0.297,0.158,0.45,0.231
			c0.067,0.031,0.136,0.057,0.203,0.086c1.257,0.568,2.582,0.961,3.948,1.163c0.006,0.002,0.013,0.003,0.02,0.003
			c0.296,0.043,0.596,0.073,0.898,0.099c0.078,0.006,0.156,0.018,0.234,0.022c0.239,0.016,0.48,0.02,0.722,0.025
			c0.11,0.003,0.221,0.013,0.33,0.013c0.033,0,0.067-0.005,0.101-0.005c0.417-0.005,0.836-0.022,1.258-0.063
			c0.031-0.002,0.061-0.002,0.092-0.005c0.006,0,0.012,0,0.018-0.001l-2.226,5.701v0.001L34.23,57.417z M44.57,53.911
			c-0.23-0.01-0.463,0.077-0.627,0.246l-3.172,3.26l-2.396-6.141l2.459-6.301c0.277-0.062,0.549-0.14,0.818-0.219
			c0.066-0.017,0.131-0.03,0.193-0.051c0.418-0.124,0.83-0.271,1.232-0.434c0.113-0.045,0.221-0.097,0.332-0.143
			c0.299-0.129,0.594-0.267,0.883-0.413c0.123-0.063,0.248-0.127,0.369-0.192c0.082-0.046,0.168-0.084,0.248-0.131l4.205,10.769
			L44.57,53.911z M44.865,41.512c-1.463,0.966-3.072,1.625-4.787,1.959c-1.328,0.257-2.651,0.316-3.938,0.186
			c-2.146-0.215-4.193-0.948-6.006-2.146c-3.78-2.493-6.036-6.676-6.036-11.189c0-7.39,6.011-13.4,13.4-13.4
			c7.39,0,13.402,6.011,13.402,13.4C50.902,34.836,48.645,39.02,44.865,41.512z"/>
	</g>
</g>
</svg>
