<?xml version="1.0" encoding="utf-8"?>
<!-- Generator: Adobe Illustrator 16.0.3, SVG Export Plug-In . SVG Version: 6.00 Build 0)  -->
<!DOCTYPE svg PUBLIC "-//W3C//DTD SVG 1.1//EN" "http://www.w3.org/Graphics/SVG/1.1/DTD/svg11.dtd">
<svg version="1.1" id="Layer_1" xmlns="http://www.w3.org/2000/svg" xmlns:xlink="http://www.w3.org/1999/xlink" x="0px" y="0px"
	 width="75px" height="75px" viewBox="0 0 75 75" enable-background="new 0 0 75 75" xml:space="preserve">
<circle fill="#48C2C5" cx="37.5" cy="37.5" r="35"/>
<g>
	<path fill="#FFFFFF" d="M51.72,40.487l-0.091-0.104c-0.423-0.527-1.352-1.271-2.699-1.785l-0.216-0.064
		c-1.482-0.683-2.813-1.129-3.075-1.214c-0.298-0.099-0.543-0.204-0.744-0.292c-1.546-0.762-1.748-1.208-1.779-1.307l-0.08-0.182
		l0.072-0.167c1.157-1.442,1.972-3.124,2.285-4.716l0.048-0.111c0.319-0.404,0.524-0.879,0.604-1.402
		c0.365-1.329,0.385-2.304,0.056-2.984l-0.037-0.073l0.02-0.08c0.412-1.72,0.808-4.942-1.168-7.187
		c-0.313-0.392-1.516-1.729-3.87-2.419l-1.148-0.393c-1.921-0.59-3.11-0.718-3.267-0.719c-0.125,0-0.234,0.012-0.394,0.051
		l-0.155,0.025c-0.607-0.097-1.358,0.176-1.56,0.254c-0.664,0.278-4.023,1.832-5.087,5.125c-0.176,0.466-0.537,1.889-0.069,5.004
		l0.013,0.095l-0.058,0.077c-0.478,0.639-0.514,1.678-0.114,3.082c0.102,0.62,0.303,1.113,0.604,1.492l0.053,0.113
		c0.291,1.628,1.016,3.24,2.097,4.657l0.1,0.135l-0.096,0.137c-0.046,0.07-0.079,0.141-0.085,0.185
		c-0.269,0.765-3.257,2.099-5.878,2.901c-1.887,0.714-2.714,1.868-2.718,1.877c-2.6,3.854-2.927,12.131-2.941,12.488
		c0.041,2.152,1.019,2.591,1.207,2.653l0.165,0.073l31.549-0.005c0,0,1.361-0.593,1.396-2.782
		C54.645,52.573,54.27,44.279,51.72,40.487z M32.821,36.575l0.156-0.145l0.155,0.147c1.377,1.297,2.9,2.011,4.287,2.011
		c1.458,0,2.961-0.635,4.352-1.831l0.116-0.099l0.304,0.148c0.256,0.237,0.722,0.575,0.929,0.677l0.288,0.139l-0.031,0.031
		l0.111,0.066c0.262,0.154,0.542,0.305,0.862,0.465c0.325,0.142,0.601,0.25,0.893,0.348c0.059,0.02,1.431,0.462,2.996,1.187
		l0.279,0.087c1.486,0.566,2.113,1.363,2.136,1.393c2.306,3.422,2.696,10.897,2.732,11.732c-0.018,1.172-0.438,1.53-0.438,1.53
		l-30.876,0.016c0,0-0.429-0.412-0.451-1.485c0.002-0.08,0.277-8.147,2.698-11.745c0.118-0.148,0.776-0.915,2.092-1.418
		c1.157-0.357,4.017-1.306,5.582-2.438c0.071-0.041,0.142-0.116,0.2-0.177C32.307,37.089,32.545,36.833,32.821,36.575z
		 M30.364,26.675l0.054-0.061c0.21-0.153,0.312-0.392,0.272-0.638c-0.524-3.164-0.182-4.482-0.063-4.813
		c0.916-2.811,3.802-4.126,4.369-4.359c0.119-0.046,0.339-0.113,0.572-0.151l0.059-0.013l0.479-0.027l0.001,0.028l0.103-0.008
		c0.096-0.009,0.187-0.024,0.296-0.046l0.11-0.025c0.089,0,1.203,0.141,2.882,0.655l1.158,0.397
		c2.113,0.625,3.097,1.795,3.276,2.028c1.699,1.926,1.246,4.83,0.824,6.39c-0.048,0.179-0.018,0.366,0.083,0.52l0.095,0.122
		c0.155,0.206,0.214,0.899-0.134,2.186c-0.068,0.419-0.226,0.76-0.455,0.987c-0.081,0.088-0.14,0.209-0.162,0.336
		c-0.572,3.365-3.588,7.13-6.765,7.13c-2.702,0-5.78-3.465-6.334-7.127c-0.02-0.133-0.078-0.253-0.171-0.355
		c-0.23-0.239-0.378-0.583-0.467-1.096C30.18,27.773,30.153,26.998,30.364,26.675z"/>
</g>
</svg>
