<?xml version="1.0" encoding="utf-8"?>
<!-- Generator: Adobe Illustrator 16.0.3, SVG Export Plug-In . SVG Version: 6.00 Build 0)  -->
<!DOCTYPE svg PUBLIC "-//W3C//DTD SVG 1.1//EN" "http://www.w3.org/Graphics/SVG/1.1/DTD/svg11.dtd">
<svg version="1.1" id="Layer_1" xmlns="http://www.w3.org/2000/svg" xmlns:xlink="http://www.w3.org/1999/xlink" x="0px" y="0px"
	 width="165px" height="165px" viewBox="0 0 165 165" enable-background="new 0 0 165 165" xml:space="preserve">
<g>
	<circle fill="none" stroke="#522E8C" stroke-width="2" stroke-miterlimit="10" cx="106.736" cy="52.969" r="23.218"/>
	<path fill="none" stroke="#522E8C" stroke-width="2" stroke-miterlimit="10" d="M75.372,112.813V98.314
		c0-6.634,5.375-12.008,12.008-12.008h39.363c6.634,0,12.009,5.374,12.009,12.008v15.158"/>
	<path fill="none" stroke="#522E8C" stroke-width="2" stroke-miterlimit="10" d="M58.085,116.997
		c10.926-4.621,10.926-4.621,10.926-4.621h90.801L112.438,136.5H68.797"/>
	<path fill="none" stroke="#522E8C" stroke-width="2" stroke-miterlimit="10" d="M69.011,112.376"/>
	<path fill="none" stroke="#522E8C" stroke-width="2" stroke-miterlimit="10" d="M59.769,83.861
		c0,12.821-10.394,23.216-23.219,23.216c-12.821,0-23.217-10.395-23.217-23.216c0-12.825,10.396-23.22,23.217-23.22
		C49.375,60.642,59.769,71.036,59.769,83.861z"/>
	<path fill="none" stroke="#522E8C" stroke-width="2" stroke-miterlimit="10" d="M5.188,149.436v-20.229
		c0-6.634,5.375-12.009,12.008-12.009h39.364c6.633,0,12.008,5.375,12.008,12.009v20.229"/>
</g>
</svg>
