<?xml version="1.0" encoding="utf-8"?>
<!-- Generator: Adobe Illustrator 18.1.1, SVG Export Plug-In . SVG Version: 6.00 Build 0)  -->
<svg version="1.1" id="Layer_1" xmlns="http://www.w3.org/2000/svg" xmlns:xlink="http://www.w3.org/1999/xlink" x="0px" y="0px"
	 viewBox="0 0 192 166" enable-background="new 0 0 192 166" xml:space="preserve">
<g>
	<path fill="none" stroke="#512B8B" stroke-width="2" stroke-miterlimit="10" d="M105.4,11.3H46.3h-15c0,0-16.8,34-19.5,46.2
		c-1.4,6.4-0.7,18.6,16,21c16.8,2.4,21.3-8.6,21.3-8.6l7.1-58"/>
	<path fill="none" stroke="#512B8B" stroke-width="2" stroke-miterlimit="10" d="M49.1,69.9c0,0,4.8,8.4,17.2,8.6
		c12.5,0.2,15.9-8.6,15.9-8.6l3.4-58.6"/>
	<path fill="none" stroke="#512B8B" stroke-width="2" stroke-miterlimit="10" d="M82.8,69.9c0,0,1.3,8.4,13.8,8.6
		c12.5,0.2,15.9-8.6,15.9-8.6l-3.4-58.6"/>
	<g>
		<path fill="none" stroke="#512B8B" stroke-width="2" stroke-miterlimit="10" d="M98.6,11.3h59.1h5.8c0,0,16.8,34,19.5,46.2
			c1.4,6.4,0.7,18.6-16,21c-16.8,2.4-21.3-8.6-21.3-8.6l-7.1-58"/>
		<path fill="none" stroke="#512B8B" stroke-width="2" stroke-miterlimit="10" d="M145.8,69.9c0,0-4.8,8.4-17.2,8.6
			c-12.5,0.2-15.9-8.6-15.9-8.6l-3.4-58.6"/>
	</g>
	<line fill="none" stroke="#512B8B" stroke-width="2" stroke-miterlimit="10" x1="31.5" y1="90.2" x2="31.5" y2="157.3"/>
	<line fill="none" stroke="#512B8B" stroke-width="2" stroke-miterlimit="10" x1="163.5" y1="90.2" x2="163.5" y2="157.3"/>
	<line fill="none" stroke="#512B8B" stroke-width="2" stroke-miterlimit="10" x1="9.1" y1="158.3" x2="185.4" y2="158.3"/>
</g>
<g>
	<path fill="#512B8B" d="M91,144.6c0,0-1.2,0-2.3-0.7c-1-0.6-2.3-1.9-2.3-4.5v-0.2l0.3-0.3c0.3-0.5,1.3-2.2,1.3-7.7l0-0.2L88,131
		c-0.4-0.8-2.1-3.6-5.8-3.6l-0.7,0l0-4.8l-1-13.6l21,0.1l-1.1,13.5l0,4.8l-0.6,0c-1.9,0-3.4,0.6-4.5,1.6c-0.8,0.8-1.1,1.6-1.2,1.9
		l0,0.2c0,5.5,0.9,7.3,1.2,7.7l0.3,0.2l0.1,0.4c0,1.6-0.5,2.9-1.4,3.8C92.9,144.6,91.1,144.6,91,144.6 M87.6,128.4
		c1.2,1.2,1.7,2.6,1.7,2.6c0,5.5-0.9,7.7-1.5,8.5l-0.1,0.2l0,0.2c0.1,1.4,0.6,2.5,1.7,3c0.7,0.4,1.4,0.5,1.7,0.5l0,0h0
		c0.6,0,1.7-0.3,2.4-1c0.6-0.6,0.9-1.4,1-2.5l0-0.3l-0.1-0.1c-0.5-0.8-1.4-2.9-1.4-8.5c0,0,0.2-1.3,1.4-2.6l0.9-1l-8.7,0L87.6,128.4
		z M99.3,126.2l0-4l-16.5-0.1l0,4L99.3,126.2z M99.4,121.1l0.8-10.8l-9,0l0.1,3.2l-1.2,0.1l-0.1-3.3l-3.4,0l0.4,7.7l-1.2,0.1
		l-0.4-7.7l-3.5,0l0.8,10.8L99.4,121.1z"/>
	<path fill="#512B8B" d="M100,137.8c-0.4,0-0.7-0.3-0.7-0.7c0-0.4,0.3-0.7,0.7-0.7h10.7c0.4,0,0.7,0.3,0.7,0.7
		c0,0.4-0.3,0.7-0.7,0.7H100z"/>
	<path fill="#512B8B" d="M101.2,141.5c-0.4,0-0.7-0.3-0.7-0.7c0-0.4,0.3-0.7,0.7-0.7h8.3c0.4,0,0.7,0.3,0.7,0.7
		c0,0.4-0.3,0.7-0.7,0.7H101.2z"/>
	<path fill="#512B8B" d="M105.3,91.9c-0.4,0-0.7-0.3-0.7-0.7v-3.6c0-0.4,0.3-0.7,0.7-0.7c0.4,0,0.7,0.3,0.7,0.7v3.6
		C106,91.6,105.7,91.9,105.3,91.9"/>
	<path fill="#512B8B" d="M102.3,145.1c-0.4,0-0.7-0.3-0.7-0.7c0-0.4,0.3-0.7,0.7-0.7h5.9c0.4,0,0.7,0.3,0.7,0.7
		c0,0.4-0.3,0.7-0.7,0.7H102.3z"/>
	<path fill="#512B8B" d="M115.7,94.7c-0.1,0-0.2,0-0.3-0.1c-0.3-0.2-0.4-0.6-0.2-0.9l1.8-3.1c0.1-0.2,0.3-0.3,0.6-0.3
		c0.1,0,0.2,0,0.3,0.1c0.2,0.1,0.3,0.2,0.3,0.4c0,0.2,0,0.4-0.1,0.5l-1.8,3.1C116.2,94.5,116,94.7,115.7,94.7"/>
	<path fill="#512B8B" d="M94.8,94.7c-0.2,0-0.5-0.1-0.6-0.3l-1.8-3.1c-0.2-0.3-0.1-0.7,0.2-0.9c0.1-0.1,0.2-0.1,0.3-0.1
		c0.2,0,0.5,0.1,0.6,0.3l1.8,3.1c0.2,0.3,0.1,0.7-0.2,0.9C95.1,94.6,95,94.7,94.8,94.7"/>
	<path fill="#512B8B" d="M87.2,102.3c-0.1,0-0.2,0-0.3-0.1l-3.1-1.8c-0.2-0.1-0.3-0.2-0.3-0.4c0-0.2,0-0.4,0.1-0.5
		c0.1-0.2,0.3-0.3,0.6-0.3c0.1,0,0.2,0,0.3,0.1l3.1,1.8c0.3,0.2,0.4,0.6,0.2,0.9C87.7,102.2,87.4,102.3,87.2,102.3"/>
	<path fill="#512B8B" d="M122,102.3c0.1,0,0.2,0,0.3-0.1l3.1-1.8c0.2-0.1,0.3-0.2,0.3-0.4c0-0.2,0-0.4-0.1-0.5
		c-0.1-0.2-0.3-0.3-0.6-0.3c-0.1,0-0.2,0-0.3,0.1l-3.1,1.8c-0.3,0.2-0.4,0.6-0.2,0.9C121.6,102.2,121.8,102.3,122,102.3"/>
	<path fill="#512B8B" d="M95,107.3c-0.1,0-0.2,0-0.3-0.1c-0.2-0.1-0.3-0.2-0.3-0.4c0-0.2,0-0.4,0.1-0.5c0.4-0.7,0.8-1.3,1.3-1.9
		c0.5-0.6,1.1-1.1,1.7-1.6c0.6-0.5,1.2-0.9,1.9-1.2c0.7-0.3,1.4-0.6,2.1-0.8c0.8-0.2,1.6-0.4,2.3-0.4c0.3,0,0.7,0,1,0
		c0.5,0,0.9,0,1.4,0.1c0.4,0,0.6,0.4,0.6,0.7c0,0.3-0.3,0.6-0.7,0.6c-0.5-0.1-1-0.1-1.4-0.1c-0.3,0-0.5,0-0.8,0
		c-0.7,0.1-1.4,0.2-2.1,0.4c-0.7,0.2-1.3,0.4-1.9,0.8c-0.6,0.3-1.2,0.7-1.7,1.1c-0.5,0.4-1,0.9-1.5,1.4c-0.4,0.5-0.8,1.1-1.2,1.7
		C95.5,107.1,95.2,107.3,95,107.3"/>
	<path fill="#512B8B" d="M100,133.9c-0.4,0-0.7-0.3-0.7-0.7c0-1.6-0.2-2.7-0.8-3.7c0.5-0.2,0.9-0.3,1.3-0.4c0.5,0.9,0.7,1.9,0.8,3.3
		l0,0.2h9.4l0-0.2c0.1-3,1.1-4,3.1-6.3c1-1.1,2.3-2.6,4-4.9c0.9-1.2,1.6-2.6,2.1-4.1c0.5-1.5,0.7-3,0.7-4.6c0-3.9-1.5-7.6-4.3-10.4
		c-1.4-1.4-3-2.5-4.8-3.2c-1.8-0.7-3.7-1.1-5.6-1.1c-2,0-3.8,0.4-5.6,1.1c-1.8,0.7-3.4,1.8-4.8,3.2c-1.4,1.4-2.4,3-3.2,4.7
		c-0.2,0.6-0.4,1.1-0.6,1.6l-1.4,0c0.2-0.8,0.4-1.5,0.7-2.1c0.8-2,2-3.7,3.5-5.2c1.5-1.5,3.3-2.7,5.2-3.5c2-0.8,4-1.2,6.1-1.2
		c2.1,0,4.2,0.4,6.1,1.2c2,0.8,3.7,2,5.2,3.5c3,3,4.7,7.1,4.7,11.4c0,1.7-0.3,3.4-0.8,5c-0.5,1.6-1.3,3.1-2.3,4.5
		c-1.7,2.3-3,3.7-4.1,4.9c-2,2.2-2.8,3.1-2.8,6.3c0,0.4-0.3,0.7-0.7,0.7L100,133.9L100,133.9z"/>
	<path fill="#512B8B" d="M103.5,129.7c-0.4,0-0.7-0.3-0.7-0.7c0-3.5-0.1-5.8-0.4-7.8l0.4-4.6c0.3,0.9,0.5,1.8,0.7,2.6
		c0.6,2.8,0.7,5.8,0.7,9.7C104.2,129.4,103.9,129.7,103.5,129.7"/>
	<path fill="#512B8B" d="M107.1,129.7c-0.4,0-0.7-0.3-0.7-0.7c0-3.9,0.1-6.9,0.7-9.7c0.4-2.1,1.1-4.1,2.1-6.2l0.3-0.6l-0.6,0.3
		c-0.6,0.2-1,0.4-1.4,0.4c-0.5,0-1-0.2-1.5-0.6l-0.7-0.6l-0.7,0.6c-0.5,0.4-1,0.6-1.5,0.6l0.1-1.4c0.2,0,0.4-0.1,0.5-0.2l1.1-0.9
		l0.3-0.1l0.2,0l0.2,0.1l1.2,0.9c0.2,0.2,0.4,0.2,0.7,0.2c0.5,0,1-0.3,1.5-0.5c0.6-0.3,1.1-0.5,1.7-0.8l0.3,0c0.1,0,0.2,0,0.3,0.1
		l0.2,0.2v0l0.1,0.2l0,0.3c0,0.1,0,0.1-0.1,0.2c-1.7,3-2.6,5.5-3.2,8.2c-0.5,2.7-0.6,5.6-0.6,9.5
		C107.7,129.4,107.4,129.7,107.1,129.7"/>
</g>
</svg>
