<?xml version="1.0" encoding="utf-8"?>
<!-- Generator: Adobe Illustrator 16.0.3, SVG Export Plug-In . SVG Version: 6.00 Build 0)  -->
<!DOCTYPE svg PUBLIC "-//W3C//DTD SVG 1.1//EN" "http://www.w3.org/Graphics/SVG/1.1/DTD/svg11.dtd">
<svg version="1.1" id="Layer_1" xmlns="http://www.w3.org/2000/svg" xmlns:xlink="http://www.w3.org/1999/xlink" x="0px" y="0px"
	 width="165px" height="165px" viewBox="0 0 165 165" enable-background="new 0 0 165 165" xml:space="preserve">
<g>
	<g>
		
			<rect x="28.38" y="96.378" fill="none" stroke="#522E8C" stroke-width="2" stroke-miterlimit="10" width="83.014" height="57.133"/>
	</g>
	<g>
		<polygon fill="none" stroke="#522E8C" stroke-width="2" stroke-miterlimit="10" points="34.301,138.852 34.301,145.369 
			105.473,145.369 105.473,134.342 86.43,112.288 59.362,134.342 46.832,129.58 		"/>
		<circle fill="none" stroke="#522E8C" stroke-width="2" stroke-miterlimit="10" cx="50.968" cy="112.413" r="7.896"/>
	</g>
	<g>
		<polyline fill="none" stroke="#522E8C" stroke-width="2" stroke-miterlimit="10" points="77.118,95.672 77.118,68.011 
			160.132,68.011 160.132,125.144 111.394,125.144 		"/>
	</g>
	<g>
		<polyline fill="none" stroke="#522E8C" stroke-width="2" stroke-miterlimit="10" points="111.394,117.003 154.21,117.003 
			154.21,105.975 135.166,83.922 111.394,103.291 		"/>
		<path fill="none" stroke="#522E8C" stroke-width="2" stroke-miterlimit="10" d="M107.601,84.046c0,4.361-3.537,7.896-7.895,7.896
			c-4.36,0-7.896-3.535-7.896-7.896c0-4.357,3.536-7.893,7.896-7.893C104.063,76.153,107.601,79.688,107.601,84.046z"/>
	</g>
	<g>
		<polyline fill="none" stroke="#522E8C" stroke-width="2" stroke-miterlimit="10" points="28.379,112.613 5.679,112.613 
			5.679,55.481 88.694,55.481 88.694,68.013 		"/>
	</g>
	<g>
		<polyline fill="none" stroke="#522E8C" stroke-width="2" stroke-miterlimit="10" points="77.123,86.902 63.729,71.392 
			36.663,93.445 24.132,88.685 11.602,97.955 11.602,104.472 28.379,104.472 		"/>
		<circle fill="none" stroke="#522E8C" stroke-width="2" stroke-miterlimit="10" cx="28.268" cy="71.516" r="7.896"/>
	</g>
	<g>
		<polyline fill="none" stroke="#522E8C" stroke-width="2" stroke-miterlimit="10" points="41.522,55.479 41.522,23.657 
			124.537,23.657 124.537,68.012 		"/>
	</g>
	<g>
		<polyline fill="none" stroke="#522E8C" stroke-width="2" stroke-miterlimit="10" points="118.614,61.621 99.57,39.567 
			80.038,55.481 		"/>
		<circle fill="none" stroke="#522E8C" stroke-width="2" stroke-miterlimit="10" cx="64.11" cy="39.691" r="7.896"/>
	</g>
</g>
</svg>
