<?xml version="1.0" encoding="utf-8"?>
<!-- Generator: Adobe Illustrator 16.0.3, SVG Export Plug-In . SVG Version: 6.00 Build 0)  -->
<!DOCTYPE svg PUBLIC "-//W3C//DTD SVG 1.1//EN" "http://www.w3.org/Graphics/SVG/1.1/DTD/svg11.dtd">
<svg version="1.1" id="Layer_1" xmlns="http://www.w3.org/2000/svg" xmlns:xlink="http://www.w3.org/1999/xlink" x="0px" y="0px"
	 width="165px" height="165px" viewBox="0 0 165 165" enable-background="new 0 0 165 165" xml:space="preserve">
<g>
	<line fill="none" stroke="#522E8C" stroke-width="2" stroke-miterlimit="10" x1="1.811" y1="152.533" x2="163.189" y2="152.533"/>
	<g>
		<g>
			<line fill="none" stroke="#522E8C" stroke-width="2" stroke-miterlimit="10" x1="29.708" y1="71.937" x2="29.708" y2="151.687"/>
			
				<line fill="none" stroke="#522E8C" stroke-width="2" stroke-miterlimit="10" x1="135.213" y1="70.004" x2="135.213" y2="151.687"/>
			<polygon fill="none" stroke="#522E8C" stroke-width="2" stroke-miterlimit="10" points="120.023,34.317 82.498,34.317 
				44.979,34.317 18.392,71.937 63.096,71.937 82.498,51.846 101.906,71.937 146.611,71.937 			"/>
			<path fill="none" stroke="#522E8C" stroke-width="2" stroke-miterlimit="10" d="M92.254,82.775c0,5.384-4.369,9.75-9.756,9.75
				c-5.379,0-9.744-4.366-9.744-9.75c0-5.383,4.365-9.748,9.744-9.748C87.885,73.028,92.254,77.393,92.254,82.775z"/>
			<path fill="none" stroke="#522E8C" stroke-width="2" stroke-miterlimit="10" d="M98.553,152.533v-27.911
				c0-8.425-6.838-15.266-15.266-15.266c-8.429,0-15.261,6.841-15.261,15.266v27.911"/>
			
				<rect x="107.904" y="87.112" fill="none" stroke="#522E8C" stroke-width="2" stroke-miterlimit="10" width="13.984" height="14.577"/>
			
				<rect x="43.108" y="87.112" fill="none" stroke="#522E8C" stroke-width="2" stroke-miterlimit="10" width="13.98" height="14.577"/>
			
				<rect x="108.303" y="118.231" fill="none" stroke="#522E8C" stroke-width="2" stroke-miterlimit="10" width="13.977" height="20.289"/>
			
				<rect x="43.108" y="118.231" fill="none" stroke="#522E8C" stroke-width="2" stroke-miterlimit="10" width="13.98" height="20.289"/>
		</g>
	</g>
</g>
</svg>
