<?xml version="1.0" encoding="utf-8"?>
<!-- Generator: Adobe Illustrator 16.0.3, SVG Export Plug-In . SVG Version: 6.00 Build 0)  -->
<!DOCTYPE svg PUBLIC "-//W3C//DTD SVG 1.1//EN" "http://www.w3.org/Graphics/SVG/1.1/DTD/svg11.dtd">
<svg version="1.1" id="Layer_1" xmlns="http://www.w3.org/2000/svg" xmlns:xlink="http://www.w3.org/1999/xlink" x="0px" y="0px"
	 width="45px" height="40px" viewBox="0 0 45 40" enable-background="new 0 0 45 40" xml:space="preserve">
<g>
	<polyline fill="none" stroke="#FFFFFF" stroke-miterlimit="10" points="1.162,21.229 7.651,15.509 7.651,6.031 13.745,6.031 
		13.745,10.298 22.014,2.792 33.623,12.859 	"/>
	<polyline fill="none" stroke="#FFFFFF" stroke-miterlimit="10" points="28.252,15.747 22.014,9.385 8.555,21.229 8.555,38.268 
		18.483,38.268 18.483,28.563 25.592,28.563 25.592,38.268 33.623,38.268 	"/>
	<g>
		<line fill="none" stroke="#FFFFFF" stroke-miterlimit="10" x1="32.807" y1="22.313" x2="32.807" y2="23.1"/>
		<line fill="none" stroke="#FFFFFF" stroke-miterlimit="10" x1="34.26" y1="19.015" x2="34.26" y2="23.041"/>
		<g>
			<line fill="none" stroke="#FFFFFF" stroke-miterlimit="10" x1="31.172" y1="23.1" x2="43.791" y2="23.1"/>
			<line fill="none" stroke="#FFFFFF" stroke-miterlimit="10" x1="31.213" y1="25.299" x2="43.83" y2="25.299"/>
			<line fill="none" stroke="#FFFFFF" stroke-miterlimit="10" x1="39.467" y1="20.013" x2="39.467" y2="23.078"/>
			<line fill="none" stroke="#FFFFFF" stroke-miterlimit="10" x1="37.109" y1="21.225" x2="37.109" y2="23.016"/>
			<line fill="none" stroke="#FFFFFF" stroke-miterlimit="10" x1="41.998" y1="22.313" x2="41.998" y2="23.121"/>
			<path fill="none" stroke="#FFFFFF" stroke-miterlimit="10" d="M42.773,15.887h-5.215h-0.031h-5.215
				c-0.598,0-1.082,0.484-1.082,1.082v4.344v3.705v1.09c0,1.496,1.217,2.611,2.709,2.709c1.441,0.094,1.832,0.701,1.863,1.789
				c0.047,1.637-0.006,3.277-0.09,4.371c-0.092,1.158,0.646,2.104,1.811,2.104c0.006,0,0.014,0,0.018-0.002
				c0.008,0.002,0.014,0.002,0.021,0.002c1.162,0,1.902-0.945,1.811-2.104c-0.084-1.094-0.137-2.734-0.09-4.371
				c0.029-1.088,0.422-1.695,1.861-1.789c1.496-0.098,2.711-1.213,2.711-2.709v-1.09v-3.705v-4.344
				C43.855,16.371,43.369,15.887,42.773,15.887z"/>
		</g>
	</g>
</g>
</svg>
