<?xml version="1.0" encoding="utf-8"?>
<!-- Generator: Adobe Illustrator 16.0.3, SVG Export Plug-In . SVG Version: 6.00 Build 0)  -->
<!DOCTYPE svg PUBLIC "-//W3C//DTD SVG 1.1//EN" "http://www.w3.org/Graphics/SVG/1.1/DTD/svg11.dtd">
<svg version="1.1" id="Layer_1" xmlns="http://www.w3.org/2000/svg" xmlns:xlink="http://www.w3.org/1999/xlink" x="0px" y="0px"
	 width="30px" height="28px" viewBox="0 0 30 28" enable-background="new 0 0 30 28" xml:space="preserve">
<g>
	<path fill="none" stroke="#512E8B" stroke-width="0.6626" stroke-miterlimit="10" d="M16.248,3.12H7.227H4.935
		c0,0-2.565,5.182-2.981,7.049c-0.22,0.984-0.112,2.845,2.447,3.207c2.559,0.361,3.245-1.31,3.245-1.31L8.73,3.211"/>
	<path fill="none" stroke="#512E8B" stroke-width="0.6626" stroke-miterlimit="10" d="M7.646,12.066c0,0,0.726,1.276,2.629,1.31
		c1.903,0.033,2.432-1.31,2.432-1.31l0.521-8.946"/>
	<path fill="none" stroke="#512E8B" stroke-width="0.6626" stroke-miterlimit="10" d="M12.794,12.066c0,0,0.205,1.276,2.108,1.31
		c1.902,0.033,2.432-1.31,2.432-1.31l-0.52-8.946"/>
	<g>
		<path fill="none" stroke="#512E8B" stroke-width="0.6626" stroke-miterlimit="10" d="M15.208,3.12h9.023h0.881
			c0,0,2.564,5.182,2.982,7.049c0.219,0.984,0.111,2.845-2.447,3.207c-2.561,0.361-3.246-1.31-3.246-1.31l-1.084-8.855"/>
		<path fill="none" stroke="#512E8B" stroke-width="0.6626" stroke-miterlimit="10" d="M22.4,12.066c0,0-0.725,1.276-2.627,1.31
			c-1.904,0.033-2.434-1.31-2.434-1.31L16.82,3.12"/>
	</g>
	<line fill="none" stroke="#512E8B" stroke-width="0.6626" stroke-miterlimit="10" x1="4.958" y1="15.172" x2="4.958" y2="25.411"/>
	
		<line fill="none" stroke="#512E8B" stroke-width="0.6626" stroke-miterlimit="10" x1="11.244" y1="15.172" x2="11.244" y2="25.411"/>
	
		<line fill="none" stroke="#512E8B" stroke-width="0.6626" stroke-miterlimit="10" x1="25.104" y1="15.172" x2="25.104" y2="25.411"/>
	
		<line fill="none" stroke="#512E8B" stroke-width="0.6626" stroke-miterlimit="10" x1="1.545" y1="25.552" x2="28.455" y2="25.552"/>
	<line fill="none" stroke="#512E8B" stroke-width="0.6626" stroke-miterlimit="10" x1="9.092" y1="18.004" x2="9.092" y2="21.515"/>
	
		<line fill="none" stroke="#512E8B" stroke-width="0.6626" stroke-miterlimit="10" x1="16.148" y1="22.401" x2="22.482" y2="16.133"/>
	
		<line fill="none" stroke="#512E8B" stroke-width="0.6626" stroke-miterlimit="10" x1="18.543" y1="23.943" x2="22.811" y2="19.809"/>
</g>
</svg>
