<?xml version="1.0" encoding="utf-8"?>
<!-- Generator: Adobe Illustrator 16.0.3, SVG Export Plug-In . SVG Version: 6.00 Build 0)  -->
<!DOCTYPE svg PUBLIC "-//W3C//DTD SVG 1.1//EN" "http://www.w3.org/Graphics/SVG/1.1/DTD/svg11.dtd">
<svg version="1.1" id="Layer_1" xmlns="http://www.w3.org/2000/svg" xmlns:xlink="http://www.w3.org/1999/xlink" x="0px" y="0px"
	 width="28px" height="28px" viewBox="0 0 28 28" enable-background="new 0 0 28 28" xml:space="preserve">
<g>
	<path fill="none" stroke="#424143" stroke-width="0.65" stroke-miterlimit="10" d="M21.38,26.363H6.619
		c-2.713,0-4.932-2.219-4.932-4.93V6.568c0-2.712,2.219-4.932,4.932-4.932H21.38c2.713,0,4.933,2.219,4.933,4.932v14.867
		C26.313,24.145,24.093,26.363,21.38,26.363z"/>
	<line fill="none" stroke="#424143" stroke-width="0.65" stroke-miterlimit="10" x1="10.634" y1="8.895" x2="1.688" y2="8.895"/>
	<line fill="none" stroke="#424143" stroke-width="0.65" stroke-miterlimit="10" x1="26.313" y1="8.895" x2="17.361" y2="8.895"/>
	<circle fill="none" stroke="#424143" stroke-width="0.65" stroke-miterlimit="10" cx="13.999" cy="13.67" r="5.914"/>
	<circle fill="none" stroke="#424143" stroke-width="0.65" stroke-miterlimit="10" cx="13.999" cy="13.67" r="2.748"/>
	<line fill="none" stroke="#424143" stroke-width="0.65" stroke-miterlimit="10" x1="5.964" y1="1.671" x2="5.964" y2="6.172"/>
	<line fill="none" stroke="#424143" stroke-width="0.65" stroke-miterlimit="10" x1="8.086" y1="1.671" x2="8.086" y2="6.172"/>
	<path fill="none" stroke="#424143" stroke-width="0.65" stroke-miterlimit="10" d="M22.706,7.163h-2.251
		c-0.452,0-0.824-0.37-0.824-0.821V4.161c0-0.45,0.372-0.821,0.824-0.821h2.251c0.451,0,0.822,0.371,0.822,0.821v2.182
		C23.528,6.794,23.157,7.163,22.706,7.163z"/>
</g>
</svg>
