<?xml version="1.0" encoding="utf-8"?>
<!-- Generator: Adobe Illustrator 16.0.3, SVG Export Plug-In . SVG Version: 6.00 Build 0)  -->
<!DOCTYPE svg PUBLIC "-//W3C//DTD SVG 1.1//EN" "http://www.w3.org/Graphics/SVG/1.1/DTD/svg11.dtd">
<svg version="1.1" id="Layer_1" xmlns="http://www.w3.org/2000/svg" xmlns:xlink="http://www.w3.org/1999/xlink" x="0px" y="0px"
	 width="30px" height="28px" viewBox="0 0 30 28" enable-background="new 0 0 30 28" xml:space="preserve">
<rect x="3.625" y="0.548" fill="none" stroke="#512B8B" stroke-width="0.75" stroke-miterlimit="10" width="23.619" height="26.903"/>
<path fill="none" stroke="#512B8B" stroke-width="0.75" stroke-miterlimit="10" d="M3.904,12.938
	c1.167-0.15,3.184,0.937,4.149,1.508c1.363,0.805,2.268,2.036,2.992,3.434c0.811,1.565,1.232,2.872,1.219,4.673
	c-0.013,1.822-0.669,2.979-1.115,4.626"/>
<path fill="none" stroke="#512B8B" stroke-width="0.75" stroke-miterlimit="10" d="M17.002,27.589
	c2.267-2.106-3.651-11.491,1.258-11.09c4.861,0.396,1.399,8.067,1.39,10.816"/>
<path fill="none" stroke="#512B8B" stroke-width="0.75" stroke-miterlimit="10" d="M27.174,11.586
	c-0.631-0.863-1.907-1.261-2.753-1.902c-1.059-0.803-1.573-1.973-1.715-3.297c-0.146-1.353-0.035-2.681,1.116-3.358
	c0.841-0.493,2.911-0.539,3.104,0.806"/>
<path fill="none" stroke="#512B8B" stroke-width="0.75" stroke-miterlimit="10" d="M21.183,0.617c0.15,1.444-1.356,3.292-1.68,4.655
	c-0.398,1.685,0.154,3.104,1.024,4.515c1.812,2.934,5.393,4.367,6.646,7.396"/>
<path fill="none" stroke="#512B8B" stroke-width="0.75" stroke-miterlimit="10" d="M17.977,0.753
	c0.096,2.567-1.474,4.948-1.113,7.387c0.312,2.112,2.013,4.111,3.806,5.417c4.098,2.985,4.694,8.792,4.694,13.623"/>
<path fill="none" stroke="#512B8B" stroke-width="0.75" stroke-miterlimit="10" d="M8.084,0.891C7.712,2.129,6.539,3.001,6.13,4.166
	C5.844,4.982,5.71,6.716,5.851,7.603c0.435,2.744,3.028,3.998,4.71,5.91c3.609,4.103,3.933,8.302,3.933,13.667"/>
<path fill="none" stroke="#512B8B" stroke-width="0.75" stroke-miterlimit="10" d="M10.732,0.617c0.614,1.077-1.71,2.72-2.131,3.772
	C8.11,5.611,8.42,6.816,8.819,8.01c1.036,3.101,2.855,4.384,5.961,5.442c2.396,0.815,5.255,1.847,6.651,3.971
	c1.268,1.929,1.942,5.594,1.569,7.971c-0.106,0.68-0.43,1.265-0.564,1.922"/>
<path fill="none" stroke="#512B8B" stroke-width="0.75" stroke-miterlimit="10" d="M14.494,9.79
	c-1.418-0.537-2.763-1.712-2.72-3.281c0.029-1.062,0.534-3.717,2.098-3.399c2.271,0.461,1.474,5.45,0.604,6.558
	c-1.281-0.048-1.336-3.182-1.027-4.089c0.62-1.826,2.152,2.185,0.836,2.567"/>
<path fill="none" stroke="#512B8B" stroke-width="0.75" stroke-miterlimit="10" d="M7.805,24.781
	c-1.708,0.324-2.329-3.878-2.09-5.032c0.41-1.981,3.17-2.192,4.044-0.392c0.529,1.091,1.247,5.732-1.037,5.618
	c-1.994-0.098-3.001-4.685-0.714-4.507c1.972,0.153,1.984,4.002,0.005,2.875"/>
</svg>
