<?xml version="1.0" encoding="utf-8"?>
<!-- Generator: Adobe Illustrator 16.0.3, SVG Export Plug-In . SVG Version: 6.00 Build 0)  -->
<!DOCTYPE svg PUBLIC "-//W3C//DTD SVG 1.1//EN" "http://www.w3.org/Graphics/SVG/1.1/DTD/svg11.dtd">
<svg version="1.1" id="Layer_1" xmlns="http://www.w3.org/2000/svg" xmlns:xlink="http://www.w3.org/1999/xlink" x="0px" y="0px"
	 width="27px" height="27px" viewBox="0 0 27 27" enable-background="new 0 0 27 27" xml:space="preserve">
<g>
	<path fill="none" stroke="#FFFFFF" stroke-width="0.6038" stroke-miterlimit="10" d="M20.871,6.187
		c0,0.188-0.154,0.344-0.346,0.344L4.84,6.538C4.65,6.537,4.497,6.383,4.497,6.193L4.495,1.958c0-0.19,0.154-0.344,0.344-0.345
		l15.687-0.005c0.189,0,0.344,0.154,0.344,0.344L20.871,6.187z"/>
	<path fill="none" stroke="#FFFFFF" stroke-width="0.6038" stroke-miterlimit="10" d="M4.474,5.238l-1.186,0
		c-0.19,0-0.346-0.153-0.344-0.345L2.942,3.259c0-0.191,0.154-0.345,0.344-0.344l1.185-0.001"/>
	<polygon fill="none" stroke="#FFFFFF" stroke-width="0.6038" stroke-miterlimit="10" points="13.717,17.897 14.519,17.094 
		14.519,16.063 12.74,16.064 12.627,16.063 10.848,16.064 10.848,17.096 11.652,17.897 10.792,18.76 10.795,25.354 12.629,25.354 
		12.745,25.354 14.58,25.354 14.576,18.758 	"/>
	
		<line fill="none" stroke="#FFFFFF" stroke-width="0.6038" stroke-miterlimit="10" x1="10.736" y1="23.635" x2="14.225" y2="23.633"/>
	<polyline fill="none" stroke="#FFFFFF" stroke-width="0.6038" stroke-miterlimit="10" points="20.921,4.102 22.672,3.966 
		22.674,8.209 12.627,14.287 12.627,16.063 	"/>
</g>
</svg>
