<?xml version="1.0" encoding="utf-8"?>
<!-- Generator: Adobe Illustrator 16.0.3, SVG Export Plug-In . SVG Version: 6.00 Build 0)  -->
<!DOCTYPE svg PUBLIC "-//W3C//DTD SVG 1.1//EN" "http://www.w3.org/Graphics/SVG/1.1/DTD/svg11.dtd">
<svg version="1.1" id="Layer_1" xmlns="http://www.w3.org/2000/svg" xmlns:xlink="http://www.w3.org/1999/xlink" x="0px" y="0px"
	 width="28px" height="28px" viewBox="0 0 28 28" enable-background="new 0 0 28 28" xml:space="preserve">
<g>
	<g>
		<path fill="none" stroke="#424143" stroke-width="0.65" stroke-miterlimit="10" d="M26.697,6.816
			c-0.929,0.411-1.919,0.689-2.963,0.813c1.064-0.636,1.882-1.65,2.266-2.852c-1,0.593-2.1,1.021-3.277,1.253
			c-0.942-1.003-2.283-1.631-3.769-1.631c-2.848,0-5.16,2.309-5.16,5.16c0.001,0.403,0.046,0.798,0.134,1.174
			c-4.289-0.214-8.09-2.27-10.636-5.392c-0.443,0.76-0.698,1.649-0.698,2.595c0,1.791,0.912,3.37,2.297,4.294
			c-0.847-0.029-1.642-0.261-2.336-0.646v0.063c0,2.502,1.779,4.587,4.136,5.063c-0.432,0.111-0.888,0.178-1.36,0.178
			c-0.333,0-0.654-0.032-0.969-0.094c0.656,2.048,2.562,3.545,4.82,3.58c-1.765,1.386-3.992,2.207-6.41,2.207
			c-0.416,0-0.827-0.026-1.23-0.069c2.284,1.464,4.996,2.321,7.908,2.321c9.494,0,14.683-7.861,14.683-14.682l-0.015-0.667
			C25.128,8.76,26.007,7.852,26.697,6.816z"/>
	</g>
</g>
</svg>
