<?xml version="1.0" encoding="utf-8"?>
<!-- Generator: Adobe Illustrator 16.0.3, SVG Export Plug-In . SVG Version: 6.00 Build 0)  -->
<!DOCTYPE svg PUBLIC "-//W3C//DTD SVG 1.1//EN" "http://www.w3.org/Graphics/SVG/1.1/DTD/svg11.dtd">
<svg version="1.1" id="Layer_1" xmlns="http://www.w3.org/2000/svg" xmlns:xlink="http://www.w3.org/1999/xlink" x="0px" y="0px"
	 width="18px" height="18px" viewBox="0 0 18 18" enable-background="new 0 0 18 18" xml:space="preserve">
<g>
	<g>
		<path fill="none" stroke="#414042" stroke-width="0.65" stroke-miterlimit="10" d="M16.978,4.742
			c-0.579,0.257-1.198,0.431-1.851,0.508c0.665-0.398,1.175-1.031,1.416-1.782c-0.625,0.37-1.313,0.638-2.048,0.783
			c-0.589-0.627-1.426-1.019-2.354-1.019c-1.78,0-3.225,1.443-3.225,3.224C8.917,6.708,8.945,6.955,9,7.19
			C6.32,7.056,3.945,5.772,2.354,3.821C2.077,4.296,1.918,4.851,1.918,5.442c0,1.119,0.57,2.106,1.435,2.683
			c-0.529-0.018-1.026-0.163-1.46-0.404v0.04c0,1.563,1.112,2.866,2.585,3.163c-0.27,0.07-0.555,0.111-0.85,0.111
			c-0.208,0-0.409-0.02-0.606-0.059c0.41,1.281,1.601,2.215,3.012,2.238c-1.103,0.865-2.494,1.379-4.005,1.379
			c-0.26,0-0.517-0.016-0.769-0.043C2.687,15.465,4.382,16,6.201,16c5.933,0,9.175-4.912,9.175-9.174l-0.01-0.417
			C15.998,5.957,16.547,5.389,16.978,4.742z"/>
	</g>
</g>
</svg>
