<?xml version="1.0" encoding="utf-8"?>
<!-- Generator: Adobe Illustrator 16.0.3, SVG Export Plug-In . SVG Version: 6.00 Build 0)  -->
<!DOCTYPE svg PUBLIC "-//W3C//DTD SVG 1.1//EN" "http://www.w3.org/Graphics/SVG/1.1/DTD/svg11.dtd">
<svg version="1.1" id="Layer_1" xmlns="http://www.w3.org/2000/svg" xmlns:xlink="http://www.w3.org/1999/xlink" x="0px" y="0px"
	 width="30px" height="28px" viewBox="0 0 30 28" enable-background="new 0 0 30 28" xml:space="preserve">
<g>
	<path fill="none" stroke="#522E8C" stroke-width="0.644" stroke-miterlimit="10" d="M17.343,13.79c0,1.334-1.306,1.672-2.414,2.415
		c-1.249,0.836-2.133-1.11-2.415-2.415c-0.374-1.729,1.192-1.879,2.415-2.416C16.667,10.613,17.343,11.79,17.343,13.79z"/>
	<path fill="none" stroke="#522E8C" stroke-width="0.644" stroke-miterlimit="10" d="M21.244,13.79c0,3.49-2.881,5.699-6.315,6.316
		c-3.603,0.646-5.433-2.941-6.317-6.316c-0.998-3.811,2.937-5.445,6.317-6.317C18.205,6.629,21.244,9.526,21.244,13.79z"/>
	<path fill="none" stroke="#522E8C" stroke-width="0.644" stroke-miterlimit="10" d="M20.656,21.764
		c-1.776,1.037-3.313,1.253-5.728,1.844C9.66,24.896,4.083,18.398,5.111,13.79c1.182-5.293,2.955-9.816,9.817-9.816
		c5.423,0,8.479,4.872,9.815,9.816c0.628,2.321-1.384,4.9-2.372,6.57"/>
	<path fill="none" stroke="#522E8C" stroke-width="0.644" stroke-miterlimit="10" d="M27.883,13.79
		c-0.589,3.1-1.126,6.046-2.998,8.293c-0.288,0.347-2.83-0.516-2.83-0.516s1.14,2.214,0.722,2.532
		c-2.177,1.661-4.917,2.29-7.848,2.646C6.889,27.725,1.413,20.927,1.973,13.79C2.634,5.361,7.252,1.469,14.929,0.835
		c2.47-0.204,4.794,0.694,6.762,1.901c0.256,0.156,0.386,1.238,0.386,1.238s1.006-0.261,1.309-0.001
		C26.141,6.35,28.798,8.983,27.883,13.79z"/>
</g>
</svg>
